<svg xmlns="http://www.w3.org/2000/svg" width="96.84" height="111" viewBox="0 0 96.84 111">
  <g id="Binary_Tools" data-name="Binary Tools" transform="translate(-102.292 -1368.204)">
    <ellipse id="Ellipse_1" data-name="Ellipse 1" cx="48.42" cy="49.575" rx="48.42" ry="49.575" transform="translate(102.292 1368.204)" fill="#f2f2f2"/>
    <g id="Group_1259" data-name="Group 1259" transform="translate(-599.208 509.342)">
      <g id="Binary_to_Text" data-name="Binary to Text" transform="translate(717.5 884.5)">
        <g id="Group_1259-2" data-name="Group 1259" transform="translate(2.02 1.53)">
          <rect id="Rectangle_32" data-name="Rectangle 32" width="73" height="82" rx="5.25" transform="translate(-0.02 -0.168)" fill="#d13f3f" stroke="#020202" stroke-miterlimit="10" stroke-width="3"/>
        </g>
        <g id="Group_1261" data-name="Group 1261">
          <g id="Group_1260" data-name="Group 1260">
            <path id="Path_624" data-name="Path 624" d="M788.038,969.4H724.2a6.273,6.273,0,0,1-6.2-6.33V891.33a6.273,6.273,0,0,1,6.2-6.33h63.838a6.273,6.273,0,0,1,6.2,6.33v71.739A6.273,6.273,0,0,1,788.038,969.4ZM724.2,887.813a3.486,3.486,0,0,0-3.444,3.517v71.739a3.486,3.486,0,0,0,3.444,3.517h63.838a3.486,3.486,0,0,0,3.445-3.517V891.33a3.486,3.486,0,0,0-3.445-3.517Z" transform="translate(-717.518 -884.518)" fill="#020202"/>
            <path id="Path_625" data-name="Path 625" d="M788.038,969.862H724.163a6.74,6.74,0,0,1-6.663-6.8V891.3a6.74,6.74,0,0,1,6.663-6.8h63.875a6.74,6.74,0,0,1,6.663,6.8v71.76A6.74,6.74,0,0,1,788.038,969.862Zm-63.875-84.424a5.811,5.811,0,0,0-5.744,5.863v71.76a5.811,5.811,0,0,0,5.744,5.863h63.875a5.811,5.811,0,0,0,5.744-5.863V891.3a5.811,5.811,0,0,0-5.744-5.863Zm63.875,81.61H724.163a3.951,3.951,0,0,1-3.906-3.987V891.3a3.951,3.951,0,0,1,3.906-3.987h63.875a3.951,3.951,0,0,1,3.906,3.987v71.76A3.951,3.951,0,0,1,788.038,967.048Zm-63.875-78.8a3.022,3.022,0,0,0-2.987,3.049v71.76a3.022,3.022,0,0,0,2.987,3.049h63.875a3.022,3.022,0,0,0,2.987-3.049V891.3a3.022,3.022,0,0,0-2.987-3.049Z" transform="translate(-717.5 -884.5)" fill="#231f20"/>
          </g>
        </g>
        <g id="Group_1266" data-name="Group 1266" transform="translate(37.487 60.191)">
          <g id="Group_1265" data-name="Group 1265">
            <g id="Group_1262" data-name="Group 1262" transform="translate(3.939)">
              <path id="Path_626" data-name="Path 626" d="M762.631,949.366" transform="translate(-762.631 -949.366)"/>
            </g>
            <g id="Group_1263" data-name="Group 1263" transform="translate(9.192 13.131)">
              <path id="Path_627" data-name="Path 627" d="M768.085,963" transform="translate(-768.085 -963)"/>
            </g>
            <g id="Group_1264" data-name="Group 1264" transform="translate(0 5.252)">
              <path id="Path_628" data-name="Path 628" d="M758.541,954.819" transform="translate(-758.541 -954.819)"/>
            </g>
          </g>
        </g>
      </g>
      <g id="Group_1268" data-name="Group 1268" transform="translate(726.799 899.25)">
        <g id="Group_1267" data-name="Group 1267">
          <path id="Path_629" data-name="Path 629" d="M763.841,956.862a6.554,6.554,0,0,1-6.547-6.547v-3.055a6.547,6.547,0,0,1,13.093,0v3.055a6.554,6.554,0,0,1-6.547,6.547Zm0-11.783a2.184,2.184,0,0,0-2.183,2.182v3.055a2.182,2.182,0,1,0,4.364,0v-3.055a2.184,2.184,0,0,0-2.181-2.182Zm16.475,11.783a6.554,6.554,0,0,1-6.546-6.547v-3.055a6.546,6.546,0,1,1,13.093,0v3.055a6.554,6.554,0,0,1-6.547,6.547Zm0-11.783a2.185,2.185,0,0,0-2.182,2.182v3.055a2.182,2.182,0,1,0,4.365,0v-3.055a2.185,2.185,0,0,0-2.182-2.182Zm-32.841,11.783a6.553,6.553,0,0,1-6.546-6.547v-3.055a6.546,6.546,0,1,1,13.092,0v3.055a6.554,6.554,0,0,1-6.546,6.547Zm0-11.783a2.184,2.184,0,0,0-2.182,2.182v3.055a2.182,2.182,0,1,0,4.364,0v-3.055a2.184,2.184,0,0,0-2.182-2.182Zm-9.928-4.146h-4.364v15.6h4.364Zm16.475-23.785a6.554,6.554,0,0,1-6.546-6.546v-3.055a6.546,6.546,0,1,1,13.093,0V910.6a6.554,6.554,0,0,1-6.547,6.546Zm0-11.784a2.185,2.185,0,0,0-2.181,2.182V910.6a2.182,2.182,0,0,0,4.364,0v-3.055a2.186,2.186,0,0,0-2.183-2.182Zm-9.928-4.145h-4.365v15.711h4.365Zm-8.729,0H731v15.711h4.364Zm35.024,15.929a6.554,6.554,0,0,1-6.547-6.546v-3.055a6.546,6.546,0,1,1,13.092,0V910.6a6.553,6.553,0,0,1-6.545,6.546Zm0-11.784a2.185,2.185,0,0,0-2.182,2.182V910.6a2.182,2.182,0,0,0,4.364,0v-3.055a2.185,2.185,0,0,0-2.181-2.182Zm14.292-4.145h-4.364v15.6h4.364Zm-47.133,35.9A6.554,6.554,0,0,1,731,930.568v-3.055a6.547,6.547,0,0,1,13.093,0v3.055a6.554,6.554,0,0,1-6.547,6.547Zm0-11.783a2.185,2.185,0,0,0-2.183,2.181v3.055a2.182,2.182,0,1,0,4.364,0v-3.055a2.184,2.184,0,0,0-2.181-2.181Zm14.293-4.146h-4.365V936.9h4.365Zm9.819,15.929a6.554,6.554,0,0,1-6.546-6.547v-3.055a6.547,6.547,0,0,1,13.093,0v3.055a6.554,6.554,0,0,1-6.547,6.547Zm0-11.783a2.185,2.185,0,0,0-2.182,2.181v3.055a2.183,2.183,0,1,0,4.365,0v-3.055a2.185,2.185,0,0,0-2.183-2.181Zm22.912-4.146h-4.364V936.9h4.364Zm-8.728,0h-4.365V936.9h4.365Zm0,0" transform="translate(-731 -901)" fill="#fff"/>
        </g>
      </g>
    </g>
  </g>
</svg>
