<svg width="36" height="36" viewBox="0 0 36 36" fill="none" xmlns="http://www.w3.org/2000/svg">
<circle cx="18" cy="18" r="17.5" fill="#E6F2FC" stroke="#0373DD"/>
<path d="M9 21.8002V16.2002C9 15.0801 9 14.5196 9.21799 14.0918C9.40973 13.7155 9.71547 13.4097 10.0918 13.218C10.5196 13 11.0801 13 12.2002 13H15.489C15.3829 13 15.3234 12.9994 15.2764 12.9941C14.6888 12.9284 14.2858 12.3691 14.4092 11.7908C14.4207 11.737 14.4434 11.6689 14.4883 11.5341L14.4902 11.5284C14.5416 11.3744 14.5672 11.2974 14.5956 11.2295C14.8859 10.5339 15.5432 10.0608 16.2949 10.0054C16.3683 10 16.449 10 16.6113 10H19.3886C19.5509 10 19.6322 10 19.7057 10.0054C20.4574 10.0608 21.114 10.5339 21.4043 11.2295C21.4326 11.2974 21.4584 11.3743 21.5098 11.5283C21.556 11.667 21.5791 11.7364 21.5908 11.7909C21.7142 12.3692 21.3118 12.9284 20.7242 12.9941C20.6772 12.9994 20.6171 13 20.5108 13H23.8002C24.9203 13 25.4796 13 25.9074 13.218C26.2837 13.4097 26.5905 13.7155 26.7822 14.0918C27 14.5192 27 15.079 27 16.1969V21.8031C27 22.921 27 23.48 26.7822 23.9074C26.5905 24.2837 26.2837 24.5905 25.9074 24.7822C25.48 25 24.921 25 23.8031 25H12.1969C11.079 25 10.5192 25 10.0918 24.7822C9.71547 24.5905 9.40973 24.2837 9.21799 23.9074C9 23.4796 9 22.9203 9 21.8002Z" fill="white"/>
<path d="M15.489 13H12.2002C11.0801 13 10.5196 13 10.0918 13.218C9.71547 13.4097 9.40973 13.7155 9.21799 14.0918C9 14.5196 9 15.0801 9 16.2002V21.8002C9 22.9203 9 23.4796 9.21799 23.9074C9.40973 24.2837 9.71547 24.5905 10.0918 24.7822C10.5192 25 11.079 25 12.1969 25H23.8031C24.921 25 25.48 25 25.9074 24.7822C26.2837 24.5905 26.5905 24.2837 26.7822 23.9074C27 23.48 27 22.921 27 21.8031V16.1969C27 15.079 27 14.5192 26.7822 14.0918C26.5905 13.7155 26.2837 13.4097 25.9074 13.218C25.4796 13 24.9203 13 23.8002 13H20.5108M15.489 13H15.5508M15.489 13C15.5015 13 15.5147 13 15.5286 13L15.5508 13M15.489 13C15.3829 13 15.3234 12.9994 15.2764 12.9941C14.6888 12.9284 14.2858 12.3691 14.4092 11.7908C14.4207 11.737 14.4434 11.6689 14.4883 11.5341L14.4902 11.5284C14.5416 11.3744 14.5672 11.2974 14.5956 11.2295C14.8859 10.5339 15.5432 10.0608 16.2949 10.0054C16.3683 10 16.449 10 16.6113 10H19.3886C19.5509 10 19.6322 10 19.7057 10.0054C20.4574 10.0608 21.114 10.5339 21.4043 11.2295C21.4326 11.2974 21.4584 11.3743 21.5098 11.5283C21.556 11.667 21.5791 11.7364 21.5908 11.7909C21.7142 12.3692 21.3118 12.9284 20.7242 12.9941C20.6772 12.9994 20.6171 13 20.5108 13M15.5508 13H20.449M20.449 13H20.5108M20.449 13L20.4712 13C20.4851 13 20.4983 13 20.5108 13M18 22C16.3431 22 15 20.6569 15 19C15 17.3431 16.3431 16 18 16C19.6569 16 21 17.3431 21 19C21 20.6569 19.6569 22 18 22Z" stroke="#0373DD" stroke-linecap="round" stroke-linejoin="round"/>
</svg>
