<svg id="compress-jpeg-to-200kb" xmlns="http://www.w3.org/2000/svg" xmlns:xlink="http://www.w3.org/1999/xlink" width="85.346" height="107.807" viewBox="0 0 85.346 107.807">
  <defs>
    <clipPath id="clip-path">
      <rect id="Rectangle_1948" data-name="Rectangle 1948" width="85.346" height="107.807" fill="none"/>
    </clipPath>
  </defs>
  <g id="Group_6601" data-name="Group 6601">
    <g id="Group_6600" data-name="Group 6600" clip-path="url(#clip-path)">
      <path id="Path_6043" data-name="Path 6043" d="M83.1,20.214H69.626a4.508,4.508,0,0,1-4.493-4.491V2.247Z" fill="#fff"/>
      <path id="Path_6044" data-name="Path 6044" d="M83.1,20.214v80.855a4.5,4.5,0,0,1-4.493,4.491H6.738a4.5,4.5,0,0,1-4.491-4.491V6.738A4.5,4.5,0,0,1,6.738,2.247h58.4V15.723a4.508,4.508,0,0,0,4.493,4.491Z" fill="#fff"/>
      <rect id="Rectangle_1945" data-name="Rectangle 1945" width="22.46" height="4.491" transform="translate(13.476 13.476)"/>
      <rect id="Rectangle_1946" data-name="Rectangle 1946" width="4.491" height="4.491" transform="translate(13.476 22.461)"/>
      <rect id="Rectangle_1947" data-name="Rectangle 1947" width="4.491" height="4.491" transform="translate(22.46 22.461)"/>
      <path id="Path_6045" data-name="Path 6045" d="M84.689,18.626,66.72.659A2.237,2.237,0,0,0,65.132,0H6.738A6.738,6.738,0,0,0,0,6.738v94.331a6.738,6.738,0,0,0,6.738,6.738h71.87a6.738,6.738,0,0,0,6.738-6.738V20.214a2.241,2.241,0,0,0-.657-1.588m-3.834,82.443a2.247,2.247,0,0,1-2.247,2.247H6.738a2.247,2.247,0,0,1-2.247-2.247V6.738A2.247,2.247,0,0,1,6.738,4.491h56.15V15.723a6.738,6.738,0,0,0,6.737,6.737h4.492V17.967H69.626a2.246,2.246,0,0,1-2.247-2.244V7.669L80.855,21.144Z"/>
      <path id="Path_6046" data-name="Path 6046" d="M34.111,64.427v2.084H25.767V54h8.344Z" fill="#f2f2f2"/>
      <path id="Path_6047" data-name="Path 6047" d="M50.714,36.512V63.221a2.978,2.978,0,0,1-2.969,2.969H32.908V58.77H29.939V54.318l-4.451-4.451,4.451-4.452-4.451-4.451,4.451-4.452V33.545H47.745a2.978,2.978,0,0,1,2.969,2.967" fill="#10c7ff"/>
      <path id="Path_6048" data-name="Path 6048" d="M29.94,33.545v2.967l-4.452,4.452,4.452,4.451-4.452,4.452,4.452,4.451V58.77H26.973v7.42h-8.9A2.977,2.977,0,0,1,15.1,63.221V36.512a2.976,2.976,0,0,1,2.968-2.967Z" fill="#10c7ff"/>
      <path id="Path_6049" data-name="Path 6049" d="M47.746,32.06H29.94a1.484,1.484,0,0,0-1.483,1.485V35.9l-4.018,4.016a1.484,1.484,0,0,0,0,2.1l3.4,3.4-3.4,3.4a1.483,1.483,0,0,0,0,2.1l4.018,4.018v2.354H26.972a1.484,1.484,0,0,0-1.484,1.483v8.9a1.485,1.485,0,0,0,1.484,1.484h5.936a1.485,1.485,0,0,0,1.483-1.484v-8.9a1.483,1.483,0,0,0-1.483-1.483H31.424v-2.97a1.476,1.476,0,0,0-.436-1.049l-3.4-3.4,3.4-3.4a1.481,1.481,0,0,0,0-2.1h0l-3.4-3.4,3.4-3.4a1.476,1.476,0,0,0,.436-1.049V35.029H47.746a1.485,1.485,0,0,1,1.484,1.483V63.221a1.484,1.484,0,0,1-1.484,1.484h-8.9v2.968h8.9A4.451,4.451,0,0,0,52.2,63.221V36.512a4.451,4.451,0,0,0-4.452-4.452M31.424,66.19H28.457V60.254h2.967Z"/>
      <path id="Path_6050" data-name="Path 6050" d="M16.585,63.221V36.512a1.485,1.485,0,0,1,1.484-1.483H24V32.06H18.069a4.451,4.451,0,0,0-4.451,4.452V63.221a4.451,4.451,0,0,0,4.452,4.452h2.967V64.705H18.069a1.484,1.484,0,0,1-1.484-1.484"/>
      <path id="Path_6051" data-name="Path 6051" d="M68.041,97.474H16.183a5,5,0,0,1-5-5V80.9a5,5,0,0,1,5-5H68.041a5,5,0,0,1,5,5V92.474a5,5,0,0,1-5,5"/>
    </g>
  </g>
  <text id="_200kb" data-name="200kb" transform="translate(14.812 93.209)" fill="#fff" font-size="18" font-family="SegoeUI-Bold, Segoe UI" font-weight="700"><tspan x="0" y="0">100kb</tspan></text>
</svg>
