<svg id="Group_7319" data-name="Group 7319" xmlns="http://www.w3.org/2000/svg" width="85.346" height="107.807" viewBox="0 0 85.346 107.807">
  <g id="Group_7318" data-name="Group 7318">
    <g id="Group_7320" data-name="Group 7320">
      <path id="Path_8548" data-name="Path 8548" d="M83.1,20.214H69.626a4.508,4.508,0,0,1-4.493-4.491V2.247Z" fill="#fff"/>
      <path id="Path_8549" data-name="Path 8549" d="M83.1,20.214v80.855a4.5,4.5,0,0,1-4.493,4.491H6.738a4.5,4.5,0,0,1-4.491-4.491V6.738A4.5,4.5,0,0,1,6.738,2.247h58.4V15.723a4.508,4.508,0,0,0,4.493,4.491Z" fill="#fff"/>
      <rect id="Rectangle_2161" data-name="Rectangle 2161" width="22.46" height="4.491" transform="translate(13.476 13.476)"/>
      <rect id="Rectangle_2162" data-name="Rectangle 2162" width="4.491" height="4.491" transform="translate(13.476 22.461)"/>
      <rect id="Rectangle_2163" data-name="Rectangle 2163" width="4.491" height="4.491" transform="translate(22.46 22.461)"/>
      <path id="Path_8550" data-name="Path 8550" d="M84.689,18.626,66.72.659A2.237,2.237,0,0,0,65.132,0H6.738A6.738,6.738,0,0,0,0,6.738v94.331a6.738,6.738,0,0,0,6.738,6.738h71.87a6.738,6.738,0,0,0,6.738-6.738V20.214a2.241,2.241,0,0,0-.657-1.588m-3.834,82.443a2.247,2.247,0,0,1-2.247,2.247H6.738a2.247,2.247,0,0,1-2.247-2.247V6.738A2.247,2.247,0,0,1,6.738,4.491h56.15V15.723a6.738,6.738,0,0,0,6.738,6.737h4.491V17.967H69.626a2.246,2.246,0,0,1-2.247-2.244V7.669L80.855,21.144Z"/>
      <path id="Path_8551" data-name="Path 8551" d="M34.111,64.427v2.084H25.767V54h8.344Z" fill="#f2f2f2"/>
      <path id="Path_8552" data-name="Path 8552" d="M50.714,36.512V63.221a2.978,2.978,0,0,1-2.969,2.969H32.908V58.77H29.939V54.318l-4.451-4.451,4.451-4.452-4.451-4.451,4.451-4.452V33.545H47.745a2.978,2.978,0,0,1,2.969,2.967" fill="#36d28f"/>
      <path id="Path_8553" data-name="Path 8553" d="M50.714,36.512V63.221a2.978,2.978,0,0,1-2.969,2.969H32.908V58.77H29.939V54.318l-4.451-4.451,4.451-4.452-4.451-4.451,4.451-4.452V33.545H47.745A2.978,2.978,0,0,1,50.714,36.512Z" fill="none" stroke="#020202" stroke-miterlimit="10" stroke-width="3"/>
      <path id="Path_8554" data-name="Path 8554" d="M29.94,33.545v2.967l-4.452,4.452,4.452,4.451-4.452,4.452,4.452,4.451V58.77H26.973v7.42h-8.9A2.977,2.977,0,0,1,15.1,63.221V36.512a2.976,2.976,0,0,1,2.968-2.967Z" fill="#36d28f"/>
      <path id="Path_8555" data-name="Path 8555" d="M29.94,33.545v2.967l-4.452,4.452,4.452,4.451-4.452,4.452,4.452,4.451V58.77H26.973v7.42h-8.9A2.977,2.977,0,0,1,15.1,63.221V36.512a2.976,2.976,0,0,1,2.968-2.967Z" fill="none" stroke="#020202" stroke-miterlimit="10" stroke-width="3"/>
      <path id="Path_8556" data-name="Path 8556" d="M47.746,32.06H29.94a1.484,1.484,0,0,0-1.483,1.485V35.9l-4.018,4.016a1.484,1.484,0,0,0,0,2.1l3.4,3.4-3.4,3.4a1.483,1.483,0,0,0,0,2.1l4.018,4.018v2.354H26.972a1.484,1.484,0,0,0-1.484,1.483v8.9a1.485,1.485,0,0,0,1.484,1.484h5.936a1.485,1.485,0,0,0,1.483-1.484v-8.9a1.483,1.483,0,0,0-1.483-1.483H31.424V54.318a1.476,1.476,0,0,0-.436-1.049l-3.4-3.4,3.4-3.4a1.481,1.481,0,0,0,0-2.1l0,0-3.4-3.4,3.4-3.4a1.476,1.476,0,0,0,.436-1.049V35.029H47.746a1.485,1.485,0,0,1,1.484,1.483V63.221a1.484,1.484,0,0,1-1.484,1.484h-8.9v2.968h8.9A4.451,4.451,0,0,0,52.2,63.221V36.512a4.451,4.451,0,0,0-4.451-4.452M31.424,66.19H28.457V60.254h2.967Z"/>
      <path id="Path_8557" data-name="Path 8557" d="M16.585,63.221V36.512a1.485,1.485,0,0,1,1.484-1.483H24V32.06H18.069a4.451,4.451,0,0,0-4.451,4.452V63.221a4.451,4.451,0,0,0,4.451,4.452h2.968V64.705H18.069a1.484,1.484,0,0,1-1.484-1.484"/>
      <path id="Path_8558" data-name="Path 8558" d="M68.041,97.474H16.183a5,5,0,0,1-5-5V80.9a5,5,0,0,1,5-5H68.041a5,5,0,0,1,5,5V92.474a5,5,0,0,1-5,5"/>
    </g>
  </g>
  <text id="JPEG" transform="translate(18.633 93.023)" fill="#fff" font-size="18" font-family="Stem-Bold, Stem ☞" font-weight="700"><tspan x="0" y="0">JPEG</tspan></text>
</svg>
