<svg id="Layer_1" data-name="Layer 1" xmlns="http://www.w3.org/2000/svg" viewBox="0 0 409.6 409.6"><defs><style>.cls-1{fill:#e9eef0;}.cls-2{fill:#495d85;}</style></defs><title>crop image</title><path class="cls-1" d="M401.6,24V385.6a16,16,0,0,1-16,16H24a16,16,0,0,1-16-16V24A16,16,0,0,1,24,8H385.6a16,16,0,0,1,16,16Zm0,0"/><path class="cls-2" d="M308.8,276.8v-176h-176V48h-32v52.8H48v32h52.8v176h176v52.8h32V308.8h52.8v-32Zm-32,0h-144v-144h144Zm0,0"/><path d="M40,260.8a8,8,0,1,0,8,8,8,8,0,0,0-8-8Zm0,0"/><path d="M385.6,0H24A24,24,0,0,0,0,24V385.6a24,24,0,0,0,24,24H385.6a24,24,0,0,0,24-24V24a24,24,0,0,0-24-24Zm8,385.6a8,8,0,0,1-8,8H24a8,8,0,0,1-8-8V24a8,8,0,0,1,8-8H385.6a8,8,0,0,1,8,8Zm0,0"/><path d="M361.6,268.8H316.8V104.12l34.46-34.46A8,8,0,1,0,340,58.34L305.48,92.8H140.8V48a8,8,0,0,0-8-8h-32a8,8,0,0,0-8,8V92.8H48a8,8,0,0,0-8,8v32a8,8,0,0,0,8,8H92.8v168a8,8,0,0,0,8,8h168v44.8a8,8,0,0,0,8,8h32a8,8,0,0,0,8-8V316.8h44.8a8,8,0,0,0,8-8v-32a8,8,0,0,0-8-8ZM92.8,124.8H56v-16H92.8Zm48,16H257.48L140.8,257.48Zm128,160h-160V56h16V276.8a8,8,0,0,0,8,8h136Zm0-32H152.12L268.8,152.12Zm4.68-144H140.8v-16H289.48ZM300.8,353.6h-16V136.12l16-16Zm52.8-52.8H316.8v-16h36.8Zm0,0"/><path d="M40,292.8a8,8,0,0,0-8,8v68.8a8,8,0,0,0,16,0V300.8a8,8,0,0,0-8-8Zm0,0"/></svg>