<svg id="germany_" data-name="germany " xmlns="http://www.w3.org/2000/svg" width="18" height="18" viewBox="0 0 18 18">
  <circle id="Ellipse_165" data-name="Ellipse 165" cx="9" cy="9" r="9" transform="translate(0.001 0.001)" fill="#fff"/>
  <path id="Path_2154" data-name="Path 2154" d="M319.763,157.874h-5.545a24.886,24.886,0,0,1,0,5.966h5.552a9.008,9.008,0,0,0-.012-5.966Z" transform="translate(-302.278 -151.875)" fill="#db2727"/>
  <path id="Path_2155" data-name="Path 2155" d="M260.237,6.934h5.545l0-.008A9.006,9.006,0,0,0,258.105.972C259.483,1.727,259.885,4.12,260.237,6.934Z" transform="translate(-248.297 -0.935)" fill="#151515"/>
  <path id="Path_2156" data-name="Path 2156" d="M258.109,320.866a9.006,9.006,0,0,0,7.681-5.972l.009-.026h-5.553C259.9,317.7,259.492,320.107,258.109,320.866Z" transform="translate(-248.301 -302.903)" fill="#f8d12e"/>
  <path id="Path_2157" data-name="Path 2157" d="M0,160.874a8.983,8.983,0,0,0,.5,2.965H12.408a24.885,24.885,0,0,0,0-5.966H.514A8.981,8.981,0,0,0,0,160.874Z" transform="translate(0 -151.874)" fill="#db2727"/>
  <path id="Path_2158" data-name="Path 2158" d="M13.533,5.991l0,.008H25.42C25.067,3.185,24.2.792,22.824.037,22.558.013,22.288,0,22.016,0A9,9,0,0,0,13.533,5.991Z" transform="translate(-13.016)" fill="#151515"/>
  <path id="Path_2159" data-name="Path 2159" d="M25.125,314.868H13.219l.009.026a9,9,0,0,0,8.489,6.009c.273,0,.542-.013.808-.037C23.908,320.107,24.776,317.7,25.125,314.868Z" transform="translate(-12.717 -302.903)" fill="#f8d12e"/>
</svg>
