<svg xmlns="http://www.w3.org/2000/svg" xmlns:xlink="http://www.w3.org/1999/xlink" width="95.385" height="100.188" viewBox="0 0 95.385 100.188">
  <defs>
    <clipPath id="clip-path">
      <rect id="Rectangle_22" data-name="Rectangle 22" width="80" height="80"/>
    </clipPath>
  </defs>
  <g id="Domain_Tools" data-name="Domain Tools" transform="translate(-4904 -1862)">
    <ellipse id="Ellipse_1" data-name="Ellipse 1" cx="47" cy="48.121" rx="47" ry="48.121" transform="translate(4904 1862)" fill="#f2f2f2"/>
    <g id="Group_1182" data-name="Group 1182" transform="translate(4918.585 1881.788)">
      <g id="Group_1181" data-name="Group 1181" transform="translate(0.8 0.4)">
        <g id="Group_1180" data-name="Group 1180" transform="translate(0)" clip-path="url(#clip-path)">
          <path id="Path_508" data-name="Path 508" d="M80.117,39.961A40.059,40.059,0,1,1,40.059,0,40.012,40.012,0,0,1,80.117,39.961Zm0,0" transform="translate(-0.156 -0.078)" fill="#231f20"/>
        </g>
      </g>
      <path id="Path_509" data-name="Path 509" d="M94.071,58.266A35.478,35.478,0,0,1,58.545,93.694a35.846,35.846,0,0,1-7.7-.838A35.429,35.429,0,0,1,52.019,23.4a35.974,35.974,0,0,1,6.527-.6A35.536,35.536,0,0,1,94.071,58.266Zm0,0" transform="translate(-17.824 -17.985)" fill="#fbbd5e"/>
      <path id="Path_510" data-name="Path 510" d="M45.508,90.019l5.479,5.416A35.36,35.36,0,0,1,52.17,26l-5.992,5.221-4.77,7.657L38.274,51.249v15.8l2.148,12.7Zm0,0" transform="translate(-17.744 -20.554)" fill="#fb5968"/>
      <path id="Path_511" data-name="Path 511" d="M38.318,76.334a56.992,56.992,0,0,0-7.973,3.722q.909,1.169,1.935,2.28a54.74,54.74,0,0,1,6.957-3.215c.43,1.189.9,2.338,1.427,3.469a32.963,32.963,0,0,0,6.155,9.276,32.453,32.453,0,0,0,3.928,1.111,36.367,36.367,0,0,0,3.869.624,1.348,1.348,0,0,1-.2-.078c-5.159-2.027-9.517-7.736-12.311-15.395a51.333,51.333,0,0,1,6.409-1.6,52.985,52.985,0,0,1,8.442-.877V93.775c.489.019.977.039,1.466.039s.977-.019,1.466-.039V75.652a54.12,54.12,0,0,1,14.871,2.475,40.044,40.044,0,0,1-2.736,5.983C69.271,89,65.89,92.255,62.256,93.6a35,35,0,0,0,7.816-1.754,30.694,30.694,0,0,0,4.592-6.275,44.613,44.613,0,0,0,2.951-6.47,51.168,51.168,0,0,1,6.957,3.235c.664-.74,1.309-1.481,1.935-2.28a57.1,57.1,0,0,0-5.9-2.9c-.684-.292-1.387-.565-2.071-.818a61.973,61.973,0,0,0,2.5-16.506H93.912c.02-.487.039-.974.039-1.462s-.02-.974-.039-1.462H81.035a62.184,62.184,0,0,0-2.482-16.428q1.026-.38,2.052-.818a58.176,58.176,0,0,0,5.96-2.923c-.606-.779-1.251-1.539-1.915-2.28a54.241,54.241,0,0,1-7,3.254,43.84,43.84,0,0,0-2.97-6.567,30.694,30.694,0,0,0-4.592-6.275,35.6,35.6,0,0,0-7.816-1.754c3.635,1.345,7.015,4.6,9.771,9.49a39.362,39.362,0,0,1,2.755,6.08,54.539,54.539,0,0,1-14.91,2.494V22.939c-.489-.019-.977-.039-1.466-.039s-.977.019-1.466.039v18.22a54.476,54.476,0,0,1-10.24-1.247c-1.563-.351-3.127-.76-4.651-1.247a40.547,40.547,0,0,1,1.563-3.742c2.873-6.06,6.761-10.231,10.982-11.809-.9.1-1.8.234-2.677.39a37.258,37.258,0,0,0-5.12,1.345A32.263,32.263,0,0,0,40.9,33.618c-.606,1.286-1.172,2.631-1.681,4.053a55.486,55.486,0,0,1-7-3.254q-1,1.111-1.935,2.28A56.632,56.632,0,0,0,38.3,40.458a62.681,62.681,0,0,0-2.482,16.428H22.939c-.02.487-.039.974-.039,1.462s.02.974.039,1.462H35.817a62.92,62.92,0,0,0,2.5,16.525ZM59.911,44.1a57.052,57.052,0,0,0,15.828-2.65,59.527,59.527,0,0,1,2.306,15.434H59.911V44.1Zm0,15.707H78.045A59.3,59.3,0,0,1,75.72,75.32,56.759,56.759,0,0,0,59.93,72.69V59.809ZM41.171,41.452c1.622.507,3.263.955,4.924,1.325A58.107,58.107,0,0,0,56.98,44.1V56.886H38.846a59.327,59.327,0,0,1,2.325-15.434ZM56.98,59.809V72.69A57.1,57.1,0,0,0,41.19,75.32a59.6,59.6,0,0,1-2.345-15.512H56.98Zm0,0" transform="translate(-17.744 -18.065)" fill="#231f20"/>
      <path id="Path_512" data-name="Path 512" d="M99.57,167.1H43.5a4.316,4.316,0,0,1-4.3-4.336V146.936a4.316,4.316,0,0,1,4.3-4.336H99.55a4.316,4.316,0,0,1,4.3,4.336v15.847A4.3,4.3,0,0,1,99.57,167.1Zm0,0" transform="translate(-30.831 -114.576)" fill="#231f20"/>
      <path id="Path_513" data-name="Path 513" d="M57.014,177.377A1.025,1.025,0,0,1,56,176.352V160.525a1.025,1.025,0,0,1,1.014-1.025h55.995a1.025,1.025,0,0,1,1.014,1.025v15.827a1.025,1.025,0,0,1-1.014,1.025Zm0,0" transform="translate(-44.32 -128.146)" fill="#fff"/>
      <path id="Path_514" data-name="Path 514" d="M88.079,184.467c-.2.611-.986.887-1.774.887-.769,0-1.6-.3-1.735-.887l-.887-4.08-.887,4.08c-.138.611-.966.887-1.734.887-.788,0-1.577-.3-1.774-.887l-3.449-10.486a.708.708,0,0,1-.039-.217c0-.591.966-1.064,1.735-1.064a.813.813,0,0,1,.867.493l2.621,8.83,1.36-5.815c.1-.473.71-.71,1.3-.71s1.183.237,1.281.71l1.36,5.815,2.621-8.83c.1-.355.453-.493.867-.493.769,0,1.734.473,1.734,1.064a.609.609,0,0,1-.039.217Zm0,0" transform="translate(-60.357 -138.744)"/>
      <path id="Path_515" data-name="Path 515" d="M177.26,184.387c-.2.611-.986.887-1.774.887-.769,0-1.6-.3-1.734-.887l-.887-4.08-.887,4.08c-.138.611-.966.887-1.734.887-.788,0-1.577-.3-1.774-.887l-3.43-10.506a.709.709,0,0,1-.039-.217c0-.591.966-1.064,1.734-1.064a.813.813,0,0,1,.867.493l2.621,8.83,1.36-5.815c.1-.473.71-.71,1.3-.71s1.183.237,1.281.71l1.36,5.815,2.621-8.83c.1-.355.453-.493.867-.493.769,0,1.734.473,1.734,1.064a.609.609,0,0,1-.039.217Zm0,0" transform="translate(-132.143 -138.663)"/>
      <path id="Path_516" data-name="Path 516" d="M266.26,184.387a1.774,1.774,0,0,1-1.774.887c-.769,0-1.6-.3-1.734-.887l-.887-4.08-.887,4.08c-.138.611-.966.887-1.734.887-.788,0-1.577-.3-1.774-.887l-3.43-10.506a.708.708,0,0,1-.039-.217c0-.591.966-1.064,1.734-1.064a.813.813,0,0,1,.867.493l2.621,8.83,1.36-5.815c.1-.473.71-.71,1.3-.71s1.183.237,1.281.71l1.36,5.815,2.621-8.83c.1-.355.453-.493.867-.493.769,0,1.734.473,1.734,1.064a.608.608,0,0,1-.039.217Zm0,0" transform="translate(-203.767 -138.663)"/>
    </g>
  </g>
</svg>
