<svg xmlns="http://www.w3.org/2000/svg" width="18" height="18" viewBox="0 0 18 18">
  <g id="netherlands" transform="translate(-0.001)">
    <circle id="Ellipse_716" data-name="Ellipse 716" cx="9" cy="9" r="9" transform="translate(0.002 0.001)" fill="#fff"/>
    <path id="Path_10234" data-name="Path 10234" d="M319.764,157.877h-5.545a24.887,24.887,0,0,1,0,5.966h5.553a9.007,9.007,0,0,0-.012-5.966Z" transform="translate(-302.277 -151.877)" fill="#efefef"/>
    <path id="Path_10235" data-name="Path 10235" d="M260.237,6.938h5.545l0-.008A9.006,9.006,0,0,0,258.105.976C259.483,1.731,259.885,4.124,260.237,6.938Z" transform="translate(-248.296 -0.939)" fill="#e73b36"/>
    <path id="Path_10236" data-name="Path 10236" d="M258.109,320.87a9.006,9.006,0,0,0,7.681-5.972l.009-.026h-5.553C259.9,317.7,259.492,320.111,258.109,320.87Z" transform="translate(-248.3 -302.906)" fill="#3757a6"/>
    <path id="Path_10237" data-name="Path 10237" d="M0,160.878a8.985,8.985,0,0,0,.5,2.965H12.41a24.886,24.886,0,0,0,0-5.966H.515A8.981,8.981,0,0,0,0,160.878Z" transform="translate(0 -151.877)" fill="#efefef"/>
    <path id="Path_10238" data-name="Path 10238" d="M13.532,5.992l0,.008h11.89C25.067,3.185,24.2.792,22.823.037,22.557.013,22.287,0,22.015,0A9,9,0,0,0,13.532,5.992Z" transform="translate(-13.014)" fill="#e73b36"/>
    <path id="Path_10239" data-name="Path 10239" d="M25.126,314.872H13.22l.009.026a9,9,0,0,0,8.489,6.009c.273,0,.542-.013.808-.037C23.909,320.111,24.777,317.7,25.126,314.872Z" transform="translate(-12.717 -302.906)" fill="#3757a6"/>
  </g>
</svg>
