<svg xmlns="http://www.w3.org/2000/svg" width="18" height="18" viewBox="0 0 18 18">
  <g id="united-states" transform="translate(0.02 0.013)">
    <ellipse id="Ellipse_162" data-name="Ellipse 162" cx="8.851" cy="8.851" rx="8.851" ry="8.851" transform="translate(0.067 0.198)" fill="#f0f0f0"/>
    <g id="Group_1166" data-name="Group 1166" transform="translate(0.281 1.889)">
      <path id="Path_2136" data-name="Path 2136" d="M244.87,191.5H254a8.761,8.761,0,0,0-.3-2.283H244.87Z" transform="translate(-236.304 -184.481)" fill="#d80027"/>
      <path id="Path_2137" data-name="Path 2137" d="M244.87,57.935h7.848a8.8,8.8,0,0,0-2.019-2.283H244.87Z" transform="translate(-236.304 -55.652)" fill="#d80027"/>
      <path id="Path_2138" data-name="Path 2138" d="M102.34,458.251a9.374,9.374,0,0,0,5.7-1.9H96.644A9.374,9.374,0,0,0,102.34,458.251Z" transform="translate(-93.642 -442.153)" fill="#d80027"/>
      <path id="Path_2139" data-name="Path 2139" d="M9.831,325.065H25.2a8.572,8.572,0,0,0,1.012-2.283H8.819A8.572,8.572,0,0,0,9.831,325.065Z" transform="translate(-8.819 -313.309)" fill="#d80027"/>
    </g>
    <path id="Path_2140" data-name="Path 2140" d="M4.054,1.367h.8l-.742.539.283.872-.742-.539-.742.539.245-.753a8.8,8.8,0,0,0-1.7,1.892h.256l-.472.343q-.11.184-.212.374l.225.694L.833,5.022Q.676,5.354.547,5.7L.8,6.466h.917L.97,7l.283.872L.512,7.338l-.444.323A8.836,8.836,0,0,0,0,8.752H8.752V0A8.71,8.71,0,0,0,4.054,1.367Zm.339,6.51-.742-.539-.742.539L3.193,7l-.742-.539h.917l.283-.872.283.872h.917L4.11,7ZM4.11,4.455l.283.872-.742-.539-.742.539.283-.872-.742-.539h.917l.283-.872.283.872h.917ZM7.532,7.877,6.79,7.338l-.742.539L6.332,7,5.59,6.466h.917l.283-.872.283.872h.917L7.249,7ZM7.249,4.455l.283.872L6.79,4.788l-.742.539.283-.872L5.59,3.916h.917l.283-.872.283.872h.917Zm0-2.549.283.872L6.79,2.239l-.742.539.283-.872L5.59,1.367h.917L6.79.495l.283.872h.917Z" transform="translate(-0.02 -0.013)" fill="#0052b4"/>
  </g>
</svg>
