<svg xmlns="http://www.w3.org/2000/svg" xmlns:xlink="http://www.w3.org/1999/xlink" width="18" height="18" viewBox="0 0 18 18">
  <defs>
    <clipPath id="clip-path">
      <path id="Path_4440" data-name="Path 4440" d="M9,0A9,9,0,1,1,0,9,9,9,0,0,1,9,0Z" transform="translate(3689 1407)" fill="#fff"/>
    </clipPath>
  </defs>
  <g id="espanol" transform="translate(-3689 -1407)" clip-path="url(#clip-path)">
    <g id="spain_4_" data-name="spain (4)" transform="translate(3687.412 1405.941)">
      <path id="Path_4207" data-name="Path 4207" d="M1.6,0h26.01a1.606,1.606,0,0,1,1.6,1.6V18.72a1.61,1.61,0,0,1-1.6,1.6H1.6a1.6,1.6,0,0,1-1.6-1.6V1.6A1.61,1.61,0,0,1,1.6,0Z" transform="translate(0 0)" fill="#c52026"/>
      <path id="Path_4208" data-name="Path 4208" d="M0,19.816H29.224V8.72H0Z" transform="translate(0 -4.104)" fill="#ffc60b"/>
      <path id="Path_4209" data-name="Path 4209" d="M9.95,14.559h.99V14.3H9.95Z" transform="translate(-4.682 -6.729)" fill="#c8b32f"/>
      <path id="Path_4210" data-name="Path 4210" d="M9.95,14.559h.99V14.3H9.95Z" transform="translate(-4.682 -6.729)" fill="none" stroke="#000" stroke-width="0.033"/>
      <path id="Path_4211" data-name="Path 4211" d="M10.15,15.016a.02.02,0,0,1,.016-.005h.741a.032.032,0,0,1,.021.005.06.06,0,0,1,.005-.116c-.005,0-.016.005-.021.005h-.741a.032.032,0,0,1-.021-.005h.005a.062.062,0,0,1,.042.058.076.076,0,0,1-.048.058Z" transform="translate(-4.776 -7.012)" fill="#c8b32f"/>
      <path id="Path_4212" data-name="Path 4212" d="M10.15,15.016a.02.02,0,0,1,.016-.005h.741a.032.032,0,0,1,.021.005.06.06,0,0,1,.005-.116c-.005,0-.016.005-.021.005h-.741a.032.032,0,0,1-.021-.005h.005a.062.062,0,0,1,.042.058.076.076,0,0,1-.048.058Z" transform="translate(-4.776 -7.012)" fill="none" stroke="#000" stroke-linejoin="round" stroke-width="0.033"/>
      <path id="Path_4213" data-name="Path 4213" d="M10.138,15.109h.741a.038.038,0,1,1,0,.074h-.741a.043.043,0,0,1-.048-.037.053.053,0,0,1,.048-.037Z" transform="translate(-4.748 -7.11)" fill="#c8b32f"/>
      <path id="Path_4214" data-name="Path 4214" d="M10.138,15.109h.741a.038.038,0,1,1,0,.074h-.741a.043.043,0,0,1-.048-.037.053.053,0,0,1,.048-.037Z" transform="translate(-4.748 -7.11)" fill="none" stroke="#000" stroke-width="0.033"/>
      <path id="Path_4215" data-name="Path 4215" d="M10.138,14.79h.741c.026,0,.048.016.048.032s-.021.032-.048.032h-.741c-.026,0-.048-.016-.048-.032a.053.053,0,0,1,.048-.032Z" transform="translate(-4.748 -6.96)" fill="#c8b32f"/>
      <path id="Path_4216" data-name="Path 4216" d="M10.138,14.79h.741c.026,0,.048.016.048.032s-.021.032-.048.032h-.741c-.026,0-.048-.016-.048-.032a.053.053,0,0,1,.048-.032Z" transform="translate(-4.748 -6.96)" fill="none" stroke="#000" stroke-width="0.033"/>
      <path id="Path_4217" data-name="Path 4217" d="M10.962,22.969a.426.426,0,0,1-.175-.037.4.4,0,0,0-.169-.037.426.426,0,0,0-.175.037.407.407,0,0,1-.175.037.355.355,0,0,1-.175-.042.4.4,0,0,0-.169-.037.382.382,0,0,0-.169.037.423.423,0,0,1-.175.037v.106a.407.407,0,0,0,.175-.037A.4.4,0,0,1,9.924,23a.42.42,0,0,1,.169.037.407.407,0,0,0,.175.037.426.426,0,0,0,.175-.037A.407.407,0,0,1,10.618,23a.382.382,0,0,1,.169.037.424.424,0,0,0,.175.037Z" transform="translate(-4.508 -10.772)" fill="#265eac"/>
      <path id="Path_4218" data-name="Path 4218" d="M10.962,22.969a.426.426,0,0,1-.175-.037.4.4,0,0,0-.169-.037.426.426,0,0,0-.175.037.407.407,0,0,1-.175.037.355.355,0,0,1-.175-.042.4.4,0,0,0-.169-.037.382.382,0,0,0-.169.037.423.423,0,0,1-.175.037v.106a.407.407,0,0,0,.175-.037A.4.4,0,0,1,9.924,23a.42.42,0,0,1,.169.037.407.407,0,0,0,.175.037.426.426,0,0,0,.175-.037A.407.407,0,0,1,10.618,23a.382.382,0,0,1,.169.037.424.424,0,0,0,.175.037Z" transform="translate(-4.508 -10.772)" fill="none" stroke="#000" stroke-width="0.033"/>
      <path id="Path_4219" data-name="Path 4219" d="M10.962,23.174a.426.426,0,0,1-.175-.037.4.4,0,0,0-.169-.037.426.426,0,0,0-.175.037.407.407,0,0,1-.175.037.426.426,0,0,1-.175-.037.4.4,0,0,0-.169-.037.382.382,0,0,0-.169.037.424.424,0,0,1-.175.037v.106a.407.407,0,0,0,.175-.037.4.4,0,0,1,.169-.037.42.42,0,0,1,.169.037.4.4,0,0,0,.175.042.426.426,0,0,0,.175-.037.407.407,0,0,1,.175-.037.382.382,0,0,1,.169.037.424.424,0,0,0,.175.037Z" transform="translate(-4.508 -10.871)" fill="#cdcccb"/>
      <path id="Path_4220" data-name="Path 4220" d="M10.962,23.174a.426.426,0,0,1-.175-.037.4.4,0,0,0-.169-.037.426.426,0,0,0-.175.037.407.407,0,0,1-.175.037.426.426,0,0,1-.175-.037.4.4,0,0,0-.169-.037.382.382,0,0,0-.169.037.424.424,0,0,1-.175.037v.106a.407.407,0,0,0,.175-.037.4.4,0,0,1,.169-.037.42.42,0,0,1,.169.037.4.4,0,0,0,.175.042.426.426,0,0,0,.175-.037.407.407,0,0,1,.175-.037.382.382,0,0,1,.169.037.424.424,0,0,0,.175.037Z" transform="translate(-4.508 -10.871)" fill="none" stroke="#000" stroke-width="0.033"/>
      <path id="Path_4221" data-name="Path 4221" d="M10.962,23.369a.426.426,0,0,1-.175-.037.4.4,0,0,0-.169-.037.426.426,0,0,0-.175.037.407.407,0,0,1-.175.037.355.355,0,0,1-.175-.042.4.4,0,0,0-.169-.037.382.382,0,0,0-.169.037.424.424,0,0,1-.175.037v.106a.407.407,0,0,0,.175-.037.4.4,0,0,1,.169-.037.348.348,0,0,1,.169.037.407.407,0,0,0,.175.037.426.426,0,0,0,.175-.037.407.407,0,0,1,.175-.037.382.382,0,0,1,.169.037.424.424,0,0,0,.175.037Z" transform="translate(-4.508 -10.96)" fill="#265eac"/>
      <path id="Path_4222" data-name="Path 4222" d="M10.962,23.369a.426.426,0,0,1-.175-.037.4.4,0,0,0-.169-.037.426.426,0,0,0-.175.037.407.407,0,0,1-.175.037.355.355,0,0,1-.175-.042.4.4,0,0,0-.169-.037.382.382,0,0,0-.169.037.424.424,0,0,1-.175.037v.106a.407.407,0,0,0,.175-.037.4.4,0,0,1,.169-.037.348.348,0,0,1,.169.037.407.407,0,0,0,.175.037.426.426,0,0,0,.175-.037.407.407,0,0,1,.175-.037.382.382,0,0,1,.169.037.424.424,0,0,0,.175.037Z" transform="translate(-4.508 -10.96)" fill="none" stroke="#000" stroke-width="0.033"/>
      <path id="Path_4223" data-name="Path 4223" d="M10.962,23.68a.426.426,0,0,1-.175-.037.4.4,0,0,0-.169-.037.426.426,0,0,0-.175.037.407.407,0,0,1-.175.037.355.355,0,0,1-.175-.042.4.4,0,0,0-.169-.037.322.322,0,0,0-.169.037.424.424,0,0,1-.175.037v-.106a.341.341,0,0,0,.175-.042.4.4,0,0,1,.169-.037.348.348,0,0,1,.169.037.407.407,0,0,0,.175.037.426.426,0,0,0,.175-.037.407.407,0,0,1,.175-.037.382.382,0,0,1,.169.037.424.424,0,0,0,.175.037v.116Z" transform="translate(-4.508 -11.054)" fill="#cdcccb"/>
      <path id="Path_4224" data-name="Path 4224" d="M10.962,23.68a.426.426,0,0,1-.175-.037.4.4,0,0,0-.169-.037.426.426,0,0,0-.175.037.407.407,0,0,1-.175.037.355.355,0,0,1-.175-.042.4.4,0,0,0-.169-.037.322.322,0,0,0-.169.037.424.424,0,0,1-.175.037v-.106a.341.341,0,0,0,.175-.042.4.4,0,0,1,.169-.037.348.348,0,0,1,.169.037.407.407,0,0,0,.175.037.426.426,0,0,0,.175-.037.407.407,0,0,1,.175-.037.382.382,0,0,1,.169.037.424.424,0,0,0,.175.037v.116Z" transform="translate(-4.508 -11.054)" fill="none" stroke="#000" stroke-width="0.033"/>
      <path id="Path_4225" data-name="Path 4225" d="M10.962,23.885a.426.426,0,0,1-.175-.037.4.4,0,0,0-.169-.037.426.426,0,0,0-.175.037.407.407,0,0,1-.175.037.426.426,0,0,1-.175-.037.4.4,0,0,0-.169-.037.382.382,0,0,0-.169.037.424.424,0,0,1-.175.037v-.106a.341.341,0,0,0,.175-.042.4.4,0,0,1,.169-.037.42.42,0,0,1,.169.037.4.4,0,0,0,.175.042.426.426,0,0,0,.175-.037.407.407,0,0,1,.175-.037.382.382,0,0,1,.169.037.355.355,0,0,0,.175.037Z" transform="translate(-4.508 -11.153)" fill="#265eac"/>
      <path id="Path_4226" data-name="Path 4226" d="M10.962,23.885a.426.426,0,0,1-.175-.037.4.4,0,0,0-.169-.037.426.426,0,0,0-.175.037.407.407,0,0,1-.175.037.426.426,0,0,1-.175-.037.4.4,0,0,0-.169-.037.382.382,0,0,0-.169.037.424.424,0,0,1-.175.037v-.106a.341.341,0,0,0,.175-.042.4.4,0,0,1,.169-.037.42.42,0,0,1,.169.037.4.4,0,0,0,.175.042.426.426,0,0,0,.175-.037.407.407,0,0,1,.175-.037.382.382,0,0,1,.169.037.355.355,0,0,0,.175.037Z" transform="translate(-4.508 -11.153)" fill="none" stroke="#000" stroke-width="0.033"/>
      <path id="Path_4227" data-name="Path 4227" d="M10.042,22.21c0,.011.005.016.005.026a.123.123,0,0,1-.127.116h1.016a.123.123,0,0,1-.127-.116.048.048,0,0,1,.005-.026Z" transform="translate(-4.668 -10.452)" fill="#c8b32f"/>
      <path id="Path_4228" data-name="Path 4228" d="M10.042,22.21c0,.011.005.016.005.026a.123.123,0,0,1-.127.116h1.016a.123.123,0,0,1-.127-.116.048.048,0,0,1,.005-.026Z" transform="translate(-4.668 -10.452)" fill="none" stroke="#000" stroke-linejoin="round" stroke-width="0.033"/>
      <path id="Path_4229" data-name="Path 4229" d="M10.138,22.08h.741c.026,0,.048.016.048.032a.043.043,0,0,1-.048.037h-.741a.043.043,0,0,1-.048-.037.053.053,0,0,1,.048-.032Z" transform="translate(-4.748 -10.391)" fill="#c8b32f"/>
      <path id="Path_4230" data-name="Path 4230" d="M10.138,22.08h.741c.026,0,.048.016.048.032a.043.043,0,0,1-.048.037h-.741a.043.043,0,0,1-.048-.037.053.053,0,0,1,.048-.032Z" transform="translate(-4.748 -10.391)" fill="none" stroke="#000" stroke-width="0.033"/>
      <path id="Path_4231" data-name="Path 4231" d="M9.93,22.739h1.011V22.48H9.93Z" transform="translate(-4.673 -10.579)" fill="#c8b32f"/>
      <path id="Path_4232" data-name="Path 4232" d="M9.93,22.739h1.011V22.48H9.93Z" transform="translate(-4.673 -10.579)" fill="none" stroke="#000" stroke-width="0.033"/>
      <path id="Path_4233" data-name="Path 4233" d="M9.638,20.35c-.1.058-.169.116-.159.148s.037.048.085.079c.074.053.116.138.079.18a.261.261,0,0,0-.005-.408Z" transform="translate(-4.46 -9.576)" fill="#ac1f23"/>
      <path id="Path_4234" data-name="Path 4234" d="M9.638,20.35c-.1.058-.169.116-.159.148s.037.048.085.079c.074.053.116.138.079.18a.261.261,0,0,0-.005-.408Z" transform="translate(-4.46 -9.576)" fill="none" stroke="#000" stroke-width="0.033"/>
      <path id="Path_4235" data-name="Path 4235" d="M10.2,18.856h.72V15.32H10.2Z" transform="translate(-4.8 -7.209)" fill="#cdcccb"/>
      <path id="Path_4236" data-name="Path 4236" d="M10.8,15.325v3.526m-.085-3.526v3.526m-.514.005h.72V15.32H10.2Z" transform="translate(-4.8 -7.209)" fill="none" stroke="#000" stroke-width="0.033"/>
      <path id="Path_4237" data-name="Path 4237" d="M11.2,17.348a2.356,2.356,0,0,0-.731-.122,2.029,2.029,0,0,0-.344.032c-.429.074-.762.244-.736.386v.011s-.164-.365-.164-.376c-.026-.154.334-.349.815-.429a2,2,0,0,1,.424-.032,2.21,2.21,0,0,1,.736.1v.429Z" transform="translate(-4.342 -7.914)" fill="#ac1f23"/>
      <path id="Path_4238" data-name="Path 4238" d="M11.2,17.348a2.356,2.356,0,0,0-.731-.122,2.029,2.029,0,0,0-.344.032c-.429.074-.762.244-.736.386v.011s-.164-.365-.164-.376c-.026-.154.334-.349.815-.429a2,2,0,0,1,.424-.032,2.21,2.21,0,0,1,.736.1v.429Z" transform="translate(-4.342 -7.914)" fill="none" stroke="#000" stroke-linejoin="round" stroke-width="0.033"/>
      <path id="Path_4239" data-name="Path 4239" d="M9.884,18.34c-.2-.016-.339-.069-.355-.154-.011-.069.053-.143.175-.206.058.005.116.011.18.011Z" transform="translate(-4.484 -8.461)" fill="#ac1f23"/>
      <path id="Path_4240" data-name="Path 4240" d="M9.884,18.34c-.2-.016-.339-.069-.355-.154-.011-.069.053-.143.175-.206.058.005.116.011.18.011Z" transform="translate(-4.484 -8.461)" fill="none" stroke="#000" stroke-width="0.033"/>
      <path id="Path_4241" data-name="Path 4241" d="M11.57,18.15a.561.561,0,0,1,.265.09l.005.005c.021.048-.09.143-.27.254Z" transform="translate(-5.445 -8.541)" fill="#ac1f23"/>
      <path id="Path_4242" data-name="Path 4242" d="M11.57,18.15a.561.561,0,0,1,.265.09l.005.005c.021.048-.09.143-.27.254Z" transform="translate(-5.445 -8.541)" fill="none" stroke="#000" stroke-width="0.033"/>
      <path id="Path_4243" data-name="Path 4243" d="M9.349,19.188c-.021-.058.175-.169.45-.27.127-.048.228-.09.36-.148.381-.169.667-.365.63-.434l-.005-.005a2.431,2.431,0,0,1,.053.365c.032.064-.222.254-.577.424a4.976,4.976,0,0,1-.466.18c-.2.069-.4.2-.381.249Z" transform="translate(-4.399 -8.626)" fill="#ac1f23"/>
      <path id="Path_4244" data-name="Path 4244" d="M9.349,19.188c-.021-.058.175-.169.45-.27.127-.048.228-.09.36-.148.381-.169.667-.365.63-.434l-.005-.005a2.431,2.431,0,0,1,.053.365c.032.064-.222.254-.577.424a4.976,4.976,0,0,1-.466.18c-.2.069-.4.2-.381.249Z" transform="translate(-4.399 -8.626)" fill="none" stroke="#000" stroke-linejoin="round" stroke-width="0.033"/>
      <path id="Path_4245" data-name="Path 4245" d="M9.935,17.209l.032-.011c.026-.011.053.005.069.037a.053.053,0,0,1-.021.069l-.032.016Zm.053.132c.09-.032.148-.069.116-.138-.016-.042-.064-.053-.132-.026l-.122.042.106.27a.258.258,0,0,1,.037-.016.1.1,0,0,1,.037-.011Z" transform="translate(-4.635 -8.077)" fill="#c8b32f"/>
      <path id="Path_4246" data-name="Path 4246" d="M10.574,17.04c-.011.005-.026.005-.037.011a.09.09,0,0,1-.037.005l.064.281.2-.037c0-.005-.005-.011-.005-.016v-.016a1.152,1.152,0,0,1-.116.032Z" transform="translate(-4.941 -8.019)" fill="#c8b32f"/>
      <path id="Path_4247" data-name="Path 4247" d="M11.2,17.236c.037-.1.079-.2.127-.3-.011,0-.016.005-.021.005h-.026a1.473,1.473,0,0,1-.085.212,1.84,1.84,0,0,1-.106-.2c-.016,0-.032.005-.048.005H10.99c.058.09.111.185.164.275.005,0,.016-.005.021-.005s.011.005.021.005Z" transform="translate(-5.172 -7.972)" fill="#c8b32f"/>
      <path id="Path_4248" data-name="Path 4248" d="M11.957,17.032a.23.23,0,0,1,.021-.037.125.125,0,0,0-.079-.026c-.079-.011-.127.026-.132.074-.011.1.148.09.138.159a.053.053,0,0,1-.064.037c-.037-.005-.064-.021-.069-.053h-.011a.365.365,0,0,1-.021.053.2.2,0,0,0,.085.026c.079.011.143-.021.148-.079.011-.1-.148-.1-.143-.159,0-.021.021-.037.064-.037a.073.073,0,0,1,.058.042Z" transform="translate(-5.525 -7.984)" fill="#c8b32f"/>
      <path id="Path_4249" data-name="Path 4249" d="M22.46,14.559h.99V14.3h-.99Z" transform="translate(-10.569 -6.729)" fill="#c8b32f"/>
      <path id="Path_4250" data-name="Path 4250" d="M22.46,14.559h.99V14.3h-.99Z" transform="translate(-10.569 -6.729)" fill="none" stroke="#000" stroke-width="0.033"/>
      <path id="Path_4251" data-name="Path 4251" d="M23.434,15.016a.02.02,0,0,0-.016-.005h-.741a.032.032,0,0,0-.021.005.06.06,0,0,0-.005-.116c.005,0,.016.005.021.005h.741a.032.032,0,0,0,.021-.005h-.005a.062.062,0,0,0-.042.058.076.076,0,0,0,.048.058Z" transform="translate(-10.659 -7.012)" fill="#c8b32f"/>
      <path id="Path_4252" data-name="Path 4252" d="M23.434,15.016a.02.02,0,0,0-.016-.005h-.741a.032.032,0,0,0-.021.005.06.06,0,0,0-.005-.116c.005,0,.016.005.021.005h.741a.032.032,0,0,0,.021-.005h-.005a.062.062,0,0,0-.042.058.076.076,0,0,0,.048.058Z" transform="translate(-10.659 -7.012)" fill="none" stroke="#000" stroke-linejoin="round" stroke-width="0.033"/>
      <path id="Path_4253" data-name="Path 4253" d="M22.658,15.109H23.4a.038.038,0,1,1,0,.074h-.741a.038.038,0,1,1,0-.074Z" transform="translate(-10.64 -7.11)" fill="#c8b32f"/>
      <path id="Path_4254" data-name="Path 4254" d="M22.658,15.109H23.4a.038.038,0,1,1,0,.074h-.741a.038.038,0,1,1,0-.074Z" transform="translate(-10.64 -7.11)" fill="none" stroke="#000" stroke-width="0.033"/>
      <path id="Path_4255" data-name="Path 4255" d="M22.658,14.79H23.4c.026,0,.048.016.048.032s-.021.032-.048.032h-.741c-.026,0-.048-.016-.048-.032S22.631,14.79,22.658,14.79Z" transform="translate(-10.64 -6.96)" fill="#c8b32f"/>
      <path id="Path_4256" data-name="Path 4256" d="M22.658,14.79H23.4c.026,0,.048.016.048.032s-.021.032-.048.032h-.741c-.026,0-.048-.016-.048-.032S22.631,14.79,22.658,14.79Z" transform="translate(-10.64 -6.96)" fill="none" stroke="#000" stroke-width="0.033"/>
      <path id="Path_4257" data-name="Path 4257" d="M22.09,22.969a.426.426,0,0,0,.175-.037.4.4,0,0,1,.169-.037.426.426,0,0,1,.175.037.407.407,0,0,0,.175.037.355.355,0,0,0,.175-.042.4.4,0,0,1,.169-.037.382.382,0,0,1,.169.037.407.407,0,0,0,.175.037v.106a.407.407,0,0,1-.175-.037A.4.4,0,0,0,23.128,23a.42.42,0,0,0-.169.037.407.407,0,0,1-.175.037.426.426,0,0,1-.175-.037A.407.407,0,0,0,22.434,23a.382.382,0,0,0-.169.037.407.407,0,0,1-.175.037Z" transform="translate(-10.395 -10.772)" fill="#265eac"/>
      <path id="Path_4258" data-name="Path 4258" d="M22.09,22.969a.426.426,0,0,0,.175-.037.4.4,0,0,1,.169-.037.426.426,0,0,1,.175.037.407.407,0,0,0,.175.037.355.355,0,0,0,.175-.042.4.4,0,0,1,.169-.037.382.382,0,0,1,.169.037.407.407,0,0,0,.175.037v.106a.407.407,0,0,1-.175-.037A.4.4,0,0,0,23.128,23a.42.42,0,0,0-.169.037.407.407,0,0,1-.175.037.426.426,0,0,1-.175-.037A.407.407,0,0,0,22.434,23a.382.382,0,0,0-.169.037.407.407,0,0,1-.175.037Z" transform="translate(-10.395 -10.772)" fill="none" stroke="#000" stroke-width="0.033"/>
      <path id="Path_4259" data-name="Path 4259" d="M22.09,23.174a.426.426,0,0,0,.175-.037.4.4,0,0,1,.169-.037.426.426,0,0,1,.175.037.407.407,0,0,0,.175.037.426.426,0,0,0,.175-.037.4.4,0,0,1,.169-.037.382.382,0,0,1,.169.037.407.407,0,0,0,.175.037v.106a.407.407,0,0,1-.175-.037.4.4,0,0,0-.169-.037.42.42,0,0,0-.169.037.4.4,0,0,1-.175.042.426.426,0,0,1-.175-.037.426.426,0,0,0-.175-.037.382.382,0,0,0-.169.037.407.407,0,0,1-.175.037Z" transform="translate(-10.395 -10.871)" fill="#cdcccb"/>
      <path id="Path_4260" data-name="Path 4260" d="M22.09,23.174a.426.426,0,0,0,.175-.037.4.4,0,0,1,.169-.037.426.426,0,0,1,.175.037.407.407,0,0,0,.175.037.426.426,0,0,0,.175-.037.4.4,0,0,1,.169-.037.382.382,0,0,1,.169.037.407.407,0,0,0,.175.037v.106a.407.407,0,0,1-.175-.037.4.4,0,0,0-.169-.037.42.42,0,0,0-.169.037.4.4,0,0,1-.175.042.426.426,0,0,1-.175-.037.426.426,0,0,0-.175-.037.382.382,0,0,0-.169.037.407.407,0,0,1-.175.037Z" transform="translate(-10.395 -10.871)" fill="none" stroke="#000" stroke-width="0.033"/>
      <path id="Path_4261" data-name="Path 4261" d="M22.09,23.369a.426.426,0,0,0,.175-.037.4.4,0,0,1,.169-.037.426.426,0,0,1,.175.037.407.407,0,0,0,.175.037.355.355,0,0,0,.175-.042.4.4,0,0,1,.169-.037.382.382,0,0,1,.169.037.407.407,0,0,0,.175.037v.106a.407.407,0,0,1-.175-.037.4.4,0,0,0-.169-.037.348.348,0,0,0-.169.037.407.407,0,0,1-.175.037.426.426,0,0,1-.175-.037.407.407,0,0,0-.175-.037.382.382,0,0,0-.169.037.407.407,0,0,1-.175.037Z" transform="translate(-10.395 -10.96)" fill="#265eac"/>
      <path id="Path_4262" data-name="Path 4262" d="M22.09,23.369a.426.426,0,0,0,.175-.037.4.4,0,0,1,.169-.037.426.426,0,0,1,.175.037.407.407,0,0,0,.175.037.355.355,0,0,0,.175-.042.4.4,0,0,1,.169-.037.382.382,0,0,1,.169.037.407.407,0,0,0,.175.037v.106a.407.407,0,0,1-.175-.037.4.4,0,0,0-.169-.037.348.348,0,0,0-.169.037.407.407,0,0,1-.175.037.426.426,0,0,1-.175-.037.407.407,0,0,0-.175-.037.382.382,0,0,0-.169.037.407.407,0,0,1-.175.037Z" transform="translate(-10.395 -10.96)" fill="none" stroke="#000" stroke-width="0.033"/>
      <path id="Path_4263" data-name="Path 4263" d="M22.09,23.68a.426.426,0,0,0,.175-.037.4.4,0,0,1,.169-.037.426.426,0,0,1,.175.037.407.407,0,0,0,.175.037.355.355,0,0,0,.175-.042.4.4,0,0,1,.169-.037.322.322,0,0,1,.169.037.342.342,0,0,0,.175.037v-.106a.341.341,0,0,1-.175-.042.4.4,0,0,0-.169-.037.348.348,0,0,0-.169.037.407.407,0,0,1-.175.037.426.426,0,0,1-.175-.037.407.407,0,0,0-.175-.037.382.382,0,0,0-.169.037.407.407,0,0,1-.175.037v.116Z" transform="translate(-10.395 -11.054)" fill="#cdcccb"/>
      <path id="Path_4264" data-name="Path 4264" d="M22.09,23.68a.426.426,0,0,0,.175-.037.4.4,0,0,1,.169-.037.426.426,0,0,1,.175.037.407.407,0,0,0,.175.037.355.355,0,0,0,.175-.042.4.4,0,0,1,.169-.037.322.322,0,0,1,.169.037.342.342,0,0,0,.175.037v-.106a.341.341,0,0,1-.175-.042.4.4,0,0,0-.169-.037.348.348,0,0,0-.169.037.407.407,0,0,1-.175.037.426.426,0,0,1-.175-.037.407.407,0,0,0-.175-.037.382.382,0,0,0-.169.037.407.407,0,0,1-.175.037v.116Z" transform="translate(-10.395 -11.054)" fill="none" stroke="#000" stroke-width="0.033"/>
      <path id="Path_4265" data-name="Path 4265" d="M22.09,23.885a.426.426,0,0,0,.175-.037.4.4,0,0,1,.169-.037.426.426,0,0,1,.175.037.407.407,0,0,0,.175.037.426.426,0,0,0,.175-.037.4.4,0,0,1,.169-.037.382.382,0,0,1,.169.037.407.407,0,0,0,.175.037v-.106a.341.341,0,0,1-.175-.042.334.334,0,0,0-.169-.037.42.42,0,0,0-.169.037.4.4,0,0,1-.175.042.426.426,0,0,1-.175-.037.407.407,0,0,0-.175-.037.382.382,0,0,0-.169.037.342.342,0,0,1-.175.037Z" transform="translate(-10.395 -11.153)" fill="#265eac"/>
      <path id="Path_4266" data-name="Path 4266" d="M22.09,23.885a.426.426,0,0,0,.175-.037.4.4,0,0,1,.169-.037.426.426,0,0,1,.175.037.407.407,0,0,0,.175.037.426.426,0,0,0,.175-.037.4.4,0,0,1,.169-.037.382.382,0,0,1,.169.037.407.407,0,0,0,.175.037v-.106a.341.341,0,0,1-.175-.042.334.334,0,0,0-.169-.037.42.42,0,0,0-.169.037.4.4,0,0,1-.175.042.426.426,0,0,1-.175-.037.407.407,0,0,0-.175-.037.382.382,0,0,0-.169.037.342.342,0,0,1-.175.037Z" transform="translate(-10.395 -11.153)" fill="none" stroke="#000" stroke-width="0.033"/>
      <path id="Path_4267" data-name="Path 4267" d="M23.335,22.21c0,.011-.005.016-.005.026a.123.123,0,0,0,.127.116H22.44a.123.123,0,0,0,.127-.116.048.048,0,0,0-.005-.026h.773Z" transform="translate(-10.56 -10.452)" fill="#c8b32f"/>
      <path id="Path_4268" data-name="Path 4268" d="M23.335,22.21c0,.011-.005.016-.005.026a.123.123,0,0,0,.127.116H22.44a.123.123,0,0,0,.127-.116.048.048,0,0,0-.005-.026h.773Z" transform="translate(-10.56 -10.452)" fill="none" stroke="#000" stroke-linejoin="round" stroke-width="0.033"/>
      <path id="Path_4269" data-name="Path 4269" d="M22.658,22.08H23.4c.026,0,.048.016.048.032a.043.043,0,0,1-.048.037h-.741a.043.043,0,0,1-.048-.037C22.61,22.1,22.631,22.08,22.658,22.08Z" transform="translate(-10.64 -10.391)" fill="#c8b32f"/>
      <path id="Path_4270" data-name="Path 4270" d="M22.658,22.08H23.4c.026,0,.048.016.048.032a.043.043,0,0,1-.048.037h-.741a.043.043,0,0,1-.048-.037C22.61,22.1,22.631,22.08,22.658,22.08Z" transform="translate(-10.64 -10.391)" fill="none" stroke="#000" stroke-width="0.033"/>
      <path id="Path_4271" data-name="Path 4271" d="M22.44,22.739h1.011V22.48H22.44Z" transform="translate(-10.56 -10.579)" fill="#c8b32f"/>
      <path id="Path_4272" data-name="Path 4272" d="M22.44,22.739h1.011V22.48H22.44Z" transform="translate(-10.56 -10.579)" fill="none" stroke="#000" stroke-width="0.033"/>
      <path id="Path_4273" data-name="Path 4273" d="M24.42,20.35c.1.058.169.116.159.148s-.037.048-.085.079c-.074.053-.116.138-.079.18a.254.254,0,0,1-.1-.2.228.228,0,0,1,.1-.206Z" transform="translate(-11.444 -9.576)" fill="#ac1f23"/>
      <path id="Path_4274" data-name="Path 4274" d="M24.42,20.35c.1.058.169.116.159.148s-.037.048-.085.079c-.074.053-.116.138-.079.18a.254.254,0,0,1-.1-.2.228.228,0,0,1,.1-.206Z" transform="translate(-11.444 -9.576)" fill="none" stroke="#000" stroke-width="0.033"/>
      <path id="Path_4275" data-name="Path 4275" d="M22.72,18.856h.72V15.32h-.72Z" transform="translate(-10.692 -7.209)" fill="#cdcccb"/>
      <path id="Path_4276" data-name="Path 4276" d="M23.324,15.32v3.526m-.079-3.526v3.526m-.524.011h.72V15.32h-.72v3.536Z" transform="translate(-10.692 -7.209)" fill="none" stroke="#000" stroke-width="0.033"/>
      <path id="Path_4277" data-name="Path 4277" d="M21.32,17.348a2.356,2.356,0,0,1,.731-.122,2.029,2.029,0,0,1,.344.032c.434.074.762.244.736.386v.011s.164-.365.164-.376c.026-.154-.334-.349-.815-.429a2,2,0,0,0-.424-.032,2.21,2.21,0,0,0-.736.1v.429Z" transform="translate(-10.033 -7.914)" fill="#ac1f23"/>
      <path id="Path_4278" data-name="Path 4278" d="M21.32,17.348a2.356,2.356,0,0,1,.731-.122,2.029,2.029,0,0,1,.344.032c.434.074.762.244.736.386v.011s.164-.365.164-.376c.026-.154-.334-.349-.815-.429a2,2,0,0,0-.424-.032,2.21,2.21,0,0,0-.736.1v.429Z" transform="translate(-10.033 -7.914)" fill="none" stroke="#000" stroke-linejoin="round" stroke-width="0.033"/>
      <path id="Path_4279" data-name="Path 4279" d="M24.08,18.34c.2-.016.339-.069.355-.154.011-.069-.053-.143-.175-.206-.058.005-.116.011-.18.011Z" transform="translate(-11.332 -8.461)" fill="#ac1f23"/>
      <path id="Path_4280" data-name="Path 4280" d="M24.08,18.34c.2-.016.339-.069.355-.154.011-.069-.053-.143-.175-.206-.058.005-.116.011-.18.011Z" transform="translate(-11.332 -8.461)" fill="none" stroke="#000" stroke-width="0.033"/>
      <path id="Path_4281" data-name="Path 4281" d="M22.468,18.15a.561.561,0,0,0-.265.09l-.005.005c-.021.048.09.143.27.254Z" transform="translate(-10.445 -8.541)" fill="#ac1f23"/>
      <path id="Path_4282" data-name="Path 4282" d="M22.468,18.15a.561.561,0,0,0-.265.09l-.005.005c-.021.048.09.143.27.254Z" transform="translate(-10.445 -8.541)" fill="none" stroke="#000" stroke-width="0.033"/>
      <path id="Path_4283" data-name="Path 4283" d="M23.6,19.188c.021-.058-.175-.169-.45-.27-.127-.048-.233-.09-.36-.148-.381-.169-.667-.365-.63-.434l.005-.005a2.431,2.431,0,0,0-.053.365c-.037.064.222.254.577.424a4.976,4.976,0,0,0,.466.18c.2.069.4.2.381.249Z" transform="translate(-10.406 -8.626)" fill="#ac1f23"/>
      <path id="Path_4284" data-name="Path 4284" d="M23.6,19.188c.021-.058-.175-.169-.45-.27-.127-.048-.233-.09-.36-.148-.381-.169-.667-.365-.63-.434l.005-.005a2.431,2.431,0,0,0-.053.365c-.037.064.222.254.577.424a4.976,4.976,0,0,0,.466.18c.2.069.4.2.381.249Z" transform="translate(-10.406 -8.626)" fill="none" stroke="#000" stroke-linejoin="round" stroke-width="0.033"/>
      <path id="Path_4285" data-name="Path 4285" d="M21.963,17.257c.026-.106.064-.2.1-.307-.005,0-.016.005-.021.005h-.021a1.466,1.466,0,0,1-.064.217c-.042-.064-.09-.127-.127-.191-.016.005-.032.005-.048.011A.147.147,0,0,1,21.73,17c.064.085.127.175.185.265.005,0,.016-.005.021-.005Z" transform="translate(-10.226 -7.976)" fill="#c8b32f"/>
      <path id="Path_4286" data-name="Path 4286" d="M22.619,16.945h-.037a.09.09,0,0,1-.037-.005l-.005.286.2.005c0-.005-.005-.011-.005-.016a.02.02,0,0,1,.005-.016c-.037,0-.074.005-.122.005Z" transform="translate(-10.607 -7.972)" fill="#c8b32f"/>
      <path id="Path_4287" data-name="Path 4287" d="M23.125,17.007l.1.016v-.016a.02.02,0,0,1,.005-.016l-.27-.021v.016A.02.02,0,0,1,22.95,17h.1l-.021.254h.037c.016,0,.026.005.037.005Z" transform="translate(-10.8 -7.986)" fill="#c8b32f"/>
      <path id="Path_4288" data-name="Path 4288" d="M23.628,17.082c.032.005.069.011.069.048,0,.011,0,.016-.005.021-.011.042-.042.053-.1.042l.032-.111Zm-.138.238c.011,0,.026.005.037.005a.1.1,0,0,1,.037.011L23.6,17.2H23.6a.55.55,0,0,0,.021.053l.042.1c.016.005.032.005.048.011a.155.155,0,0,0,.048.011l-.016-.032c-.021-.042-.042-.09-.064-.132.048,0,.09-.016.1-.058a.067.067,0,0,0-.032-.069.234.234,0,0,0-.079-.026l-.106-.021-.069.281Z" transform="translate(-11.054 -8.019)" fill="#c8b32f"/>
      <path id="Path_4289" data-name="Path 4289" d="M24.178,17.478l.1-.058-.011.106Zm.079.069a.326.326,0,0,1-.016.1.159.159,0,0,1,.042.021l.037.021.026-.323c-.005,0-.011-.005-.016-.011s-.011-.005-.016-.011l-.286.18c.005.005.016.005.021.011a.04.04,0,0,0,.021.011c.026-.021.048-.037.079-.058l.106.064Z" transform="translate(-11.308 -8.16)" fill="#c8b32f"/>
      <path id="Path_4290" data-name="Path 4290" d="M15.174,21.7a3.777,3.777,0,0,1-1.641-.381,1.054,1.054,0,0,1-.593-.942V18.9H17.4v1.477a1.059,1.059,0,0,1-.593.942A3.785,3.785,0,0,1,15.174,21.7Z" transform="translate(-6.089 -8.894)" fill="#cdcccb"/>
      <path id="Path_4291" data-name="Path 4291" d="M15.174,21.7a3.777,3.777,0,0,1-1.641-.381,1.054,1.054,0,0,1-.593-.942V18.9H17.4v1.477a1.059,1.059,0,0,1-.593.942A3.785,3.785,0,0,1,15.174,21.7Z" transform="translate(-6.089 -8.894)" fill="none" stroke="#000" stroke-width="0.044"/>
      <path id="Path_4292" data-name="Path 4292" d="M15.159,20.372a1.116,1.116,0,0,1-2.229,0V18.89h2.229Z" transform="translate(-6.085 -8.889)" fill="#ac1f23"/>
      <path id="Path_4293" data-name="Path 4293" d="M16.675,20.976a.992.992,0,0,0,.249-.566l.005-1.62H16.67l.005,2.186Z" transform="translate(-7.845 -8.842)" fill="#c8b32f"/>
      <path id="Path_4294" data-name="Path 4294" d="M16.675,20.976a.992.992,0,0,0,.249-.566l.005-1.62H16.67l.005,2.186Z" transform="translate(-7.845 -8.842)" fill="none" stroke="#000" stroke-width="0.044"/>
      <path id="Path_4295" data-name="Path 4295" d="M17.14,16.692h2.234V14.22H17.14Z" transform="translate(-8.066 -6.692)" fill="#cdcccb"/>
      <path id="Path_4296" data-name="Path 4296" d="M13.85,21.189a.985.985,0,0,0,.27.122l-.005-2.531h-.259v2.409Z" transform="translate(-6.518 -8.838)" fill="#c8b32f"/>
      <path id="Path_4297" data-name="Path 4297" d="M13.85,21.189a.985.985,0,0,0,.27.122l-.005-2.531h-.259v2.409Z" transform="translate(-6.518 -8.838)" fill="none" stroke="#000" stroke-width="0.044"/>
      <path id="Path_4298" data-name="Path 4298" d="M12.93,20.314a1.112,1.112,0,0,0,.254.694v-2.2h-.249l-.005,1.5Z" transform="translate(-6.085 -8.852)" fill="#c8b32f"/>
      <path id="Path_4299" data-name="Path 4299" d="M12.93,20.314a1.112,1.112,0,0,0,.254.694v-2.2h-.249l-.005,1.5Z" transform="translate(-6.085 -8.852)" fill="none" stroke="#000" stroke-linejoin="round" stroke-width="0.042"/>
      <path id="Path_4300" data-name="Path 4300" d="M14.79,21.374a1.059,1.059,0,0,0,.259,0V18.79H14.79v2.584Z" transform="translate(-6.96 -8.842)" fill="#c6b52f"/>
      <path id="Path_4301" data-name="Path 4301" d="M14.79,21.374a1.059,1.059,0,0,0,.259,0V18.79H14.79v2.584Z" transform="translate(-6.96 -8.842)" fill="none" stroke="#000" stroke-width="0.044"/>
      <path id="Path_4302" data-name="Path 4302" d="M15.72,21.321a1.006,1.006,0,0,0,.27-.116V18.79h-.259l-.011,2.531Z" transform="translate(-7.398 -8.842)" fill="#c8b32f"/>
      <path id="Path_4303" data-name="Path 4303" d="M15.72,21.321a1.006,1.006,0,0,0,.27-.116V18.79h-.259l-.011,2.531Z" transform="translate(-7.398 -8.842)" fill="none" stroke="#000" stroke-width="0.044"/>
      <path id="Path_4304" data-name="Path 4304" d="M12.93,16.692h2.229V14.22H12.93Z" transform="translate(-6.085 -6.692)" fill="#ac1f23"/>
      <path id="Path_4305" data-name="Path 4305" d="M12.93,16.692h2.229V14.22H12.93Zm2.229,1.482a1.116,1.116,0,0,1-2.229,0V16.692h2.229Z" transform="translate(-6.085 -6.692)" fill="none" stroke="#000" stroke-width="0.044"/>
      <path id="Path_4306" data-name="Path 4306" d="M19.374,18.89v1.482a1.119,1.119,0,0,1-2.234,0V18.89Z" transform="translate(-8.066 -8.889)" fill="#ac1f23"/>
      <path id="Path_4307" data-name="Path 4307" d="M19.374,18.89v1.482a1.119,1.119,0,0,1-2.234,0V18.89Z" transform="translate(-8.066 -8.889)" fill="none" stroke="#000" stroke-width="0.044"/>
      <path id="Path_4308" data-name="Path 4308" d="M18.426,21.7l-.079-.021v-.2l.079-.021Zm.074,0,.079-.021v-.2l-.079-.021Zm-.09.36a.049.049,0,0,1,.053-.048.053.053,0,0,1,.053.048.049.049,0,0,1-.053.048.053.053,0,0,1-.053-.048Zm.54-1.011-.021.074h-.212l-.021-.074Zm-.979,0,.021.074H18.2l.021-.074Zm.932.4.042-.064-.138-.154-.074.032Zm-.058.048-.074.032-.138-.154.042-.064.169.185Zm.1.434a.746.746,0,0,1-.222.116l.058.053a.878.878,0,0,0,.185-.1Zm-.037-.064a.688.688,0,0,1-.222.116l-.016-.074a.559.559,0,0,0,.185-.1Zm.254-.635-.079.016s-.005.127-.005.1a.969.969,0,0,0-.011.1l.079.026a.945.945,0,0,0,.011-.122v-.122Zm.069.249.079-.016.011-.2-.079-.026v.111a1.028,1.028,0,0,1-.011.127Zm-.1.206a.056.056,0,0,0-.074-.005.045.045,0,0,0-.005.069.057.057,0,0,0,.074.005A.049.049,0,0,0,19.136,21.694Zm-.286.217.037.064a.736.736,0,0,0,.169-.143.135.135,0,0,0,.116-.021.106.106,0,0,0,.016-.159l-.005-.005a.628.628,0,0,0,.058-.222h-.074a.561.561,0,0,1-.048.191.258.258,0,0,0-.064.005l-.191-.212-.058.048.191.212a.106.106,0,0,0,.005.127A.837.837,0,0,1,18.85,21.911Zm-.836-.455-.042-.064.138-.154.074.032-.169.185Zm.058.048.074.032.138-.154-.042-.064Zm-.1.434a.746.746,0,0,0,.222.116l-.058.053a.878.878,0,0,1-.185-.1Zm.037-.064a.688.688,0,0,0,.222.116l.016-.074a.56.56,0,0,1-.185-.1Zm-.254-.635.079.016a.613.613,0,0,1,0,.1.97.97,0,0,1,.011.1l-.079.026a.476.476,0,0,1-.011-.122Zm-.064.249-.079-.016-.011-.2.079-.026v.111A.345.345,0,0,0,17.691,21.488Zm.1.206a.057.057,0,0,1,.074-.005.045.045,0,0,1,.005.069.057.057,0,0,1-.074.005.045.045,0,0,1-.005-.069Zm.281.217-.037.064a.736.736,0,0,1-.169-.143.132.132,0,0,1-.116-.021.1.1,0,0,1-.011-.159l.005-.005a.628.628,0,0,1-.058-.222h.074a.561.561,0,0,0,.048.191.13.13,0,0,1,.064.005l.191-.212.058.048-.191.212a.106.106,0,0,1-.005.127,1.023,1.023,0,0,0,.148.116Zm.508.106a.89.89,0,0,0,.169-.048l.037.064a.877.877,0,0,1-.2.058.12.12,0,0,1-.233,0,.741.741,0,0,1-.212-.058l.037-.064a.7.7,0,0,0,.18.048.116.116,0,0,1,.069-.064v-.312H18.5v.312A.124.124,0,0,1,18.575,22.017ZM18.887,21v.058h.206a.106.106,0,0,0,.074.069v.18h.074v-.18a.119.119,0,0,0,.085-.111V20.99h-.074a.032.032,0,0,1,.005.021.049.049,0,0,1-.053.048.053.053,0,0,1-.053-.048c0-.011,0-.016.005-.021l-.27.005Zm-.127,0v.058h-.185c-.005.005-.005.016-.011.021l.212.244-.058.048-.212-.244c-.005,0-.005,0-.011.005v.4h-.074v-.4c-.005,0-.005,0-.011-.005l-.222.244-.058-.048.222-.244c-.005-.005-.005-.016-.011-.021h-.191V21Zm-1,0a.032.032,0,0,1,.005.021.053.053,0,0,1-.106,0c0-.011,0-.016.005-.021H17.59v.021a.119.119,0,0,0,.085.111v.18h.074v-.18a.106.106,0,0,0,.074-.069h.206V21Z" transform="translate(-8.278 -9.878)" fill="#c8b32f"/>
      <path id="Path_4309" data-name="Path 4309" d="M18.505,19.592l.079.021v.2l-.079.021v-.244Zm-.079,0-.079.021v.2l.079.021v-.244Zm.275-.233.021-.074h.212l.021.074Zm0,.069.021.074h.212l.021-.074Zm-.291-.037a.049.049,0,0,1,.053-.048.053.053,0,0,1,.053.048.049.049,0,0,1-.053.048.046.046,0,0,1-.053-.048Zm.746,0a.049.049,0,0,1,.053-.048.053.053,0,0,1,.053.048.049.049,0,0,1-.053.048.046.046,0,0,1-.053-.048Zm-.2.789-.021-.074h-.212l-.021.074Zm-.725-.821-.021-.074H18l-.021.074Zm0,.069-.021.074H18l-.021-.074Zm-.561-.037a.049.049,0,0,1,.053-.048.053.053,0,0,1,.053.048.049.049,0,0,1-.053.048.046.046,0,0,1-.053-.048Zm.307.789L18,20.106h.212l.021.074Zm.942-.418.048.064-.132.154-.074-.032Zm-.058-.048-.074-.032-.132.154.048.064.159-.185Zm-.852.053-.042.064.138.154.074-.032Zm.058-.042.074-.032.138.154-.042.064-.169-.185Zm1.181-.042.079.021v.2l-.079.021v-.238Zm-.079,0-.079.021v.2l.079.021v-.238Zm-1.408,0,.079.021v.2l-.079.026v-.244Zm-.074,0-.079.021v.2l.079.021v-.238Zm.821-.18v.148h-.074V19.5a.112.112,0,0,1-.079-.074h-.185v-.069h.185a.125.125,0,0,1,.233,0h.185v.069h-.185a.136.136,0,0,1-.079.074Zm.741,0v.244h-.074V19.5c-.005,0-.011-.005-.016-.005l-.281.312-.058-.042.286-.323c0-.005-.005-.011-.005-.016h-.206v-.069H19.1a.121.121,0,0,1,.116-.079.119.119,0,0,1,.122.116.132.132,0,0,1-.09.106Zm-1.477,0,.281.312.058-.048-.281-.312c.005-.011.011-.016.011-.026h.206v-.069h-.206a.121.121,0,0,0-.116-.079.119.119,0,0,0-.122.116.114.114,0,0,0,.079.111v.244h.074V19.5Zm1.392.688a.056.056,0,0,1,.1,0h.074a.115.115,0,0,0-.085-.085v-.244h-.074v.244a.123.123,0,0,0-.079.074h-.2v.011Zm-1,0V20.18h.191c0-.005.005-.011.011-.016l-.233-.259.058-.048.228.254c.005,0,.005-.005.011-.005v-.339H18.5v.339c.005,0,.011,0,.011.005l.222-.254.058.048-.228.254a.089.089,0,0,1,.011.026h.185v.005Zm-.561,0a.115.115,0,0,1,.085-.085v-.244h.074v.244a.123.123,0,0,1,.079.074h.2v.011h-.275a.056.056,0,0,0-.1,0Z" transform="translate(-8.282 -9.073)" fill="#c8b32f"/>
      <path id="Path_4310" data-name="Path 4310" d="M17.971,21.133a.746.746,0,0,0,.222.116l-.058.053a.878.878,0,0,1-.185-.1Zm.037-.064a.688.688,0,0,0,.222.116l.016-.074a.56.56,0,0,1-.185-.1Zm-.254-.635.079.016a.613.613,0,0,1,0,.1.969.969,0,0,1,.011.1l-.079.026a.476.476,0,0,1-.011-.122Zm-.064.249-.079-.016-.011-.2.079-.026v.111a.345.345,0,0,0,.011.127Zm.1.206a.057.057,0,0,1,.074-.005.045.045,0,0,1,.005.069.057.057,0,0,1-.074.005.045.045,0,0,1-.005-.069Zm-.111-.386v-.18a.115.115,0,0,1,0-.222v-.244h.074V20.1a.123.123,0,0,1,.079.074h.2v.069h-.206a.12.12,0,0,1-.074.069v.18Zm.392.6-.037.064a.736.736,0,0,1-.169-.143.132.132,0,0,1-.116-.021.1.1,0,0,1-.011-.159l.005-.005a.628.628,0,0,1-.058-.222h.074a.561.561,0,0,0,.048.191.258.258,0,0,1,.064.005l.191-.212.058.048-.191.212a.106.106,0,0,1-.005.127,1.023,1.023,0,0,0,.148.116Zm-.3-1.6.281.312.058-.048-.281-.312c.005-.011.011-.016.011-.026h.206v-.069h-.206a.121.121,0,0,0-.116-.079.119.119,0,0,0-.122.116.114.114,0,0,0,.079.111v.244h.074V19.5Zm.593.768c-.005-.005-.005-.016-.011-.021h-.191V20.18h.191c0-.005.005-.011.011-.016l-.233-.259.058-.048.228.254c.005,0,.005-.005.011-.005v-.339H18.5v.339c.005,0,.011,0,.011.005l.222-.254.058.048-.228.254c.005.011.011.016.011.026h.185v.069H18.57c-.005.005-.005.016-.011.021l.212.244-.058.048-.212-.244c-.005,0-.005.005-.011.005v.4h-.074v-.4c-.005,0-.005,0-.011-.005l-.222.244-.058-.048Zm.217.942a.89.89,0,0,0,.169-.048l.037.064a.877.877,0,0,1-.2.058.12.12,0,0,1-.233,0,.741.741,0,0,1-.212-.058l.037-.064a.7.7,0,0,0,.18.048.116.116,0,0,1,.069-.064v-.312H18.5v.312a.124.124,0,0,1,.079.064Zm.588-1.53-.079.021v.2l.079.021v-.244Zm-1.408,0,.079.021v.2l-.079.021v-.244Zm-.074,0L17.6,19.7v.2l.079.021v-.244Zm1.265,1.451a.746.746,0,0,1-.222.116l.058.053a.878.878,0,0,0,.185-.1Zm-.037-.064a.688.688,0,0,1-.222.116l-.016-.074a.56.56,0,0,0,.185-.1ZM18.5,19.5v.148h-.074V19.5a.112.112,0,0,1-.079-.074h-.185v-.069h.185a.125.125,0,0,1,.233,0h.185v.069H18.58a.136.136,0,0,1-.079.074Zm.741,0v.244h-.074V19.5c-.005,0-.011-.005-.016-.005l-.281.312-.058-.048.286-.318c0-.005-.005-.011-.005-.016h-.206v-.069h.206a.121.121,0,0,1,.116-.079.119.119,0,0,1,.122.116.132.132,0,0,1-.09.106Zm-.079.932-.079.016s-.005.127-.005.1a.97.97,0,0,0-.011.1l.079.026a.945.945,0,0,0,.011-.122v-.122Zm.069.249.079-.016.011-.2-.079-.026v.111a1.028,1.028,0,0,1-.011.127Zm-.1.206a.056.056,0,0,0-.074-.005.045.045,0,0,0-.005.069.057.057,0,0,0,.074.005A.049.049,0,0,0,19.136,20.889Zm.106-.386v-.18a.115.115,0,0,0,0-.222v-.244h-.074V20.1a.123.123,0,0,0-.079.074h-.2v.069h.206a.106.106,0,0,0,.074.069v.18l.074.011Zm-.392.6.037.064a.736.736,0,0,0,.169-.143.135.135,0,0,0,.116-.021.106.106,0,0,0,.016-.159l-.005-.005a.628.628,0,0,0,.058-.222h-.074a.561.561,0,0,1-.048.191.13.13,0,0,0-.064.005l-.191-.212-.058.048.191.212A.106.106,0,0,0,19,20.99a.837.837,0,0,1-.154.116Zm-1.186-.895a.049.049,0,0,1,.053-.048.05.05,0,1,1-.053.048Zm.349.439-.042-.064.138-.154.074.032-.169.185Zm.058.048.074.032.138-.154-.042-.064Zm.625-1.339.021-.074h.212l.021.074Zm0,.069.021.074h.212l.021-.074Zm-.291-.037a.049.049,0,0,1,.053-.048.053.053,0,0,1,.053.048.049.049,0,0,1-.053.048.046.046,0,0,1-.053-.048Zm.746,0a.049.049,0,0,1,.053-.048.053.053,0,0,1,.053.048.049.049,0,0,1-.053.048.046.046,0,0,1-.053-.048ZM18.427,20.9l-.079-.021v-.2l.079-.021V20.9Zm.074,0,.079-.021v-.2l-.079-.021V20.9Zm-.09.36a.049.049,0,0,1,.053-.048.053.053,0,0,1,.053.048.049.049,0,0,1-.053.048A.053.053,0,0,1,18.411,21.26Zm.54-1.011-.021.074h-.212l-.021-.074Zm0-.069-.021-.074h-.212l-.021.074Zm.2.032a.049.049,0,0,1,.053-.048.05.05,0,1,1-.053.048Zm-.926-.852-.021-.074h-.212l-.021.074Zm0,.069L18.2,19.5h-.212l-.021-.074Zm-.561-.037a.049.049,0,0,1,.053-.048.053.053,0,0,1,.053.048.049.049,0,0,1-.053.048.046.046,0,0,1-.053-.048Zm.307.858.021.074H18.2l.021-.074Zm0-.069.021-.074H18.2l.021.074Zm.942-.418.048.064-.132.154-.074-.032.159-.185Zm-.058-.048-.074-.032-.132.154.048.064.159-.185ZM18,19.767l-.042.064.138.148.074-.032L18,19.767Zm.058-.048.074-.032.138.154-.042.064-.169-.185Zm.842.932.042-.064-.138-.154-.074.032.169.185Zm-.058.048-.074.032-.138-.154.042-.064Zm.4-1.016.079.021v.2l-.079.021Zm-.741-.1.079.021v.2l-.079.021v-.244Zm-.079,0-.079.021v.2l.079.021v-.244Z" transform="translate(-8.278 -9.073)" fill="none" stroke="#c8b32f" stroke-width="0.022"/>
      <path id="Path_4311" data-name="Path 4311" d="M19.01,20.927a.122.122,0,1,1,.122.116.115.115,0,0,1-.122-.116Z" transform="translate(-8.946 -9.788)" fill="#008f6f"/>
      <path id="Path_4312" data-name="Path 4312" d="M18.942,15.231V15.2l.005-.016a.44.44,0,0,1-.111-.005.331.331,0,0,1-.106-.053c-.037-.032-.048-.048-.074-.053a.174.174,0,0,0-.106.016.183.183,0,0,1,.079.058.2.2,0,0,0,.085.069c.026.005.116,0,.143.005a.625.625,0,0,0,.085.005Z" transform="translate(-8.729 -7.094)" fill="#da4546"/>
      <path id="Path_4313" data-name="Path 4313" d="M18.942,15.231V15.2l.005-.016a.44.44,0,0,1-.111-.005.331.331,0,0,1-.106-.053c-.037-.032-.048-.048-.074-.053a.174.174,0,0,0-.106.016.183.183,0,0,1,.079.058.2.2,0,0,0,.085.069c.026.005.116,0,.143.005a.625.625,0,0,0,.085.005Z" transform="translate(-8.729 -7.094)" fill="none" stroke="#000" stroke-width="0.033"/>
      <path id="Path_4314" data-name="Path 4314" d="M18.928,15.015a.441.441,0,0,0,.005.064c.005.032-.011.053-.005.069s.005.032.011.042a.238.238,0,0,1,.011.042.235.235,0,0,1-.032-.026.191.191,0,0,1-.026-.021.41.41,0,0,1,.005.048.112.112,0,0,0,.021.053.563.563,0,0,1,.048.058.448.448,0,0,1,.005.069s-.021-.032-.037-.037-.058-.026-.058-.026a.129.129,0,0,1,.037.069.212.212,0,0,1-.016.069.159.159,0,0,0-.037-.048c-.021-.021-.048-.042-.048-.042a.309.309,0,0,1,.021.085c0,.037-.005.111-.005.111a.171.171,0,0,0-.037-.042c-.016-.016-.037-.026-.048-.037a.129.129,0,0,1,.026.053.524.524,0,0,0,.085.206c.042.058.106.169.244.132s.085-.222.058-.307a.941.941,0,0,1-.042-.217c0-.032.026-.132.021-.148a.36.36,0,0,1,.005-.148.464.464,0,0,1,.042-.106.4.4,0,0,0,.021-.058.361.361,0,0,0,.005-.064.689.689,0,0,1,.032.064.38.38,0,0,1,.005.069.115.115,0,0,1,.042-.074.721.721,0,0,0,.1-.064.159.159,0,0,1,.016-.021.335.335,0,0,1-.026.116c-.016.021-.079.1-.079.1a.215.215,0,0,1,.053-.011h.037a.382.382,0,0,0-.064.074c-.037.053-.021.058-.048.1s-.048.042-.079.069c-.048.037-.021.191-.016.217a1.832,1.832,0,0,1,.09.259.244.244,0,0,1-.069.212.472.472,0,0,1-.154.053.135.135,0,0,0-.058.127.106.106,0,0,0,.053.111c.021.021.053.011.058.026a.049.049,0,0,0,.021.032.033.033,0,0,1,.011.037.835.835,0,0,0-.053.085.9.9,0,0,0-.037.111c0,.011-.005.042.011.058,0,0,.042.048.011.058-.016.005-.032-.011-.042-.011-.026.005-.037.021-.042.021s-.016-.011-.016-.032,0-.032-.005-.032a.024.024,0,0,0-.016.021c0,.011,0,.042-.011.042s-.026-.021-.037-.026-.037-.011-.037-.021a.061.061,0,0,1,.032-.042c.016-.005.032-.011.021-.021a.02.02,0,0,0-.032,0c-.011.011-.037,0-.032-.011a.3.3,0,0,1,.005-.037c0-.005-.021-.021.005-.037s.037.011.064.005a.08.08,0,0,0,.048-.026.058.058,0,0,0-.011-.069c-.016-.021-.037-.021-.042-.037s-.016-.042-.016-.042a.251.251,0,0,1,0,.064c-.005.005,0,.037,0,.037a.407.407,0,0,0-.032-.037.164.164,0,0,1-.026-.058v.058c0,.016.021.032.011.037s-.037-.032-.048-.037a.2.2,0,0,1-.042-.048.22.22,0,0,1-.021-.064.152.152,0,0,1-.005-.069.261.261,0,0,0,.021-.048H18.69c-.032,0-.058-.011-.069.011a.225.225,0,0,0,.011.127c.016.058.026.09.021.1s-.026.037-.032.037a.058.058,0,0,1-.042,0,.123.123,0,0,0-.058-.011h-.058a.155.155,0,0,0-.053-.016c-.011.005-.037.016-.026.032s-.011.032-.021.032a.238.238,0,0,1-.042-.011c-.016-.005-.042,0-.037-.021a.176.176,0,0,1,.016-.032c.005-.016.011-.021,0-.021a.067.067,0,0,0-.032.005c-.011.005-.021.021-.032.016a.053.053,0,0,1-.021-.048c0-.026-.032-.053,0-.053s.064.021.069.005.005-.021-.011-.032-.032-.021-.016-.032.026-.016.032-.026.016-.037.032-.026,0,.032.026.064a.083.083,0,0,0,.09.037c.048-.005.058-.011.058-.026s-.005-.037-.005-.048.005-.042.005-.042a.058.058,0,0,0-.026.026c-.011,0-.026.021-.026.021a.293.293,0,0,1-.005-.048.3.3,0,0,1,.005-.037.24.24,0,0,0-.011-.042.238.238,0,0,1-.011.042.182.182,0,0,0-.005.048.07.07,0,0,1-.021-.069c.005-.032-.005-.079.005-.09s.032-.074.09-.074h.122a.734.734,0,0,0,.09-.016s-.132-.069-.159-.09a.371.371,0,0,1-.09-.1.236.236,0,0,1-.026-.069.142.142,0,0,0-.048.011.231.231,0,0,0-.053.042.359.359,0,0,0-.032.048s.005-.042.005-.053a.3.3,0,0,0-.005-.037.191.191,0,0,1-.042.079.5.5,0,0,0-.064.053s.005-.032.005-.037.005-.042.005-.042a.092.092,0,0,1-.053.037c-.032.005-.079.005-.085.026s.011.048,0,.064a.057.057,0,0,1-.026.021A.058.058,0,0,0,18,15.868a.115.115,0,0,0-.032.005s-.016-.016-.011-.032.032-.032.021-.037a.035.035,0,0,0-.037.011c-.011.011-.037.011-.037-.011s.011-.032,0-.048,0-.021.011-.026.048,0,.053-.011-.011-.021-.037-.026-.037-.021-.026-.037l.026-.026c.005-.011.011-.032.032-.021s.021.037.042.042a.176.176,0,0,0,.1-.011.783.783,0,0,1,.069-.042.489.489,0,0,0,.069-.048.4.4,0,0,1-.048-.037.4.4,0,0,0-.048-.048.4.4,0,0,0-.085-.026.328.328,0,0,1-.074-.021l.037-.016c.011-.005.026-.026.037-.021h.011A.3.3,0,0,1,18,15.375a.2.2,0,0,0-.058-.026l-.037.005a.192.192,0,0,1,.064-.026.27.27,0,0,1,.048-.005s-.042-.011-.053-.026a.476.476,0,0,1-.026-.048c-.005-.011-.011-.026-.026-.026s-.037.016-.053.016-.026-.011-.026-.032,0-.011-.005-.026-.026-.037-.005-.042.058.005.064-.005-.021-.026-.037-.037-.042-.021-.026-.032a.224.224,0,0,0,.037-.026c.011-.011.016-.042.032-.032s.037.058.053.053.016-.037.011-.053,0-.037.011-.037.021.021.042.021.048-.005.048.011-.016.032-.026.048a.065.065,0,0,0-.011.069.156.156,0,0,0,.053.064.534.534,0,0,1,.079.037.741.741,0,0,0,.1.064l.037.016a.118.118,0,0,1,.048-.011.47.47,0,0,0,.122-.005c.026-.011.058-.026.048-.053s-.064-.042-.058-.058.026-.021.058-.021.079.005.09-.042.011-.074-.037-.085-.085-.011-.09-.048-.016-.042-.005-.053.026-.016.064-.016a.7.7,0,0,0,.085-.011c.011-.011.016-.032.026-.042a.239.239,0,0,1,.069-.016.986.986,0,0,1,.122.074.86.86,0,0,1,.106.106Z" transform="translate(-8.382 -6.979)" fill="#eb71a9"/>
      <path id="Path_4315" data-name="Path 4315" d="M18.928,15.015a.441.441,0,0,0,.005.064c.005.032-.011.053-.005.069s.005.032.011.042a.238.238,0,0,1,.011.042.235.235,0,0,1-.032-.026.191.191,0,0,1-.026-.021.41.41,0,0,1,.005.048.112.112,0,0,0,.021.053.563.563,0,0,1,.048.058.448.448,0,0,1,.005.069s-.021-.032-.037-.037-.058-.026-.058-.026a.129.129,0,0,1,.037.069.212.212,0,0,1-.016.069.159.159,0,0,0-.037-.048c-.021-.021-.048-.042-.048-.042a.309.309,0,0,1,.021.085c0,.037-.005.111-.005.111a.171.171,0,0,0-.037-.042c-.016-.016-.037-.026-.048-.037a.129.129,0,0,1,.026.053.524.524,0,0,0,.085.206c.042.058.106.169.244.132s.085-.222.058-.307a.941.941,0,0,1-.042-.217c0-.032.026-.132.021-.148a.36.36,0,0,1,.005-.148.464.464,0,0,1,.042-.106.4.4,0,0,0,.021-.058.361.361,0,0,0,.005-.064.689.689,0,0,1,.032.064.38.38,0,0,1,.005.069.115.115,0,0,1,.042-.074.721.721,0,0,0,.1-.064.159.159,0,0,1,.016-.021.335.335,0,0,1-.026.116c-.016.021-.079.1-.079.1a.215.215,0,0,1,.053-.011h.037a.382.382,0,0,0-.064.074c-.037.053-.021.058-.048.1s-.048.042-.079.069c-.048.037-.021.191-.016.217a1.832,1.832,0,0,1,.09.259.244.244,0,0,1-.069.212.472.472,0,0,1-.154.053.135.135,0,0,0-.058.127.106.106,0,0,0,.053.111c.021.021.053.011.058.026a.049.049,0,0,0,.021.032.033.033,0,0,1,.011.037.835.835,0,0,0-.053.085.9.9,0,0,0-.037.111c0,.011-.005.042.011.058,0,0,.042.048.011.058-.016.005-.032-.011-.042-.011-.026.005-.037.021-.042.021s-.016-.011-.016-.032,0-.032-.005-.032a.024.024,0,0,0-.016.021c0,.011,0,.042-.011.042s-.026-.021-.037-.026-.037-.011-.037-.021a.061.061,0,0,1,.032-.042c.016-.005.032-.011.021-.021a.02.02,0,0,0-.032,0c-.011.011-.037,0-.032-.011a.3.3,0,0,1,.005-.037c0-.005-.021-.021.005-.037s.037.011.064.005a.08.08,0,0,0,.048-.026.058.058,0,0,0-.011-.069c-.016-.021-.037-.021-.042-.037s-.016-.042-.016-.042a.251.251,0,0,1,0,.064c-.005.005,0,.037,0,.037a.407.407,0,0,0-.032-.037.164.164,0,0,1-.026-.058v.058c0,.016.021.032.011.037s-.037-.032-.048-.037a.2.2,0,0,1-.042-.048.22.22,0,0,1-.021-.064.152.152,0,0,1-.005-.069.261.261,0,0,0,.021-.048H18.69c-.032,0-.058-.011-.069.011a.225.225,0,0,0,.011.127c.016.058.026.09.021.1s-.026.037-.032.037a.058.058,0,0,1-.042,0,.123.123,0,0,0-.058-.011h-.058a.155.155,0,0,0-.053-.016c-.011.005-.037.016-.026.032s-.011.032-.021.032a.238.238,0,0,1-.042-.011c-.016-.005-.042,0-.037-.021a.176.176,0,0,1,.016-.032c.005-.016.011-.021,0-.021a.067.067,0,0,0-.032.005c-.011.005-.021.021-.032.016a.053.053,0,0,1-.021-.048c0-.026-.032-.053,0-.053s.064.021.069.005.005-.021-.011-.032-.032-.021-.016-.032.026-.016.032-.026.016-.037.032-.026,0,.032.026.064a.083.083,0,0,0,.09.037c.048-.005.058-.011.058-.026s-.005-.037-.005-.048.005-.042.005-.042a.058.058,0,0,0-.026.026c-.011,0-.026.021-.026.021a.293.293,0,0,1-.005-.048.3.3,0,0,1,.005-.037.24.24,0,0,0-.011-.042.238.238,0,0,1-.011.042.182.182,0,0,0-.005.048.07.07,0,0,1-.021-.069c.005-.032-.005-.079.005-.09s.032-.074.09-.074h.122a.734.734,0,0,0,.09-.016s-.132-.069-.159-.09a.371.371,0,0,1-.09-.1.236.236,0,0,1-.026-.069.142.142,0,0,0-.048.011.231.231,0,0,0-.053.042.359.359,0,0,0-.032.048s.005-.042.005-.053a.3.3,0,0,0-.005-.037.191.191,0,0,1-.042.079.5.5,0,0,0-.064.053s.005-.032.005-.037.005-.042.005-.042a.092.092,0,0,1-.053.037c-.032.005-.079.005-.085.026s.011.048,0,.064a.057.057,0,0,1-.026.021A.058.058,0,0,0,18,15.868a.115.115,0,0,0-.032.005s-.016-.016-.011-.032.032-.032.021-.037a.035.035,0,0,0-.037.011c-.011.011-.037.011-.037-.011s.011-.032,0-.048,0-.021.011-.026.048,0,.053-.011-.011-.021-.037-.026-.037-.021-.026-.037l.026-.026c.005-.011.011-.032.032-.021s.021.037.042.042a.176.176,0,0,0,.1-.011.783.783,0,0,1,.069-.042.489.489,0,0,0,.069-.048.4.4,0,0,1-.048-.037.4.4,0,0,0-.048-.048.4.4,0,0,0-.085-.026.328.328,0,0,1-.074-.021l.037-.016c.011-.005.026-.026.037-.021h.011A.3.3,0,0,1,18,15.375a.2.2,0,0,0-.058-.026l-.037.005a.192.192,0,0,1,.064-.026.27.27,0,0,1,.048-.005s-.042-.011-.053-.026a.476.476,0,0,1-.026-.048c-.005-.011-.011-.026-.026-.026s-.037.016-.053.016-.026-.011-.026-.032,0-.011-.005-.026-.026-.037-.005-.042.058.005.064-.005-.021-.026-.037-.037-.042-.021-.026-.032a.224.224,0,0,0,.037-.026c.011-.011.016-.042.032-.032s.037.058.053.053.016-.037.011-.053,0-.037.011-.037.021.021.042.021.048-.005.048.011-.016.032-.026.048a.065.065,0,0,0-.011.069.156.156,0,0,0,.053.064.534.534,0,0,1,.079.037.741.741,0,0,0,.1.064l.037.016a.118.118,0,0,1,.048-.011.47.47,0,0,0,.122-.005c.026-.011.058-.026.048-.053s-.064-.042-.058-.058.026-.021.058-.021.079.005.09-.042.011-.074-.037-.085-.085-.011-.09-.048-.016-.042-.005-.053.026-.016.064-.016a.7.7,0,0,0,.085-.011c.011-.011.016-.032.026-.042a.239.239,0,0,1,.069-.016.986.986,0,0,1,.122.074.86.86,0,0,1,.106.106" transform="translate(-8.382 -6.979)" fill="none" stroke="#000" stroke-width="0.033"/>
      <path id="Path_4316" data-name="Path 4316" d="M19.036,15.087a.089.089,0,0,0-.011-.026.019.019,0,0,0-.005-.011s.037,0,.037.011-.011.011-.016.016Z" transform="translate(-8.951 -7.082)"/>
      <path id="Path_4317" data-name="Path 4317" d="M19.036,15.087a.089.089,0,0,0-.011-.026.019.019,0,0,0-.005-.011s.037,0,.037.011-.011.011-.016.016Z" transform="translate(-8.951 -7.082)" fill="none" stroke="#000" stroke-width="0.022"/>
      <path id="Path_4318" data-name="Path 4318" d="M19.385,14.981l-.005-.021a.106.106,0,0,1,.048.011.131.131,0,0,1,.042.048c-.005.005-.026-.011-.037-.016h-.021C19.4,15,19.4,15,19.4,14.992v-.016l-.011.005Z" transform="translate(-9.12 -7.04)"/>
      <path id="Path_4319" data-name="Path 4319" d="M19.385,14.981l-.005-.021a.106.106,0,0,1,.048.011.131.131,0,0,1,.042.048c-.005.005-.026-.011-.037-.016h-.021C19.4,15,19.4,15,19.4,14.992v-.016l-.011.005Z" transform="translate(-9.12 -7.04)" fill="none" stroke="#000" stroke-width="0.004"/>
      <path id="Path_4320" data-name="Path 4320" d="M19.822,15.468s-.016-.021-.021-.026a.075.075,0,0,1-.011-.021" transform="translate(-9.313 -7.256)" fill="none" stroke="#000" stroke-width="0.022"/>
      <path id="Path_4321" data-name="Path 4321" d="M18.11,15.02a.082.082,0,0,0,.037.016h.037a.285.285,0,0,0,.005-.042.082.082,0,0,0-.058-.064s.016.032.005.048A.077.077,0,0,1,18.11,15.02Z" transform="translate(-8.522 -7.026)" fill="#da4546"/>
      <path id="Path_4322" data-name="Path 4322" d="M18.11,15.02a.082.082,0,0,0,.037.016h.037a.285.285,0,0,0,.005-.042.082.082,0,0,0-.058-.064s.016.032.005.048A.077.077,0,0,1,18.11,15.02Z" transform="translate(-8.522 -7.026)" fill="none" stroke="#000" stroke-width="0.033"/>
      <path id="Path_4323" data-name="Path 4323" d="M17.807,15.162a.076.076,0,0,0-.058-.032.116.116,0,0,0-.069.037.219.219,0,0,1,.053.005.067.067,0,0,1,.021.037.117.117,0,0,0,.032-.026A.074.074,0,0,0,17.807,15.162Z" transform="translate(-8.32 -7.12)" fill="#da4546"/>
      <path id="Path_4324" data-name="Path 4324" d="M17.807,15.162a.076.076,0,0,0-.058-.032.116.116,0,0,0-.069.037.219.219,0,0,1,.053.005.067.067,0,0,1,.021.037.117.117,0,0,0,.032-.026A.074.074,0,0,0,17.807,15.162Z" transform="translate(-8.32 -7.12)" fill="none" stroke="#000" stroke-width="0.033"/>
      <path id="Path_4325" data-name="Path 4325" d="M17.768,15.45a.11.11,0,0,0-.053.026.088.088,0,0,0-.016.064s.021-.026.042-.026a.409.409,0,0,1,.053.005.164.164,0,0,1-.011-.037.086.086,0,0,0-.016-.032Z" transform="translate(-8.329 -7.271)" fill="#da4546"/>
      <path id="Path_4326" data-name="Path 4326" d="M17.768,15.45a.11.11,0,0,0-.053.026.088.088,0,0,0-.016.064s.021-.026.042-.026a.409.409,0,0,1,.053.005.164.164,0,0,1-.011-.037.086.086,0,0,0-.016-.032Z" transform="translate(-8.329 -7.271)" fill="none" stroke="#000" stroke-width="0.033"/>
      <path id="Path_4327" data-name="Path 4327" d="M19.05,15.421l.016-.021.016.021Z" transform="translate(-8.965 -7.247)"/>
      <path id="Path_4328" data-name="Path 4328" d="M19.05,15.421l.016-.021.016.021Z" transform="translate(-8.965 -7.247)" fill="none" stroke="#000" stroke-width="0.022"/>
      <path id="Path_4329" data-name="Path 4329" d="M19.12,15.421l.016-.021.021.021Z" transform="translate(-8.998 -7.247)"/>
      <path id="Path_4330" data-name="Path 4330" d="M19.12,15.421l.016-.021.021.021Z" transform="translate(-8.998 -7.247)" fill="none" stroke="#000" stroke-width="0.022"/>
      <path id="Path_4331" data-name="Path 4331" d="M19.09,15.17l.037.011L19.1,15.2Z" transform="translate(-8.983 -7.139)"/>
      <path id="Path_4332" data-name="Path 4332" d="M19.09,15.17l.037.011L19.1,15.2Z" transform="translate(-8.983 -7.139)" fill="none" stroke="#000" stroke-width="0.022"/>
      <path id="Path_4333" data-name="Path 4333" d="M19.17,15.19l.032.005-.021.021Z" transform="translate(-9.021 -7.148)"/>
      <path id="Path_4334" data-name="Path 4334" d="M19.17,15.19l.032.005-.021.021Z" transform="translate(-9.021 -7.148)" fill="none" stroke="#000" stroke-width="0.022"/>
      <path id="Path_4335" data-name="Path 4335" d="M18.786,16.085a.688.688,0,0,1,.064-.032.159.159,0,0,0,.053-.048m-.3-.042a.146.146,0,0,1,.042-.048.283.283,0,0,0,.053-.037.314.314,0,0,0,.042-.021m-.09-.138s-.037.011-.048.032a.088.088,0,0,0-.016.048.082.082,0,0,1,.069-.016.241.241,0,0,0,.058.016.281.281,0,0,0,.058-.016s-.032.037-.026.064.011.037.005.053a.18.18,0,0,1-.026.074.131.131,0,0,1,.048-.016.184.184,0,0,0,.079-.037.3.3,0,0,0,.042-.042.24.24,0,0,0,0,.064c.005.021.011.074.011.074a.132.132,0,0,1,.037-.026.111.111,0,0,0,.042-.032A.487.487,0,0,0,19,15.911a.192.192,0,0,0,.016.058c.011.021.032.079.032.079A.154.154,0,0,1,19.077,16a.106.106,0,0,0,.032-.048.3.3,0,0,0-.005-.037l.016.037" transform="translate(-8.748 -7.398)" fill="none" stroke="#000" stroke-width="0.033"/>
      <path id="Path_4336" data-name="Path 4336" d="M17.946,16.285a.064.064,0,0,0-.053-.016.092.092,0,0,0-.053.042.285.285,0,0,1,.042-.005.06.06,0,0,1,.026.021.074.074,0,0,0,.021-.021C17.941,16.306,17.946,16.285,17.946,16.285Z" transform="translate(-8.395 -7.656)" fill="#da4546"/>
      <path id="Path_4337" data-name="Path 4337" d="M17.946,16.285a.064.064,0,0,0-.053-.016.092.092,0,0,0-.053.042.285.285,0,0,1,.042-.005.06.06,0,0,1,.026.021.074.074,0,0,0,.021-.021C17.941,16.306,17.946,16.285,17.946,16.285Z" transform="translate(-8.395 -7.656)" fill="none" stroke="#000" stroke-width="0.033"/>
      <path id="Path_4338" data-name="Path 4338" d="M17.9,16.55a.069.069,0,0,0-.053.016.118.118,0,0,0-.026.058.053.053,0,0,1,.042-.016.106.106,0,0,1,.037.011.229.229,0,0,0,.005-.026A.069.069,0,0,0,17.9,16.55Z" transform="translate(-8.386 -7.788)" fill="#da4546"/>
      <path id="Path_4339" data-name="Path 4339" d="M17.9,16.55a.069.069,0,0,0-.053.016.118.118,0,0,0-.026.058.053.053,0,0,1,.042-.016.106.106,0,0,1,.037.011.229.229,0,0,0,.005-.026A.069.069,0,0,0,17.9,16.55Z" transform="translate(-8.386 -7.788)" fill="none" stroke="#000" stroke-width="0.033"/>
      <path id="Path_4340" data-name="Path 4340" d="M18.09,16.78a.115.115,0,0,0,.016.058.084.084,0,0,0,.048.026.106.106,0,0,1-.011-.037c-.005-.016.016-.032.016-.032a.053.053,0,0,0-.032-.016Z" transform="translate(-8.513 -7.896)" fill="#da4546"/>
      <path id="Path_4341" data-name="Path 4341" d="M18.09,16.78a.115.115,0,0,0,.016.058.084.084,0,0,0,.048.026.106.106,0,0,1-.011-.037c-.005-.016.016-.032.016-.032a.053.053,0,0,0-.032-.016Zm.741.058s.09.058.09.1a.216.216,0,0,1-.048.106" transform="translate(-8.513 -7.896)" fill="none" stroke="#000" stroke-width="0.033"/>
      <path id="Path_4342" data-name="Path 4342" d="M18.606,17.346a.075.075,0,0,0-.053-.026.111.111,0,0,0-.064.032s.037-.005.048.011l.021.032s.016-.011.026-.016A.314.314,0,0,1,18.606,17.346Z" transform="translate(-8.701 -8.151)" fill="#da4546"/>
      <path id="Path_4343" data-name="Path 4343" d="M18.606,17.346a.075.075,0,0,0-.053-.026.111.111,0,0,0-.064.032s.037-.005.048.011l.021.032s.016-.011.026-.016A.314.314,0,0,1,18.606,17.346Z" transform="translate(-8.701 -8.151)" fill="none" stroke="#000" stroke-width="0.033"/>
      <path id="Path_4344" data-name="Path 4344" d="M18.455,17.609a.088.088,0,0,0-.064.016.093.093,0,0,0-.021.058s.026-.026.048-.026a.116.116,0,0,1,.048.016.188.188,0,0,1-.005-.037.106.106,0,0,0-.005-.026Z" transform="translate(-8.645 -8.286)" fill="#da4546"/>
      <path id="Path_4345" data-name="Path 4345" d="M18.455,17.609a.088.088,0,0,0-.064.016.093.093,0,0,0-.021.058s.026-.026.048-.026a.116.116,0,0,1,.048.016.188.188,0,0,1-.005-.037.106.106,0,0,0-.005-.026Z" transform="translate(-8.645 -8.286)" fill="none" stroke="#000" stroke-width="0.033"/>
      <path id="Path_4346" data-name="Path 4346" d="M18.691,17.86a.049.049,0,0,0-.005.053.113.113,0,0,0,.048.032.05.05,0,0,1-.005-.037.12.12,0,0,1,.032-.037Z" transform="translate(-8.79 -8.405)" fill="#da4546"/>
      <path id="Path_4347" data-name="Path 4347" d="M18.691,17.86a.049.049,0,0,0-.005.053.113.113,0,0,0,.048.032.05.05,0,0,1-.005-.037.12.12,0,0,1,.032-.037Z" transform="translate(-8.79 -8.405)" fill="none" stroke="#000" stroke-width="0.033"/>
      <path id="Path_4348" data-name="Path 4348" d="M19.655,17.957a.078.078,0,0,0-.058.005c-.021.011-.037.064-.037.064A.117.117,0,0,1,19.618,18l.042.011a.079.079,0,0,0,0-.037.053.053,0,0,0-.005-.016Z" transform="translate(-9.205 -8.449)" fill="#da4546"/>
      <path id="Path_4349" data-name="Path 4349" d="M19.655,17.957a.078.078,0,0,0-.058.005c-.021.011-.037.064-.037.064A.117.117,0,0,1,19.618,18l.042.011a.079.079,0,0,0,0-.037.053.053,0,0,0-.005-.016Z" transform="translate(-9.205 -8.449)" fill="none" stroke="#000" stroke-width="0.033"/>
      <path id="Path_4350" data-name="Path 4350" d="M19.754,18.21s-.026.026-.016.053a.234.234,0,0,0,.026.048s0-.037.011-.048a.078.078,0,0,1,.048-.016.165.165,0,0,0-.032-.021A.258.258,0,0,1,19.754,18.21Z" transform="translate(-9.287 -8.569)" fill="#da4546"/>
      <path id="Path_4351" data-name="Path 4351" d="M19.754,18.21s-.026.026-.016.053a.234.234,0,0,0,.026.048s0-.037.011-.048a.078.078,0,0,1,.048-.016.165.165,0,0,0-.032-.021A.258.258,0,0,1,19.754,18.21Z" transform="translate(-9.287 -8.569)" fill="none" stroke="#000" stroke-width="0.033"/>
      <path id="Path_4352" data-name="Path 4352" d="M20.026,18.28a.053.053,0,0,0,.011.058.14.14,0,0,0,.048.026s-.021-.037-.016-.053a.053.053,0,0,1,.026-.032l-.037-.011C20.058,18.264,20.026,18.28,20.026,18.28Z" transform="translate(-9.422 -8.597)" fill="#da4546"/>
      <path id="Path_4353" data-name="Path 4353" d="M20.026,18.28a.053.053,0,0,0,.011.058.14.14,0,0,0,.048.026s-.021-.037-.016-.053a.053.053,0,0,1,.026-.032l-.037-.011C20.058,18.264,20.026,18.28,20.026,18.28Z" transform="translate(-9.422 -8.597)" fill="none" stroke="#000" stroke-width="0.033"/>
      <path id="Path_4354" data-name="Path 4354" d="M17.063,22.869a.18.18,0,0,1,.138.18.209.209,0,0,1-.233.185.212.212,0,0,1-.238-.185.159.159,0,0,1,.138-.175l-.011-.021a.39.39,0,0,1-.026-.032.169.169,0,0,1,.053,0,.131.131,0,0,1,.032.021.153.153,0,0,1,.021-.032.06.06,0,0,1,.032-.021.119.119,0,0,1,.026.026.249.249,0,0,1,.011.026.17.17,0,0,1,.037-.021l.037-.011a.208.208,0,0,1-.011.032c-.005.005-.005.026-.005.026Z" transform="translate(-7.872 -10.725)" fill="#ffd791"/>
      <path id="Path_4355" data-name="Path 4355" d="M17.063,22.869a.18.18,0,0,1,.138.18.209.209,0,0,1-.233.185.212.212,0,0,1-.238-.185.159.159,0,0,1,.138-.175l-.011-.021a.39.39,0,0,1-.026-.032.169.169,0,0,1,.053,0,.131.131,0,0,1,.032.021.153.153,0,0,1,.021-.032.06.06,0,0,1,.032-.021.119.119,0,0,1,.026.026.249.249,0,0,1,.011.026.17.17,0,0,1,.037-.021l.037-.011a.208.208,0,0,1-.011.032c-.005.005-.005.026-.005.026Z" transform="translate(-7.872 -10.725)" fill="none" stroke="#000" stroke-width="0.044"/>
      <path id="Path_4356" data-name="Path 4356" d="M16.688,23.718a1.391,1.391,0,0,0-.254-.138,1.05,1.05,0,0,0-.254-.005.993.993,0,0,1,.079.064.428.428,0,0,0,.154.085.55.55,0,0,0,.275-.005Z" transform="translate(-7.614 -11.092)" fill="#008f6f"/>
      <path id="Path_4357" data-name="Path 4357" d="M16.688,23.718a1.391,1.391,0,0,0-.254-.138,1.05,1.05,0,0,0-.254-.005.993.993,0,0,1,.079.064.428.428,0,0,0,.154.085.55.55,0,0,0,.275-.005Z" transform="translate(-7.614 -11.092)" fill="none" stroke="#000" stroke-width="0.044"/>
      <path id="Path_4358" data-name="Path 4358" d="M17.24,23.746a.476.476,0,0,1,.233-.132.6.6,0,0,1,.286.026s-.042.021-.069.037a.31.31,0,0,1-.185.069c-.1,0-.2-.011-.222-.005a.286.286,0,0,0-.042.005Z" transform="translate(-8.113 -11.109)" fill="#008f6f"/>
      <path id="Path_4359" data-name="Path 4359" d="M17.24,23.746a.476.476,0,0,1,.233-.132.6.6,0,0,1,.286.026s-.042.021-.069.037a.31.31,0,0,1-.185.069c-.1,0-.2-.011-.222-.005a.286.286,0,0,0-.042.005Z" transform="translate(-8.113 -11.109)" fill="none" stroke="#000" stroke-width="0.044"/>
      <path id="Path_4360" data-name="Path 4360" d="M17.1,23.3a.237.237,0,0,1-.074-.164.217.217,0,0,1,.074-.164.232.232,0,0,1,.069.164.2.2,0,0,1-.069.164Z" transform="translate(-8.014 -10.809)" fill="#ac1f23"/>
      <path id="Path_4361" data-name="Path 4361" d="M17.1,23.3a.237.237,0,0,1-.074-.164.217.217,0,0,1,.074-.164.232.232,0,0,1,.069.164.2.2,0,0,1-.069.164Z" transform="translate(-8.014 -10.809)" fill="none" stroke="#000" stroke-width="0.044"/>
      <path id="Path_4362" data-name="Path 4362" d="M17.09,23.842a.569.569,0,0,0,.032-.127c0-.048-.005-.1-.005-.1h.037a.4.4,0,0,1,.016.1c0,.042-.005.106-.005.106l-.032.005A.144.144,0,0,1,17.09,23.842Z" transform="translate(-8.042 -11.115)" fill="#008f6f"/>
      <path id="Path_4363" data-name="Path 4363" d="M17.09,23.842a.569.569,0,0,0,.032-.127c0-.048-.005-.1-.005-.1h.037a.4.4,0,0,1,.016.1c0,.042-.005.106-.005.106l-.032.005A.144.144,0,0,1,17.09,23.842Z" transform="translate(-8.042 -11.115)" fill="none" stroke="#000" stroke-width="0.044"/>
      <path id="Path_4364" data-name="Path 4364" d="M14.713,15.163Zm-.307-.244Zm-.318.244Zm.392-.132Zm0,.164Zm0,.244Zm0,.164Zm0,.328Zm0-.164Zm0,.339Zm.318-.911Zm-.154.164Zm.307,0Zm-.074.079Zm-.164,0Zm-.154,0Zm.085.085Zm.154,0Zm.154,0Zm-.074.079Zm-.164,0Zm-.154,0Zm.085.085Zm-.085.079Zm0,.164Zm.085.175Zm-.085,0Zm.154,0Zm.164,0Zm-.233.154Zm.069,0Zm.318.1Zm-.154,0Zm-.079-.249Zm0,.154Zm0,.175Zm0,.164Zm.079-.079Zm.154-.085Zm-.079,0Zm0,.164Zm0-1.5Zm-.074.1Zm-.7,0Zm.154.164Zm-.312,0Zm.074.079Zm.164,0Zm.154,0Zm-.079.085Zm-.154,0Zm-.159,0Zm.074.079Zm.164,0Zm.154,0Zm-.079.085Zm.079.079Zm0,.164Zm-.079.175Zm.079,0Zm-.154,0Zm-.164,0Zm.238.154Zm-.074,0Zm-.318.1Zm.154,0Zm.085-.249Zm0,.154Zm0,.175Zm0,.164Zm-.085-.079Zm-.154-.085Zm.079,0Zm0,.164Zm0-1.5Zm.074.1Zm.238-.349Zm.079.1Zm0,.085Zm0,.079Zm0,.085Zm-.318.079Zm-.154.085Zm0,.079Zm0,.085Zm0,.079Zm.079.085Zm0,.079Zm0,.085Zm0,.079Zm0,.085Zm0,.09Zm0,.085Zm-.164.069Zm0,.1Zm0,.079Zm0,.085Zm0,.079Zm.281-1.556h-.042V15h-.074v.164h.074v.111h-.154V15.6h.079v.656H13.85V16.6h1.26v-.339h-.164V15.6h.085v-.328h-.154v-.111h.074V15h-.074v.042h-.042V15h-.074v.042h-.053V15h-.074v.164h.074v.111h-.154v-.36h.079V14.75h-.079v.042h-.042V14.75h-.074v.042h-.032V14.75h-.079v.164h.079v.36h-.154v-.111h.074V15h-.074v.042H14.21V15h-.079v.042Z" transform="translate(-6.518 -6.941)" fill="#c8b32f"/>
      <path id="Path_4365" data-name="Path 4365" d="M14.713,15.163h.164m-.471-.244h.154m-.471.244h.164m.228-.132v-.079m0,.244V15.11m0,.328v-.079m0,.244v-.085m0,.413v-.085m0-.079v-.079m0,.418v-.09m.318-.821v.079m-.154.085v.079m.307-.079v.079m-.074,0v.085m-.164-.085v.085m-.154-.085v.085m.085,0v.085m.154-.085v.085m.154-.085v.085m-.074-.005v.085m-.164-.085v.085m-.154-.085v.085m.085,0v.079m-.085,0v.085m0,.079v.079m.085.1v-.09m-.085.09v.085m.154-.085v.085m.164-.085v.085m-.233.069v-.074m.069.074v.09m.318.005v-.1m-.154.1v-.1m-.079-.154v-.09m0,.244v-.074m0,.249v-.085m0,.249v-.085m.079.005v-.085m.154,0v.085m-.079-.085v-.085m0,.249v-.085m0-1.419h-.307m.233.1h-.164m-.54,0v.079m.154.085v.079m-.312-.079v.079m.074,0v.085m.164-.085v.085m.154-.085v.085m-.079,0v.085m-.154-.085v.085m-.159-.085v.085m.074-.005v.085m.164-.085v.085m.154-.085v.085m-.079,0v.079m.079,0v.085m0,.079v.079m-.079.1v-.09m.079.09v.085m-.154-.085v.085m-.164-.085v.085m.238.069v-.074m-.074.074v.09m-.318.005v-.1m.154.1v-.1m.085-.154v-.09m0,.244v-.074m0,.249v-.085m0,.249v-.085m-.085.005v-.085m-.154,0v.085m.079-.085v-.085m0,.249v-.085m0-1.419h.307m-.233.1h.164m.074-.349h.318m-.238.1h.154m-.154.085h.154m-.154.079h.154m-.154.085h.154m-.471.079h.789m-.942.085h1.1m-1.1.079h1.1m-1.1.085h1.1m-1.1.079h1.1m-1.016.085h.932m-.932.079h.932m-.932.085h.932m-.932.079h.932m-.932.085h.932m-.932.09h.932m-.932.085h.932m-1.1.069h1.26m-1.26.1h1.26m-1.26.079h1.26m-1.26.085h1.26m-1.26.079h1.26m-.979-1.556h-.042V15h-.074v.164h.074v.111h-.154V15.6h.079v.656H13.85V16.6h1.26v-.339h-.164V15.6h.085v-.328h-.154v-.111h.074V15h-.074v.042h-.042V15h-.074v.042h-.053V15h-.074v.164h.074v.111h-.154v-.36h.079V14.75h-.079v.042h-.042V14.75h-.074v.042h-.032V14.75h-.079v.164h.079v.36h-.154v-.111h.074V15h-.074v.042H14.21V15h-.079Z" transform="translate(-6.518 -6.941)" fill="none" stroke="#000" stroke-width="0.039"/>
      <path id="Path_4366" data-name="Path 4366" d="M15.064,17.9v-.217c0-.042-.021-.164-.217-.164s-.206.122-.206.164V17.9Z" transform="translate(-6.889 -8.245)" fill="#c8b32f"/>
      <path id="Path_4367" data-name="Path 4367" d="M15.064,17.9v-.217c0-.042-.021-.164-.217-.164s-.206.122-.206.164V17.9Z" transform="translate(-6.889 -8.245)" fill="none" stroke="#000" stroke-width="0.039"/>
      <path id="Path_4368" data-name="Path 4368" d="M14.69,17.742l-.1-.011a.159.159,0,0,1,.042-.122l.09.074A.089.089,0,0,0,14.69,17.742Z" transform="translate(-6.865 -8.287)" fill="#c8b32f"/>
      <path id="Path_4369" data-name="Path 4369" d="M14.69,17.742l-.1-.011a.159.159,0,0,1,.042-.122l.09.074A.089.089,0,0,0,14.69,17.742Z" transform="translate(-6.865 -8.287)" fill="none" stroke="#000" stroke-width="0.039"/>
      <path id="Path_4370" data-name="Path 4370" d="M15.282,17.742l.1-.011a.159.159,0,0,0-.042-.122l-.09.074A.089.089,0,0,1,15.282,17.742Z" transform="translate(-7.176 -8.287)" fill="#c8b32f"/>
      <path id="Path_4371" data-name="Path 4371" d="M15.282,17.742l.1-.011a.159.159,0,0,0-.042-.122l-.09.074A.089.089,0,0,1,15.282,17.742Z" transform="translate(-7.176 -8.287)" fill="none" stroke="#000" stroke-width="0.039"/>
      <path id="Path_4372" data-name="Path 4372" d="M15.006,17.561l.053-.09a.249.249,0,0,0-.09-.021.2.2,0,0,0-.079.021l.053.09Z" transform="translate(-7.007 -8.212)" fill="#c8b32f"/>
      <path id="Path_4373" data-name="Path 4373" d="M15.006,17.561l.053-.09a.249.249,0,0,0-.09-.021.2.2,0,0,0-.079.021l.053.09Z" transform="translate(-7.007 -8.212)" fill="none" stroke="#000" stroke-width="0.039"/>
      <path id="Path_4374" data-name="Path 4374" d="M14.552,16.879v-.228a.111.111,0,1,0-.222,0v.228Z" transform="translate(-6.743 -7.783)" fill="#c8b32f"/>
      <path id="Path_4375" data-name="Path 4375" d="M14.552,16.879v-.228a.111.111,0,1,0-.222,0v.228Z" transform="translate(-6.743 -7.783)" fill="none" stroke="#000" stroke-width="0.039"/>
      <path id="Path_4376" data-name="Path 4376" d="M15.35,16.879v-.228a.111.111,0,0,1,.222,0v.228Z" transform="translate(-7.223 -7.784)" fill="#c8b32f"/>
      <path id="Path_4377" data-name="Path 4377" d="M15.35,16.879v-.228a.111.111,0,0,1,.222,0v.228Z" transform="translate(-7.223 -7.784)" fill="none" stroke="#000" stroke-width="0.039"/>
      <path id="Path_4378" data-name="Path 4378" d="M15.035,15.946l.021-.206h-.2l.011.206Z" transform="translate(-6.993 -7.407)" fill="#c8b32f"/>
      <path id="Path_4379" data-name="Path 4379" d="M15.035,15.946l.021-.206h-.2l.011.206Z" transform="translate(-6.993 -7.407)" fill="none" stroke="#000" stroke-width="0.039"/>
      <path id="Path_4380" data-name="Path 4380" d="M15.461,15.946l-.021-.206h.206l-.021.206Z" transform="translate(-7.266 -7.407)" fill="#c8b32f"/>
      <path id="Path_4381" data-name="Path 4381" d="M15.461,15.946l-.021-.206h.206l-.021.206Z" transform="translate(-7.266 -7.407)" fill="none" stroke="#000" stroke-width="0.039"/>
      <path id="Path_4382" data-name="Path 4382" d="M14.445,15.946l.011-.206h-.2l.021.206Z" transform="translate(-6.711 -7.407)" fill="#c8b32f"/>
      <path id="Path_4383" data-name="Path 4383" d="M14.445,15.946l.011-.206h-.2l.021.206Z" transform="translate(-6.711 -7.407)" fill="none" stroke="#000" stroke-width="0.039"/>
      <path id="Path_4384" data-name="Path 4384" d="M15.065,17.971v-.18a.127.127,0,0,0-.143-.122.123.123,0,0,0-.132.122v.185h.275Z" transform="translate(-6.96 -8.314)" fill="#3a57a7"/>
      <path id="Path_4385" data-name="Path 4385" d="M14.55,16.876v-.2a.092.092,0,0,0-.09-.1.095.095,0,0,0-.09.1v.2Z" transform="translate(-6.762 -7.802)" fill="#3a57a7"/>
      <path id="Path_4386" data-name="Path 4386" d="M15.39,16.876v-.2a.092.092,0,0,1,.09-.1.1.1,0,0,1,.1.1v.2Z" transform="translate(-7.242 -7.802)" fill="#3a57a7"/>
      <path id="Path_4387" data-name="Path 4387" d="M19.7,14.735H19.69a.076.076,0,0,1-.011.016.033.033,0,0,1-.037.005.02.02,0,0,1-.005-.016.016.016,0,0,1-.021,0,.025.025,0,0,1-.005-.037l.005-.005v-.016l-.016.005-.005.011c-.011.011-.026.016-.032.005a.016.016,0,0,1-.005-.011l-.005.005c-.026.005-.032-.048-.032-.058l-.005.011a.424.424,0,0,1,.005.058l-.011.053a.55.55,0,0,1,.238.18.2.2,0,0,1,.053-.021.181.181,0,0,1,.058-.011l.011-.011c-.016,0-.069.005-.069-.021a.019.019,0,0,1,.005-.011s-.011,0-.011-.005-.011-.021,0-.032l.011-.005v-.016h-.016l-.005.005a.025.025,0,0,1-.037,0c-.005-.005-.005-.011-.005-.021h-.021a.025.025,0,0,1-.005-.037c.005-.005.011-.016.016-.016Z" transform="translate(-9.181 -6.889)" fill="#c8b32f"/>
      <path id="Path_4388" data-name="Path 4388" d="M19.7,14.735H19.69a.076.076,0,0,1-.011.016.033.033,0,0,1-.037.005.02.02,0,0,1-.005-.016.016.016,0,0,1-.021,0,.025.025,0,0,1-.005-.037l.005-.005v-.016l-.016.005-.005.011c-.011.011-.026.016-.032.005a.016.016,0,0,1-.005-.011l-.005.005c-.026.005-.032-.048-.032-.058l-.005.011a.424.424,0,0,1,.005.058l-.011.053a.55.55,0,0,1,.238.18.2.2,0,0,1,.053-.021.181.181,0,0,1,.058-.011l.011-.011c-.016,0-.069.005-.069-.021a.019.019,0,0,1,.005-.011s-.011,0-.011-.005-.011-.021,0-.032l.011-.005v-.016h-.016l-.005.005a.025.025,0,0,1-.037,0c-.005-.005-.005-.011-.005-.021h-.021a.025.025,0,0,1-.005-.037c.005-.005.011-.016.016-.016Z" transform="translate(-9.181 -6.889)" fill="none" stroke="#000" stroke-width="0.022"/>
      <path id="Path_4389" data-name="Path 4389" d="M19.686,14.876c0-.005.005-.005.011,0s.005.005,0,.011h-.011C19.681,14.882,19.681,14.876,19.686,14.876Z" transform="translate(-9.262 -6.999)"/>
      <path id="Path_4390" data-name="Path 4390" d="M19.686,14.876c0-.005.005-.005.011,0s.005.005,0,.011h-.011C19.681,14.882,19.681,14.876,19.686,14.876Z" transform="translate(-9.262 -6.999)" fill="none" stroke="#000" stroke-width="0.004"/>
      <path id="Path_4391" data-name="Path 4391" d="M19.754,14.926l-.016-.011s-.005-.005,0-.005h.005l.016.011.016.011s.005.005,0,.005h-.011Z" transform="translate(-9.287 -7.016)"/>
      <path id="Path_4392" data-name="Path 4392" d="M19.754,14.926l-.016-.011s-.005-.005,0-.005h.005l.016.011.016.011s.005.005,0,.005h-.011Z" transform="translate(-9.287 -7.016)" fill="none" stroke="#000" stroke-width="0.004"/>
      <path id="Path_4393" data-name="Path 4393" d="M19.606,14.831l-.011-.005a.005.005,0,0,1-.005-.005H19.6l.011.005.011.005.005.005h-.005Z" transform="translate(-9.219 -6.974)"/>
      <path id="Path_4394" data-name="Path 4394" d="M19.606,14.831l-.011-.005a.005.005,0,0,1-.005-.005H19.6l.011.005.011.005.005.005h-.005Z" transform="translate(-9.219 -6.974)" fill="none" stroke="#000" stroke-width="0.004"/>
      <path id="Path_4395" data-name="Path 4395" d="M19.53,14.786c0-.005.005-.005.011,0s.005.005,0,.011H19.53Z" transform="translate(-9.191 -6.956)"/>
      <path id="Path_4396" data-name="Path 4396" d="M19.53,14.786c0-.005.005-.005.011,0s.005.005,0,.011H19.53Z" transform="translate(-9.191 -6.956)" fill="none" stroke="#000" stroke-width="0.004"/>
      <path id="Path_4397" data-name="Path 4397" d="M19.841,15V14.99H19.83V15C19.83,15.006,19.841,15,19.841,15Z" transform="translate(-9.332 -7.054)"/>
      <path id="Path_4398" data-name="Path 4398" d="M19.841,15V14.99H19.83V15C19.83,15.006,19.841,15,19.841,15Z" transform="translate(-9.332 -7.054)" fill="none" stroke="#000" stroke-width="0.004"/>
      <path id="Path_4399" data-name="Path 4399" d="M19.891,15.046l.011.011h.005v-.005l-.005-.011-.011-.011H19.88v.005Z" transform="translate(-9.355 -7.073)"/>
      <path id="Path_4400" data-name="Path 4400" d="M19.891,15.046l.011.011h.005v-.005l-.005-.011-.011-.011H19.88v.005Z" transform="translate(-9.355 -7.073)" fill="none" stroke="#000" stroke-width="0.004"/>
      <path id="Path_4401" data-name="Path 4401" d="M19.971,15.117v-.011c-.005-.005-.011-.005-.011,0v.011Z" transform="translate(-9.393 -7.107)"/>
      <path id="Path_4402" data-name="Path 4402" d="M19.971,15.117v-.011c-.005-.005-.011-.005-.011,0v.011Z" transform="translate(-9.393 -7.107)" fill="none" stroke="#000" stroke-width="0.004"/>
      <path id="Path_4403" data-name="Path 4403" d="M19.722,14.62H19.7l-.005.042.005.005H19.7l.032-.021Z" transform="translate(-9.266 -6.88)" fill="#c8b32f"/>
      <path id="Path_4404" data-name="Path 4404" d="M19.722,14.62H19.7l-.005.042.005.005H19.7l.032-.021Z" transform="translate(-9.266 -6.88)" fill="none" stroke="#000" stroke-width="0.022"/>
      <path id="Path_4405" data-name="Path 4405" d="M19.615,14.651l-.005.026.042.005.005-.005v-.005l-.021-.032Z" transform="translate(-9.228 -6.889)" fill="#c8b32f"/>
      <path id="Path_4406" data-name="Path 4406" d="M19.615,14.651l-.005.026.042.005.005-.005v-.005l-.021-.032Z" transform="translate(-9.228 -6.889)" fill="none" stroke="#000" stroke-width="0.022"/>
      <path id="Path_4407" data-name="Path 4407" d="M19.738,14.726l-.026.016-.021-.032V14.7H19.7l.042.005Z" transform="translate(-9.266 -6.918)" fill="#c8b32f"/>
      <path id="Path_4408" data-name="Path 4408" d="M19.738,14.726l-.026.016-.021-.032V14.7H19.7l.042.005Z" transform="translate(-9.266 -6.918)" fill="none" stroke="#000" stroke-width="0.022"/>
      <path id="Path_4409" data-name="Path 4409" d="M19.677,14.693c.005-.005.011-.011.016-.005s.011.011.005.016a.02.02,0,0,1-.016.005C19.672,14.7,19.672,14.7,19.677,14.693Z" transform="translate(-9.258 -6.911)" fill="#c8b32f"/>
      <path id="Path_4410" data-name="Path 4410" d="M19.677,14.693c.005-.005.011-.011.016-.005s.011.011.005.016a.02.02,0,0,1-.016.005C19.672,14.7,19.672,14.7,19.677,14.693Z" transform="translate(-9.258 -6.911)" fill="none" stroke="#000" stroke-width="0.022"/>
      <path id="Path_4411" data-name="Path 4411" d="M19.466,14.57a.208.208,0,0,0-.011-.032.1.1,0,0,0-.016-.021.033.033,0,0,1,.037.005c.016.016,0,.037,0,.037S19.472,14.57,19.466,14.57Z" transform="translate(-9.148 -6.83)" fill="#c8b32f"/>
      <path id="Path_4412" data-name="Path 4412" d="M19.466,14.57a.208.208,0,0,0-.011-.032.1.1,0,0,0-.016-.021.033.033,0,0,1,.037.005c.016.016,0,.037,0,.037S19.472,14.57,19.466,14.57Z" transform="translate(-9.148 -6.83)" fill="none" stroke="#000" stroke-width="0.022"/>
      <path id="Path_4413" data-name="Path 4413" d="M19.538,14.626l-.016.016-.032-.026v-.005l.005-.005.037-.005Z" transform="translate(-9.172 -6.871)" fill="#c8b32f"/>
      <path id="Path_4414" data-name="Path 4414" d="M19.538,14.626l-.016.016-.032-.026v-.005l.005-.005.037-.005Z" transform="translate(-9.172 -6.871)" fill="none" stroke="#000" stroke-width="0.022"/>
      <path id="Path_4415" data-name="Path 4415" d="M19.487,14.611A.012.012,0,0,1,19.5,14.6c.005,0,.005.011.005.016a.012.012,0,0,1-.011.011C19.482,14.621,19.482,14.616,19.487,14.611Z" transform="translate(-9.169 -6.871)" fill="#c8b32f"/>
      <path id="Path_4416" data-name="Path 4416" d="M19.487,14.611A.012.012,0,0,1,19.5,14.6c.005,0,.005.011.005.016a.012.012,0,0,1-.011.011C19.482,14.621,19.482,14.616,19.487,14.611Z" transform="translate(-9.169 -6.871)" fill="none" stroke="#000" stroke-width="0.022"/>
      <path id="Path_4417" data-name="Path 4417" d="M19.907,14.74h-.026l-.011.037v.005h.011l.037-.016Z" transform="translate(-9.351 -6.936)" fill="#c8b32f"/>
      <path id="Path_4418" data-name="Path 4418" d="M19.907,14.74h-.026l-.011.037v.005h.011l.037-.016Z" transform="translate(-9.351 -6.936)" fill="none" stroke="#000" stroke-width="0.022"/>
      <path id="Path_4419" data-name="Path 4419" d="M19.8,14.755l-.005.026.042.011.005-.005v-.005l-.016-.032Z" transform="translate(-9.313 -6.941)" fill="#c8b32f"/>
      <path id="Path_4420" data-name="Path 4420" d="M19.8,14.755l-.005.026.042.011.005-.005v-.005l-.016-.032Z" transform="translate(-9.313 -6.941)" fill="none" stroke="#000" stroke-width="0.022"/>
      <path id="Path_4421" data-name="Path 4421" d="M19.912,14.842l-.026.011-.016-.032V14.81h.005l.037.011Z" transform="translate(-9.351 -6.969)" fill="#c8b32f"/>
      <path id="Path_4422" data-name="Path 4422" d="M19.912,14.842l-.026.011-.016-.032V14.81h.005l.037.011Z" transform="translate(-9.351 -6.969)" fill="none" stroke="#000" stroke-width="0.022"/>
      <path id="Path_4423" data-name="Path 4423" d="M19.85,14.807a.011.011,0,1,1,0,.016Z" transform="translate(-9.341 -6.967)" fill="#c8b32f"/>
      <path id="Path_4424" data-name="Path 4424" d="M19.85,14.807a.011.011,0,1,1,0,.016Z" transform="translate(-9.341 -6.967)" fill="none" stroke="#000" stroke-width="0.022"/>
      <path id="Path_4425" data-name="Path 4425" d="M20.072,14.891v.021l-.037.016-.005-.005v-.005l.016-.037Z" transform="translate(-9.426 -7.002)" fill="#c8b32f"/>
      <path id="Path_4426" data-name="Path 4426" d="M20.072,14.891v.021l-.037.016-.005-.005v-.005l.016-.037Z" transform="translate(-9.426 -7.002)" fill="none" stroke="#000" stroke-width="0.022"/>
      <path id="Path_4427" data-name="Path 4427" d="M20.057,15,20.036,15l-.016-.037V14.96h.011l.037.016Z" transform="translate(-9.421 -7.04)" fill="#c8b32f"/>
      <path id="Path_4428" data-name="Path 4428" d="M20.057,15,20.036,15l-.016-.037V14.96h.011l.037.016Z" transform="translate(-9.421 -7.04)" fill="none" stroke="#000" stroke-width="0.022"/>
      <path id="Path_4429" data-name="Path 4429" d="M19.961,14.9l-.011.021.037.016h.005L20,14.927l-.016-.037Z" transform="translate(-9.388 -7.007)" fill="#c8b32f"/>
      <path id="Path_4430" data-name="Path 4430" d="M19.961,14.9l-.011.021.037.016h.005L20,14.927l-.016-.037Z" transform="translate(-9.388 -7.007)" fill="none" stroke="#000" stroke-width="0.022"/>
      <path id="Path_4431" data-name="Path 4431" d="M20.023,14.963a.011.011,0,1,0-.016,0,.01.01,0,0,0,.016,0Z" transform="translate(-9.414 -7.033)" fill="#c8b32f"/>
      <path id="Path_4432" data-name="Path 4432" d="M20.023,14.963a.011.011,0,1,0-.016,0,.01.01,0,0,0,.016,0Z" transform="translate(-9.414 -7.033)" fill="none" stroke="#000" stroke-width="0.022"/>
      <path id="Path_4433" data-name="Path 4433" d="M20.16,15.109a.14.14,0,0,1,.037.005.037.037,0,0,1,.021.011.041.041,0,0,0-.011-.037c-.016-.011-.037.011-.037.011s-.011.005-.011.011Z" transform="translate(-9.487 -7.099)" fill="#c8b32f"/>
      <path id="Path_4434" data-name="Path 4434" d="M20.16,15.109a.14.14,0,0,1,.037.005.037.037,0,0,1,.021.011.041.041,0,0,0-.011-.037c-.016-.011-.037.011-.037.011s-.011.005-.011.011Z" transform="translate(-9.487 -7.099)" fill="none" stroke="#000" stroke-width="0.022"/>
      <path id="Path_4435" data-name="Path 4435" d="M20.1,15.06l-.011.021.032.021.005-.005h.005l-.005-.037Z" transform="translate(-9.454 -7.087)" fill="#c8b32f"/>
      <path id="Path_4436" data-name="Path 4436" d="M20.1,15.06l-.011.021.032.021.005-.005h.005l-.005-.037Z" transform="translate(-9.454 -7.087)" fill="none" stroke="#000" stroke-width="0.022"/>
      <path id="Path_4437" data-name="Path 4437" d="M20.154,15.122c.005-.005.011-.011.005-.016a.01.01,0,0,0-.016,0c-.005.005-.011.011-.005.016a.01.01,0,0,0,.016,0Z" transform="translate(-9.476 -7.107)" fill="#c8b32f"/>
      <path id="Path_4438" data-name="Path 4438" d="M20.154,15.122c.005-.005.011-.011.005-.016a.01.01,0,0,0-.016,0c-.005.005-.011.011-.005.016a.01.01,0,0,0,.016,0Z" transform="translate(-9.476 -7.107)" fill="none" stroke="#000" stroke-width="0.022"/>
      <path id="Path_4439" data-name="Path 4439" d="M17.14,16.692h2.234V14.22H17.14Z" transform="translate(-8.066 -6.692)" fill="none" stroke="#000" stroke-width="0.044"/>
    </g>
  </g>
</svg>
