<svg xmlns="http://www.w3.org/2000/svg" width="40" height="40" viewBox="0 0 40 40">
  <path id="facebook" d="M34.612,0H5.392A5.39,5.39,0,0,0,0,5.39V34.61A5.39,5.39,0,0,0,5.392,40H19.8l.025-14.294H16.114a.876.876,0,0,1-.876-.873l-.018-4.607a.876.876,0,0,1,.876-.88H19.8V14.894c0-5.166,3.155-7.98,7.764-7.98h3.782a.876.876,0,0,1,.876.876v3.885a.876.876,0,0,1-.876.876H29.029c-2.506,0-2.992,1.191-2.992,2.939v3.854h5.508a.876.876,0,0,1,.87.979l-.546,4.607a.876.876,0,0,1-.87.773H26.062L26.037,40h8.575A5.39,5.39,0,0,0,40,34.61V5.39A5.39,5.39,0,0,0,34.612,0Z" transform="translate(-0.002)" fill="#475993"/>
</svg>
