<svg id="Layer_1" data-name="Layer 1" xmlns="http://www.w3.org/2000/svg" viewBox="0 0 452.43 383.68"><defs><style>.cls-1{fill:#201f2e;}.cls-2{fill:#29abe2;}.cls-3{fill:#c69c6d;}.cls-4{fill:#a67c52;}</style></defs><title>favicon generator</title><path class="cls-1" d="M59.57,0H23.33A23.35,23.35,0,0,0,0,23.33v337a23.35,23.35,0,0,0,23.33,23.33H429.1a23.35,23.35,0,0,0,23.33-23.33v-337A23.35,23.35,0,0,0,429.1,0H59.57ZM429.1,23.33v337l-405.77,0v-337H429.1Z"/><path class="cls-2" d="M226.21,301.33,67.45,230.16,226.21,159,385,230.16Zm0,0"/><path class="cls-3" d="M226.21,263,67.45,191.84l158.76-71.17L385,191.84Zm0,0"/><path class="cls-4" d="M226.21,224.69,67.45,153.52,226.21,82.35,385,153.52Zm0,0"/><path d="M390.45,153.52a5.45,5.45,0,0,0-3.23-5L228.48,77.35a5.47,5.47,0,0,0-4.48,0L65.21,148.52a5.47,5.47,0,0,0,0,10l31.6,14.17-31.6,14.16a5.48,5.48,0,0,0,0,10L96.81,211l-31.6,14.16a5.48,5.48,0,0,0,0,10L224,306.33a5.44,5.44,0,0,0,4.47,0l158.77-71.17a5.48,5.48,0,0,0,0-10L355.62,211l31.6-14.16a5.48,5.48,0,0,0,0-10l-31.6-14.16,31.6-14.17a5.45,5.45,0,0,0,3.23-5ZM371.6,230.16,226.21,295.31,80.83,230.16,110.19,217,224,268a5.44,5.44,0,0,0,4.47,0l113.79-51Zm0-38.32L226.21,257,80.83,191.84l29.36-13.14L224,229.7a5.37,5.37,0,0,0,4.47,0l113.79-51ZM226.21,218.66,80.83,153.52,226.21,88.37,371.6,153.52Zm0,0"/></svg>