<svg xmlns="http://www.w3.org/2000/svg" width="18" height="17.999" viewBox="0 0 18 17.999">
  <g id="finland" transform="translate(0 -0.001)">
    <ellipse id="Ellipse_8" data-name="Ellipse 8" cx="9" cy="9" rx="9" ry="9" transform="translate(0.001 0.001)" fill="#fff"/>
    <path id="Path_1541" data-name="Path 1541" d="M314.63,186.147c.011-.067.02-.135.03-.2s.021-.151.03-.226.014-.125.02-.188c.009-.089.015-.179.021-.269,0-.051.007-.1.01-.154.007-.143.011-.287.011-.432,0-.163-.006-.324-.014-.484,0-.053-.007-.1-.011-.157-.008-.108-.017-.216-.029-.323-.006-.059-.013-.118-.021-.177-.014-.106-.029-.211-.046-.315-.009-.052-.016-.1-.025-.156,0-.014,0-.029-.007-.043h0c-.026-.141-.054-.282-.086-.42h-5.656c.009.139.014.28.021.42h-.447a25.545,25.545,0,0,1,.012,3.149h.446c-.006.126-.009.253-.016.379h5.689c.026-.125.049-.252.07-.379h0C314.629,186.16,314.629,186.154,314.63,186.147Z" transform="translate(-296.752 -175.673)" fill="#3757a6"/>
    <path id="Path_1542" data-name="Path 1542" d="M12.492,7.656h0c-.007-.139-.012-.279-.021-.417H8.513V.312c-.121.006-.24.018-.359.029v0L8.093.346c-.083.008-.166.018-.248.028s-.15.02-.224.031-.158.024-.237.038-.169.033-.253.05c-.068.014-.137.027-.2.043q-.209.049-.414.108c-.06.017-.118.036-.177.054-.091.028-.181.057-.271.088L5.888.85Q5.75.9,5.614.956l-.155.063q-.18.077-.355.161l-.061.028-.006,0h0q-.219.107-.432.226v5.8H.239c-.032.138-.06.277-.085.417h0c0,.014,0,.028-.007.042-.009.051-.017.1-.025.155-.017.1-.032.208-.046.313-.008.059-.014.117-.021.176-.011.107-.021.214-.028.321,0,.052-.008.1-.011.156C.006,8.979,0,9.139,0,9.3c0,.144,0,.287.011.429,0,.051.006.1.01.153.006.089.012.178.021.267.006.062.012.125.019.187s.019.15.029.225.019.135.03.2c0,.007,0,.013,0,.02h0c.021.126.043.252.069.376H4.606v6q.212.119.432.226h0c.029.014.06.027.089.041.108.052.217.1.328.149.054.023.109.045.163.067.088.036.177.07.266.1l.181.065c.089.031.179.059.269.087.059.018.118.037.177.054.139.04.279.077.421.11.064.015.128.027.193.04.086.018.173.036.26.052s.155.026.233.038.152.022.228.032.163.02.246.028l.062.007v0c.119.011.239.023.359.029v-7.13h3.972c.007-.125.01-.251.016-.376h0A25.384,25.384,0,0,0,12.492,7.656Z" transform="translate(0 -0.3)" fill="#3757a6"/>
  </g>
</svg>
