<svg xmlns="http://www.w3.org/2000/svg" width="19" height="18" viewBox="0 0 19 18">
  <g id="half_start" data-name="half start" transform="translate(-1273 -546)">
    <path id="Polygon_5" data-name="Polygon 5" d="M8.6,1.918a1,1,0,0,1,1.809,0l1.711,3.628a1,1,0,0,0,.78.566l3.986.5a1,1,0,0,1,.558,1.723l-2.925,2.733a1,1,0,0,0-.3.919l.755,3.927a1,1,0,0,1-1.463,1.065L9.981,15.044a1,1,0,0,0-.962,0L5.493,16.978A1,1,0,0,1,4.03,15.912l.755-3.927a1,1,0,0,0-.3-.919L1.56,8.333A1,1,0,0,1,2.119,6.61l3.986-.5a1,1,0,0,0,.78-.566Z" transform="translate(1273 546)" fill="#a8b3bf"/>
    <path id="Path_1" data-name="Path 1" d="M8.6,1.918c-.016-.028.451,13.114.424,13.126L5.493,16.978A1,1,0,0,1,4.03,15.912l.755-3.927a1,1,0,0,0-.3-.919L1.56,8.333A1,1,0,0,1,2.119,6.61l3.986-.5a1,1,0,0,0,.78-.566Z" transform="translate(1273 546)" fill="#ffb710"/>
  </g>
</svg>
