<svg id="Layer_1" data-name="Layer 1" xmlns="http://www.w3.org/2000/svg" viewBox="0 0 405.33 512"><defs><style>.cls-1{fill:#fff;}.cls-2{fill:#f2f2f2;}.cls-3{fill:#10c7ff;}</style></defs><title>image compression</title><path class="cls-1" d="M394.67,96h-64a21.41,21.41,0,0,1-21.34-21.33v-64Z"/><path class="cls-1" d="M394.67,96V480a21.4,21.4,0,0,1-21.34,21.33H32A21.38,21.38,0,0,1,10.67,480V32A21.38,21.38,0,0,1,32,10.67H309.33v64A21.41,21.41,0,0,0,330.67,96Z"/><path class="cls-2" d="M202.67,426.67v10.66H160v-64h42.67Z"/><path class="cls-3" d="M330.67,213.33v192a21.41,21.41,0,0,1-21.34,21.34H202.67V373.33H181.33v-32l-32-32,32-32-32-32,32-32V192h128A21.41,21.41,0,0,1,330.67,213.33Z"/><path class="cls-3" d="M181.33,192v21.33l-32,32,32,32-32,32,32,32v32H160v53.34H96a21.4,21.4,0,0,1-21.33-21.34v-192A21.39,21.39,0,0,1,96,192Z"/><path d="M64,64H170.67V85.33H64Z"/><path d="M64,106.67H85.33V128H64Z"/><path d="M106.67,106.67H128V128H106.67Z"/><path d="M402.21,88.46,316.87,3.13A10.62,10.62,0,0,0,309.33,0H32A32,32,0,0,0,0,32H0V480a32,32,0,0,0,32,32H373.33a32,32,0,0,0,32-32V96A10.66,10.66,0,0,0,402.21,88.46ZM384,480a10.67,10.67,0,0,1-10.67,10.67H32A10.67,10.67,0,0,1,21.33,480V32A10.67,10.67,0,0,1,32,21.33H298.67V74.67a32,32,0,0,0,32,32H352V85.33H330.67A10.67,10.67,0,0,1,320,74.67V36.42l64,64Z"/><path d="M309.33,181.33h-128A10.67,10.67,0,0,0,170.67,192v16.92l-28.88,28.87a10.67,10.67,0,0,0,0,15.08l24.46,24.46-24.46,24.46a10.67,10.67,0,0,0,0,15.08l28.88,28.88v16.92H160a10.67,10.67,0,0,0-10.67,10.66v64A10.67,10.67,0,0,0,160,448h42.67a10.67,10.67,0,0,0,10.66-10.67v-64a10.66,10.66,0,0,0-10.66-10.66H192V341.33a10.62,10.62,0,0,0-3.13-7.54l-24.45-24.46,24.45-24.46a10.65,10.65,0,0,0,0-15.08l-24.45-24.46,24.45-24.46a10.62,10.62,0,0,0,3.13-7.54V202.67H309.33A10.67,10.67,0,0,1,320,213.33v192A10.67,10.67,0,0,1,309.33,416h-64v21.33h64a32,32,0,0,0,32-32v-192A32,32,0,0,0,309.33,181.33ZM192,426.67H170.67V384H192Z"/><path d="M85.33,405.33v-192A10.67,10.67,0,0,1,96,202.67h42.67V181.33H96a32,32,0,0,0-32,32v192a32,32,0,0,0,32,32h21.33V416H96A10.67,10.67,0,0,1,85.33,405.33Z"/></svg>