<svg width="40" height="40" viewBox="0 0 40 40" fill="none" xmlns="http://www.w3.org/2000/svg">
<path d="M35 0H5C2.23858 0 0 2.23858 0 5V35C0 37.7614 2.23858 40 5 40H35C37.7614 40 40 37.7614 40 35V5C40 2.23858 37.7614 0 35 0Z" fill="black"/>
<path d="M31.91 24.95C31.9606 25.8825 31.8141 26.8153 31.4802 27.6874C31.1463 28.5596 30.6324 29.3517 29.972 30.012C29.3117 30.6724 28.5196 31.1863 27.6475 31.5202C26.7753 31.8541 25.8426 32.0005 24.91 31.95C22.91 32.06 16.99 32.06 15.01 31.95C13.1557 31.9714 11.3647 31.2765 10.01 30.01C8.73548 28.6605 8.03923 26.866 8.07005 25.01C7.96005 23.01 7.96005 17.09 8.07005 15.11C8.01794 14.1771 8.16331 13.2437 8.49665 12.3708C8.83 11.4979 9.34382 10.7052 10.0045 10.0445C10.6652 9.3838 11.4579 8.86997 12.3308 8.53662C13.2037 8.20328 14.1371 8.05791 15.07 8.11002C17.07 7.99002 22.99 7.99002 24.97 8.11002C25.903 8.05791 26.8364 8.20328 27.7093 8.53662C28.5822 8.86997 29.3749 9.3838 30.0356 10.0445C30.6963 10.7052 31.2101 11.4979 31.5434 12.3708C31.8768 13.2437 32.0222 14.1771 31.97 15.11C32.03 17.03 32.03 22.97 31.91 24.95ZM29.83 20C29.83 18.25 29.98 14.51 29.35 12.93C29.149 12.4126 28.8425 11.9426 28.45 11.5501C28.0574 11.1576 27.5875 10.8511 27.07 10.65C25.5 10.02 21.75 10.16 20 10.16C18.25 10.16 14.51 10.02 12.93 10.65C12.4126 10.8511 11.9427 11.1576 11.5501 11.5501C11.1576 11.9426 10.8511 12.4126 10.65 12.93C10.02 14.5 10.16 18.25 10.16 20C10.16 21.75 10.02 25.5 10.65 27.07C10.8499 27.5893 11.1559 28.0612 11.5485 28.4555C11.9411 28.8498 12.4116 29.1579 12.93 29.36C14.5 29.98 18.25 29.84 20 29.84C21.75 29.84 25.49 29.98 27.07 29.36C27.5885 29.1579 28.059 28.8498 28.4516 28.4555C28.8442 28.0612 29.1502 27.5893 29.35 27.07C29.98 25.49 29.83 21.75 29.83 20ZM26.15 20C26.15 21.2164 25.7894 22.4054 25.1136 23.4168C24.4378 24.4281 23.4773 25.2164 22.3535 25.6819C21.2298 26.1474 19.9932 26.2692 18.8002 26.0319C17.6073 25.7946 16.5114 25.2088 15.6513 24.3487C14.7912 23.4886 14.2055 22.3928 13.9682 21.1998C13.7309 20.0068 13.8527 18.7703 14.3182 17.6465C14.7837 16.5228 15.5719 15.5622 16.5833 14.8865C17.5946 14.2107 18.7837 13.85 20 13.85C20.8084 13.8474 21.6093 14.0046 22.3567 14.3128C23.104 14.6209 23.783 15.0738 24.3546 15.6454C24.9262 16.217 25.3792 16.8961 25.6873 17.6434C25.9954 18.3908 26.1527 19.1917 26.15 20ZM24 20C24 19.2089 23.7654 18.4355 23.3259 17.7777C22.8864 17.1199 22.2617 16.6073 21.5308 16.3045C20.7999 16.0018 19.9956 15.9225 19.2197 16.0769C18.4438 16.2312 17.731 16.6122 17.1716 17.1716C16.6122 17.731 16.2312 18.4437 16.0769 19.2197C15.9226 19.9956 16.0018 20.7999 16.3045 21.5308C16.6073 22.2617 17.12 22.8864 17.7778 23.3259C18.4356 23.7654 19.2089 24 20 24C20.5253 24 21.0455 23.8965 21.5308 23.6955C22.0161 23.4945 22.457 23.1999 22.8285 22.8285C23.1999 22.457 23.4945 22.0161 23.6956 21.5308C23.8966 21.0455 24 20.5253 24 20ZM26.4 12.16C26.1152 12.16 25.8368 12.2445 25.6 12.4027C25.3632 12.5609 25.1787 12.7858 25.0697 13.049C24.9607 13.3121 24.9322 13.6016 24.9877 13.881C25.0433 14.1603 25.1804 14.4169 25.3818 14.6183C25.5832 14.8196 25.8398 14.9568 26.1191 15.0124C26.3984 15.0679 26.688 15.0394 26.9511 14.9304C27.2142 14.8214 27.4391 14.6369 27.5974 14.4001C27.7556 14.1633 27.84 13.8848 27.84 13.6C27.8414 13.4088 27.8045 13.2193 27.7313 13.0427C27.6582 12.866 27.5504 12.7059 27.4142 12.5716C27.2781 12.4373 27.1165 12.3317 26.9388 12.2611C26.7612 12.1904 26.5712 12.156 26.38 12.16H26.4Z" fill="white"/>
</svg>
