<svg xmlns="http://www.w3.org/2000/svg" width="94.549" height="100.549" viewBox="0 0 94.549 100.549">
  <g id="IP_Tools" data-name="IP Tools" transform="translate(-948 -1560)">
    <ellipse id="Ellipse_1" data-name="Ellipse 1" cx="47" cy="48.121" rx="47" ry="48.121" transform="translate(948 1560)" fill="#f2f2f2"/>
    <g id="Group_1171" data-name="Group 1171" transform="translate(962.549 1580.549)">
      <path id="Path_498" data-name="Path 498" d="M8,8V75.185H85.437V8Z" transform="translate(-6.719 -6.719)" fill="#fff"/>
      <rect id="Rectangle_15" data-name="Rectangle 15" width="77.437" height="10.252" transform="translate(1.281 1.281)" fill="#fb5968"/>
      <g id="Group_1170" data-name="Group 1170" transform="translate(22.059 42.837)">
        <circle id="Ellipse_8" data-name="Ellipse 8" cx="17.941" cy="17.941" r="17.941" fill="#39c3fc"/>
        <circle id="Ellipse_9" data-name="Ellipse 9" cx="17.941" cy="17.941" r="17.941" fill="#39c3fc"/>
        <circle id="Ellipse_10" data-name="Ellipse 10" cx="17.941" cy="17.941" r="17.941" fill="#39c3fc"/>
      </g>
      <path id="Path_499" data-name="Path 499" d="M119.616,156.5H67.88A3.853,3.853,0,0,1,64,152.659V139.844A3.853,3.853,0,0,1,67.88,136h51.736a3.853,3.853,0,0,1,3.88,3.844v12.815A3.853,3.853,0,0,1,119.616,156.5Z" transform="translate(-53.748 -114.012)" fill="#92e0c0"/>
      <path id="Path_500" data-name="Path 500" d="M80,0H0V69.677H22.887a19.346,19.346,0,0,0,34.226,0H80ZM77.419,2.581v7.742H2.581V2.581ZM50.258,59.355a22.886,22.886,0,0,0-1.919-8.081,15.27,15.27,0,0,0,3.742-2.226A16.733,16.733,0,0,1,56.71,59.355Zm-8.968-13.9a24.482,24.482,0,0,1,3.339,4.323,19.686,19.686,0,0,1-3.339.5ZM38.71,50.29a19.686,19.686,0,0,1-3.339-.5,24.482,24.482,0,0,1,3.339-4.323Zm0,2.581v6.484H32.323a20.676,20.676,0,0,1,1.806-7.226A21.41,21.41,0,0,0,38.71,52.871Zm0,9.065v6.484a21.41,21.41,0,0,0-4.581.742,20.675,20.675,0,0,1-1.806-7.226Zm0,9.065v4.823A24.482,24.482,0,0,1,35.371,71.5,19.2,19.2,0,0,1,38.71,71Zm-2.484,5.968a17.074,17.074,0,0,1-6.355-2.984,13.824,13.824,0,0,1,2.952-1.645A26.312,26.312,0,0,0,36.226,76.968Zm5.065-1.145V71.016a19.687,19.687,0,0,1,3.339.5A24.9,24.9,0,0,1,41.29,75.823Zm5.871-3.484a13.824,13.824,0,0,1,2.952,1.645,16.6,16.6,0,0,1-6.355,2.984A24.787,24.787,0,0,0,47.161,72.339ZM41.29,68.419V61.935h6.387a20.675,20.675,0,0,1-1.806,7.226A21.41,21.41,0,0,0,41.29,68.419Zm0-9.065V52.871a21.41,21.41,0,0,0,4.581-.742,20.675,20.675,0,0,1,1.806,7.226Zm5.871-10.4a27.115,27.115,0,0,0-3.387-4.645,17.074,17.074,0,0,1,6.355,2.984A13.645,13.645,0,0,1,47.161,48.952Zm-14.323,0a13.823,13.823,0,0,1-2.952-1.645,16.6,16.6,0,0,1,6.355-2.984A24.787,24.787,0,0,0,32.839,48.952Zm-4.919.1a15.607,15.607,0,0,0,3.742,2.226,22.972,22.972,0,0,0-1.919,8.081H23.29A16.645,16.645,0,0,1,27.919,49.048ZM23.29,61.935h6.452a22.885,22.885,0,0,0,1.919,8.081,15.269,15.269,0,0,0-3.742,2.226A16.645,16.645,0,0,1,23.29,61.935Zm28.79,10.306a15.607,15.607,0,0,0-3.742-2.226,22.972,22.972,0,0,0,1.919-8.081H56.71A16.645,16.645,0,0,1,52.081,72.242ZM58.226,67.1a19.24,19.24,0,0,0-8.613-23.226h7.161V41.29H15.484a3.882,3.882,0,0,1-3.871-3.871V27.1a3.882,3.882,0,0,1,3.871-3.871H64.516A3.882,3.882,0,0,1,68.387,27.1V37.419a3.882,3.882,0,0,1-3.871,3.871H59.355v2.581h5.161a6.45,6.45,0,0,0,6.452-6.452V27.1a6.45,6.45,0,0,0-6.452-6.452H15.484A6.45,6.45,0,0,0,9.032,27.1V37.419a6.45,6.45,0,0,0,6.452,6.452h14.9A19.24,19.24,0,0,0,21.774,67.1H2.581V12.9H77.419V67.1Z"/>
      <path id="Path_501" data-name="Path 501" d="M100,174.24l-4.229-5.286-4.229,5.286L90.631,167l-2.531.32,1.65,13.263,6.023-7.529,6.023,7.529,1.65-13.263-2.531-.32Z" transform="translate(-73.867 -140.026)"/>
      <path id="Path_502" data-name="Path 502" d="M212,174.24l-4.229-5.286-4.229,5.286-.913-7.24-2.531.32,1.65,13.263,6.023-7.529,6.023,7.529,1.65-13.263-2.531-.32Z" transform="translate(-167.773 -140.026)"/>
      <path id="Path_503" data-name="Path 503" d="M327.446,167.32l-2.531-.32L324,174.24l-4.229-5.286-4.229,5.286-.913-7.24-2.531.32,1.65,13.263,6.023-7.529,6.023,7.529Z" transform="translate(-261.679 -140.026)"/>
      <rect id="Rectangle_16" data-name="Rectangle 16" width="2.563" height="2.563" transform="translate(5.126 5.126)"/>
      <rect id="Rectangle_17" data-name="Rectangle 17" width="2.563" height="2.563" transform="translate(10.252 5.126)"/>
      <rect id="Rectangle_18" data-name="Rectangle 18" width="2.563" height="2.563" transform="translate(15.487 5.126)"/>
    </g>
  </g>
</svg>
