<svg width="46" height="46" viewBox="0 0 46 46" fill="none" xmlns="http://www.w3.org/2000/svg">
<g clip-path="url(#clip0_4_46)">
<path d="M23 46C35.7025 46 46 35.7025 46 23C46 10.2975 35.7025 0 23 0C10.2975 0 0 10.2975 0 23C0 35.7025 10.2975 46 23 46Z" fill="#29CF8E"/>
<path d="M20.7752 30.0806C25.8978 30.0806 30.0505 25.9212 30.0505 20.7903C30.0505 15.6594 25.8978 11.5 20.7752 11.5C15.6527 11.5 11.5 15.6594 11.5 20.7903C11.5 25.9212 15.6527 30.0806 20.7752 30.0806Z" stroke="white" stroke-width="1.5" stroke-miterlimit="10" stroke-linecap="round"/>
<path d="M27.5928 27.5928L34.5 34.5042" stroke="white" stroke-width="1.5" stroke-miterlimit="10" stroke-linecap="round"/>
</g>
<defs>
<clipPath id="clip0_4_46">
<rect width="46" height="46" fill="white"/>
</clipPath>
</defs>
</svg>
