<svg xmlns="http://www.w3.org/2000/svg" width="18" height="18" viewBox="0 0 18 18">
  <g id="south-korea" transform="translate(-0.234 -0.234)">
    <circle id="Ellipse_9" data-name="Ellipse 9" cx="9" cy="9" r="9" transform="translate(0.234 0.234)" fill="#f0f0f0"/>
    <path id="Path_1543" data-name="Path 1543" d="M173.427,170.192a3.264,3.264,0,0,1-6.47,0,3.235,3.235,0,1,1,6.47,0Z" transform="translate(-160.958 -160.958)" fill="#d80027"/>
    <path id="Path_1544" data-name="Path 1544" d="M173.427,256a3.235,3.235,0,0,1-6.47,0" transform="translate(-160.958 -246.766)" fill="#0052b4"/>
    <rect id="Rectangle_510" data-name="Rectangle 510" width="1.213" height="0.809" transform="translate(12.666 12.094) rotate(-45)"/>
    <rect id="Rectangle_511" data-name="Rectangle 511" width="1.213" height="0.809" transform="translate(11.236 13.524) rotate(-45)"/>
    <rect id="Rectangle_512" data-name="Rectangle 512" width="1.213" height="0.809" transform="translate(14.382 13.809) rotate(-45)"/>
    <rect id="Rectangle_513" data-name="Rectangle 513" width="1.213" height="0.809" transform="translate(12.952 15.239) rotate(-45)"/>
    <rect id="Rectangle_514" data-name="Rectangle 514" width="1.213" height="0.809" transform="translate(13.524 12.952) rotate(-45)"/>
    <rect id="Rectangle_515" data-name="Rectangle 515" width="1.213" height="0.809" transform="translate(12.094 14.382) rotate(-45)"/>
    <rect id="Rectangle_516" data-name="Rectangle 516" width="3.235" height="0.809" transform="translate(14.382 6.375) rotate(-135)"/>
    <rect id="Rectangle_517" data-name="Rectangle 517" width="1.213" height="0.809" transform="translate(12.094 5.803) rotate(-135)"/>
    <rect id="Rectangle_518" data-name="Rectangle 518" width="1.213" height="0.809" transform="translate(13.524 7.233) rotate(-135)"/>
    <rect id="Rectangle_519" data-name="Rectangle 519" width="1.213" height="0.809" transform="translate(13.809 4.087) rotate(-135)"/>
    <rect id="Rectangle_520" data-name="Rectangle 520" width="1.213" height="0.809" transform="translate(15.24 5.517) rotate(-135)"/>
    <rect id="Rectangle_521" data-name="Rectangle 521" width="3.235" height="0.809" transform="translate(3.229 12.952) rotate(45)"/>
    <rect id="Rectangle_522" data-name="Rectangle 522" width="1.213" height="0.809" transform="translate(5.517 13.524) rotate(45)"/>
    <rect id="Rectangle_523" data-name="Rectangle 523" width="1.213" height="0.809" transform="translate(4.087 12.094) rotate(45)"/>
    <rect id="Rectangle_524" data-name="Rectangle 524" width="3.235" height="0.809" transform="translate(4.945 11.236) rotate(45)"/>
    <rect id="Rectangle_525" data-name="Rectangle 525" width="3.235" height="0.809" transform="translate(5.517 3.229) rotate(135)"/>
    <rect id="Rectangle_526" data-name="Rectangle 526" width="3.235" height="0.809" transform="translate(6.374 4.087) rotate(135)"/>
    <rect id="Rectangle_527" data-name="Rectangle 527" width="3.235" height="0.809" transform="translate(7.233 4.945) rotate(135)"/>
  </g>
</svg>
