<svg width="800" height="137" viewBox="0 0 800 137" fill="none" xmlns="http://www.w3.org/2000/svg">
<path d="M800 56H0V84H800V56Z" fill="#FFD300"/>
<g filter="url(#filter0_d_215_577)">
<path d="M500 22H300C277.909 22 260 39.9086 260 62C260 84.0914 277.909 102 300 102H500C522.091 102 540 84.0914 540 62C540 39.9086 522.091 22 500 22Z" fill="white"/>
</g>
<path d="M397.382 54.321V55.9705C396.068 54.7021 394.337 53.9375 392.38 53.9375C387.988 53.9375 384.621 57.5247 384.621 61.9693C384.621 66.4139 387.985 69.9385 392.38 69.9385C394.337 69.9385 396.065 69.1764 397.382 67.908V69.56H400.523V54.321H397.382ZM396.665 64.4034C395.164 66.7699 392.329 67.4818 390.076 66.078C387.823 64.6767 387.221 61.8665 388.72 59.5001C390.221 57.1337 393.071 56.3942 395.326 57.798C397.579 59.1993 398.164 62.037 396.665 64.4034Z" fill="#1C1C1C"/>
<path d="M464.674 54.321V55.9705C463.36 54.7021 461.629 53.9375 459.672 53.9375C455.28 53.9375 451.914 57.5247 451.914 61.9693C451.914 66.4139 455.278 69.9385 459.672 69.9385C461.629 69.9385 463.358 69.1764 464.674 67.908V69.56H467.815V54.321H464.674ZM463.958 64.4034C462.457 66.7699 459.621 67.4818 457.369 66.078C455.116 64.6767 454.513 61.8665 456.012 59.5001C457.513 57.1337 460.366 56.3942 462.619 57.798C464.871 59.1993 465.456 62.037 463.958 64.4034Z" fill="#1C1C1C"/>
<path d="M412.962 60.4724C412.962 59.0435 412.643 58.3441 412.16 57.8377C411.679 57.3289 410.942 57.0431 410.14 57.0431C409.337 57.0431 408.601 57.3289 408.12 57.8377C407.639 58.3466 407.317 59.0435 407.317 60.4724V69.5521H404.047V54.3132H407.122V55.3936C407.988 54.5037 409.239 53.9321 410.681 53.9321C412.446 53.9321 414.015 54.7569 415.01 56.0278C416.068 54.7594 417.703 53.9321 419.594 53.9321C421.485 53.9321 422.961 54.7569 423.986 56.0905C424.69 57.0431 425.14 58.2489 425.14 60.1866V69.5521H421.87V60.4724C421.87 59.0435 421.548 58.3441 421.067 57.8377C420.586 57.3289 419.85 57.0431 419.047 57.0431C418.245 57.0431 417.508 57.3289 417.027 57.8377C416.546 58.3466 416.225 59.0435 416.225 60.4724V69.5521H412.954V60.4724H412.962Z" fill="#1C1C1C"/>
<path d="M437.412 60.4724C437.412 59.0435 437.093 58.3441 436.61 57.8377C436.129 57.3289 435.392 57.0431 434.59 57.0431C433.787 57.0431 433.051 57.3289 432.57 57.8377C432.089 58.3466 431.767 59.0435 431.767 60.4724V69.5521H428.497V54.3132H431.572V55.3936C432.438 54.5037 433.688 53.9321 435.131 53.9321C436.896 53.9321 438.465 54.7569 439.46 56.0278C440.518 54.7594 442.153 53.9321 444.044 53.9321C445.935 53.9321 447.411 54.7569 448.436 56.0905C449.142 57.0431 449.59 58.2489 449.59 60.1866V69.5521H446.32V60.4724C446.32 59.0435 446.001 58.3441 445.517 57.8377C445.036 57.3289 444.3 57.0431 443.497 57.0431C442.695 57.0431 441.958 57.3289 441.477 57.8377C440.996 58.3466 440.675 59.0435 440.675 60.4724V69.5521H437.404V60.4724H437.412Z" fill="#1C1C1C"/>
<path d="M483.342 44.8579H486.613V69.5575H483.342V44.8579Z" fill="#1C1C1C"/>
<path d="M366.829 54.3206V55.97C365.515 54.7016 363.784 53.937 361.827 53.937C357.435 53.9395 354.069 57.4616 354.069 61.9087C354.069 66.3558 357.435 69.9405 361.827 69.9405C363.751 69.9405 365.482 69.2085 366.763 67.9727V69.5595C366.763 72.164 365.125 74.1294 362.683 74.4503C360.774 74.7009 358.678 74.1595 357.339 73.0715C357.177 72.9387 357.03 72.8008 356.894 72.6529L355.177 75.4204C355.221 75.4555 355.261 75.4906 355.302 75.5257C356.997 76.9044 359.374 77.6866 361.744 77.6866C362.199 77.6866 362.652 77.659 363.103 77.5988C367.148 77.0699 369.968 73.7609 369.968 69.5595V54.3206H366.827H366.829ZM362.149 66.8296C359.488 66.8296 357.468 64.7013 357.468 61.9087C357.468 59.1161 359.488 57.0505 362.149 57.0505C364.809 57.0505 366.829 59.1462 366.829 61.9413C366.829 64.7364 364.809 66.8296 362.149 66.8296Z" fill="#1C1C1C"/>
<path d="M501.347 54.2656L496.502 65.1502L492.035 54.2656H488.754L494.796 68.9856L490.984 77.5489H494.305L496.388 72.8662L498.095 69.0333L504.668 54.2681H501.347V54.2656Z" fill="#1C1C1C"/>
<path d="M383.498 54.69C382.364 54.1937 381.116 53.9881 379.893 54.2363C378.81 54.4569 377.805 54.9958 377.025 55.7704C376.863 55.9309 376.706 56.0863 376.574 56.2793V54.3115H373.499V69.5504H376.769V61.9623C376.769 60.1849 377.22 59.1672 377.954 58.4377C378.724 57.6756 379.782 57.2319 380.999 57.2319C381.379 57.2319 382.353 57.3372 383.412 58.014L384.966 55.5072C384.503 55.1914 384.011 54.9131 383.498 54.69Z" fill="#1C1C1C"/>
<path d="M477.738 54.21C476.654 54.4306 475.649 54.9696 474.87 55.7442C474.708 55.9046 474.548 56.06 474.419 56.2505V54.2827H471.341V69.5216H474.612V61.9335C474.612 60.1562 475.06 59.1384 475.796 58.4089C476.566 57.6468 477.621 57.2031 478.841 57.2031C479.219 57.2031 480.12 57.2106 481.246 57.6443V54.6286C480.137 54.1624 478.925 53.9643 477.735 54.2075L477.738 54.21Z" fill="#1C1C1C"/>
<path d="M296 62.0013C296 48.7455 306.85 38 320.236 38C333.621 38 344.469 48.7455 344.469 62.0013C344.469 73.5995 336.167 83.2744 325.123 85.5139C323.546 85.8353 321.91 86 320.241 86H296V61.9987V62.0013Z" fill="#27B473"/>
<path d="M337.006 59.7268H326.086L323.513 64.1393H332.518C331.107 71.8112 322.491 77.0365 313.881 72.6188C312.03 71.6704 310.522 70.2014 309.546 68.3684C304.592 59.0282 311.359 49.6322 320.289 49.6322C323.972 49.6322 327.288 51.2288 329.565 53.7604L331.872 49.8022C328.583 46.7207 324.047 44.9249 319.098 45.2703C310.673 45.8467 303.843 52.7615 303.433 61.1109C302.966 70.6981 310.705 78.6437 320.284 78.6437C329.863 78.6437 337.156 71.1444 337.156 61.9317C337.156 61.1826 337.1 60.4494 337.003 59.7295L337.006 59.7268Z" fill="white"/>
<mask id="mask0_215_577" style="mask-type:luminance" maskUnits="userSpaceOnUse" x="169" y="0" width="53" height="102">
<path d="M222 0H169.385V101.835H222V0Z" fill="white"/>
</mask>
<g mask="url(#mask0_215_577)">
<path d="M221.216 0.0190745C207.116 3.32807 194.85 14.3191 186.753 25.9001C183.062 31.1137 180.133 36.8264 178.053 42.8661C173.085 46.2641 170.693 52.3501 169.862 58.1351C167.999 71.1071 171.45 88.8571 182.785 96.9161C180.089 96.6767 177.373 96.8544 174.732 97.4431C174.562 97.4951 174.414 97.6002 174.309 97.7429C174.203 97.8855 174.146 98.0582 174.146 98.2356C174.146 98.413 174.203 98.5857 174.309 98.7283C174.414 98.8709 174.562 98.976 174.732 99.0281C180.549 100.622 186.837 100.006 192.711 101.744C194.535 102.284 195.588 100.316 194.949 98.8321C193.073 94.7815 191.919 90.4346 191.539 85.9871C191.339 83.2961 187.303 83.2191 187.293 85.9871C187.283 89.2392 187.824 92.4695 188.893 95.5411C177.197 88.6491 173.012 75.1181 173.867 61.6001C174.02 57.8362 174.991 54.1508 176.712 50.8001C176.776 55.3781 178.685 59.3001 183.831 61.3651C195.387 66.0131 204.831 49.7481 194.558 42.4761C192.948 41.4134 191.136 40.6934 189.235 40.3608C187.335 40.0283 185.386 40.0903 183.511 40.5431C185.697 35.2338 188.531 30.2148 191.947 25.6001C199.885 14.8001 210.385 7.91307 221.698 1.16107C221.824 1.08175 221.918 0.960173 221.963 0.818054C222.007 0.675935 222 0.522537 221.942 0.385268C221.884 0.247998 221.779 0.135799 221.646 0.0687165C221.513 0.00163419 221.361 -0.015961 221.216 0.0190745ZM184.053 44.8941C186.607 44.2581 189.72 44.3521 191.935 45.9271C192.736 46.5352 193.389 47.3164 193.846 48.2124C194.302 49.1084 194.55 50.096 194.571 51.1014C194.592 52.1068 194.386 53.104 193.968 54.0184C193.549 54.9328 192.93 55.7408 192.155 56.3821C188.518 59.3981 182.962 57.4421 181.505 53.0441C180.863 50.6595 180.925 48.1399 181.685 45.7901C182.437 45.3991 183.233 45.097 184.055 44.8901" fill="black"/>
</g>
<defs>
<filter id="filter0_d_215_577" x="232" y="1" width="336" height="136" filterUnits="userSpaceOnUse" color-interpolation-filters="sRGB">
<feFlood flood-opacity="0" result="BackgroundImageFix"/>
<feColorMatrix in="SourceAlpha" type="matrix" values="0 0 0 0 0 0 0 0 0 0 0 0 0 0 0 0 0 0 127 0" result="hardAlpha"/>
<feOffset dy="7"/>
<feGaussianBlur stdDeviation="14"/>
<feColorMatrix type="matrix" values="0 0 0 0 0 0 0 0 0 0 0 0 0 0 0 0 0 0 0.161 0"/>
<feBlend mode="normal" in2="BackgroundImageFix" result="effect1_dropShadow_215_577"/>
<feBlend mode="normal" in="SourceGraphic" in2="effect1_dropShadow_215_577" result="shape"/>
</filter>
</defs>
</svg>
