<svg id="paraphrasing-tool" xmlns="http://www.w3.org/2000/svg" width="19.403" height="21.675" viewBox="0 0 19.403 21.675">
  <path id="Path_1905" data-name="Path 1905" d="M10,40.936v14.75l4.3,3.6h9.928a.936.936,0,0,0,.936-.936V40.936A.936.936,0,0,0,24.231,40H10.936A.936.936,0,0,0,10,40.936Z" transform="translate(-9.532 -38.127)" fill="#fff"/>
  <path id="Path_1906" data-name="Path 1906" d="M13.367,379.08H10l4.3,3.835v-2.9a.936.936,0,0,0-.936-.936Z" transform="translate(-9.532 -361.334)" fill="#fee598"/>
  <path id="Path_1907" data-name="Path 1907" d="M25.167,50.936A.936.936,0,0,0,24.231,50H10.936a.936.936,0,0,0-.936.936v2.715H25.167Z" transform="translate(-9.532 -47.659)" fill="#ffa56f"/>
  <path id="Path_1908" data-name="Path 1908" d="M15.636,18.866a.468.468,0,0,0-.468.468v.889a.468.468,0,0,1-.468.468H5.239V18.963a1.4,1.4,0,0,0-1.4-1.4H.936V6.46H15.167v3.573a.468.468,0,1,0,.936,0V3.277a1.4,1.4,0,0,0-1.4-1.4H13.576V1.5a1.5,1.5,0,1,0-3,0v.375H9.55V1.5a1.5,1.5,0,0,0-3,0v.375H5.524V1.5a1.5,1.5,0,1,0-3,0v.375H1.4A1.4,1.4,0,0,0,0,3.277v14.75a.468.468,0,0,0,.137.331l3.226,3.18a.468.468,0,0,0,.331.137h11a1.447,1.447,0,0,0,1.4-1.451v-.889A.468.468,0,0,0,15.636,18.866Zm-11.333.1V21.2l-2.7-2.7H3.835A.468.468,0,0,1,4.3,18.963ZM11.516,1.5a.562.562,0,0,1,1.124,0v.375H11.516ZM7.49,1.5a.562.562,0,1,1,1.124,0v.375H7.49Zm-4.026,0a.562.562,0,1,1,1.124,0v.375H3.464ZM1.4,2.809H4.588v.375a.562.562,0,0,1-.562.562.468.468,0,1,0,0,.936,1.5,1.5,0,0,0,1.5-1.5V2.809h3.09v.375a.562.562,0,0,1-.562.562.468.468,0,1,0,0,.936,1.5,1.5,0,0,0,1.5-1.5V2.809h3.09v.375a.562.562,0,0,1-.562.562.468.468,0,1,0,0,.936,1.5,1.5,0,0,0,1.5-1.5V2.809H14.7a.468.468,0,0,1,.468.468V5.524H.936V3.277A.468.468,0,0,1,1.4,2.809Z" transform="translate(0)"/>
  <path id="Path_1909" data-name="Path 1909" d="M73.489,230H64.3a.468.468,0,1,0,0,.936h9.191a.468.468,0,1,0,0-.936Z" transform="translate(-60.842 -219.233)"/>
  <path id="Path_1910" data-name="Path 1910" d="M73.489,286H64.3a.468.468,0,0,0,0,.936h9.191a.468.468,0,0,0,0-.936Z" transform="translate(-60.842 -272.611)"/>
  <path id="Path_1911" data-name="Path 1911" d="M73.489,342H64.3a.468.468,0,1,0,0,.936h9.191a.468.468,0,1,0,0-.936Z" transform="translate(-60.842 -325.99)"/>
  <path id="Path_1912" data-name="Path 1912" d="M115.277,174h-7.139a.468.468,0,1,0,0,.936h7.139a.468.468,0,1,0,0-.936Z" transform="translate(-102.63 -165.854)"/>
  <path id="Path_1913" data-name="Path 1913" d="M64.3,174.935a.468.468,0,1,0-.331-.137.468.468,0,0,0,.331.137Z" transform="translate(-60.844 -165.854)"/>
  <path id="Path_1914" data-name="Path 1914" d="M254.387,175.317l.222-.384a1.244,1.244,0,0,1,1.7-.455h0a1.243,1.243,0,0,1,.455,1.7l-4.889,8.467L249.72,183.4l2.107-3.651Z" transform="translate(-238.03 -166.151)" fill="#fed045"/>
  <path id="Path_1915" data-name="Path 1915" d="M346.6,169.475h0a1.243,1.243,0,0,0-1.7.455l-.577,1,2.153,1.243.577-1A1.243,1.243,0,0,0,346.6,169.475Z" transform="translate(-328.201 -161.382)" fill="#ff5d5d"/>
  <path id="Path_1916" data-name="Path 1916" d="M244.877,369.693l-2.5,1.839.344-3.083Z" transform="translate(-231.033 -351.202)" fill="#fee598"/>
  <path id="Path_1917" data-name="Path 1917" d="M244.045,156.223a1.631,1.631,0,0,0-2.229.6l-4.89,8.467a.386.386,0,0,0-.05.151l-.344,3.082a.389.389,0,0,0,.617.356l2.5-1.839a.384.384,0,0,0,.106-.118l4.89-8.467A1.633,1.633,0,0,0,244.045,156.223Zm-6.461,9.893,1.124.649-1.3.961Zm1.691.079-1.48-.854,3.922-6.794,1.482.854Zm4.694-8.131-.383.663-1.48-.854.383-.663a.855.855,0,0,1,1.48.854Z" transform="translate(-225.457 -148.701)"/>
</svg>
