<svg xmlns="http://www.w3.org/2000/svg" width="99.036" height="100" viewBox="0 0 99.036 100">
  <g id="Password_Manager_Tools" data-name="Password Manager Tools" transform="translate(-4904 -2122)">
    <ellipse id="Ellipse_1" data-name="Ellipse 1" cx="47" cy="48.121" rx="47" ry="48.121" transform="translate(4904 2122)" fill="#f2f2f2"/>
    <g id="Group_1185" data-name="Group 1185" transform="translate(3866 42)">
      <path id="Path_528" data-name="Path 528" d="M82.748,302.137H12.621A5.634,5.634,0,0,1,7,296.5V282.42a5.614,5.614,0,0,1,5.6-5.62H82.748a5.614,5.614,0,0,1,5.6,5.62V296.5A5.606,5.606,0,0,1,82.748,302.137Z" transform="translate(1047.352 1876.528)" fill="#e4eaf8"/>
      <path id="Path_529" data-name="Path 529" d="M159.724,126.863h0a14.9,14.9,0,0,0,14.905-14.905v-6.391a4.264,4.264,0,0,0-4.267-4.267h-21.3a4.264,4.264,0,0,0-4.267,4.267v6.391A14.921,14.921,0,0,0,159.724,126.863Z" transform="translate(935.321 2016.49)" fill="#ff5050"/>
      <path id="Path_530" data-name="Path 530" d="M77.067,269.8H6.933A6.952,6.952,0,0,0,0,276.755v14.078a6.952,6.952,0,0,0,6.933,6.955h67.38a1.316,1.316,0,0,0,0-2.631H6.933a4.309,4.309,0,0,1-4.291-4.3V276.773a4.309,4.309,0,0,1,4.291-4.3H77.086a4.309,4.309,0,0,1,4.291,4.3V290.4a1.312,1.312,0,1,0,2.623,0V276.773A6.956,6.956,0,0,0,77.067,269.8Z" transform="translate(1053.036 1882.212)"/>
      <path id="Path_531" data-name="Path 531" d="M163.667,17.368V12.65a12.65,12.65,0,0,0-25.3,0v4.718a6.252,6.252,0,0,0-4.267,5.921v6.391a16.9,16.9,0,0,0,33.8,0V23.289A6.17,6.17,0,0,0,163.667,17.368ZM151.035,3.985a8.66,8.66,0,0,1,8.646,8.646v4.4H142.37V12.65A8.68,8.68,0,0,1,151.035,3.985ZM163.93,29.679a12.913,12.913,0,1,1-25.826,0V23.289a2.262,2.262,0,0,1,2.256-2.256h21.3a2.262,2.262,0,0,1,2.256,2.256v6.391Z" transform="translate(944.01 2098)"/>
      <path id="Path_532" data-name="Path 532" d="M206.335,136a4.133,4.133,0,0,0-2.011,7.744v1.391a1.992,1.992,0,1,0,3.985,0v-1.391A4.133,4.133,0,0,0,206.335,136Z" transform="translate(888.711 1990.298)" fill="#fff"/>
      <path id="Path_533" data-name="Path 533" d="M158.478,310.677a1.319,1.319,0,0,0-1.8-.489l-2.895,1.673v-3.346a1.316,1.316,0,0,0-2.631,0v3.346l-2.895-1.673a1.322,1.322,0,0,0-1.316,2.293l2.895,1.673-2.895,1.673a1.317,1.317,0,0,0,.658,2.462,1.372,1.372,0,0,0,.658-.169l2.895-1.673v3.346a1.316,1.316,0,0,0,2.631,0v-3.346l2.895,1.673a1.372,1.372,0,0,0,.658.169,1.348,1.348,0,0,0,1.147-.658,1.319,1.319,0,0,0-.489-1.8l-2.895-1.673,2.895-1.673A1.312,1.312,0,0,0,158.478,310.677Z" transform="translate(934.156 1851.842)"/>
      <path id="Path_534" data-name="Path 534" d="M68.678,310.677a1.319,1.319,0,0,0-1.8-.489l-2.895,1.673v-3.346a1.316,1.316,0,0,0-2.631,0v3.346l-2.895-1.673a1.322,1.322,0,0,0-1.316,2.293l2.895,1.673-2.895,1.673a1.317,1.317,0,0,0,.658,2.462,1.372,1.372,0,0,0,.658-.169l2.895-1.673v3.346a1.316,1.316,0,0,0,2.631,0v-3.346l2.895,1.673a1.372,1.372,0,0,0,.658.169,1.348,1.348,0,0,0,1.147-.658,1.319,1.319,0,0,0-.489-1.8l-2.895-1.673,2.895-1.673A1.328,1.328,0,0,0,68.678,310.677Z" transform="translate(1007.177 1851.842)"/>
      <path id="Path_535" data-name="Path 535" d="M248.378,310.677a1.319,1.319,0,0,0-1.8-.489l-2.895,1.673v-3.346a1.316,1.316,0,0,0-2.631,0v3.346l-2.895-1.673a1.322,1.322,0,0,0-1.316,2.293l2.895,1.673-2.895,1.673a1.317,1.317,0,0,0,.658,2.462,1.372,1.372,0,0,0,.658-.169l2.895-1.673v3.346a1.316,1.316,0,1,0,2.631,0v-3.346l2.895,1.673a1.372,1.372,0,0,0,.658.169,1.348,1.348,0,0,0,1.147-.658,1.319,1.319,0,0,0-.489-1.8l-2.895-1.673,2.895-1.673A1.328,1.328,0,0,0,248.378,310.677Z" transform="translate(861.091 1851.842)"/>
      <path id="Path_536" data-name="Path 536" d="M343.778,310.677a1.319,1.319,0,0,0-1.8-.489l-2.895,1.673v-3.346a1.316,1.316,0,0,0-2.631,0v3.346l-2.895-1.673a1.322,1.322,0,0,0-1.316,2.293l2.895,1.673-2.895,1.673a1.317,1.317,0,0,0,.658,2.462,1.372,1.372,0,0,0,.658-.169l2.895-1.673v3.346a1.316,1.316,0,1,0,2.631,0v-3.346l2.895,1.673a1.372,1.372,0,0,0,.658.169,1.348,1.348,0,0,0,1.147-.658,1.319,1.319,0,0,0-.489-1.8l-2.895-1.673,2.895-1.673A1.312,1.312,0,0,0,343.778,310.677Z" transform="translate(783.522 1851.842)"/>
    </g>
  </g>
</svg>
