<svg xmlns="http://www.w3.org/2000/svg" xmlns:xlink="http://www.w3.org/1999/xlink" width="94" height="100.304" viewBox="0 0 94 100.304">
  <defs>
    <clipPath id="clip-path">
      <rect id="Rectangle_24" data-name="Rectangle 24" width="72.997" height="80.001"/>
    </clipPath>
  </defs>
  <g id="PDF_Tools" data-name="PDF Tools" transform="translate(-4904 -2382)">
    <ellipse id="Ellipse_1" data-name="Ellipse 1" cx="47" cy="48.121" rx="47" ry="48.121" transform="translate(4904 2382)" fill="#f2f2f2"/>
    <g id="Group_1192" data-name="Group 1192" transform="translate(4919.164 2401.303)">
      <path id="Path_554" data-name="Path 554" d="M93.2,19.294a.681.681,0,0,1,.11-.094.681.681,0,0,0-.11.094Zm0,0" transform="translate(-78.609 -15.351)" fill="#d6effb"/>
      <path id="Path_555" data-name="Path 555" d="M94.5,18.094c.047-.031.078-.063.125-.094a.869.869,0,0,1-.125.094Zm0,0" transform="translate(-79.705 -14.339)" fill="#d6effb"/>
      <path id="Path_556" data-name="Path 556" d="M53.473,22.5,46.6,30.234Zm0,0" transform="translate(-39.304 -18.134)" fill="#d6effb"/>
      <path id="Path_557" data-name="Path 557" d="M13.7,110.919c.031-.078.063-.141.094-.219-.031.063-.063.141-.094.219Zm0,0" transform="translate(-11.555 -92.526)" fill="#d6effb"/>
      <path id="Path_558" data-name="Path 558" d="M91.8,20.678l.078-.078c-.016.031-.047.047-.078.078Zm0,0" transform="translate(-77.428 -16.531)" fill="#d6effb"/>
      <path id="Path_559" data-name="Path 559" d="M100.3,14.01c.063-.031.125-.078.2-.11a.844.844,0,0,1-.2.11Zm0,0" transform="translate(-84.597 -10.88)" fill="#d6effb"/>
      <path id="Path_560" data-name="Path 560" d="M98.9,14.91a1.053,1.053,0,0,0,.172-.11c-.063.031-.11.078-.172.11Zm0,0" transform="translate(-83.416 -11.64)" fill="#d6effb"/>
      <path id="Path_561" data-name="Path 561" d="M97.4,15.81a.95.95,0,0,0,.157-.11.95.95,0,0,1-.157.11Zm0,0" transform="translate(-82.151 -12.399)" fill="#d6effb"/>
      <path id="Path_562" data-name="Path 562" d="M96,16.994l.141-.094a.228.228,0,0,0-.141.094Zm0,0" transform="translate(-80.97 -13.411)" fill="#d6effb"/>
      <path id="Path_563" data-name="Path 563" d="M15,108.188l.094-.188-.094.188Zm0,0" transform="translate(-12.652 -90.248)" fill="#d6effb"/>
      <path id="Path_564" data-name="Path 564" d="M34.73,75.917V62.61A2.381,2.381,0,0,1,37.3,60.48H72.221V16.644c0-3.616-3.528-6.544-7.887-6.544H28.164a8.1,8.1,0,0,0-3.151.626V23.486a2.9,2.9,0,0,1-3.132,2.6H11.428a5.044,5.044,0,0,0-.528,2.207V80.426c0,3.616,3.528,6.544,7.887,6.544H64.335c4.359,0,7.887-2.928,7.887-6.544V80.41H40.127c-2.981-.016-5.4-2.02-5.4-4.493Zm0,0" transform="translate(-9.194 -7.675)" fill="#6ed2f9"/>
      <path id="Path_565" data-name="Path 565" d="M16.7,105.541l.094-.141a.546.546,0,0,0-.094.141Zm0,0" transform="translate(-14.085 -88.055)" fill="#d6effb"/>
      <path id="Path_566" data-name="Path 566" d="M15.8,106.772c.031-.063.063-.11.094-.172a1.707,1.707,0,0,1-.094.172Zm0,0" transform="translate(-13.326 -89.067)" fill="#d6effb"/>
      <path id="Path_567" data-name="Path 567" d="M14.3,109.5c.031-.063.063-.141.094-.2-.031.063-.063.141-.094.2Zm0,0" transform="translate(-12.061 -91.345)" fill="#d6effb"/>
      <path id="Path_568" data-name="Path 568" d="M18.8,102.794c.016-.031.047-.063.063-.094-.016.031-.047.063-.063.094Zm0,0" transform="translate(-15.857 -85.778)" fill="#d6effb"/>
      <path id="Path_569" data-name="Path 569" d="M17.7,104.125c.031-.047.063-.078.094-.125a.513.513,0,0,0-.094.125Zm0,0" transform="translate(-14.929 -86.875)" fill="#d6effb"/>
      <path id="Path_570" data-name="Path 570" d="M27.546,26.759V14h0a1.294,1.294,0,0,0-.2.11c-.016.016-.031.016-.047.031a1.053,1.053,0,0,0-.172.11c-.031.016-.047.031-.078.047a.95.95,0,0,0-.157.11c-.031.016-.063.047-.094.063l-.141.094c-.031.031-.063.047-.094.078-.047.031-.078.063-.125.094-.031.031-.078.063-.11.094a.681.681,0,0,1-.11.094.945.945,0,0,0-.125.125l-.078.078a2.8,2.8,0,0,0-.2.219L18.919,23.08,14.8,27.714c-.063.063-.11.125-.172.188-.016.031-.047.063-.063.094a.476.476,0,0,0-.078.11c-.031.047-.063.078-.094.125a.275.275,0,0,1-.063.078l-.094.141a.081.081,0,0,0-.031.063c-.031.063-.063.11-.094.172,0,.016-.016.031-.016.047L14,28.92c0,.016-.016.016-.016.031-.031.063-.063.141-.094.2v.016c-.031.078-.063.141-.094.219H24.947a2.65,2.65,0,0,0,2.6-2.63Zm0,0" transform="translate(-11.639 -10.965)" fill="#fff"/>
      <g id="Group_1191" data-name="Group 1191" transform="translate(0 1)">
        <g id="Group_1189" data-name="Group 1189" clip-path="url(#clip-path)">
          <path id="Path_571" data-name="Path 571" d="M181.848,342.227a.754.754,0,0,1,0-.939l4.435-5.808c1.233-1.613-.239-3.679-2.645-3.679H140a2.472,2.472,0,0,0-2.7,2.129v13.307c0,2.474,2.546,4.478,5.688,4.478h40.67c2.406,0,3.878-2.067,2.645-3.679Zm0,0" transform="translate(-115.805 -280.011)" fill="#f8c55a"/>
        </g>
        <g id="Group_1190" data-name="Group 1190" clip-path="url(#clip-path)">
          <path id="Path_572" data-name="Path 572" d="M72.415,67.383l-3.3-5.48,3.3-5.48a3.991,3.991,0,0,0-3.438-6.043h-3.83V8.11A8.122,8.122,0,0,0,57.017,0h-37.6A7.521,7.521,0,0,0,16.1.783h-.016A.015.015,0,0,0,16.069.8,1.714,1.714,0,0,0,15.9.892a1.46,1.46,0,0,1-.157.078c-.047.031-.11.063-.157.094a1.056,1.056,0,0,0-.173.11.342.342,0,0,1-.126.078c-.063.047-.126.078-.188.125a.477.477,0,0,1-.11.078L14.8,1.6c-.031.031-.063.047-.094.078a1.879,1.879,0,0,0-.188.172c-.031.031-.063.047-.094.078a2.412,2.412,0,0,1-.2.188l-.078.078c-.094.094-.173.188-.251.282L10.2,6.607,2.852,14.857l-.031.031a1.183,1.183,0,0,0-.173.219.476.476,0,0,0-.078.11c-.031.047-.078.094-.11.141a.861.861,0,0,0-.11.141.341.341,0,0,0-.078.125c-.031.063-.078.11-.11.172a.327.327,0,0,1-.063.094c-.047.063-.078.141-.126.2a.119.119,0,0,0-.031.063c-.047.078-.078.157-.126.235,0,.016-.016.016-.016.031a2.035,2.035,0,0,0-.126.266h0A7.423,7.423,0,0,0,1,19.773V71.907a8.122,8.122,0,0,0,8.131,8.11H57.048a8.128,8.128,0,0,0,7.974-6.575h3.971a3.986,3.986,0,0,0,3.422-6.059ZM15.221,5.667v9.268a1.034,1.034,0,0,1-1.036,1.033H6.039Zm41.811,71.2H9.115a4.988,4.988,0,0,1-4.991-4.979V19.758a4.632,4.632,0,0,1,.047-.658H14.185a4.168,4.168,0,0,0,4.175-4.164V3.256a3.96,3.96,0,0,1,1.052-.141h37.62a4.988,4.988,0,0,1,4.991,4.979V50.365H24.529a3.706,3.706,0,0,0-3.7,3.695V67.367a6.055,6.055,0,0,0,6.059,6.043H61.8a5.038,5.038,0,0,1-4.772,3.46Zm12.714-7a.869.869,0,0,1-.753.438H26.868A3.109,3.109,0,0,1,26,70.185,2.919,2.919,0,0,1,23.948,67.4V54.091a.579.579,0,0,1,.581-.579H68.993a.869.869,0,0,1,.753.438.848.848,0,0,1-.016.877l-3.5,5.808a2.481,2.481,0,0,0,0,2.552L69.731,69a.852.852,0,0,1,.016.877Zm0,0" transform="translate(-0.843 -0.157)"/>
        </g>
      </g>
      <path id="Path_573" data-name="Path 573" d="M170.159,413.9a1.1,1.1,0,0,0-.83.36,1.251,1.251,0,0,0,0,1.691,1.1,1.1,0,0,0,.83.36,1.118,1.118,0,0,0,.814-.36,1.185,1.185,0,0,0,.329-.83,1.146,1.146,0,0,0-.344-.845,1.046,1.046,0,0,0-.8-.376Zm0,0" transform="translate(-137.542 -348.257)"/>
      <path id="Path_574" data-name="Path 574" d="M195.573,359.6h-2.849a.94.94,0,0,0-.658.235.769.769,0,0,0-.266.564V369.6a.687.687,0,0,0,.391.626,1.506,1.506,0,0,0,.767.188,1.447,1.447,0,0,0,.751-.188.687.687,0,0,0,.391-.626v-3.053h1.346a3.891,3.891,0,0,0,2.568-.83,3.272,3.272,0,0,0,1-2.615v-.078a3.287,3.287,0,0,0-.955-2.583,3.58,3.58,0,0,0-2.489-.845Zm1.143,3.648a1.453,1.453,0,0,1-.329,1.049,1.182,1.182,0,0,1-.924.344h-1.346v-2.959h1.346a1.182,1.182,0,0,1,.924.344,1.478,1.478,0,0,1,.329,1.049Zm0,0" transform="translate(-156.772 -302.458)"/>
      <path id="Path_575" data-name="Path 575" d="M251.106,360.43a3.862,3.862,0,0,0-2.568-.83h-2.5a1.193,1.193,0,0,0-.72.219.7.7,0,0,0-.313.579v9.221a.724.724,0,0,0,.313.579,1.193,1.193,0,0,0,.72.219h2.5a3.833,3.833,0,0,0,2.568-.83,3.314,3.314,0,0,0,.986-2.646v-3.867a3.314,3.314,0,0,0-.986-2.646Zm-1.315,6.513c0,.955-.391,1.393-1.252,1.393H247.3v-6.654h1.237c.861,0,1.252.438,1.252,1.393Zm0,0" transform="translate(-201.643 -302.458)"/>
      <path id="Path_576" data-name="Path 576" d="M306.081,359.6h-4.947a1.225,1.225,0,0,0-.689.188.69.69,0,0,0-.344.626v9.19a.687.687,0,0,0,.391.626,1.506,1.506,0,0,0,.767.188,1.547,1.547,0,0,0,.767-.188.687.687,0,0,0,.391-.626v-3.648h1.926a.722.722,0,0,0,.611-.313,1.092,1.092,0,0,0,.188-.626,1.158,1.158,0,0,0-.188-.658.722.722,0,0,0-.611-.313h-1.926v-2.364H306.1a.7.7,0,0,0,.611-.344,1.317,1.317,0,0,0,.188-.7,1.3,1.3,0,0,0-.172-.673.7.7,0,0,0-.642-.36Zm0,0" transform="translate(-248.117 -302.458)"/>
      <path id="Path_577" data-name="Path 577" d="M83.566,148.831h35.5a1.566,1.566,0,1,0,0-3.131h-35.5a1.566,1.566,0,1,0,0,3.131Zm0,0" transform="translate(-69.162 -122.046)"/>
      <path id="Path_578" data-name="Path 578" d="M246.466,205.6h0a1.566,1.566,0,1,0,1.566,1.566,1.57,1.57,0,0,0-1.566-1.566Zm0,0" transform="translate(-196.559 -172.568)"/>
      <path id="Path_579" data-name="Path 579" d="M83.566,208.731h29.257a1.566,1.566,0,0,0,0-3.131H83.566a1.566,1.566,0,0,0,0,3.131Zm0,0" transform="translate(-69.162 -172.568)"/>
      <path id="Path_580" data-name="Path 580" d="M120.634,267.066a1.57,1.57,0,0,0-1.566-1.566h-35.5a1.566,1.566,0,1,0,0,3.131h35.5a1.57,1.57,0,0,0,1.566-1.566Zm0,0" transform="translate(-69.162 -223.09)"/>
    </g>
  </g>
</svg>
