<svg xmlns="http://www.w3.org/2000/svg" width="40" height="40" viewBox="0 0 40 40">
  <path id="pintrest" d="M34.61,40H5.39A5.4,5.4,0,0,1,0,34.61V5.39A5.4,5.4,0,0,1,5.39,0H34.61A5.4,5.4,0,0,1,40,5.39V34.61A5.4,5.4,0,0,1,34.61,40ZM18.37,12.5a2.512,2.512,0,0,0-2.142,1.451,5.168,5.168,0,0,0-.138,4.818c-.222,1.093-.517,2.193-.8,3.258-.815,3.04-1.659,6.183-1.118,10.023,2.383-1.729,3.177-5,3.841-8.481.3.181.558.362.811.537a4.713,4.713,0,0,0,2.55,1.064c.19.015.38.022.567.022a6.613,6.613,0,0,0,5.092-2.379,11.4,11.4,0,0,0,2.343-8.845A7.4,7.4,0,0,0,26.2,8.8,10.885,10.885,0,0,0,19.988,7a13.531,13.531,0,0,0-1.5.084,10.143,10.143,0,0,0-5.736,2.693,8.554,8.554,0,0,0-2.746,5.949,7.21,7.21,0,0,0,.673,3.749,4.017,4.017,0,0,0,2.847,2.011,2.314,2.314,0,0,0-.071-2.831,3.6,3.6,0,0,1-.568-1.329,6.514,6.514,0,0,1,1.525-5.332A7.815,7.815,0,0,1,20.2,9.276a6.009,6.009,0,0,1,4.375,1.809A5.933,5.933,0,0,1,25.985,14.9a10.623,10.623,0,0,1-.761,4.583c-.849,2.028-2.233,3.192-3.8,3.192a3.533,3.533,0,0,1-.694-.071,1.98,1.98,0,0,1-1.422-.873c-.577-.979-.062-2.6.436-4.163.653-2.055,1.329-4.18-.455-4.885A2.5,2.5,0,0,0,18.37,12.5Z" fill="#cb2027"/>
</svg>
