<svg xmlns="http://www.w3.org/2000/svg" width="19.404" height="21.333" viewBox="0 0 19.404 21.333">
  <g id="plagiarism-checker" transform="translate(0.001)">
    <path id="Path_1918" data-name="Path 1918" d="M177.859,214.857a5.654,5.654,0,1,1-.791-.058A6.7,6.7,0,0,1,177.859,214.857Z" transform="translate(-163.779 -205.249)" fill="#fff"/>
    <path id="Path_1919" data-name="Path 1919" d="M215,10.1l4.522,4.749h-3.01A1.512,1.512,0,0,1,215,13.337Z" transform="translate(-205.441 -9.651)" fill="#fff"/>
    <path id="Path_1920" data-name="Path 1920" d="M22.463,19.206a5.671,5.671,0,0,0-4.984,8.372l-.009,0H11.556A1.956,1.956,0,0,1,9.6,25.626V12.056A1.956,1.956,0,0,1,11.556,10.1h7.176v3.237a1.512,1.512,0,0,0,1.512,1.512h3.01v4.411h0a5.869,5.869,0,0,0-.791-.053Z" transform="translate(-9.174 -9.651)" fill="#a5dbf9"/>
    <path id="Path_1921" data-name="Path 1921" d="M14.539,9.235V5.2a.467.467,0,0,0-.129-.307L9.883.138A.451.451,0,0,0,9.559,0H2.383A2.391,2.391,0,0,0,0,2.405v13.57a2.376,2.376,0,0,0,2.383,2.388H8.047a6.045,6.045,0,0,0,5.242,2.97,6.114,6.114,0,0,0,1.249-12.1ZM10,1.561l3.037,3.2h-1.97A1.074,1.074,0,0,1,10,3.686ZM.889,15.975V2.405A1.5,1.5,0,0,1,2.383.889H9.114v2.8a1.96,1.96,0,0,0,1.957,1.961h2.578V9.119c-.133,0-.24-.022-.356-.022a6.2,6.2,0,0,0-4.055,1.53H3.592a.445.445,0,0,0,0,.889h4.82a7.082,7.082,0,0,0-.783,1.378H3.592a.445.445,0,0,0,0,.889H7.34a5.986,5.986,0,0,0-.169,1.432A6.091,6.091,0,0,0,7.6,17.474H2.383a1.489,1.489,0,0,1-1.494-1.5Zm12.4,4.473a5.235,5.235,0,0,1-4.6-2.734h0A5.224,5.224,0,0,1,13.285,10a5.685,5.685,0,0,1,.729.049,5.226,5.226,0,0,1-.725,10.4Z" transform="translate(0 0)"/>
    <path id="Path_1922" data-name="Path 1922" d="M71.245,189.889h4.5a.445.445,0,0,0,0-.889h-4.5a.445.445,0,1,0,0,.889Z" transform="translate(-67.653 -180.597)"/>
    <path id="Path_1923" data-name="Path 1923" d="M229.544,294.84l-3.361,3.077-1.645-1.787a.445.445,0,0,0-.654.6l1.947,2.112a.455.455,0,0,0,.329.142.468.468,0,0,0,.3-.116l3.686-3.379a.439.439,0,0,0,.027-.627.449.449,0,0,0-.631-.022Z" transform="translate(-213.836 -281.616)"/>
  </g>
</svg>
