<svg xmlns="http://www.w3.org/2000/svg" xmlns:xlink="http://www.w3.org/1999/xlink" width="18" height="18" viewBox="0 0 18 18">
  <defs>
    <clipPath id="clip-path">
      <circle id="Ellipse_402" data-name="Ellipse 402" cx="9" cy="9" r="9" transform="translate(2958 1586)" fill="#fff"/>
    </clipPath>
    <clipPath id="clip-path-2">
      <rect id="Rectangle_845" data-name="Rectangle 845" width="29" height="20" transform="translate(0.239 0.06)" fill="none"/>
    </clipPath>
  </defs>
  <g id="pt" transform="translate(-2958 -1586)" clip-path="url(#clip-path)">
    <g id="Group_5388" data-name="Group 5388" transform="translate(2953.761 1584.94)">
      <path id="Path_3952" data-name="Path 3952" d="M240,0V19.944h17.95V0Z" transform="translate(-228.335 0.002)" fill="red"/>
      <rect id="Rectangle_844" data-name="Rectangle 844" width="12" height="20" transform="translate(0.239 0.06)" fill="#060"/>
      <g id="Group_5387" data-name="Group 5387">
        <g id="Group_5386" data-name="Group 5386" clip-path="url(#clip-path-2)">
          <path id="Path_3953" data-name="Path 3953" d="M157.011,153.813c-1.506-.046-8.413-4.357-8.461-5.043l.381-.636c.685,1,7.746,5.188,8.44,5.04l-.36.64" transform="translate(-141.445 -140.746)" fill="#ff0" fill-rule="evenodd"/>
          <path id="Path_3954" data-name="Path 3954" d="M147.59,144.147c-.135.363,1.8,1.561,4.133,2.979s4.341,2.294,4.49,2.168a1.33,1.33,0,0,0,.067-.126c-.028.042-.1.053-.2.025a23.431,23.431,0,0,1-4.307-2.169,19.448,19.448,0,0,1-4.08-2.854.292.292,0,0,1-.03-.142h-.007l-.059.1-.008.016h0Zm8.2,5.785c-.025.047-.073.048-.164.038a18.11,18.11,0,0,1-4.3-2.1c-2.354-1.409-4.3-2.693-4.087-3.029l.057-.1.011,0c-.19.569,3.837,2.871,4.073,3.02,2.331,1.443,4.292,2.286,4.468,2.066l-.063.109" transform="translate(-140.184 -136.846)" fill="#ff0" fill-rule="evenodd"/>
          <path id="Path_3955" data-name="Path 3955" d="M155.42,149.718a.7.7,0,0,1-.073-.005,18.131,18.131,0,0,1-4.3-2.107c-2.67-1.6-4.013-2.561-4.1-2.942a.135.135,0,0,1,.013-.106l.057-.1a.014.014,0,0,1,.017-.006l.011,0a.013.013,0,0,1,.008.018c-.063.189.361.817,3.91,2.907l.159.094c2.3,1.425,4.28,2.283,4.451,2.07a.014.014,0,0,1,.023.016l-.063.109h0a.106.106,0,0,1-.106.049m-8.406-5.208-.036.063a.106.106,0,0,0-.01.085c.09.371,1.427,1.329,4.091,2.924a18.11,18.11,0,0,0,4.292,2.1c.088.01.129.007.149-.031h0l.036-.062a.277.277,0,0,1-.071.008,15.022,15.022,0,0,1-4.365-2.1c-.022-.014-.076-.046-.159-.093-2.607-1.537-3.928-2.509-3.93-2.895m8.881,4.537a18.415,18.415,0,0,1-4.451-2.18c-2.509-1.526-4.274-2.634-4.14-3h0l.008-.016.059-.1a.015.015,0,0,1,.013-.007h.007a.014.014,0,0,1,.014.015.28.28,0,0,0,.028.134c.291.511,2.331,1.791,4.074,2.848a23.762,23.762,0,0,0,4.3,2.168c.092.026.159.02.186-.019a.014.014,0,0,1,.01-.006.015.015,0,0,1,.014.006c.006.01.007.011-.059.128l-.007.013,0,0a.087.087,0,0,1-.053.013m-8.567-5.17c-.132.371,2.131,1.749,4.128,2.961a16.439,16.439,0,0,0,4.471,2.172l.006-.011.033-.059a.28.28,0,0,1-.167-.008,23.791,23.791,0,0,1-4.31-2.172c-1.749-1.06-3.789-2.342-4.084-2.861a.294.294,0,0,1-.031-.109Z" transform="translate(-139.911 -136.574)"/>
          <path id="Path_3956" data-name="Path 3956" d="M156.064,148.607a14.221,14.221,0,0,0,4.439-.633l-.23-.375a12.55,12.55,0,0,1-4.221.615c-2.031-.019-3.465-.208-4.183-.689l-.218.4a10.968,10.968,0,0,0,4.414.683" transform="translate(-144.391 -140.167)" fill="#ff0" fill-rule="evenodd"/>
          <path id="Path_3957" data-name="Path 3957" d="M159.387,147.135a6.474,6.474,0,0,1-1.764.477,18.238,18.238,0,0,1-2.742.2,19.466,19.466,0,0,1-2.627-.166,7.663,7.663,0,0,1-1.843-.488c.02-.039.032-.067.053-.106a7.973,7.973,0,0,0,1.809.48,19.221,19.221,0,0,0,2.606.166,18.3,18.3,0,0,0,2.723-.2,4.428,4.428,0,0,0,1.712-.491l.075.129h0Zm-.2-.38a5.334,5.334,0,0,1-1.686.454,18.135,18.135,0,0,1-2.606.183,17.548,17.548,0,0,1-2.517-.162,6.947,6.947,0,0,1-1.755-.442l.059-.1a5.994,5.994,0,0,0,1.707.435,19.2,19.2,0,0,0,5.093-.028,4.5,4.5,0,0,0,1.632-.461l.074.122" transform="translate(-143.213 -139.32)" fill="#ff0" fill-rule="evenodd"/>
          <path id="Path_3958" data-name="Path 3958" d="M154.59,147.551a19.526,19.526,0,0,1-2.607-.166,7.771,7.771,0,0,1-1.824-.48l-.022-.009a.014.014,0,0,1-.007-.02l.021-.043c.01-.02.019-.038.03-.06a.014.014,0,0,1,.018-.007,7.973,7.973,0,0,0,1.806.477,19.349,19.349,0,0,0,2.584.166h.02a18.421,18.421,0,0,0,2.722-.2,4.471,4.471,0,0,0,1.7-.485.014.014,0,0,1,.012-.005.014.014,0,0,1,.011.007l.075.129a.014.014,0,0,1,0,.014v0a6.483,6.483,0,0,1-1.772.482,18.419,18.419,0,0,1-2.745.2Zm-4.429-.676.008,0a7.745,7.745,0,0,0,1.817.477,19.5,19.5,0,0,0,2.6.166h.021a18.4,18.4,0,0,0,2.74-.2,7.153,7.153,0,0,0,1.748-.465l-.06-.1a4.706,4.706,0,0,1-1.707.481,18.452,18.452,0,0,1-2.726.2,19.3,19.3,0,0,1-2.608-.167,8.007,8.007,0,0,1-1.8-.477l-.024.048-.014.03m4.441.257a17.773,17.773,0,0,1-2.5-.162,6.871,6.871,0,0,1-1.675-.413l-.082-.031a.016.016,0,0,1-.008-.021c.02-.034.039-.067.06-.1a.014.014,0,0,1,.019-.005,5.847,5.847,0,0,0,1.7.433,17.865,17.865,0,0,0,2.48.156h.023a17.819,17.819,0,0,0,2.585-.184,4.561,4.561,0,0,0,1.625-.458.014.014,0,0,1,.021,0l.074.122a.014.014,0,0,1,0,.007.015.015,0,0,1-.005.011,5.3,5.3,0,0,1-1.7.457,18.327,18.327,0,0,1-2.608.183Zm-4.23-.626.067.025a6.846,6.846,0,0,0,1.669.411,17.74,17.74,0,0,0,2.494.162h.021a18.293,18.293,0,0,0,2.6-.183,5.539,5.539,0,0,0,1.67-.443l-.059-.1a4.629,4.629,0,0,1-1.626.455,17.851,17.851,0,0,1-2.589.184H154.6a17.9,17.9,0,0,1-2.484-.156,6.014,6.014,0,0,1-1.7-.43l-.044.074m8.543-.024Z" transform="translate(-142.943 -139.046)"/>
          <path id="Path_3959" data-name="Path 3959" d="M140.8,196.813a13,13,0,0,0,4.936.767,14.078,14.078,0,0,0,4.951-.732l-.024-.5c-.27.424-2.748.828-4.946.812a12.127,12.127,0,0,1-4.921-.795l0,.448" transform="translate(-134.082 -186.557)" fill="#ff0" fill-rule="evenodd"/>
          <path id="Path_3960" data-name="Path 3960" d="M149.668,195.886v.119a5.435,5.435,0,0,1-1.966.555,20.3,20.3,0,0,1-3.055.209,19.162,19.162,0,0,1-2.9-.2,7.231,7.231,0,0,1-2.074-.559v-.139a7.387,7.387,0,0,0,2.09.588,19.052,19.052,0,0,0,2.883.2,20.189,20.189,0,0,0,3.038-.208,6.313,6.313,0,0,0,1.983-.565Zm0-.424v.119a5.436,5.436,0,0,1-1.966.555,20.293,20.293,0,0,1-3.055.209,19.152,19.152,0,0,1-2.9-.2,7.225,7.225,0,0,1-2.074-.56v-.139a7.384,7.384,0,0,0,2.09.588,19.044,19.044,0,0,0,2.883.2,20.175,20.175,0,0,0,3.038-.208,6.312,6.312,0,0,0,1.983-.565" transform="translate(-133.012 -185.703)" fill="#ff0" fill-rule="evenodd"/>
          <path id="Path_3961" data-name="Path 3961" d="M144.374,196.51a19.317,19.317,0,0,1-2.9-.2,7.29,7.29,0,0,1-2.079-.561.014.014,0,0,1-.007-.012V195.6a.015.015,0,0,1,.022-.013,7.467,7.467,0,0,0,2.084.586,19.185,19.185,0,0,0,2.88.2,20.25,20.25,0,0,0,3.036-.208,6.317,6.317,0,0,0,1.975-.561.014.014,0,0,1,.013,0,.014.014,0,0,1,.011.014v.119a.014.014,0,0,1,0,.009,5.428,5.428,0,0,1-1.975.561,20.383,20.383,0,0,1-3.057.212m-4.959-.782a7.279,7.279,0,0,0,2.062.553,19.287,19.287,0,0,0,2.9.2,20.345,20.345,0,0,0,3.052-.209,5.677,5.677,0,0,0,1.954-.547v-.084a6.778,6.778,0,0,1-1.966.549,20.28,20.28,0,0,1-3.04.208,19.2,19.2,0,0,1-2.885-.2,7.728,7.728,0,0,1-2.074-.576Zm4.959.358a19.3,19.3,0,0,1-2.9-.2,7.29,7.29,0,0,1-2.079-.561.014.014,0,0,1-.007-.012v-.139a.014.014,0,0,1,.022-.012,7.458,7.458,0,0,0,2.084.586,19.177,19.177,0,0,0,2.88.2,20.229,20.229,0,0,0,3.036-.208,6.312,6.312,0,0,0,1.975-.561.014.014,0,0,1,.024.011v.119a.014.014,0,0,1,0,.009,5.428,5.428,0,0,1-1.975.561,20.382,20.382,0,0,1-3.057.209m-4.959-.781a7.278,7.278,0,0,0,2.062.553,19.275,19.275,0,0,0,2.9.2,20.341,20.341,0,0,0,3.052-.209,5.679,5.679,0,0,0,1.954-.547v-.084a6.782,6.782,0,0,1-1.966.549,20.264,20.264,0,0,1-3.04.208,19.194,19.194,0,0,1-2.885-.2,7.722,7.722,0,0,1-2.074-.576Z" transform="translate(-132.739 -185.428)"/>
          <path id="Path_3962" data-name="Path 3962" d="M156.977,247.293a17,17,0,0,1-4.345-.676l.281.44a11.67,11.67,0,0,0,4.085.667,10.444,10.444,0,0,0,4.035-.659l.288-.457a15.366,15.366,0,0,1-4.345.683" transform="translate(-145.322 -234.314)" fill="#ff0" fill-rule="evenodd"/>
          <path id="Path_3963" data-name="Path 3963" d="M159.471,245.856c-.042.065-.086.129-.129.191a11.357,11.357,0,0,1-1.525.391,13.807,13.807,0,0,1-2.507.229,12.021,12.021,0,0,1-4.163-.713l-.059-.1.01-.015.1.039a13.394,13.394,0,0,0,4.123.681,14.053,14.053,0,0,0,2.457-.227,7.2,7.2,0,0,0,1.659-.456l.034-.019h0Zm.25-.413,0,0-.1.163a10.6,10.6,0,0,1-1.928.428,15.26,15.26,0,0,1-2.367.2,16.229,16.229,0,0,1-4.4-.658l-.056-.106a18.564,18.564,0,0,0,4.458.654,16.486,16.486,0,0,0,2.351-.2,12.16,12.16,0,0,0,1.92-.427l-.008-.01.126-.047" transform="translate(-143.654 -233.204)" fill="#ff0" fill-rule="evenodd"/>
          <path id="Path_3964" data-name="Path 3964" d="M155.05,246.417a11.927,11.927,0,0,1-4.168-.714.014.014,0,0,1-.006-.006l-.059-.1a.014.014,0,0,1,0-.014l.01-.015a.014.014,0,0,1,.016-.005l.1.039a13.259,13.259,0,0,0,4.118.68h.039a14.107,14.107,0,0,0,2.416-.227,6.832,6.832,0,0,0,1.655-.454l.034-.019a.012.012,0,1,1,.017.017c-.044.067-.087.131-.13.191a.013.013,0,0,1-.006.005,11.313,11.313,0,0,1-1.528.392,13.958,13.958,0,0,1-2.509.229m-4.153-.738a12.167,12.167,0,0,0,4.153.71,13.925,13.925,0,0,0,2.5-.229,11.29,11.29,0,0,0,1.52-.389c.031-.045.064-.092.1-.14a7.271,7.271,0,0,1-1.648.449,14.138,14.138,0,0,1-2.421.227h-.039a13.287,13.287,0,0,1-4.128-.681l-.087-.034Zm4.176.309a16.354,16.354,0,0,1-4.406-.659.014.014,0,0,1-.008-.007l-.056-.106a.014.014,0,0,1,0-.015.013.013,0,0,1,.014,0,18.492,18.492,0,0,0,4.454.654,15.639,15.639,0,0,0,2.143-.173l.206-.029a12.281,12.281,0,0,0,1.9-.42h0a.013.013,0,0,1,0-.006.014.014,0,0,1,.008-.01l.126-.047a.014.014,0,0,1,.016.005h0v0a.014.014,0,0,1,0,.015c-.032.053-.065.106-.1.163a.014.014,0,0,1-.007.006,10.818,10.818,0,0,1-1.93.429l-.278.039a14.174,14.174,0,0,1-2.091.162m-4.393-.683a16.338,16.338,0,0,0,4.393.655,14.158,14.158,0,0,0,2.088-.162l.278-.039a10.824,10.824,0,0,0,1.92-.424l.079-.131-.08.03a.014.014,0,0,1-.009.016l-.019.006a12.3,12.3,0,0,1-1.9.421l-.206.029a15.658,15.658,0,0,1-2.146.173,18.477,18.477,0,0,1-4.432-.647Zm8.782-.127.011-.008Z" transform="translate(-143.393 -232.94)"/>
          <path id="Path_3965" data-name="Path 3965" d="M150.1,106.222a4.759,4.759,0,0,1-1.289,3.217,4.64,4.64,0,0,1-3.17,1.315,4.416,4.416,0,0,1-2.834-7.783,4.658,4.658,0,0,1,3-1.06,4.451,4.451,0,0,1,4.3,4.314Zm-4.447-4.8a4.921,4.921,0,1,1-4.932,4.921,4.921,4.921,0,0,1,4.932-4.921" transform="translate(-134.005 -96.36)" fill="#ff0" fill-rule="evenodd"/>
          <path id="Path_3966" data-name="Path 3966" d="M145.562,110.7a4.951,4.951,0,1,1,4.951-4.951,4.952,4.952,0,0,1-4.951,4.951m0-9.874a4.923,4.923,0,1,0,4.922,4.923,4.923,4.923,0,0,0-4.922-4.923m0,9.766a4.862,4.862,0,1,1,3.417-1.423,4.807,4.807,0,0,1-3.417,1.423m0-9.657a4.814,4.814,0,1,0,4.814,4.814,4.814,4.814,0,0,0-4.814-4.814" transform="translate(-133.902 -95.767)"/>
          <path id="Path_3967" data-name="Path 3967" d="M153.51,118.062a4.557,4.557,0,1,1,3.2-1.333,4.5,4.5,0,0,1-3.2,1.333m0-9.045a4.508,4.508,0,1,0,4.507,4.508,4.508,4.508,0,0,0-4.507-4.508m0,8.936a4.446,4.446,0,1,1,3.126-1.3,4.4,4.4,0,0,1-3.126,1.3m0-8.827a4.4,4.4,0,1,0,4.4,4.4,4.4,4.4,0,0,0-4.4-4.4" transform="translate(-141.846 -103.551)"/>
          <path id="Path_3968" data-name="Path 3968" d="M235.135,99.53v.053h-.312V99.53h-.106v10.033h.106v-.047h.313v.048h.106V99.528h-.106Z" transform="translate(-223.314 -94.565)" fill="#ff0" fill-rule="evenodd"/>
          <path id="Path_3969" data-name="Path 3969" d="M237.047,100.423h-.3a.014.014,0,0,1,0-.029h.3a.014.014,0,1,1,0,.029" transform="translate(-225.231 -95.387)"/>
          <path id="Path_3970" data-name="Path 3970" d="M237.058,299.383h-.3a.014.014,0,1,1,0-.029h.3a.014.014,0,1,1,0,.029" transform="translate(-225.24 -284.427)"/>
          <path id="Path_3971" data-name="Path 3971" d="M234.547,109.323h-.106a.014.014,0,0,1-.014-.014V99.274a.014.014,0,0,1,.014-.014h.109a.014.014,0,0,1,.014.014v10.034a.014.014,0,0,1-.014.014m-.094-.029h.08V99.289h-.08Zm.514.029h-.106a.014.014,0,0,1-.014-.014V99.274a.014.014,0,0,1,.014-.014h.106a.014.014,0,0,1,.014.014v10.034a.014.014,0,0,1-.014.014m-.093-.029h.079V99.289h-.079Z" transform="translate(-223.038 -94.309)"/>
          <path id="Path_3972" data-name="Path 3972" d="M140.536,178.157c.619-.57,2.9-.939,4.928-.93s4.426.424,4.949.918l.005.424c-.437-.411-2.3-.9-4.95-.907s-4.57.5-4.934.918v-.424" transform="translate(-133.83 -168.388)" fill="#ff0" fill-rule="evenodd"/>
          <path id="Path_3973" data-name="Path 3973" d="M140.248,196.389a.014.014,0,0,1-.014-.014v-.367a.014.014,0,0,1,.029,0v.367a.014.014,0,0,1-.014.014" transform="translate(-133.544 -186.22)"/>
          <path id="Path_3974" data-name="Path 3974" d="M338.718,196.69a.014.014,0,0,1-.014-.014v-.367a.014.014,0,0,1,.029,0v.367a.014.014,0,0,1-.014.014" transform="translate(-322.118 -186.505)"/>
          <path id="Path_3975" data-name="Path 3975" d="M144.665,176.7a17.121,17.121,0,0,1,3.194.285,3.725,3.725,0,0,1,1.8.677v.129a3.952,3.952,0,0,0-1.821-.7,17.007,17.007,0,0,0-3.173-.283,17.656,17.656,0,0,0-3.24.289c-.7.14-1.643.418-1.76.689v-.134c.065-.189.764-.473,1.744-.669a17.74,17.74,0,0,1,3.256-.288h0Zm0-.424a17.13,17.13,0,0,1,3.194.285,3.73,3.73,0,0,1,1.8.677v.129a3.952,3.952,0,0,0-1.821-.7,17,17,0,0,0-3.173-.283,17.594,17.594,0,0,0-3.232.289c-.679.129-1.657.418-1.765.689v-.134a3.275,3.275,0,0,1,1.744-.669,17.746,17.746,0,0,1,3.256-.289" transform="translate(-133.003 -167.484)" fill="#ff0" fill-rule="evenodd"/>
          <path id="Path_3976" data-name="Path 3976" d="M139.389,177.538h0a.014.014,0,0,1-.012-.014v-.134a.015.015,0,0,1,0,0c.069-.2.807-.489,1.755-.678a17.827,17.827,0,0,1,3.259-.289h.033a17.106,17.106,0,0,1,3.164.286,3.7,3.7,0,0,1,1.808.681.015.015,0,0,1,0,.01v.129a.014.014,0,0,1-.025.009,4.056,4.056,0,0,0-1.813-.691,16.969,16.969,0,0,0-3.171-.282,17.691,17.691,0,0,0-3.237.289c-.767.152-1.643.431-1.749.682a.014.014,0,0,1-.013.008m5.034-1.007a17.006,17.006,0,0,1,3.144.283,4.3,4.3,0,0,1,1.8.673V177.4a3.711,3.711,0,0,0-1.789-.668,17.078,17.078,0,0,0-3.158-.285h-.033a17.8,17.8,0,0,0-3.253.288c-1.048.212-1.673.494-1.733.658v.079a4.064,4.064,0,0,1,1.743-.653,17.725,17.725,0,0,1,3.243-.29h.033m-5.034.585h0a.014.014,0,0,1-.012-.014v-.134a.016.016,0,0,1,0,0c.07-.206.825-.5,1.755-.678a17.838,17.838,0,0,1,3.259-.289,17.266,17.266,0,0,1,3.2.286,3.7,3.7,0,0,1,1.808.681.014.014,0,0,1,0,.01v.129a.014.014,0,0,1-.025.009,4.024,4.024,0,0,0-1.813-.689,16.848,16.848,0,0,0-3.171-.282,17.661,17.661,0,0,0-3.232.289c-.778.147-1.657.437-1.755.682a.014.014,0,0,1-.013.009m5.034-1.007a16.993,16.993,0,0,1,3.142.283,4.3,4.3,0,0,1,1.8.673v-.086a3.711,3.711,0,0,0-1.789-.668,17.071,17.071,0,0,0-3.191-.285,17.807,17.807,0,0,0-3.253.288,3.281,3.281,0,0,0-1.733.658v.078a3.986,3.986,0,0,1,1.749-.651,17.692,17.692,0,0,1,3.237-.29h.034" transform="translate(-132.729 -167.218)"/>
          <path id="Path_3977" data-name="Path 3977" d="M155.748,132.956a10.621,10.621,0,0,1,4.173.633l.265.463a10.721,10.721,0,0,0-4.438-.647,11.243,11.243,0,0,0-4.4.669l.318-.534a11.164,11.164,0,0,1,4.075-.583" transform="translate(-144.109 -126.325)" fill="#ff0" fill-rule="evenodd"/>
          <path id="Path_3978" data-name="Path 3978" d="M324.02,147.184a.014.014,0,0,1-.012-.007l-.182-.292a.014.014,0,1,1,.024-.015l.182.292a.014.014,0,0,1-.012.022" transform="translate(-307.979 -139.539)"/>
          <path id="Path_3979" data-name="Path 3979" d="M155.213,132.555a16.656,16.656,0,0,1,2.866.2,5.217,5.217,0,0,1,1.567.462l.079.14a5.743,5.743,0,0,0-1.662-.494,16.08,16.08,0,0,0-2.852-.2,16.53,16.53,0,0,0-2.89.2,5.1,5.1,0,0,0-1.556.485l.078-.148a5.186,5.186,0,0,1,1.457-.445,16.974,16.974,0,0,1,2.914-.2h0Zm0-.424a16.254,16.254,0,0,1,2.765.192,4.482,4.482,0,0,1,1.431.468l.116.184a3.784,3.784,0,0,0-1.594-.543,17.612,17.612,0,0,0-2.718-.193,16.515,16.515,0,0,0-2.78.205,4.529,4.529,0,0,0-1.381.424l.1-.154a4.932,4.932,0,0,1,1.262-.381,16.639,16.639,0,0,1,2.8-.2" transform="translate(-143.55 -125.542)" fill="#ff0" fill-rule="evenodd"/>
          <path id="Path_3980" data-name="Path 3980" d="M159.455,133.1h-.008a5.692,5.692,0,0,0-1.657-.492,15.855,15.855,0,0,0-2.85-.2,16.485,16.485,0,0,0-2.888.2,5.074,5.074,0,0,0-1.549.482.014.014,0,0,1-.021-.018l.078-.148a.015.015,0,0,1,.006-.006,5.293,5.293,0,0,1,1.461-.447,20.9,20.9,0,0,1,5.784,0,5.147,5.147,0,0,1,1.575.466l.081.143a.014.014,0,0,1-.012.021m-4.435-.72a15.7,15.7,0,0,1,2.776.2,6.28,6.28,0,0,1,1.62.467l-.053-.093a5.358,5.358,0,0,0-1.558-.455,20.87,20.87,0,0,0-5.775,0,5.278,5.278,0,0,0-1.449.442l-.053.1a5.709,5.709,0,0,1,1.515-.458,16.486,16.486,0,0,1,2.893-.2h.078m4.235.338a.014.014,0,0,1-.011,0,3.833,3.833,0,0,0-1.586-.538,17.291,17.291,0,0,0-2.715-.192,16.517,16.517,0,0,0-2.777.2,4.645,4.645,0,0,0-1.378.424.014.014,0,0,1-.02-.02l.1-.154.005,0a4.95,4.95,0,0,1,1.265-.383,16.686,16.686,0,0,1,2.8-.2h0a16.255,16.255,0,0,1,2.767.192,4.464,4.464,0,0,1,1.437.471l0,0,.116.184a.014.014,0,0,1,0,.019.014.014,0,0,1-.008,0m-4.312-.765a17.311,17.311,0,0,1,2.72.193,4.663,4.663,0,0,1,1.528.482l-.063-.1a4.464,4.464,0,0,0-1.423-.464,16.057,16.057,0,0,0-2.762-.192,16.659,16.659,0,0,0-2.795.2,4.945,4.945,0,0,0-1.254.378l-.066.1a5.169,5.169,0,0,1,1.332-.4,16.541,16.541,0,0,1,2.782-.205" transform="translate(-143.279 -125.273)"/>
          <path id="Path_3981" data-name="Path 3981" d="M158.533,229.768a12.885,12.885,0,0,0-2.454-.186c-3.062.036-4.051.629-4.171.808l-.229-.371a8.2,8.2,0,0,1,4.417-.848,15.568,15.568,0,0,1,2.649.228l-.212.371" transform="translate(-144.418 -217.737)" fill="#ff0" fill-rule="evenodd"/>
          <path id="Path_3982" data-name="Path 3982" d="M152.578,247.281a.014.014,0,0,1-.012-.007l-.15-.259a.014.014,0,1,1,.025-.014l.15.259a.014.014,0,0,1-.005.02h-.007" transform="translate(-145.117 -234.677)"/>
          <path id="Path_3983" data-name="Path 3983" d="M155.238,228.289a14.843,14.843,0,0,1,2.495.2l-.058.1a13.022,13.022,0,0,0-2.433-.187,11.768,11.768,0,0,0-3.268.383c-.314.087-.833.289-.887.456l-.058-.1c.017-.1.331-.3.918-.468a11.853,11.853,0,0,1,3.291-.389h0Zm.039-.429a15.284,15.284,0,0,1,2.679.233l-.061.106a13.967,13.967,0,0,0-2.613-.228,12.539,12.539,0,0,0-3.429.4c-.353.1-.962.325-.982.5l-.058-.1c.013-.159.54-.371,1.015-.507a12.594,12.594,0,0,1,3.45-.4" transform="translate(-143.594 -216.497)" fill="#ff0" fill-rule="evenodd"/>
          <path id="Path_3984" data-name="Path 3984" d="M150.828,229a.014.014,0,0,1-.012-.006l-.058-.1a.014.014,0,0,1,0-.01c.019-.111.351-.318.928-.477a11.767,11.767,0,0,1,3.3-.389h0a14.942,14.942,0,0,1,2.5.2.014.014,0,0,1,.01.02l-.058.1a.014.014,0,0,1-.014.007,12.959,12.959,0,0,0-2.431-.187,11.592,11.592,0,0,0-3.264.381c-.335.093-.829.294-.877.447a.014.014,0,0,1-.012.01h0m-.043-.112.042.069a1.96,1.96,0,0,1,.885-.44,11.67,11.67,0,0,1,3.272-.383,13.116,13.116,0,0,1,2.426.185l.044-.078a15.01,15.01,0,0,0-2.473-.194h0a11.739,11.739,0,0,0-3.285.388c-.583.164-.883.365-.907.452m-.173-.255a.014.014,0,0,1-.012-.007l-.058-.1a.013.013,0,0,1,0-.008c.017-.212.789-.45,1.025-.518a12.373,12.373,0,0,1,3.454-.405h0a15.316,15.316,0,0,1,2.682.233.013.013,0,0,1,.01.008.014.014,0,0,1,0,.012l-.061.106a.013.013,0,0,1-.015.007,14.116,14.116,0,0,0-2.611-.228,12.282,12.282,0,0,0-3.425.4c-.457.133-.954.343-.973.49a.014.014,0,0,1-.011.012h0m-.044-.12.04.071c.1-.217.889-.452.982-.477a12.307,12.307,0,0,1,3.429-.405,14.172,14.172,0,0,1,2.606.226l.047-.082a15.365,15.365,0,0,0-2.658-.229,12.344,12.344,0,0,0-3.444.4c-.594.173-.987.365-1.007.49" transform="translate(-143.336 -216.239)"/>
          <path id="Path_3985" data-name="Path 3985" d="M149.884,144.519c1.516-.02,8.522,4.281,8.542,5.072l-.434.665c-.2-.919-7.3-5.1-8.478-5.025l.368-.713" transform="translate(-142.362 -137.311)" fill="#ff0" fill-rule="evenodd"/>
          <path id="Path_3986" data-name="Path 3986" d="M319.929,247.695a.014.014,0,0,1-.012-.022l.368-.571a.014.014,0,0,1,.024.015l-.368.571a.014.014,0,0,1-.012.006" transform="translate(-304.266 -234.774)"/>
          <path id="Path_3987" data-name="Path 3987" d="M149.538,145.646h-.007a.014.014,0,0,1-.006-.019l.342-.636a.014.014,0,1,1,.025.014l-.342.636a.014.014,0,0,1-.013.007" transform="translate(-142.371 -137.753)"/>
          <path id="Path_3988" data-name="Path 3988" d="M147.465,143.768c.281-.191,2.35.731,4.515,2.036s4.222,2.788,4.036,3.065l-.061.1-.028.022c.006,0,.037-.042,0-.145-.092-.3-1.555-1.47-3.983-2.936-2.367-1.411-4.34-2.262-4.537-2.019l.062-.119h0Zm9,4.434c.178-.351-1.741-1.8-4.12-3.2-2.434-1.378-4.186-2.191-4.508-1.949l-.071.129c0,.007,0-.008.017-.021a.313.313,0,0,1,.2-.048,15.338,15.338,0,0,1,4.338,2c.969.564,4.092,2.567,4.08,3.131,0,.048,0,.058-.014.082l.079-.121" transform="translate(-140.355 -135.874)" fill="#ff0" fill-rule="evenodd"/>
          <path id="Path_3989" data-name="Path 3989" d="M155.653,148.739a.014.014,0,0,1-.009-.025h0s.029-.033-.008-.128c-.095-.312-1.643-1.519-3.978-2.93-2.483-1.48-4.341-2.241-4.519-2.022a.014.014,0,1,1-.024-.016l.062-.119,0-.005c.3-.2,2.369.732,4.53,2.036,1.943,1.178,3.959,2.589,4.051,3.006a.1.1,0,0,1-.011.079l-.061.1,0,0-.028.022h-.008m-8.387-5.165a15.607,15.607,0,0,1,4.411,2.061c2.373,1.431,3.892,2.622,3.99,2.944a.261.261,0,0,1,.021.095l.046-.072a.07.07,0,0,0,.007-.057c-.089-.4-2.147-1.842-4.038-2.988-2.108-1.272-4.2-2.221-4.5-2.038l-.036.069a.3.3,0,0,1,.1-.013m8.846,4.5a.014.014,0,0,1-.012-.022l.008-.012a.089.089,0,0,0,0-.044v-.017c.012-.561-3.172-2.594-4.073-3.119a15.344,15.344,0,0,0-4.331-2H147.7a.283.283,0,0,0-.177.045.047.047,0,0,0-.013.016.018.018,0,0,1-.018.009.016.016,0,0,1-.01-.017.014.014,0,0,1,0-.006l.071-.129,0,0c.385-.291,2.673.9,4.524,1.948,2.148,1.272,4.324,2.832,4.126,3.224h0l-.071.106-.009.014a.014.014,0,0,1-.012.006m-8.4-5.242a15.325,15.325,0,0,1,4.345,2c.636.371,4.1,2.529,4.087,3.143v.012l.038-.058c.162-.325-1.643-1.724-4.115-3.185-2.6-1.473-4.193-2.166-4.49-1.952l-.035.064a.384.384,0,0,1,.159-.026Zm8.484,5.107Z" transform="translate(-140.082 -135.611)"/>
          <path id="Path_3990" data-name="Path 3990" d="M180.589,135.687a2.961,2.961,0,0,0,5.922,0h0v-3.948l-5.921-.007v3.953" transform="translate(-171.886 -125.164)" fill="#fff" fill-rule="evenodd"/>
          <path id="Path_3991" data-name="Path 3991" d="M183.223,138.341a3,3,0,0,1-2.971-2.958h0V131.4l5.954.007v3.965a2.981,2.981,0,0,1-2.981,2.972m-2.939-2.991v.017a2.943,2.943,0,1,0,5.886.015v-3.944l-5.887-.007Z" transform="translate(-171.565 -124.845)"/>
          <path id="Path_3992" data-name="Path 3992" d="M182.818,138.2h0a2.84,2.84,0,0,0,5.679,0h0v-3.83h-5.676l0,3.827m4.538-2.68v2.7h0a1.863,1.863,0,0,1-.012.212,1.656,1.656,0,0,1-.486.983,1.7,1.7,0,0,1-1.2.5,1.714,1.714,0,0,1-1.688-1.7v-2.694l3.387.006" transform="translate(-174.004 -127.668)" fill="red" fill-rule="evenodd"/>
          <path id="Path_3993" data-name="Path 3993" d="M185.419,140.8a2.861,2.861,0,0,1-2.854-2.841h.025a2.787,2.787,0,0,0,.832,1.986,2.823,2.823,0,0,0,4.822-1.973v-3.828h-5.651l0,3.815h-.025l0-3.839h5.7v3.843a2.849,2.849,0,0,1-2.851,2.838m0-1.125a1.726,1.726,0,0,1-1.7-1.71v-2.706h.013l3.391.006.007.007v2.7a1.866,1.866,0,0,1-.012.212,1.669,1.669,0,0,1-.49.99,1.7,1.7,0,0,1-1.208.5m-1.676-4.391v2.681a1.685,1.685,0,0,0,.5,1.185,1.663,1.663,0,0,0,2.369.008,1.643,1.643,0,0,0,.482-.975,1.845,1.845,0,0,0,.012-.212v-2.682Z" transform="translate(-173.763 -127.431)"/>
          <path id="Path_3994" data-name="Path 3994" d="M232.635,192.176h0a.416.416,0,0,0,.11.283.354.354,0,0,0,.53,0,.416.416,0,0,0,.11-.284v-.536h-.748v.537" transform="translate(-221.338 -182.083)" fill="#039"/>
          <path id="Path_3995" data-name="Path 3995" d="M232.563,217.959h0a.415.415,0,0,0,.11.283.354.354,0,0,0,.53,0,.416.416,0,0,0,.11-.284v-.537h-.748v.537" transform="translate(-221.269 -206.58)" fill="#039"/>
          <path id="Path_3996" data-name="Path 3996" d="M211.837,192.223h0a.416.416,0,0,0,.11.283.354.354,0,0,0,.53,0,.416.416,0,0,0,.11-.284v-.537h-.748v.537" transform="translate(-201.577 -182.129)" fill="#039"/>
          <path id="Path_3997" data-name="Path 3997" d="M253.38,192.216h0a.416.416,0,0,0,.11.283.354.354,0,0,0,.53,0,.416.416,0,0,0,.11-.284v-.537h-.748v.537" transform="translate(-241.048 -182.121)" fill="#039"/>
          <path id="Path_3998" data-name="Path 3998" d="M232.63,166.159h0a.416.416,0,0,0,.11.283.354.354,0,0,0,.53,0,.416.416,0,0,0,.11-.284v-.537h-.748v.537" transform="translate(-221.333 -157.363)" fill="#039"/>
          <path id="Path_3999" data-name="Path 3999" d="M197.752,141.56l.006.173h-.206l.006-.173h.193" transform="translate(-188.005 -134.5)" fill="#ff0" fill-rule="evenodd"/>
          <path id="Path_4000" data-name="Path 4000" d="M190.189,147.924a.346.346,0,0,1,.2-.341.342.342,0,0,1,.212.344h-.414" transform="translate(-181.008 -140.223)" fill="#ff0" fill-rule="evenodd"/>
          <path id="Path_4001" data-name="Path 4001" d="M186.162,147.646l-.034.318h.207a.281.281,0,0,1,.2-.3.3.3,0,0,1,.2.3h.207l-.038-.318h-.749" transform="translate(-177.149 -140.281)" fill="#ff0" fill-rule="evenodd"/>
          <path id="Path_4002" data-name="Path 4002" d="M186.083,147.747h-.233l.036-.333,0-.008h.769l.04.344h-.233v-.012a.292.292,0,0,0-.193-.292.27.27,0,0,0-.189.292Zm.406-.025h.181l-.034-.294h-.33a.312.312,0,0,1,.079.053.336.336,0,0,1,.106.239m-.611,0h.18a.323.323,0,0,1,.112-.254.275.275,0,0,1,.065-.039h-.326Z" transform="translate(-176.885 -140.052)"/>
          <path id="Path_4003" data-name="Path 4003" d="M185.234,154.06h.845a.04.04,0,0,1,0,.078h-.845a.04.04,0,0,1,0-.078" transform="translate(-176.269 -146.377)" fill="#ff0" fill-rule="evenodd"/>
          <path id="Path_4004" data-name="Path 4004" d="M185.846,153.914H185a.053.053,0,0,1,0-.1h.845a.053.053,0,0,1,0,.1m-.845-.078c-.011,0-.02.012-.02.026s.009.026.02.026h.845c.011,0,.02-.012.02-.026s-.009-.026-.02-.026Z" transform="translate(-176.036 -146.14)"/>
          <path id="Path_4005" data-name="Path 4005" d="M192.009,149.994a.218.218,0,0,1,.113-.212.221.221,0,0,1,.118.212h-.231" transform="translate(-182.737 -142.312)" fill="#ff0" fill-rule="evenodd"/>
          <path id="Path_4006" data-name="Path 4006" d="M192.017,149.77h-.244v-.012h-.012a.248.248,0,0,1,.083-.2s.033-.028.045-.025a.229.229,0,0,1,.128.224Zm-.231-.025h.206a.121.121,0,1,0-.206,0" transform="translate(-182.501 -142.076)"/>
          <path id="Path_4007" data-name="Path 4007" d="M185.618,145.06h.81a.035.035,0,0,1,0,.07h-.81a.036.036,0,0,1,0-.07" transform="translate(-176.635 -137.825)" fill="#ff0" fill-rule="evenodd"/>
          <path id="Path_4008" data-name="Path 4008" d="M186.188,144.9h-.81a.048.048,0,1,1,0-.1h.81a.048.048,0,0,1,0,.1m-.81-.07a.023.023,0,0,0,0,.046h.81a.023.023,0,0,0,0-.046Z" transform="translate(-176.395 -137.579)"/>
          <path id="Path_4009" data-name="Path 4009" d="M185.983,146.47h.775a.035.035,0,0,1,0,.07h-.775a.035.035,0,0,1,0-.07" transform="translate(-176.983 -139.166)" fill="#ff0" fill-rule="evenodd"/>
          <path id="Path_4010" data-name="Path 4010" d="M186.522,146.316h-.775a.048.048,0,0,1,0-.095h.775a.048.048,0,0,1,0,.095m-.775-.07a.021.021,0,0,0-.017.023c0,.012.008.023.017.023h.775c.01,0,.017-.011.017-.023s-.008-.023-.017-.023Z" transform="translate(-176.747 -138.929)"/>
          <path id="Path_4011" data-name="Path 4011" d="M191.629,135.861h.06v.043h.044v-.045h.061v.044h.044v-.045h.061v.1a.025.025,0,0,1-.026.026h-.215a.028.028,0,0,1-.028-.026v-.1" transform="translate(-182.376 -129.084)" fill="#ff0" fill-rule="evenodd"/>
          <path id="Path_4012" data-name="Path 4012" d="M191.582,135.765h-.218a.04.04,0,0,1-.041-.039v-.106l.008-.006h.077v.043h.02v-.045h.087v.044h.02v-.045h.088v.113a.038.038,0,0,1-.04.038m-.236-.126v.087a.016.016,0,0,0,.016.014h.22a.014.014,0,0,0,.015-.013v-.088h-.038v.044h-.069v-.044h-.038v.044h-.069v-.043Z" transform="translate(-182.083 -128.849)"/>
          <path id="Path_4013" data-name="Path 4013" d="M192.367,138.558l.014.322h-.212l.014-.322h.186" transform="translate(-182.887 -131.647)" fill="#ff0" fill-rule="evenodd"/>
          <path id="Path_4014" data-name="Path 4014" d="M192.145,138.652H191.9l.015-.347h.212Zm-.212-.025h.189l-.013-.3h-.163Z" transform="translate(-182.638 -131.406)"/>
          <path id="Path_4015" data-name="Path 4015" d="M196.908,139.024h.06v.043h.044v-.045h.061v.044h.044v-.045h.061v.1a.025.025,0,0,1-.026.026h-.215a.028.028,0,0,1-.028-.027v-.1" transform="translate(-187.392 -132.089)" fill="#ff0" fill-rule="evenodd"/>
          <path id="Path_4016" data-name="Path 4016" d="M197.3,141.509l.007-.2h.217l.007.2Zm.031-.173,0,.148h.18l-.006-.148Z" transform="translate(-187.762 -134.263)"/>
          <path id="Path_4017" data-name="Path 4017" d="M196.914,138.913H196.7a.04.04,0,0,1-.04-.039v-.106l.008-.006h.076v.043h.019v-.045h.086v.045h.019v-.045h.086v.113a.038.038,0,0,1-.039.038m-.231-.126v.087a.015.015,0,0,0,.015.014h.215a.013.013,0,0,0,.014-.013v-.088h-.036v.044h-.069v-.044h-.037v.044h-.069v-.043Z" transform="translate(-187.155 -131.841)"/>
          <path id="Path_4018" data-name="Path 4018" d="M186.3,139.024h.06v.043h.044v-.045h.061v.044h.044v-.045h.061v.1a.025.025,0,0,1-.026.026h-.215a.028.028,0,0,1-.028-.027v-.1" transform="translate(-177.313 -132.089)" fill="#ff0" fill-rule="evenodd"/>
          <path id="Path_4019" data-name="Path 4019" d="M186.3,138.923h-.215a.04.04,0,0,1-.04-.039v-.106l.008-.006h.076v.043h.019v-.045h.086v.044h.019v-.045h.086v.113a.038.038,0,0,1-.039.038m-.231-.126v.087a.015.015,0,0,0,.015.014h.215a.013.013,0,0,0,.014-.013V138.8h-.037v.045h-.069V138.8h-.037v.045h-.069V138.8Z" transform="translate(-177.074 -131.851)"/>
          <path id="Path_4020" data-name="Path 4020" d="M187.144,141.56l.006.173h-.206l.006-.173h.193" transform="translate(-177.925 -134.5)" fill="#ff0" fill-rule="evenodd"/>
          <path id="Path_4021" data-name="Path 4021" d="M186.686,141.509l.007-.2h.217l.007.2Zm.031-.173,0,.148h.18l-.006-.148Z" transform="translate(-177.68 -134.263)"/>
          <path id="Path_4022" data-name="Path 4022" d="M193.9,140.16a.022.022,0,1,1,.043,0v.077H193.9Z" transform="translate(-184.533 -133.147)" fill-rule="evenodd"/>
          <path id="Path_4023" data-name="Path 4023" d="M199.211,142.406a.021.021,0,1,1,.041,0v.059h-.041Z" transform="translate(-189.58 -135.282)" fill-rule="evenodd"/>
          <path id="Path_4024" data-name="Path 4024" d="M188.57,142.406a.021.021,0,1,1,.041,0v.059h-.041Z" transform="translate(-179.469 -135.282)" fill-rule="evenodd"/>
          <path id="Path_4025" data-name="Path 4025" d="M243.466,141.56l.006.173h-.206l.006-.173h.193" transform="translate(-231.439 -134.5)" fill="#ff0" fill-rule="evenodd"/>
          <path id="Path_4026" data-name="Path 4026" d="M235.9,147.924a.346.346,0,0,1,.2-.341.342.342,0,0,1,.212.344H235.9" transform="translate(-224.441 -140.223)" fill="#ff0" fill-rule="evenodd"/>
          <path id="Path_4027" data-name="Path 4027" d="M231.876,147.646l-.034.318h.207a.281.281,0,0,1,.2-.3.3.3,0,0,1,.2.3h.207l-.038-.318h-.749" transform="translate(-220.584 -140.281)" fill="#ff0" fill-rule="evenodd"/>
          <path id="Path_4028" data-name="Path 4028" d="M231.794,147.747h-.233l.036-.333,0-.008h.769l.04.344h-.233v-.012a.293.293,0,0,0-.193-.292.27.27,0,0,0-.189.292Zm.406-.025h.181l-.034-.294h-.33a.312.312,0,0,1,.079.053.336.336,0,0,1,.106.239m-.611,0h.18a.323.323,0,0,1,.112-.254.274.274,0,0,1,.065-.039h-.326Z" transform="translate(-220.319 -140.052)"/>
          <path id="Path_4029" data-name="Path 4029" d="M230.948,154.06h.845a.04.04,0,0,1,0,.078h-.845a.04.04,0,0,1,0-.078" transform="translate(-219.704 -146.377)" fill="#ff0" fill-rule="evenodd"/>
          <path id="Path_4030" data-name="Path 4030" d="M231.56,153.914h-.845a.053.053,0,0,1,0-.1h.845a.053.053,0,0,1,0,.1m-.845-.078c-.011,0-.02.012-.02.026s.009.026.02.026h.845c.011,0,.02-.012.02-.026s-.009-.026-.02-.026Z" transform="translate(-219.471 -146.14)"/>
          <path id="Path_4031" data-name="Path 4031" d="M237.723,149.994a.218.218,0,0,1,.113-.212.221.221,0,0,1,.118.212h-.231" transform="translate(-226.172 -142.312)" fill="#ff0" fill-rule="evenodd"/>
          <path id="Path_4032" data-name="Path 4032" d="M237.73,149.772h-.256v-.013a.248.248,0,0,1,.084-.2s.033-.027.045-.025h0a.229.229,0,0,1,.128.224Zm-.231-.025h.206a.121.121,0,1,0-.206,0" transform="translate(-225.935 -142.078)"/>
          <path id="Path_4033" data-name="Path 4033" d="M231.332,145.06h.81a.035.035,0,0,1,0,.07h-.81a.036.036,0,0,1,0-.07" transform="translate(-220.07 -137.825)" fill="#ff0" fill-rule="evenodd"/>
          <path id="Path_4034" data-name="Path 4034" d="M231.9,144.9h-.81a.048.048,0,1,1,0-.1h.81a.048.048,0,0,1,0,.1m-.81-.07a.023.023,0,0,0,0,.046h.81a.023.023,0,0,0,0-.046Z" transform="translate(-219.83 -137.579)"/>
          <path id="Path_4035" data-name="Path 4035" d="M231.7,146.47h.775a.035.035,0,0,1,0,.07H231.7a.035.035,0,0,1,0-.07" transform="translate(-220.419 -139.166)" fill="#ff0" fill-rule="evenodd"/>
          <path id="Path_4036" data-name="Path 4036" d="M232.236,146.316h-.774a.048.048,0,0,1,0-.095h.775a.048.048,0,0,1,0,.095m-.775-.07a.021.021,0,0,0-.017.023.021.021,0,0,0,.017.023h.775c.01,0,.017-.011.017-.023s-.008-.023-.017-.023Z" transform="translate(-220.182 -138.929)"/>
          <path id="Path_4037" data-name="Path 4037" d="M237.343,135.861h.06v.043h.044v-.045h.061v.044h.044v-.045h.061v.1a.025.025,0,0,1-.026.026h-.214a.028.028,0,0,1-.028-.026v-.1" transform="translate(-225.811 -129.084)" fill="#ff0" fill-rule="evenodd"/>
          <path id="Path_4038" data-name="Path 4038" d="M237.294,135.766h-.22a.04.04,0,0,1-.041-.039v-.106l.013,0h.074v.043h.02v-.045h.087v.044h.02v-.044h.087v.113a.038.038,0,0,1-.04.038m-.236-.126v.087a.016.016,0,0,0,.016.014h.22a.014.014,0,0,0,.015-.013v-.088h-.038v.045h-.07v-.045h-.038v.045h-.069v-.043Z" transform="translate(-225.516 -128.85)"/>
          <path id="Path_4039" data-name="Path 4039" d="M238.081,138.558l.014.322h-.212l.014-.322h.187" transform="translate(-226.321 -131.647)" fill="#ff0" fill-rule="evenodd"/>
          <path id="Path_4040" data-name="Path 4040" d="M237.859,138.652h-.241l.015-.347h.212Zm-.212-.025h.189l-.013-.3h-.163Z" transform="translate(-226.072 -131.406)"/>
          <path id="Path_4041" data-name="Path 4041" d="M242.622,139.024h.06v.043h.044v-.045h.061v.044h.044v-.045h.061v.1a.025.025,0,0,1-.026.026h-.215a.028.028,0,0,1-.028-.027v-.1" transform="translate(-230.827 -132.089)" fill="#ff0" fill-rule="evenodd"/>
          <path id="Path_4042" data-name="Path 4042" d="M243.009,141.509l.007-.2h.217l.007.2Zm.031-.173,0,.148h.18l-.006-.148Z" transform="translate(-231.194 -134.263)"/>
          <path id="Path_4043" data-name="Path 4043" d="M242.627,138.913h-.215a.04.04,0,0,1-.04-.039v-.106l.008-.006h.076v.043h.019v-.045h.086v.045h.019v-.045h.086v.113a.038.038,0,0,1-.039.038m-.23-.126v.087a.015.015,0,0,0,.015.014h.215a.013.013,0,0,0,.014-.013v-.088h-.037v.044h-.069v-.044H242.5v.044h-.069v-.043Z" transform="translate(-230.589 -131.841)"/>
          <path id="Path_4044" data-name="Path 4044" d="M232.014,139.024h.06v.043h.044v-.045h.061v.044h.044v-.045h.061v.1a.025.025,0,0,1-.027.026h-.215a.028.028,0,0,1-.028-.027v-.1" transform="translate(-220.747 -132.089)" fill="#ff0" fill-rule="evenodd"/>
          <path id="Path_4045" data-name="Path 4045" d="M232.019,138.923H231.8a.04.04,0,0,1-.04-.039v-.106l.008-.006h.076v.043h.019v-.045h.086v.044h.019v-.045h.086v.113a.038.038,0,0,1-.039.038m-.231-.126v.087a.015.015,0,0,0,.015.014h.215a.013.013,0,0,0,.014-.013V138.8h-.039v.045h-.069V138.8h-.037v.045h-.069V138.8Z" transform="translate(-220.51 -131.851)"/>
          <path id="Path_4046" data-name="Path 4046" d="M232.858,141.56l.006.173h-.206l.006-.173h.193" transform="translate(-221.361 -134.5)" fill="#ff0" fill-rule="evenodd"/>
          <path id="Path_4047" data-name="Path 4047" d="M232.4,141.509l.007-.2h.217l.007.2Zm.031-.173,0,.148h.18l-.006-.148Z" transform="translate(-221.115 -134.263)"/>
          <path id="Path_4048" data-name="Path 4048" d="M239.614,140.16a.022.022,0,1,1,.043,0v.077h-.043Z" transform="translate(-227.968 -133.147)" fill-rule="evenodd"/>
          <path id="Path_4049" data-name="Path 4049" d="M244.925,142.406a.021.021,0,1,1,.041,0v.059h-.041Z" transform="translate(-233.015 -135.282)" fill-rule="evenodd"/>
          <path id="Path_4050" data-name="Path 4050" d="M234.284,142.406a.021.021,0,1,1,.041,0v.059h-.041Z" transform="translate(-222.904 -135.282)" fill-rule="evenodd"/>
          <path id="Path_4051" data-name="Path 4051" d="M288.671,141.56l.006.173h-.206l.006-.173h.193" transform="translate(-274.39 -134.5)" fill="#ff0" fill-rule="evenodd"/>
          <path id="Path_4052" data-name="Path 4052" d="M281.108,147.924a.346.346,0,0,1,.2-.341.342.342,0,0,1,.212.344h-.414" transform="translate(-267.394 -140.223)" fill="#ff0" fill-rule="evenodd"/>
          <path id="Path_4053" data-name="Path 4053" d="M277.081,147.646l-.034.318h.207a.281.281,0,0,1,.2-.3.3.3,0,0,1,.2.3h.207l-.038-.318h-.749" transform="translate(-263.535 -140.281)" fill="#ff0" fill-rule="evenodd"/>
          <path id="Path_4054" data-name="Path 4054" d="M277,147.747h-.233l.036-.333,0-.008h.769l.04.344h-.233v-.012a.293.293,0,0,0-.193-.292.27.27,0,0,0-.189.292Zm.406-.025h.181l-.034-.294h-.33a.312.312,0,0,1,.079.053.337.337,0,0,1,.106.239m-.611,0h.181a.323.323,0,0,1,.112-.254.276.276,0,0,1,.065-.039h-.326Z" transform="translate(-263.271 -140.052)"/>
          <path id="Path_4055" data-name="Path 4055" d="M276.153,154.06H277a.04.04,0,0,1,0,.078h-.845a.04.04,0,0,1,0-.078" transform="translate(-262.655 -146.377)" fill="#ff0" fill-rule="evenodd"/>
          <path id="Path_4056" data-name="Path 4056" d="M276.765,153.914h-.845a.053.053,0,0,1,0-.1h.845a.053.053,0,0,1,0,.1m-.845-.078c-.011,0-.02.012-.02.026s.009.026.02.026h.845c.011,0,.02-.012.02-.026s-.009-.026-.02-.026Z" transform="translate(-262.422 -146.14)"/>
          <path id="Path_4057" data-name="Path 4057" d="M282.928,149.994a.218.218,0,0,1,.113-.212.221.221,0,0,1,.118.212h-.231" transform="translate(-269.123 -142.312)" fill="#ff0" fill-rule="evenodd"/>
          <path id="Path_4058" data-name="Path 4058" d="M282.936,149.77h-.256v-.012a.249.249,0,0,1,.083-.2s.032-.028.045-.025h0a.229.229,0,0,1,.128.224Zm-.231-.025h.206a.121.121,0,1,0-.206,0" transform="translate(-268.887 -142.076)"/>
          <path id="Path_4059" data-name="Path 4059" d="M276.537,145.06h.81a.035.035,0,0,1,0,.07h-.81a.036.036,0,0,1,0-.07" transform="translate(-263.021 -137.825)" fill="#ff0" fill-rule="evenodd"/>
          <path id="Path_4060" data-name="Path 4060" d="M277.107,144.9h-.81a.048.048,0,0,1,0-.1h.81a.048.048,0,1,1,0,.1m-.81-.07a.023.023,0,0,0,0,.046h.81a.023.023,0,0,0,0-.046Z" transform="translate(-262.781 -137.579)"/>
          <path id="Path_4061" data-name="Path 4061" d="M276.9,146.47h.775a.035.035,0,0,1,0,.07H276.9a.035.035,0,0,1,0-.07" transform="translate(-263.37 -139.166)" fill="#ff0" fill-rule="evenodd"/>
          <path id="Path_4062" data-name="Path 4062" d="M277.439,146.316h-.777a.048.048,0,0,1,0-.095h.775a.048.048,0,0,1,0,.095m-.775-.07a.021.021,0,0,0-.017.023c0,.012.008.023.017.023h.775c.01,0,.017-.011.017-.023s-.008-.023-.017-.023Z" transform="translate(-263.131 -138.929)"/>
          <path id="Path_4063" data-name="Path 4063" d="M282.548,135.861h.06v.043h.044v-.045h.061v.044h.044v-.045h.061v.1a.025.025,0,0,1-.026.026h-.217a.028.028,0,0,1-.028-.026v-.1" transform="translate(-268.761 -129.084)" fill="#ff0" fill-rule="evenodd"/>
          <path id="Path_4064" data-name="Path 4064" d="M282.5,135.765h-.22a.04.04,0,0,1-.041-.039v-.106l.008-.006h.077v.043h.02v-.045h.087v.044h.02v-.045h.088v.113a.038.038,0,0,1-.04.038m-.236-.126v.087a.016.016,0,0,0,.016.014h.22a.014.014,0,0,0,.015-.013v-.088h-.038v.044h-.069v-.044h-.038v.044H282.3v-.043Z" transform="translate(-268.467 -128.849)"/>
          <path id="Path_4065" data-name="Path 4065" d="M283.286,138.558l.014.322h-.212l.014-.322h.186" transform="translate(-269.273 -131.647)" fill="#ff0" fill-rule="evenodd"/>
          <path id="Path_4066" data-name="Path 4066" d="M283.064,138.652h-.241l.015-.347h.212Zm-.212-.025h.189l-.013-.3h-.164Z" transform="translate(-269.023 -131.406)"/>
          <path id="Path_4067" data-name="Path 4067" d="M287.827,139.024h.06v.043h.044v-.045h.061v.044h.044v-.045h.061v.1a.025.025,0,0,1-.026.026h-.215a.028.028,0,0,1-.028-.027v-.1" transform="translate(-273.778 -132.089)" fill="#ff0" fill-rule="evenodd"/>
          <path id="Path_4068" data-name="Path 4068" d="M288.214,141.509l.007-.2h.217l.007.2Zm.031-.173,0,.148h.18l-.006-.148Z" transform="translate(-274.146 -134.263)"/>
          <path id="Path_4069" data-name="Path 4069" d="M287.832,138.913h-.215a.04.04,0,0,1-.04-.039v-.106l.008-.006h.076v.043h.019v-.045h.086v.045h.019v-.045h.086v.113a.038.038,0,0,1-.039.038m-.231-.126v.087a.015.015,0,0,0,.015.014h.215a.013.013,0,0,0,.014-.013v-.088h-.037v.044h-.069v-.044h-.037v.044h-.069v-.043Z" transform="translate(-273.54 -131.841)"/>
          <path id="Path_4070" data-name="Path 4070" d="M277.219,139.024h.06v.043h.044v-.045h.061v.044h.044v-.045h.061v.1a.025.025,0,0,1-.026.026h-.215a.028.028,0,0,1-.028-.027v-.1" transform="translate(-263.698 -132.089)" fill="#ff0" fill-rule="evenodd"/>
          <path id="Path_4071" data-name="Path 4071" d="M277.224,138.923h-.215a.04.04,0,0,1-.04-.039v-.106l.008-.006h.076v.043h.019v-.045h.086v.044h.019v-.045h.086v.113a.038.038,0,0,1-.039.038m-.23-.126v.087a.015.015,0,0,0,.015.014h.215a.013.013,0,0,0,.014-.013V138.8H277.2v.045h-.069V138.8H277.1v.045h-.069V138.8Z" transform="translate(-263.461 -131.851)"/>
          <path id="Path_4072" data-name="Path 4072" d="M278.063,141.56l.006.173h-.206l.006-.173h.193" transform="translate(-264.312 -134.5)" fill="#ff0" fill-rule="evenodd"/>
          <path id="Path_4073" data-name="Path 4073" d="M277.606,141.509l.007-.2h.217l.007.2Zm.031-.173,0,.148h.18l-.006-.148Z" transform="translate(-264.066 -134.263)"/>
          <path id="Path_4074" data-name="Path 4074" d="M284.818,140.163a.022.022,0,1,1,.043,0v.077h-.043Z" transform="translate(-270.919 -133.15)" fill-rule="evenodd"/>
          <path id="Path_4075" data-name="Path 4075" d="M290.13,142.406a.021.021,0,1,1,.041,0v.059h-.041Z" transform="translate(-275.966 -135.282)" fill-rule="evenodd"/>
          <path id="Path_4076" data-name="Path 4076" d="M279.489,142.406a.021.021,0,1,1,.041,0v.059h-.041Z" transform="translate(-265.856 -135.282)" fill-rule="evenodd"/>
          <path id="Path_4077" data-name="Path 4077" d="M197.752,187.88l.006.173h-.206l.006-.173h.193" transform="translate(-188.005 -178.511)" fill="#ff0" fill-rule="evenodd"/>
          <path id="Path_4078" data-name="Path 4078" d="M190.189,194.244a.346.346,0,0,1,.2-.341.342.342,0,0,1,.212.344h-.414" transform="translate(-181.008 -184.233)" fill="#ff0" fill-rule="evenodd"/>
          <path id="Path_4079" data-name="Path 4079" d="M186.162,193.966l-.034.318h.207a.281.281,0,0,1,.2-.3.3.3,0,0,1,.2.3h.207l-.038-.318h-.749" transform="translate(-177.149 -184.292)" fill="#ff0" fill-rule="evenodd"/>
          <path id="Path_4080" data-name="Path 4080" d="M186.083,194.067h-.233l.036-.333,0-.008h.769l.04.344h-.233v-.012a.292.292,0,0,0-.193-.292.27.27,0,0,0-.189.292Zm.406-.025h.181l-.034-.294h-.33a.313.313,0,0,1,.079.053.336.336,0,0,1,.106.24m-.611,0h.18a.323.323,0,0,1,.112-.254.273.273,0,0,1,.065-.039h-.326Z" transform="translate(-176.885 -184.063)"/>
          <path id="Path_4081" data-name="Path 4081" d="M185.234,200.38h.845a.04.04,0,0,1,0,.078h-.845a.04.04,0,0,1,0-.078" transform="translate(-176.269 -190.388)" fill="#ff0" fill-rule="evenodd"/>
          <path id="Path_4082" data-name="Path 4082" d="M185.846,200.233H185a.053.053,0,0,1,0-.1h.845a.053.053,0,0,1,0,.1m-.845-.078c-.011,0-.02.012-.02.026s.009.026.02.026h.845c.011,0,.02-.012.02-.026s-.009-.026-.02-.026Z" transform="translate(-176.036 -190.15)"/>
          <path id="Path_4083" data-name="Path 4083" d="M192.009,196.312a.218.218,0,0,1,.113-.212.221.221,0,0,1,.118.212h-.231" transform="translate(-182.737 -186.322)" fill="#ff0" fill-rule="evenodd"/>
          <path id="Path_4084" data-name="Path 4084" d="M192.017,196.09h-.244v-.012h-.012a.25.25,0,0,1,.08-.2.115.115,0,0,1,.048-.028h0a.228.228,0,0,1,.129.224Zm-.231-.025h.206a.208.208,0,0,0-.106-.186.206.206,0,0,0-.1.186" transform="translate(-182.501 -186.087)"/>
          <path id="Path_4085" data-name="Path 4085" d="M185.618,191.38h.81a.035.035,0,0,1,0,.07h-.81a.035.035,0,0,1,0-.07" transform="translate(-176.635 -181.836)" fill="#ff0" fill-rule="evenodd"/>
          <path id="Path_4086" data-name="Path 4086" d="M186.188,191.215h-.81a.048.048,0,0,1,0-.1h.81a.048.048,0,0,1,0,.1m-.81-.07a.023.023,0,0,0,0,.046h.81a.023.023,0,0,0,0-.046Z" transform="translate(-176.395 -181.59)"/>
          <path id="Path_4087" data-name="Path 4087" d="M185.983,192.79h.775a.036.036,0,0,1,0,.07h-.775a.036.036,0,0,1,0-.07" transform="translate(-176.983 -183.176)" fill="#ff0" fill-rule="evenodd"/>
          <path id="Path_4088" data-name="Path 4088" d="M186.522,192.636h-.775a.048.048,0,0,1,0-.095h.775a.048.048,0,0,1,0,.095m-.775-.07a.021.021,0,0,0-.017.023c0,.012.008.023.017.023h.775c.01,0,.017-.011.017-.023s-.008-.023-.017-.023Z" transform="translate(-176.747 -182.939)"/>
          <path id="Path_4089" data-name="Path 4089" d="M191.629,182.181h.06v.043h.044v-.045h.061v.044h.044v-.045h.061v.1a.025.025,0,0,1-.026.026h-.215a.028.028,0,0,1-.028-.026v-.1" transform="translate(-182.376 -173.094)" fill="#ff0" fill-rule="evenodd"/>
          <path id="Path_4090" data-name="Path 4090" d="M191.582,182.085h-.218a.041.041,0,0,1-.041-.039v-.106l.013,0h.074v.043h.02v-.045h.087v.044h.02v-.044h.088v.113a.038.038,0,0,1-.04.038m-.236-.126v.086a.016.016,0,0,0,.016.014h.22a.014.014,0,0,0,.015-.013v-.088h-.038V182h-.069v-.044h-.038V182h-.069v-.043Z" transform="translate(-182.083 -172.861)"/>
          <path id="Path_4091" data-name="Path 4091" d="M192.367,184.878l.014.322h-.212l.014-.322h.186" transform="translate(-182.887 -175.658)" fill="#ff0" fill-rule="evenodd"/>
          <path id="Path_4092" data-name="Path 4092" d="M192.145,184.971H191.9l.015-.347h.212Zm-.212-.025h.189l-.013-.3h-.163Z" transform="translate(-182.638 -175.416)"/>
          <path id="Path_4093" data-name="Path 4093" d="M196.908,185.344h.06v.043h.044v-.044h.061v.044h.044v-.045h.061v.1a.025.025,0,0,1-.026.026h-.215a.028.028,0,0,1-.028-.027v-.1" transform="translate(-187.392 -176.1)" fill="#ff0" fill-rule="evenodd"/>
          <path id="Path_4094" data-name="Path 4094" d="M197.3,187.824l.007-.2h.217l.007.2Zm.031-.173,0,.148h.18l-.006-.148Z" transform="translate(-187.762 -178.271)"/>
          <path id="Path_4095" data-name="Path 4095" d="M196.914,185.232H196.7a.04.04,0,0,1-.04-.039v-.106l.008-.006h.076v.043h.019v-.045h.086v.045h.019v-.045h.086v.113a.038.038,0,0,1-.039.038m-.231-.126v.087a.015.015,0,0,0,.015.014h.215a.013.013,0,0,0,.014-.013V185.1h-.036v.044h-.069V185.1h-.037v.044h-.069v-.043Z" transform="translate(-187.155 -175.851)"/>
          <path id="Path_4096" data-name="Path 4096" d="M186.3,185.344h.06v.043h.044v-.044h.061v.044h.044v-.045h.061v.1a.025.025,0,0,1-.026.026h-.215a.028.028,0,0,1-.028-.027v-.1" transform="translate(-177.313 -176.1)" fill="#ff0" fill-rule="evenodd"/>
          <path id="Path_4097" data-name="Path 4097" d="M186.3,185.243h-.215a.04.04,0,0,1-.04-.039V185.1l.008-.006h.076v.043h.019v-.045h.086v.045h.019v-.045h.086v.113a.038.038,0,0,1-.039.038m-.231-.126v.087a.015.015,0,0,0,.015.014h.215a.013.013,0,0,0,.014-.013v-.088h-.037v.045h-.069v-.045h-.037v.045h-.069v-.043Z" transform="translate(-177.074 -175.861)"/>
          <path id="Path_4098" data-name="Path 4098" d="M187.144,187.88l.006.173h-.206l.006-.173h.193" transform="translate(-177.925 -178.511)" fill="#ff0" fill-rule="evenodd"/>
          <path id="Path_4099" data-name="Path 4099" d="M186.686,187.824l.007-.2h.217l.007.2Zm.031-.173,0,.148h.18l-.006-.148Z" transform="translate(-177.68 -178.271)"/>
          <path id="Path_4100" data-name="Path 4100" d="M193.9,186.478a.022.022,0,1,1,.043,0v.077H193.9Z" transform="translate(-184.533 -177.157)" fill-rule="evenodd"/>
          <path id="Path_4101" data-name="Path 4101" d="M199.211,188.726a.021.021,0,1,1,.041,0v.059h-.041Z" transform="translate(-189.58 -179.293)" fill-rule="evenodd"/>
          <path id="Path_4102" data-name="Path 4102" d="M188.57,188.726a.021.021,0,1,1,.041,0v.059h-.041Z" transform="translate(-179.469 -179.293)" fill-rule="evenodd"/>
          <path id="Path_4103" data-name="Path 4103" d="M277.836,239.515l-.118.127-.146-.145.127-.119.137.137" transform="translate(-264.034 -227.441)" fill="#ff0" fill-rule="evenodd"/>
          <path id="Path_4104" data-name="Path 4104" d="M265.726,240.9a.346.346,0,0,1,.385-.1.342.342,0,0,1-.094.392l-.291-.295" transform="translate(-252.779 -228.773)" fill="#ff0" fill-rule="evenodd"/>
          <path id="Path_4105" data-name="Path 4105" d="M263.387,236.025l-.248.2.146.146a.281.281,0,0,1,.359-.072.3.3,0,0,1-.071.359l.146.146.2-.252-.53-.53" transform="translate(-250.32 -224.255)" fill="#ff0" fill-rule="evenodd"/>
          <path id="Path_4106" data-name="Path 4106" d="M263.36,236.526l-.165-.165.008-.009a.293.293,0,0,0,.07-.343.27.27,0,0,0-.34.073l-.009.008-.164-.165.268-.215.546.543Zm-.13-.165.128.128.183-.232-.234-.233a.313.313,0,0,1,.019.094.337.337,0,0,1-.1.243m-.432-.433.127.128a.323.323,0,0,1,.259-.1.274.274,0,0,1,.073.018l-.231-.229Z" transform="translate(-249.961 -223.957)"/>
          <path id="Path_4107" data-name="Path 4107" d="M261.717,239.706l.6.6a.04.04,0,0,1-.053.053l-.6-.6a.04.04,0,0,1,.053-.053" transform="translate(-248.909 -227.744)" fill="#ff0" fill-rule="evenodd"/>
          <path id="Path_4108" data-name="Path 4108" d="M262.035,240.136a.042.042,0,0,1-.03-.012l-.6-.6a.049.049,0,0,1,0-.068.053.053,0,0,1,.039-.016.041.041,0,0,1,.03.012l.6.6a.049.049,0,0,1,0,.068.053.053,0,0,1-.038.016m-.583-.669a.03.03,0,0,0-.021.01.024.024,0,0,0,0,.033l.6.6a.028.028,0,0,0,.038-.038l-.6-.6a.017.017,0,0,0-.012,0" transform="translate(-248.666 -227.502)"/>
          <path id="Path_4109" data-name="Path 4109" d="M267.3,242.687a.218.218,0,0,1,.23-.069.221.221,0,0,1-.067.233l-.163-.163" transform="translate(-254.272 -230.51)" fill="#ff0" fill-rule="evenodd"/>
          <path id="Path_4110" data-name="Path 4110" d="M267.124,242.631l-.181-.181.009-.009a.248.248,0,0,1,.2-.082s.042,0,.049.014a.234.234,0,0,1-.068.249Zm-.146-.181.146.145a.121.121,0,1,0-.145-.146" transform="translate(-253.935 -230.274)"/>
          <path id="Path_4111" data-name="Path 4111" d="M268.434,233.593l.573.573a.035.035,0,0,1-.05.05l-.573-.573a.035.035,0,0,1,.05-.05" transform="translate(-255.297 -221.937)" fill="#ff0" fill-rule="evenodd"/>
          <path id="Path_4112" data-name="Path 4112" d="M268.747,233.991a.041.041,0,0,1-.03-.012l-.573-.573a.046.046,0,0,1,0-.065.05.05,0,0,1,.035-.015.041.041,0,0,1,.03.012l.573.573a.046.046,0,0,1,0,.065.05.05,0,0,1-.032.015h0m-.564-.639a.025.025,0,0,0-.018.007.021.021,0,0,0,0,.029l.573.573a.016.016,0,0,0,.013,0,.024.024,0,0,0,.016-.007.021.021,0,0,0,0-.029l-.573-.573a.017.017,0,0,0-.012,0Z" transform="translate(-255.065 -221.692)"/>
          <path id="Path_4113" data-name="Path 4113" d="M267.689,234.841l.548.548a.036.036,0,0,1-.05.05l-.548-.548a.036.036,0,0,1,.05-.05" transform="translate(-254.589 -223.123)" fill="#ff0" fill-rule="evenodd"/>
          <path id="Path_4114" data-name="Path 4114" d="M267.97,235.221a.04.04,0,0,1-.028-.011l-.548-.548a.04.04,0,0,1-.011-.032.052.052,0,0,1,.05-.047.039.039,0,0,1,.028.011l.548.548a.045.045,0,0,1,0,.064.053.053,0,0,1-.031.015h0m-.537-.613a.026.026,0,0,0-.017.008.021.021,0,0,0,0,.028l.548.548a.023.023,0,0,0,.032-.032l-.548-.548a.015.015,0,0,0-.011,0" transform="translate(-254.352 -222.886)"/>
          <path id="Path_4115" data-name="Path 4115" d="M278.392,231.088l.042.042-.031.031.031.031.031-.031.043.043-.031.031.031.031.031-.031.043.043-.071.071a.026.026,0,0,1-.037,0l-.152-.152a.028.028,0,0,1,0-.038l.07-.07" transform="translate(-264.74 -219.564)" fill="#ff0" fill-rule="evenodd"/>
          <path id="Path_4116" data-name="Path 4116" d="M278.22,231.025a.04.04,0,0,1-.029-.012l-.156-.156a.04.04,0,0,1,0-.056l.077-.077.011.007.053.053-.031.031.014.014.031-.031.062.062-.031.031.014.014.031-.031.062.062-.08.079a.038.038,0,0,1-.027.011m-.106-.268-.061.061a.016.016,0,0,0,0,.021l.156.156a.014.014,0,0,0,.02,0l.062-.062-.026-.026-.031.031-.049-.049.031-.031-.026-.026-.031.031-.049-.049.031-.031Z" transform="translate(-264.463 -219.218)"/>
          <path id="Path_4117" data-name="Path 4117" d="M274.154,233.695l-.218.237-.151-.152.237-.217.131.132" transform="translate(-260.436 -221.915)" fill="#ff0" fill-rule="evenodd"/>
          <path id="Path_4118" data-name="Path 4118" d="M273.6,233.619l-.17-.171.256-.234.148.149Zm-.134-.17.133.134.2-.219-.114-.116Z" transform="translate(-260.095 -221.584)"/>
          <path id="Path_4119" data-name="Path 4119" d="M279.889,237.057l.042.042-.031.031.031.031.031-.031.043.043-.031.031.031.031.031-.031.043.043-.071.071a.026.026,0,0,1-.037,0l-.152-.152a.027.027,0,0,1,0-.038l.07-.07" transform="translate(-266.162 -225.236)" fill="#ff0" fill-rule="evenodd"/>
          <path id="Path_4120" data-name="Path 4120" d="M277.378,239.334l-.164-.164.145-.136.154.154Zm-.128-.163.127.127.1-.109-.12-.12Z" transform="translate(-263.694 -227.113)"/>
          <path id="Path_4121" data-name="Path 4121" d="M279.762,236.995h0a.04.04,0,0,1-.028-.012l-.152-.152a.04.04,0,0,1,0-.056l.079-.079h0l.06.06-.031.031.013.013.031-.031.061.061-.031.031.013.013.031-.031.061.061-.08.079a.038.038,0,0,1-.026.011m-.1-.265-.061.061a.015.015,0,0,0,0,.021l.152.152a.015.015,0,0,0,.011,0,.012.012,0,0,0,.009,0l.062-.062-.025-.026-.031.031-.049-.049.031-.031-.025-.026-.031.031-.049-.049.031-.031Z" transform="translate(-265.933 -224.893)"/>
          <path id="Path_4122" data-name="Path 4122" d="M272.388,229.556l.042.042-.031.031.031.031.031-.031.043.043-.031.031.031.031.031-.031.043.043-.071.071a.026.026,0,0,1-.037,0l-.152-.152a.028.028,0,0,1,0-.038l.07-.07" transform="translate(-259.035 -218.109)" fill="#ff0" fill-rule="evenodd"/>
          <path id="Path_4123" data-name="Path 4123" d="M272.252,229.6h0a.04.04,0,0,1-.028-.012l-.152-.152a.04.04,0,0,1,0-.056l.074-.074h.011l.053.053-.031.031.013.013.031-.031.061.061-.031.031.013.013.031-.031.061.061-.08.079a.038.038,0,0,1-.026.011m-.1-.265-.061.061a.015.015,0,0,0,0,.021l.152.152a.015.015,0,0,0,.011,0,.013.013,0,0,0,.009,0l.062-.062-.026-.026-.031.031-.049-.049.031-.031-.025-.026-.031.031-.049-.049.031-.031Z" transform="translate(-258.797 -217.872)"/>
          <path id="Path_4124" data-name="Path 4124" d="M270.335,232.013l-.118.127-.146-.146.127-.119.137.137" transform="translate(-256.908 -220.314)" fill="#ff0" fill-rule="evenodd"/>
          <path id="Path_4125" data-name="Path 4125" d="M269.876,231.828l-.164-.164.145-.136.154.154Zm-.128-.163.127.127.1-.109-.12-.12Z" transform="translate(-256.566 -219.984)"/>
          <path id="Path_4126" data-name="Path 4126" d="M277.091,235.888a.022.022,0,0,1,.031.031l-.053.053-.031-.031Z" transform="translate(-263.526 -224.118)" fill-rule="evenodd"/>
          <path id="Path_4127" data-name="Path 4127" d="M279.5,241.229a.021.021,0,1,1,.029.029l-.042.042-.029-.029Z" transform="translate(-265.829 -229.193)" fill-rule="evenodd"/>
          <path id="Path_4128" data-name="Path 4128" d="M271.979,233.7a.021.021,0,1,1,.029.029l-.042.042-.029-.029Z" transform="translate(-258.68 -222.044)" fill-rule="evenodd"/>
          <path id="Path_4129" data-name="Path 4129" d="M288.6,187.881l.006.173H288.4l.006-.173h.193" transform="translate(-274.324 -178.512)" fill="#ff0" fill-rule="evenodd"/>
          <path id="Path_4130" data-name="Path 4130" d="M281.039,194.245a.346.346,0,0,1,.2-.341.342.342,0,0,1,.212.344h-.414" transform="translate(-267.328 -184.234)" fill="#ff0" fill-rule="evenodd"/>
          <path id="Path_4131" data-name="Path 4131" d="M277.012,193.967l-.034.318h.207a.281.281,0,0,1,.2-.3.3.3,0,0,1,.2.3h.207l-.038-.318h-.749" transform="translate(-263.47 -184.293)" fill="#ff0" fill-rule="evenodd"/>
          <path id="Path_4132" data-name="Path 4132" d="M276.933,194.067H276.7l.035-.341h.773l.04.344h-.233v-.012a.292.292,0,0,0-.193-.292.27.27,0,0,0-.189.292Zm.406-.025h.181l-.034-.294h-.33a.312.312,0,0,1,.079.053.336.336,0,0,1,.106.239m-.611,0h.18a.323.323,0,0,1,.112-.254.272.272,0,0,1,.065-.039h-.326Z" transform="translate(-263.205 -184.063)"/>
          <path id="Path_4133" data-name="Path 4133" d="M276.084,200.381h.845a.04.04,0,0,1,0,.078h-.845a.04.04,0,0,1,0-.078" transform="translate(-262.589 -190.389)" fill="#ff0" fill-rule="evenodd"/>
          <path id="Path_4134" data-name="Path 4134" d="M276.695,200.234h-.845a.053.053,0,0,1,0-.1h.845a.053.053,0,0,1,0,.1m-.845-.078c-.011,0-.02.012-.02.027s.009.026.02.026h.845c.011,0,.02-.012.02-.026s-.009-.027-.02-.027Z" transform="translate(-262.355 -190.151)"/>
          <path id="Path_4135" data-name="Path 4135" d="M282.859,196.312a.218.218,0,0,1,.113-.212.221.221,0,0,1,.118.212h-.231" transform="translate(-269.058 -186.322)" fill="#ff0" fill-rule="evenodd"/>
          <path id="Path_4136" data-name="Path 4136" d="M282.866,196.09h-.256v-.013a.251.251,0,0,1,.08-.2.116.116,0,0,1,.048-.028h0a.228.228,0,0,1,.129.224Zm-.231-.025h.206a.208.208,0,0,0-.106-.186.206.206,0,0,0-.1.186" transform="translate(-268.82 -186.087)"/>
          <path id="Path_4137" data-name="Path 4137" d="M276.472,191.381h.81a.036.036,0,0,1,0,.07h-.81a.036.036,0,0,1,0-.07" transform="translate(-262.958 -181.837)" fill="#ff0" fill-rule="evenodd"/>
          <path id="Path_4138" data-name="Path 4138" d="M277.038,191.215h-.811a.048.048,0,0,1,0-.1h.811a.048.048,0,1,1,0,.1m-.81-.07a.023.023,0,0,0,0,.046h.81a.023.023,0,0,0,0-.046Z" transform="translate(-262.715 -181.59)"/>
          <path id="Path_4139" data-name="Path 4139" d="M276.835,192.791h.775a.036.036,0,0,1,0,.07h-.775a.036.036,0,0,1,0-.07" transform="translate(-263.305 -183.177)" fill="#ff0" fill-rule="evenodd"/>
          <path id="Path_4140" data-name="Path 4140" d="M277.375,192.637H276.6a.048.048,0,0,1,0-.095h.775a.048.048,0,0,1,0,.095m-.775-.07a.021.021,0,0,0-.017.023c0,.012.008.023.017.023h.775c.01,0,.017-.011.017-.023s-.008-.023-.017-.023Z" transform="translate(-263.069 -182.94)"/>
          <path id="Path_4141" data-name="Path 4141" d="M282.479,182.182h.06v.043h.044v-.045h.061v.044h.044v-.045h.061v.1a.025.025,0,0,1-.026.026h-.215a.028.028,0,0,1-.028-.026v-.1" transform="translate(-268.696 -173.095)" fill="#ff0" fill-rule="evenodd"/>
          <path id="Path_4142" data-name="Path 4142" d="M282.43,182.086h-.22a.04.04,0,0,1-.041-.039v-.106l.013,0h.074v.043h.02v-.044h.087v.044h.02v-.045h.087v.113a.038.038,0,0,1-.04.038m-.236-.126v.086a.016.016,0,0,0,.016.014h.22a.014.014,0,0,0,.015-.013v-.088h-.038V182h-.07v-.045H282.3V182h-.069v-.043Z" transform="translate(-268.401 -172.862)"/>
          <path id="Path_4143" data-name="Path 4143" d="M283.217,184.879l.014.322h-.212l.014-.322h.187" transform="translate(-269.207 -175.659)" fill="#ff0" fill-rule="evenodd"/>
          <path id="Path_4144" data-name="Path 4144" d="M282.995,184.972h-.241l.015-.347h.212Zm-.212-.025h.189l-.013-.3H282.8Z" transform="translate(-268.958 -175.417)"/>
          <path id="Path_4145" data-name="Path 4145" d="M287.758,185.345h.06v.043h.043v-.045h.061v.044h.044v-.044h.061v.1a.026.026,0,0,1-.026.026h-.215a.028.028,0,0,1-.028-.026v-.1" transform="translate(-273.712 -176.101)" fill="#ff0" fill-rule="evenodd"/>
          <path id="Path_4146" data-name="Path 4146" d="M288.145,187.83l.007-.2h.217l.007.2Zm.031-.173,0,.148h.18l-.006-.148Z" transform="translate(-274.08 -178.274)"/>
          <path id="Path_4147" data-name="Path 4147" d="M287.763,185.234h-.215a.04.04,0,0,1-.04-.039v-.106l.008-.006h.076v.043h.019v-.044h.086v.044h.019v-.044h.086v.113a.038.038,0,0,1-.039.038m-.231-.126v.087a.015.015,0,0,0,.015.014h.215a.013.013,0,0,0,.014-.013v-.088h-.037v.045h-.069v-.045h-.037v.045h-.069v-.043Z" transform="translate(-273.474 -175.852)"/>
          <path id="Path_4148" data-name="Path 4148" d="M277.149,185.345h.06v.043h.044v-.045h.061v.044h.044v-.044h.061v.1a.025.025,0,0,1-.026.026h-.218a.028.028,0,0,1-.028-.026v-.1" transform="translate(-263.632 -176.101)" fill="#ff0" fill-rule="evenodd"/>
          <path id="Path_4149" data-name="Path 4149" d="M277.154,185.244h-.215a.04.04,0,0,1-.04-.039V185.1l.008-.006h.076v.043H277v-.045h.086v.045h.019v-.045h.086v.113a.038.038,0,0,1-.039.038m-.23-.126v.087a.015.015,0,0,0,.015.014h.215a.013.013,0,0,0,.014-.013v-.088h-.037v.045h-.069v-.045h-.037v.045h-.069v-.043Z" transform="translate(-263.394 -175.862)"/>
          <path id="Path_4150" data-name="Path 4150" d="M277.994,187.881l.006.173h-.206l.006-.173h.193" transform="translate(-264.246 -178.512)" fill="#ff0" fill-rule="evenodd"/>
          <path id="Path_4151" data-name="Path 4151" d="M277.536,187.83l.007-.2h.217l.007.2Zm.031-.173,0,.148h.18l-.006-.148Z" transform="translate(-264 -178.274)"/>
          <path id="Path_4152" data-name="Path 4152" d="M284.75,186.478a.022.022,0,1,1,.043,0v.077h-.043Z" transform="translate(-270.853 -177.157)" fill-rule="evenodd"/>
          <path id="Path_4153" data-name="Path 4153" d="M290.061,188.727a.021.021,0,0,1,.041,0v.059h-.041Z" transform="translate(-275.9 -179.294)" fill-rule="evenodd"/>
          <path id="Path_4154" data-name="Path 4154" d="M279.42,188.727a.021.021,0,0,1,.041,0v.059h-.041Z" transform="translate(-265.79 -179.294)" fill-rule="evenodd"/>
          <path id="Path_4155" data-name="Path 4155" d="M204.544,231.843l.127.118-.145.146-.119-.127.137-.137" transform="translate(-194.517 -220.282)" fill="#ff0" fill-rule="evenodd"/>
          <path id="Path_4156" data-name="Path 4156" d="M205.93,241.14a.346.346,0,0,1-.1-.385.342.342,0,0,1,.392.094Z" transform="translate(-195.851 -228.724)" fill="#ff0" fill-rule="evenodd"/>
          <path id="Path_4157" data-name="Path 4157" d="M201.059,236.472l.2.248.146-.146a.281.281,0,0,1-.072-.359.3.3,0,0,1,.359.071l.146-.146-.252-.2-.53.53" transform="translate(-191.335 -224.176)" fill="#ff0" fill-rule="evenodd"/>
          <path id="Path_4158" data-name="Path 4158" d="M200.857,236.43l-.207-.256-.013-.006.012-.012.536-.539.271.212-.165.165-.009-.008a.292.292,0,0,0-.343-.07.27.27,0,0,0,.073.34l.008.009Zm-.182-.265.184.228.128-.127a.323.323,0,0,1-.1-.259.27.27,0,0,1,.018-.073Zm.386-.3a.339.339,0,0,1,.231.1l.128-.128-.232-.183-.233.234a.311.311,0,0,1,.094-.019h.012" transform="translate(-190.935 -223.867)"/>
          <path id="Path_4159" data-name="Path 4159" d="M204.738,240.242l.6-.6a.04.04,0,0,1,.053.053l-.6.6a.04.04,0,0,1-.053-.053" transform="translate(-194.824 -227.687)" fill="#ff0" fill-rule="evenodd"/>
          <path id="Path_4160" data-name="Path 4160" d="M204.53,240.078h0a.057.057,0,0,1-.05-.05.042.042,0,0,1,.012-.034l.6-.6a.049.049,0,0,1,.068,0,.053.053,0,0,1,.016.034.042.042,0,0,1-.012.034l-.6.6a.042.042,0,0,1-.03.012m.583-.669a.017.017,0,0,0-.012,0l-.6.6a.017.017,0,0,0,0,.014.032.032,0,0,0,.028.028.018.018,0,0,0,.014,0l.6-.6a.017.017,0,0,0,0-.014.032.032,0,0,0-.03-.028" transform="translate(-194.582 -227.447)"/>
          <path id="Path_4161" data-name="Path 4161" d="M207.714,242.825a.218.218,0,0,1-.069-.23.221.221,0,0,1,.233.067l-.163.163" transform="translate(-197.585 -230.488)" fill="#ff0" fill-rule="evenodd"/>
          <path id="Path_4162" data-name="Path 4162" d="M207.486,242.6l-.008-.008-.009.008a.249.249,0,0,1-.082-.2.11.11,0,0,1,.014-.053h0a.234.234,0,0,1,.246.069l.009.009Zm-.069-.229a.212.212,0,0,0,.06.2l.146-.145a.212.212,0,0,0-.206-.057" transform="translate(-197.348 -230.253)"/>
          <path id="Path_4163" data-name="Path 4163" d="M198.613,234.085l.573-.573a.036.036,0,0,1,.05.05l-.573.573a.035.035,0,0,1-.05-.05" transform="translate(-189.004 -221.862)" fill="#ff0" fill-rule="evenodd"/>
          <path id="Path_4164" data-name="Path 4164" d="M198.4,233.923h0a.05.05,0,0,1-.032-.015.046.046,0,0,1,0-.065l.009.009-.009-.009.573-.573a.042.042,0,0,1,.032-.012.053.053,0,0,1,.047.047.041.041,0,0,1-.012.032l-.573.573a.041.041,0,0,1-.03.012m.564-.639a.016.016,0,0,0-.012,0l-.573.573a.021.021,0,0,0,0,.029.024.024,0,0,0,.016.007.016.016,0,0,0,.013,0l.573-.573a.017.017,0,0,0,0-.013.025.025,0,0,0-.007-.016.025.025,0,0,0-.016-.007h0" transform="translate(-188.767 -221.627)"/>
          <path id="Path_4165" data-name="Path 4165" d="M199.864,235.324l.548-.548a.035.035,0,0,1,.05.05l-.548.548a.035.035,0,0,1-.05-.05" transform="translate(-190.194 -223.062)" fill="#ff0" fill-rule="evenodd"/>
          <path id="Path_4166" data-name="Path 4166" d="M199.659,235.158h0a.053.053,0,0,1-.031-.015.045.045,0,0,1,0-.064h0l.548-.548a.04.04,0,0,1,.032-.011.053.053,0,0,1,.031.015.045.045,0,0,1,0,.064l-.548.548a.04.04,0,0,1-.028.011m-.022-.061a.021.021,0,0,0,0,.028.027.027,0,0,0,.016.008.015.015,0,0,0,.012,0l.548-.548a.021.021,0,0,0,0-.028.026.026,0,0,0-.016-.008.015.015,0,0,0-.012,0Z" transform="translate(-189.959 -222.826)"/>
          <path id="Path_4167" data-name="Path 4167" d="M196.117,231.192l.042-.042.031.031.031-.031-.031-.031.043-.043.031.031.031-.031-.031-.031.043-.043.071.071a.026.026,0,0,1,0,.037l-.152.152a.028.028,0,0,1-.038,0l-.07-.07" transform="translate(-186.64 -219.481)" fill="#ff0" fill-rule="evenodd"/>
          <path id="Path_4168" data-name="Path 4168" d="M195.832,230.9a.038.038,0,0,1-.026-.011l-.079-.079.061-.061.031.031.014-.014-.031-.031.062-.061.031.031.014-.014-.031-.031.062-.062.079.08a.038.038,0,0,1,.011.029.041.041,0,0,1-.012.026l-.156.156a.042.042,0,0,1-.03.012m-.07-.09.061.061a.016.016,0,0,0,.021,0l.155-.156a.015.015,0,0,0,0-.011.012.012,0,0,0,0-.01l-.062-.062-.026.026.031.031-.049.049-.031-.031-.026.026.031.031-.049.049-.031-.031Z" transform="translate(-186.269 -219.103)"/>
          <path id="Path_4169" data-name="Path 4169" d="M198.728,233.51l.237.218-.152.151-.217-.237.132-.131" transform="translate(-188.995 -221.866)" fill="#ff0" fill-rule="evenodd"/>
          <path id="Path_4170" data-name="Path 4170" d="M198.481,233.579l-.234-.256.149-.148.255.235Zm-.2-.255.2.219.134-.133-.219-.2Z" transform="translate(-188.664 -221.548)"/>
          <path id="Path_4171" data-name="Path 4171" d="M202.086,229.693l.042-.042.031.031.031-.031-.031-.031.043-.043.031.031.031-.031-.031-.031.043-.043.071.071a.026.026,0,0,1,0,.037l-.152.152a.028.028,0,0,1-.038,0l-.07-.07" transform="translate(-192.311 -218.057)" fill="#ff0" fill-rule="evenodd"/>
          <path id="Path_4172" data-name="Path 4172" d="M204.195,231.794l-.136-.145.154-.154.146.135Zm-.1-.145.1.106.127-.127-.109-.1Z" transform="translate(-194.186 -219.951)"/>
          <path id="Path_4173" data-name="Path 4173" d="M201.93,229.437a.038.038,0,0,1-.027-.011l-.074-.074v-.01l.053-.053.031.031.013-.013-.031-.031.061-.061.031.031.013-.013-.031-.031.061-.061.079.08a.038.038,0,0,1,0,.053l-.152.152a.041.041,0,0,1-.029.012m-.07-.09.061.061a.015.015,0,0,0,.021,0l.152-.152a.013.013,0,0,0,0-.02l-.062-.062L202,229.2l.031.031-.049.049-.031-.031-.026.025.031.031-.049.049-.031-.031Z" transform="translate(-192.068 -217.714)"/>
          <path id="Path_4174" data-name="Path 4174" d="M194.59,237.19l.042-.042.031.031.031-.031-.031-.031.043-.043.031.031.031-.031-.031-.031.043-.043.071.071a.026.026,0,0,1,0,.037l-.152.152a.028.028,0,0,1-.038,0l-.07-.07" transform="translate(-185.189 -225.18)" fill="#ff0" fill-rule="evenodd"/>
          <path id="Path_4175" data-name="Path 4175" d="M194.341,236.945a.038.038,0,0,1-.027-.011l-.079-.079.06-.06.031.031.013-.013-.031-.031.061-.061.031.031.013-.013-.031-.031.061-.061.079.08a.038.038,0,0,1,.011.027.04.04,0,0,1-.012.028l-.152.152a.041.041,0,0,1-.029.012m-.07-.09.061.061a.015.015,0,0,0,.021,0l.152-.152a.015.015,0,0,0,0-.011.012.012,0,0,0,0-.009l-.062-.062-.026.025.031.031-.049.049-.031-.031-.026.025.031.031-.049.049-.031-.031Z" transform="translate(-184.852 -224.846)"/>
          <path id="Path_4176" data-name="Path 4176" d="M197.043,239.34l.127.118-.146.146-.119-.127Z" transform="translate(-187.391 -227.405)" fill="#ff0" fill-rule="evenodd"/>
          <path id="Path_4177" data-name="Path 4177" d="M196.7,239.29l-.136-.145.154-.154.146.135Zm-.1-.145.1.106.127-.127-.109-.1Z" transform="translate(-187.061 -227.073)"/>
          <path id="Path_4178" data-name="Path 4178" d="M200.918,235.851a.022.022,0,1,1,.031-.031l.053.053-.031.031-.053-.053" transform="translate(-191.195 -224.054)" fill-rule="evenodd"/>
          <path id="Path_4179" data-name="Path 4179" d="M206.258,233.7a.021.021,0,1,1,.029-.029l.042.042-.029.029Z" transform="translate(-196.268 -222.012)" fill-rule="evenodd"/>
          <path id="Path_4180" data-name="Path 4180" d="M198.738,241.227a.021.021,0,1,1,.029-.029l.042.042-.029.029Z" transform="translate(-189.123 -229.163)" fill-rule="evenodd"/>
          <path id="Path_4181" data-name="Path 4181" d="M242.9,228.2a.074.074,0,1,0,.074.074.074.074,0,0,0-.074-.074" transform="translate(-231.02 -216.823)" fill="#fff"/>
          <path id="Path_4182" data-name="Path 4182" d="M234.662,228.214a.074.074,0,1,0,.074.074.074.074,0,0,0-.074-.074" transform="translate(-223.193 -216.834)" fill="#fff"/>
          <path id="Path_4183" data-name="Path 4183" d="M238.742,224.035a.074.074,0,1,0,.074.074.074.074,0,0,0-.074-.074" transform="translate(-227.07 -212.863)" fill="#fff"/>
          <path id="Path_4184" data-name="Path 4184" d="M242.908,220.041a.074.074,0,1,0,.074.074.074.074,0,0,0-.074-.074" transform="translate(-231.028 -209.068)" fill="#fff"/>
          <path id="Path_4185" data-name="Path 4185" d="M263.718,202.46a.074.074,0,1,0,.074.074.074.074,0,0,0-.074-.074" transform="translate(-250.801 -192.364)" fill="#fff"/>
          <path id="Path_4186" data-name="Path 4186" d="M255.605,202.472a.074.074,0,1,0,.074.074.074.074,0,0,0-.074-.074" transform="translate(-243.092 -192.375)" fill="#fff"/>
          <path id="Path_4187" data-name="Path 4187" d="M259.561,198.292a.074.074,0,1,0,.074.074.074.074,0,0,0-.074-.074" transform="translate(-246.851 -188.403)" fill="#fff"/>
          <path id="Path_4188" data-name="Path 4188" d="M263.727,194.3a.074.074,0,1,0,.074.074.074.074,0,0,0-.074-.074" transform="translate(-250.809 -184.61)" fill="#fff"/>
          <path id="Path_4189" data-name="Path 4189" d="M255.588,194.29a.074.074,0,1,0,.074.074.074.074,0,0,0-.074-.074" transform="translate(-243.076 -184.601)" fill="#fff"/>
          <path id="Path_4190" data-name="Path 4190" d="M242.971,202.42a.074.074,0,1,0,.074.074.074.074,0,0,0-.074-.074" transform="translate(-231.088 -192.326)" fill="#fff"/>
          <path id="Path_4191" data-name="Path 4191" d="M234.662,202.431a.074.074,0,1,0,.074.074.074.074,0,0,0-.074-.074" transform="translate(-223.193 -192.336)" fill="#fff"/>
          <path id="Path_4192" data-name="Path 4192" d="M238.813,198.25a.074.074,0,1,0,.074.074.074.074,0,0,0-.074-.074" transform="translate(-227.137 -188.364)" fill="#fff"/>
          <path id="Path_4193" data-name="Path 4193" d="M242.98,194.257a.074.074,0,1,0,.074.074.074.074,0,0,0-.074-.074" transform="translate(-231.096 -184.57)" fill="#fff"/>
          <path id="Path_4194" data-name="Path 4194" d="M234.662,194.249a.074.074,0,1,0,.074.074.074.074,0,0,0-.074-.074" transform="translate(-223.193 -184.562)" fill="#fff"/>
          <path id="Path_4195" data-name="Path 4195" d="M222.173,202.472a.074.074,0,1,0,.074.074.074.074,0,0,0-.074-.074" transform="translate(-211.327 -192.375)" fill="#fff"/>
          <path id="Path_4196" data-name="Path 4196" d="M214.06,202.482a.074.074,0,1,0,.074.074.074.074,0,0,0-.074-.074" transform="translate(-203.618 -192.385)" fill="#fff"/>
          <path id="Path_4197" data-name="Path 4197" d="M218.015,198.3a.074.074,0,1,0,.074.074.074.074,0,0,0-.074-.074" transform="translate(-207.376 -188.412)" fill="#fff"/>
          <path id="Path_4198" data-name="Path 4198" d="M222.182,194.309a.074.074,0,1,0,.074.074.074.074,0,0,0-.074-.074" transform="translate(-211.335 -184.619)" fill="#fff"/>
          <path id="Path_4199" data-name="Path 4199" d="M234.662,220.034a.074.074,0,1,0,.074.074.074.074,0,0,0-.074-.074" transform="translate(-223.193 -209.061)" fill="#fff"/>
          <path id="Path_4200" data-name="Path 4200" d="M214.034,194.3a.074.074,0,1,0,.074.074.074.074,0,0,0-.074-.074" transform="translate(-203.596 -184.611)" fill="#ff0"/>
          <path id="Path_4201" data-name="Path 4201" d="M234.662,168.234a.074.074,0,1,0,.074.074.074.074,0,0,0-.074-.074" transform="translate(-223.193 -159.844)" fill="#fff"/>
          <path id="Path_4202" data-name="Path 4202" d="M242.8,168.234a.074.074,0,1,0,.074.074.074.074,0,0,0-.074-.074" transform="translate(-230.926 -159.844)" fill="#fff"/>
          <path id="Path_4203" data-name="Path 4203" d="M238.634,172.235a.074.074,0,1,0,.074.074.074.074,0,0,0-.074-.074" transform="translate(-226.967 -163.646)" fill="#fff"/>
          <path id="Path_4204" data-name="Path 4204" d="M242.793,176.4a.074.074,0,1,0,.074.074.074.074,0,0,0-.074-.074" transform="translate(-230.919 -167.605)" fill="#fff"/>
          <path id="Path_4205" data-name="Path 4205" d="M234.662,176.415a.074.074,0,1,0,.074.074.074.074,0,0,0-.074-.074" transform="translate(-223.193 -167.617)" fill="#fff"/>
          <path id="Path_4206" data-name="Path 4206" d="M214.044,194.3a.074.074,0,1,0,.074.074.074.074,0,0,0-.074-.074" transform="translate(-203.603 -184.612)" fill="#fff"/>
        </g>
      </g>
    </g>
  </g>
</svg>
