<svg width="30" height="26" viewBox="0 0 30 26" fill="none" xmlns="http://www.w3.org/2000/svg">
<path d="M15.7247 9.3844C16.0441 9.3844 16.3563 9.47911 16.6219 9.65655C16.8874 9.83399 17.0944 10.0862 17.2166 10.3813C17.3389 10.6763 17.3708 11.001 17.3085 11.3143C17.2462 11.6275 17.0924 11.9153 16.8666 12.1411C16.6407 12.367 16.353 12.5207 16.0397 12.5831C15.7265 12.6454 15.4018 12.6134 15.1067 12.4912C14.8117 12.3689 14.5595 12.162 14.382 11.8964C14.2046 11.6308 14.1099 11.3186 14.1099 10.9992C14.1099 10.571 14.28 10.1602 14.5828 9.85738C14.8857 9.55453 15.2964 9.3844 15.7247 9.3844Z" fill="#FFDB6F"/>
<path d="M15.7804 17.4095L18.7904 20.4194H3.42944V18.6687L10.2345 11.8647L15.7804 17.4095Z" fill="#F27258"/>
<path d="M15.7804 17.4094L10.2345 11.8647L3.42944 18.6686V7.00842H23.0519V19.3131L18.4013 14.7481L15.8296 17.3602L15.7804 17.4094ZM17.339 10.9992C17.339 10.6798 17.2443 10.3676 17.0668 10.102C16.8894 9.83645 16.6371 9.62947 16.342 9.50727C16.0469 9.38506 15.7222 9.35311 15.4089 9.41547C15.0956 9.47783 14.8079 9.63168 14.5821 9.85758C14.3563 10.0835 14.2025 10.3713 14.1403 10.6846C14.078 10.9978 14.1101 11.3226 14.2324 11.6176C14.3547 11.9127 14.5618 12.1649 14.8274 12.3422C15.0931 12.5196 15.4053 12.6142 15.7248 12.6141C16.1529 12.6139 16.5635 12.4437 16.8662 12.1409C17.169 11.8381 17.339 11.4274 17.339 10.9992Z" fill="#31CCC9"/>
<path d="M23.052 19.3119V20.4193H18.7905L15.7805 17.4094L15.8291 17.3602L18.4014 14.748L23.052 19.3119Z" fill="#F27258"/>
<path d="M29.3027 1.43552V21.8695H25.8123V4.92888C25.8121 4.74763 25.74 4.57386 25.6118 4.44575C25.4836 4.31764 25.3098 4.24568 25.1285 4.24568H4.16016V1.43318C4.16093 1.25331 4.23284 1.08106 4.36019 0.954044C4.48754 0.827025 4.65998 0.755557 4.83984 0.755249H28.6219C28.8023 0.755249 28.9754 0.826902 29.1031 0.954461C29.2308 1.08202 29.3026 1.25505 29.3027 1.43552Z" fill="#E4F5F4"/>
<path d="M25.8123 21.8696V24.6762C25.8123 24.766 25.7946 24.8549 25.7602 24.9378C25.7258 25.0207 25.6754 25.0961 25.6119 25.1595C25.5484 25.2229 25.4731 25.2733 25.3901 25.3076C25.3071 25.3419 25.2182 25.3595 25.1285 25.3594H1.35288C1.26314 25.3595 1.17427 25.3419 1.09134 25.3075C1.00842 25.2732 0.933069 25.2229 0.869612 25.1595C0.806156 25.096 0.755834 25.0207 0.721528 24.9377C0.687221 24.8548 0.669602 24.7659 0.669679 24.6762V4.9301C0.669525 4.84028 0.687083 4.75132 0.721348 4.66829C0.755613 4.58527 0.805913 4.50981 0.869369 4.44625C0.932826 4.38268 1.00819 4.33225 1.09116 4.29785C1.17413 4.26344 1.26306 4.24573 1.35288 4.24573H25.1285C25.3097 4.24573 25.4836 4.31769 25.6118 4.4458C25.74 4.57391 25.8121 4.74768 25.8123 4.92893V21.8696ZM23.0519 20.4194V7.00549H3.42944V20.4194H23.0519Z" fill="#E4F5F4"/>
<path d="M28.6365 0H4.85391C4.49243 0.000465118 4.1459 0.144266 3.8903 0.399867C3.6347 0.655468 3.49089 1.002 3.49043 1.36348V3.49043H1.36699C1.00464 3.49074 0.657209 3.63478 0.400932 3.89095C0.144655 4.14712 0.000465416 4.49448 0 4.85684L0 24.6029C0.000465121 24.9653 0.144636 25.3128 0.400896 25.569C0.657156 25.8253 1.00459 25.9695 1.36699 25.9699H25.1426C25.505 25.9695 25.8524 25.8253 26.1087 25.569C26.3649 25.3128 26.5091 24.9653 26.5096 24.6029V4.85684C26.5091 4.49448 26.3649 4.14712 26.1086 3.89095C25.8524 3.63478 25.5049 3.49074 25.1426 3.49043H4.85625V1.36699L28.6354 1.36348V21.7969C28.6467 21.9701 28.7235 22.1325 28.8502 22.2512C28.977 22.3699 29.1441 22.4359 29.3177 22.4359C29.4913 22.4359 29.6584 22.3699 29.7851 22.2512C29.9118 22.1325 29.9886 21.9701 30 21.7969V1.36348C29.9995 1.002 29.8557 0.655468 29.6001 0.399867C29.3445 0.144266 28.998 0.000465118 28.6365 0ZM25.1426 4.85684V24.6029H1.36699V4.85684H25.1426Z" fill="#201F2E"/>
<path d="M2.75977 6.93333V20.3478C2.75992 20.529 2.83203 20.7028 2.96025 20.8309C3.08847 20.959 3.2623 21.031 3.44355 21.031H23.066C23.2472 21.031 23.421 20.959 23.5491 20.8309C23.6772 20.7028 23.7492 20.529 23.7492 20.3478V6.93333C23.7492 6.75213 23.6772 6.57835 23.5491 6.45023C23.421 6.3221 23.2472 6.25012 23.066 6.25012H3.44355C3.2623 6.25012 3.08847 6.32208 2.96025 6.45019C2.83203 6.5783 2.75992 6.75207 2.75977 6.93333ZM22.3828 19.6646H19.0875L16.7408 17.3179L18.4154 15.6445L22.2797 19.5081C22.3113 19.5395 22.3458 19.5677 22.3828 19.5925V19.6663V19.6646ZM4.12676 7.61711H22.3828V17.6765L18.8988 14.1931C18.7706 14.0651 18.5969 13.9932 18.4157 13.9932C18.2346 13.9932 18.0608 14.0651 17.9326 14.1931L15.774 16.3511L10.735 11.3091C10.6715 11.2456 10.5962 11.1952 10.5132 11.1608C10.4303 11.1264 10.3414 11.1087 10.2516 11.1087C10.1618 11.1087 10.0729 11.1264 9.98992 11.1608C9.90697 11.1952 9.83162 11.2456 9.76817 11.3091L4.12676 16.947V7.61711ZM4.12676 18.88L10.2486 12.7587L17.1545 19.6646H4.12676V18.88Z" fill="#201F2E"/>
<path d="M15.7384 13.2252C16.1929 13.2254 16.6373 13.0907 17.0153 12.8382C17.3933 12.5857 17.688 12.2268 17.862 11.8069C18.036 11.387 18.0815 10.9248 17.9929 10.479C17.9042 10.0332 17.6854 9.62366 17.3639 9.30223C17.0425 8.98081 16.633 8.76193 16.1871 8.67328C15.7413 8.58463 15.2792 8.63019 14.8593 8.80419C14.4393 8.9782 14.0804 9.27284 13.828 9.65084C13.5755 10.0288 13.4408 10.4732 13.4409 10.9278C13.4417 11.5369 13.684 12.1208 14.1147 12.5515C14.5454 12.9822 15.1293 13.2245 15.7384 13.2252ZM15.7384 9.99614C15.9227 9.99603 16.1029 10.0506 16.2562 10.1529C16.4095 10.2552 16.529 10.4007 16.5996 10.571C16.6702 10.7412 16.6887 10.9286 16.6527 11.1094C16.6168 11.2902 16.5281 11.4562 16.3977 11.5866C16.2674 11.7169 16.1013 11.8056 15.9206 11.8416C15.7398 11.8775 15.5524 11.859 15.3822 11.7884C15.2119 11.7178 15.0664 11.5983 14.9641 11.445C14.8618 11.2917 14.8072 11.1115 14.8073 10.9272C14.8076 10.6804 14.9058 10.4437 15.0804 10.2692C15.2549 10.0946 15.4915 9.99645 15.7384 9.99614Z" fill="#201F2E"/>
</svg>
