<svg id="Layer_1" data-name="Layer 1" xmlns="http://www.w3.org/2000/svg" viewBox="0 0 115.27 77.04"><defs><style>.cls-1{fill:#ededed;}.cls-2{fill:#d2d2d1;}.cls-3{fill:#ababab;}.cls-4{fill:#c9c9c9;stroke:#000;stroke-miterlimit:10;stroke-width:3px;}</style></defs><title>rgb to hex</title><circle class="cls-1" cx="25.84" cy="20.25" r="17.25"/><path d="M25.84,40.5A20.25,20.25,0,1,1,46.09,20.25,20.27,20.27,0,0,1,25.84,40.5Zm0-34.5A14.25,14.25,0,1,0,40.09,20.25,14.27,14.27,0,0,0,25.84,6Z"/><circle class="cls-2" cx="60.34" cy="20.25" r="17.25"/><path d="M60.34,40.5A20.25,20.25,0,1,1,80.59,20.25,20.27,20.27,0,0,1,60.34,40.5Zm0-34.5A14.25,14.25,0,1,0,74.59,20.25,14.27,14.27,0,0,0,60.34,6Z"/><circle class="cls-3" cx="94.84" cy="20.25" r="17.25"/><path d="M94.84,40.5a20.25,20.25,0,1,1,20.25-20.25A20.27,20.27,0,0,1,94.84,40.5Zm0-34.5a14.25,14.25,0,1,0,14.25,14.25A14.27,14.27,0,0,0,94.84,6Z"/><path class="cls-4" d="M15.84,46.81,14.33,53H18.8l1.55-6.15H25.8L24.29,53h2.95v4.75H23.1l-1.93,7.46h3.24V70H20.07L18.71,75.5H13.22L14.57,70h-4.5L8.71,75.5H3.26L4.61,70H1.5v-4.8H5.84l1.89-7.5H4.33V53H8.84l1.51-6.15ZM12.89,57.34l-2.05,8.12H16l2-8.12Z"/><path class="cls-4" d="M52,75.54V63.94H37.94v11.6H32.53V46.85h5.41V58.94H52V46.85h5.37V75.54Z"/><path class="cls-4" d="M83.88,75.5H62.41V46.81H83.88v5.25H67.78v6.6H83.31v5H67.78v6.47h16.1Z"/><path class="cls-4" d="M107.54,46.81h5.94v.25L103.76,61l10,14.35v.16H107.7l-7.34-10.78L93,75.5H87v-.16L96.92,61,87.25,47.06v-.25h5.94l7.17,10.7Z"/></svg>