<svg xmlns="http://www.w3.org/2000/svg" xmlns:xlink="http://www.w3.org/1999/xlink" width="94.972" height="100.972" viewBox="0 0 94.972 100.972">
  <defs>
    <clipPath id="clip-path">
      <rect id="Rectangle_21" data-name="Rectangle 21" width="52.914" height="53.064"/>
    </clipPath>
  </defs>
  <g id="SEO_Backlink_Tools" data-name="SEO Backlink Tools" transform="translate(-4484 -1862)">
    <ellipse id="Ellipse_1" data-name="Ellipse 1" cx="47" cy="48.121" rx="47" ry="48.121" transform="translate(4484 1862)" fill="#f2f2f2"/>
    <g id="Group_1179" data-name="Group 1179" transform="translate(4498.972 1882.972)">
      <path id="Path_504" data-name="Path 504" d="M80,0H0V80H80Z" fill="#231f20"/>
      <g id="Group_1175" data-name="Group 1175" transform="translate(3.268 3.102)">
        <rect id="Rectangle_19" data-name="Rectangle 19" width="73.116" height="64.059" transform="translate(0 9.571)" fill="#fff"/>
        <rect id="Rectangle_20" data-name="Rectangle 20" width="52.798" height="6.701" fill="#fff"/>
      </g>
      <circle id="Ellipse_11" data-name="Ellipse 11" cx="2.107" cy="2.107" r="2.107" transform="translate(57.738 4.263)" fill="#fcd462"/>
      <circle id="Ellipse_12" data-name="Ellipse 12" cx="2.107" cy="2.107" r="2.107" transform="translate(63.96 4.263)" fill="#44c4a1"/>
      <circle id="Ellipse_13" data-name="Ellipse 13" cx="2.107" cy="2.107" r="2.107" transform="translate(70.529 4.263)" fill="#e56353"/>
      <g id="Group_1178" data-name="Group 1178" transform="translate(14.069 18.344)">
        <g id="Group_1177" data-name="Group 1177">
          <g id="Group_1176" data-name="Group 1176" clip-path="url(#clip-path)">
            <path id="Path_505" data-name="Path 505" d="M138.712,123.9a13.085,13.085,0,0,1,0,18.479l-10.981,10.981a13.025,13.025,0,0,1-2.7,2.073,13.025,13.025,0,0,1-2.073,2.7l-10.981,10.981a13.06,13.06,0,1,1-18.479-18.462l10.981-10.981a13.025,13.025,0,0,1,2.7-2.073,13.026,13.026,0,0,1,2.073-2.7l10.981-10.981a12.944,12.944,0,0,1,9.239-3.815h0a12.86,12.86,0,0,1,9.239,3.8Zm-1.41,17.085a11.072,11.072,0,0,0-7.829-18.91h0a10.975,10.975,0,0,0-7.829,3.235l-10.881,10.865a13.213,13.213,0,0,1,6.436.133l7.73-7.73a6.416,6.416,0,0,1,4.545-1.891h0a6.319,6.319,0,0,1,4.545,1.891,6.416,6.416,0,0,1,1.891,4.545,6.319,6.319,0,0,1-1.891,4.545l-10.981,10.981a6.476,6.476,0,0,1-3.815,1.841,5.642,5.642,0,0,1-.746.05,6.456,6.456,0,0,1-6.4-5.806,4.579,4.579,0,0,0-1.526,1l-2.389,2.389a11.1,11.1,0,0,0,6.851,6.486,11.067,11.067,0,0,0,8.791-.813,10.59,10.59,0,0,0,2.5-1.891Zm-3.384-7.846a4.47,4.47,0,0,0-1.294-3.152,4.4,4.4,0,0,0-3.152-1.294h0a4.4,4.4,0,0,0-3.135,1.294l-7.083,7.083a13.182,13.182,0,0,1,3.7,2.588,12.629,12.629,0,0,1,2.588,3.7l7.066-7.066a4.416,4.416,0,0,0,1.31-3.152ZM121.627,147.27l2.389-2.389a10.864,10.864,0,0,0-2.488-3.8,11.006,11.006,0,0,0-4.379-2.687,11.13,11.13,0,0,0-8.791.813,10.588,10.588,0,0,0-2.5,1.891L94.871,152.08a11.084,11.084,0,1,0,15.675,15.675l10.865-10.865a13.539,13.539,0,0,1-2.953.332,13.072,13.072,0,0,1-3.483-.481l-7.73,7.73a6.241,6.241,0,0,1-2.09,1.393,6.5,6.5,0,0,1-2.472.481,6.371,6.371,0,0,1-4.545-1.874,6.457,6.457,0,0,1,0-9.107l10.981-10.981a6.435,6.435,0,0,1,10.948,3.915,4.646,4.646,0,0,0,1.559-1.028Zm-3.5,1.277a4.482,4.482,0,0,0-1.277-2.787,4.4,4.4,0,0,0-2.787-1.277,4.4,4.4,0,0,0,4.064,4.064Zm-12.258,14.481,7.066-7.066a13.183,13.183,0,0,1-3.7-2.588,12.63,12.63,0,0,1-2.588-3.7l-7.066,7.066a4.465,4.465,0,0,0,0,6.287,4.4,4.4,0,0,0,1.443.962,4.543,4.543,0,0,0,1.709.332,4.39,4.39,0,0,0,3.135-1.294Zm0,0" transform="translate(-89.663 -120.049)"/>
          </g>
        </g>
        <path id="Path_506" data-name="Path 506" d="M230.328,135.554a11.113,11.113,0,0,1,0,15.675l-10.981,10.981a11.562,11.562,0,0,1-2.5,1.891,11.206,11.206,0,0,1-8.791.813,10.834,10.834,0,0,1-4.363-2.687,11.1,11.1,0,0,1-2.488-3.8l2.389-2.389a4.337,4.337,0,0,1,1.526-1,6.456,6.456,0,0,0,6.4,5.806,5.642,5.642,0,0,0,.746-.05,6.384,6.384,0,0,0,3.815-1.841l10.981-10.981a6.416,6.416,0,0,0,1.891-4.545,6.319,6.319,0,0,0-1.891-4.545A6.416,6.416,0,0,0,222.515,137h0a6.319,6.319,0,0,0-4.545,1.891l-7.73,7.73a13.213,13.213,0,0,0-6.436-.133l10.865-10.865a11,11,0,0,1,7.829-3.235h0a10.674,10.674,0,0,1,7.829,3.168Zm0,0" transform="translate(-182.688 -130.296)" fill="#44c4a1"/>
        <path id="Path_507" data-name="Path 507" d="M134.083,233.8l-2.389,2.389a4.337,4.337,0,0,1-1.526,1,6.432,6.432,0,0,0-10.948-3.915L108.24,244.252a6.428,6.428,0,0,0,4.545,10.981,6.559,6.559,0,0,0,2.472-.481,6.685,6.685,0,0,0,2.09-1.393l7.73-7.73a13.144,13.144,0,0,0,3.483.464,13.655,13.655,0,0,0,2.953-.332l-10.865,10.865a11.084,11.084,0,0,1-15.675-15.675l10.981-10.981a11.562,11.562,0,0,1,2.5-1.891,11.2,11.2,0,0,1,8.791-.813,11.006,11.006,0,0,1,4.379,2.687,12.266,12.266,0,0,1,2.455,3.848Zm0,0" transform="translate(-99.714 -208.987)" fill="#fcd462"/>
      </g>
    </g>
  </g>
</svg>
