<svg xmlns="http://www.w3.org/2000/svg" width="99.06" height="100.111" viewBox="0 0 99.06 100.111">
  <g id="Keyword_Research_Tools" data-name="Keyword Research Tools" transform="translate(-4484 -1602)">
    <ellipse id="Ellipse_1" data-name="Ellipse 1" cx="47" cy="48.121" rx="47" ry="48.121" transform="translate(4484 1602)" fill="#f2f2f2"/>
    <g id="Group_1169" data-name="Group 1169" transform="translate(4499.16 1618.111)">
      <circle id="Ellipse_7" data-name="Ellipse 7" cx="28.411" cy="28.411" r="28.411" transform="translate(1.538 1.622)" fill="#c9f3ff"/>
      <path id="Path_490" data-name="Path 490" d="M338.176,331.1l19.366,19.366a5.078,5.078,0,0,1-.033,7.144h0a5.078,5.078,0,0,1-7.144.033L331,338.293Z" transform="translate(-276.729 -276.74)" fill="#ff5d5d"/>
      <rect id="Rectangle_11" data-name="Rectangle 11" width="10.158" height="7.16" transform="translate(54.236 61.53) rotate(-45)" fill="#fff"/>
      <path id="Path_491" data-name="Path 491" d="M298.23,292.6l7.34,7.34-5.03,5.03-7.34-7.34Z" transform="translate(-245.163 -244.584)" fill="#c9f3ff"/>
      <rect id="Rectangle_12" data-name="Rectangle 12" width="10.453" height="21.644" transform="translate(3.177 60.423)" fill="#ff5d5d"/>
      <path id="Path_492" data-name="Path 492" d="M350.532,439.5H342.7v9.945h10.453v-7.717Z" transform="translate(-286.541 -367.379)" fill="#a0e557"/>
      <rect id="Rectangle_13" data-name="Rectangle 13" width="10.453" height="11.42" transform="translate(20.841 70.647)" fill="#ffc66c"/>
      <rect id="Rectangle_14" data-name="Rectangle 14" width="10.453" height="18.285" transform="translate(38.5 63.782)" fill="#72d8ff"/>
      <path id="Path_493" data-name="Path 493" d="M346.7,174.938v.115a1.629,1.629,0,0,0,1.622,1.638h0a1.64,1.64,0,0,0,1.638-1.622v-.131a1.63,1.63,0,1,0-3.26,0Z" transform="translate(-289.893 -144.866)"/>
      <path id="Path_494" data-name="Path 494" d="M81.958,72.565,62.563,53.173a1.632,1.632,0,0,0-2.166-.131L54.654,47.3a29.835,29.835,0,0,0,4.43-9.6,1.638,1.638,0,0,0-3.167-.837,26.771,26.771,0,1,1-.033-13.781,1.632,1.632,0,0,0,3.15-.853A30.063,30.063,0,1,0,47.32,54.666l5.726,5.726a1.639,1.639,0,0,0,.016,2.28l7.794,7.793H56.147a1.646,1.646,0,0,0-1.641,1.641V80.44H50.585V63.755a1.646,1.646,0,0,0-1.641-1.641H38.476a1.646,1.646,0,0,0-1.641,1.641V80.423H32.913V70.613a1.646,1.646,0,0,0-1.641-1.641H20.8a1.646,1.646,0,0,0-1.641,1.641v9.811H15.275V60.391a1.646,1.646,0,0,0-1.641-1.641H3.182a1.646,1.646,0,0,0-1.641,1.641V80.44a1.641,1.641,0,1,0,0,3.281H70.193a1.637,1.637,0,0,0,1.378-2.527l.87.87A6.6,6.6,0,0,0,77.134,84h.033a6.735,6.735,0,0,0,4.791-11.435ZM64.122,59.358,59.249,64.23l-2.707-2.707,4.873-4.873ZM52.636,49.891l5.448,5.447-2.724,2.74-5.448-5.447A33.02,33.02,0,0,0,52.636,49.891ZM4.822,80.423V62.016h7.187V80.423Zm17.655,0v-8.17h7.187v8.17Zm17.655,0V65.379H47.32V80.423Zm17.655,0V73.73h6.35l.853.853V80.44l-7.2-.016Zm12.421,0H68.24V77.848l2.839,2.838A1.554,1.554,0,0,0,70.209,80.423Zm9.4-.705a3.4,3.4,0,0,1-2.428,1.017h-.016a3.363,3.363,0,0,1-2.4-.984L61.562,66.544l4.873-4.873L79.644,74.878A3.421,3.421,0,0,1,79.611,79.718Z" transform="translate(0)"/>
      <path id="Path_495" data-name="Path 495" d="M107.424,126.46H76.13A2.126,2.126,0,0,1,74,124.33h0a2.126,2.126,0,0,1,2.13-2.13h31.294a2.126,2.126,0,0,1,2.13,2.13h0A2.126,2.126,0,0,1,107.424,126.46Z" transform="translate(-61.959 -102.15)"/>
      <path id="Path_496" data-name="Path 496" d="M107.424,174.56H76.13A2.126,2.126,0,0,1,74,172.43h0a2.126,2.126,0,0,1,2.13-2.13h31.294a2.126,2.126,0,0,1,2.13,2.13h0A2.126,2.126,0,0,1,107.424,174.56Z" transform="translate(-61.959 -142.358)"/>
      <path id="Path_497" data-name="Path 497" d="M111.624,223.46H80.33a2.126,2.126,0,0,1-2.13-2.13h0a2.126,2.126,0,0,1,2.13-2.13h31.294a2.126,2.126,0,0,1,2.13,2.13h0A2.126,2.126,0,0,1,111.624,223.46Z" transform="translate(-65.439 -183.235)"/>
    </g>
  </g>
</svg>
