<svg xmlns="http://www.w3.org/2000/svg" width="94" height="100" viewBox="0 0 94 100">
  <g id="Text_Analysis_Tools" data-name="Text Analysis Tools" transform="translate(-528 -1300)">
    <ellipse id="Ellipse_1" data-name="Ellipse 1" cx="47" cy="48.121" rx="47" ry="48.121" transform="translate(528 1300)" fill="#f2f2f2"/>
    <g id="Group_1132" data-name="Group 1132" transform="translate(541.5 1321.005)">
      <path id="Path_454" data-name="Path 454" d="M143.126,21.164V8h-39.45a5.257,5.257,0,0,0-5.26,5.265V23.8a23.68,23.68,0,0,1,28.847,34.587l12.328,12.357a5.263,5.263,0,0,1-7.43,7.437L119.818,65.838A23.722,23.722,0,0,1,98.4,67.779v11.3a5.257,5.257,0,0,0,5.26,5.265h49.969a5.257,5.257,0,0,0,5.26-5.265V23.8h-13.15a2.636,2.636,0,0,1-2.614-2.633Zm10.52,55.287a2.639,2.639,0,0,1-2.63,2.633,2.639,2.639,0,0,0,2.63-2.633Zm0,0" transform="translate(-82.46 -6.669)" fill="#a5dbf9"/>
      <path id="Path_455" data-name="Path 455" d="M370.5,21.15a2.638,2.638,0,0,0,2.63,2.63h13.15L370.5,8Zm0,0" transform="translate(-309.834 -6.669)" fill="#fff"/>
      <path id="Path_456" data-name="Path 456" d="M44.461,137.4a23.675,23.675,0,1,0-12.591,3.622A23.205,23.205,0,0,0,44.461,137.4Zm-21.418-3.886a18.434,18.434,0,1,1,25.018-7.426,18.172,18.172,0,0,1-7.446,7.459,18.475,18.475,0,0,1-17.571-.033Zm0,0" transform="translate(-6.852 -78.198)" fill="#fff"/>
      <path id="Path_457" data-name="Path 457" d="M71.476,157.032a17.939,17.939,0,0,0,3.172-4.274,18.44,18.44,0,1,0-7.463,7.446,18.028,18.028,0,0,0,4.29-3.172Zm0,0" transform="translate(-33.44 -104.886)" fill="#ffa56f"/>
      <path id="Path_458" data-name="Path 458" d="M228.8,321.746l12.344,12.328a5.26,5.26,0,0,0,7.43-7.43L236.246,314.3a23.679,23.679,0,0,1-7.446,7.446Zm0,0" transform="translate(-191.346 -262.541)" fill="#ff5d5d"/>
      <path id="Path_459" data-name="Path 459" d="M77.745,16.946a1.286,1.286,0,0,0-.066-.346c-.016-.049-.033-.082-.049-.132a1.043,1.043,0,0,0-.262-.378L61.635.295a1.271,1.271,0,0,0-.393-.263C61.209.015,61.16,0,61.127-.018a1.272,1.272,0,0,0-.344-.066A.707.707,0,0,0,60.7-.1H21.37a6.567,6.567,0,0,0-6.555,6.582v9.691a25.018,25.018,0,0,0,.016,45.693V72.314A6.567,6.567,0,0,0,21.386,78.9H71.206a6.567,6.567,0,0,0,6.555-6.582V17.029c0-.033-.016-.049-.016-.082Zm-4.458-1.234H63.339A1.318,1.318,0,0,1,62.028,14.4V4.408ZM2.655,39.028A22.314,22.314,0,0,1,24.942,16.65a19.724,19.724,0,0,1,2.212.115,22.262,22.262,0,0,1,19.8,18.922,22.806,22.806,0,0,1,.279,3.357,22.3,22.3,0,0,1-33.071,19.6,22.471,22.471,0,0,1-11.5-19.613ZM40.167,58.805a6.611,6.611,0,0,0,.524-.428c.639-.527,1.262-1.086,1.852-1.662.59-.592,1.131-1.218,1.655-1.859.147-.181.279-.362.426-.543.164-.214.328-.411.475-.625L56.276,64.926a3.96,3.96,0,0,1,1.164,2.781,3.864,3.864,0,0,1-1.164,2.781,4,4,0,0,1-5.556,0L39.528,59.266c.229-.132.426-.313.639-.461ZM71.206,76.263H21.386a3.932,3.932,0,0,1-3.933-3.949V62.886a1.361,1.361,0,0,0,.246.066c.213.066.426.115.639.181.492.132.983.263,1.491.362l.737.148c.492.082,1,.165,1.508.214.229.033.442.066.672.082.721.066,1.459.1,2.2.1A24.746,24.746,0,0,0,37.3,60.73L48.885,72.363a6.566,6.566,0,1,0,9.259-9.3L46.558,51.417a24.909,24.909,0,0,0,3.294-12.406c0-.839-.033-1.662-.115-2.485A24.955,24.955,0,0,0,24.942,14c-.737,0-1.475.049-2.2.1-.229.016-.459.049-.672.082-.508.049-1,.132-1.508.214l-.737.148c-.492.1-.983.23-1.475.362-.213.066-.442.115-.656.181a1.361,1.361,0,0,1-.246.066V6.5a3.932,3.932,0,0,1,3.933-3.949h38.02V14.4a3.932,3.932,0,0,0,3.933,3.949h11.8V72.314a3.942,3.942,0,0,1-3.933,3.949Zm0,0" transform="translate(0 0.1)"/>
      <path id="Path_460" data-name="Path 460" d="M170.06,49.315A1.319,1.319,0,0,0,168.745,48h-28.93a1.315,1.315,0,1,0,0,2.63h28.93a1.319,1.319,0,0,0,1.315-1.315Zm0,0" transform="translate(-115.849 -40.094)"/>
      <path id="Path_461" data-name="Path 461" d="M331.595,192h-15.78a1.315,1.315,0,1,0,0,2.63h15.78a1.315,1.315,0,1,0,0-2.63Zm0,0" transform="translate(-263.039 -160.391)"/>
      <path id="Path_462" data-name="Path 462" d="M331.595,240h-15.78a1.315,1.315,0,1,0,0,2.63h15.78a1.315,1.315,0,1,0,0-2.63Zm0,0" transform="translate(-263.039 -200.493)"/>
      <path id="Path_463" data-name="Path 463" d="M326.225,289.315A1.319,1.319,0,0,0,324.91,288H307.815a1.315,1.315,0,1,0,0,2.63H324.91a1.319,1.319,0,0,0,1.315-1.315Zm0,0" transform="translate(-256.354 -240.595)"/>
      <path id="Path_464" data-name="Path 464" d="M352.965,337.315A1.319,1.319,0,0,0,351.65,336H339.815a1.315,1.315,0,0,0,0,2.63H351.65a1.319,1.319,0,0,0,1.315-1.315Zm0,0" transform="translate(-283.094 -280.696)"/>
      <path id="Path_465" data-name="Path 465" d="M263.65,97.315A1.319,1.319,0,0,0,262.335,96h-10.52a1.315,1.315,0,1,0,0,2.63h10.52a1.319,1.319,0,0,0,1.315-1.315Zm0,0" transform="translate(-209.473 -80.187)"/>
      <path id="Path_466" data-name="Path 466" d="M312.855,145.315A1.319,1.319,0,0,0,311.54,144H291.815a1.315,1.315,0,1,0,0,2.63H311.54a1.319,1.319,0,0,0,1.315-1.315Zm0,0" transform="translate(-242.984 -120.289)"/>
      <path id="Path_467" data-name="Path 467" d="M115.815,186.63h9.2a1.315,1.315,0,1,0,0-2.63h-9.2a1.315,1.315,0,1,0,0,2.63Zm0,0" transform="translate(-95.746 -153.707)" fill="#231f20"/>
      <path id="Path_468" data-name="Path 468" d="M104.855,233.315A1.319,1.319,0,0,0,103.54,232H83.815a1.315,1.315,0,0,0,0,2.63H103.54a1.319,1.319,0,0,0,1.315-1.315Zm0,0" transform="translate(-68.996 -193.809)" fill="#231f20"/>
      <path id="Path_469" data-name="Path 469" d="M125.02,280h-9.2a1.315,1.315,0,1,0,0,2.63h9.2a1.315,1.315,0,1,0,0-2.63Zm0,0" transform="translate(-95.746 -233.911)" fill="#231f20"/>
      <path id="Path_470" data-name="Path 470" d="M61.11,154.818a19.351,19.351,0,0,0,7.676-7.461c.1-.181.214-.362.312-.544a2.334,2.334,0,0,0,.131-.3c.2-.379.395-.774.559-1.169.181-.4.312-.774.444-1.153.033-.115.1-.214.131-.329a19.706,19.706,0,1,0-9.254,10.953Zm-17.555-2.355a16.854,16.854,0,0,1-3.9-2.915,18.229,18.229,0,0,1-2.153-2.619,15.678,15.678,0,0,1-.855-1.433,17.1,17.1,0,1,1,30.113.082v.016a17.046,17.046,0,0,1-23.209,6.868Zm0,0" transform="translate(-26.74 -98.314)"/>
      <path id="Path_471" data-name="Path 471" d="M387.7,384a1.319,1.319,0,0,0-1.315,1.315v5.26a1.319,1.319,0,0,1-1.315,1.315h-5.26a1.315,1.315,0,0,0,0,2.63h5.26a3.936,3.936,0,0,0,3.945-3.945v-5.26A1.319,1.319,0,0,0,387.7,384Zm0,0" transform="translate(-316.519 -320.784)"/>
    </g>
  </g>
</svg>
