<svg id="vietnam" xmlns="http://www.w3.org/2000/svg" width="18" height="18" viewBox="0 0 18 18">
  <circle id="Ellipse_717" data-name="Ellipse 717" cx="9" cy="9" r="9" transform="translate(0.001 0.001)" fill="#fff"/>
  <path id="Path_10240" data-name="Path 10240" d="M265.79,6.936l0-.008A9.006,9.006,0,0,0,258.113.974c1.377.755,1.78,3.148,2.132,5.962a24.887,24.887,0,0,1,0,5.966c-.349,2.83-.753,5.239-2.137,6a9.006,9.006,0,0,0,7.681-5.972l.009-.026a9.006,9.006,0,0,0-.012-5.966Z" transform="translate(-248.304 -0.937)" fill="#ed3432"/>
  <path id="Path_10241" data-name="Path 10241" d="M12.4,6C12.052,3.185,11.186.792,9.808.037,9.542.013,9.273,0,9,0A9,9,0,0,0,.517,5.992L.514,6A9.007,9.007,0,0,0,.5,11.965l.009.026A9,9,0,0,0,9,18c.273,0,.542-.013.808-.037,1.383-.758,2.251-3.168,2.6-6A24.883,24.883,0,0,0,12.4,6Z" fill="#ed3432"/>
  <path id="Path_10242" data-name="Path 10242" d="M120.059,115.454l1.069,3.291h3.46l-2.8,2.033,1.069,3.291-2.8-2.034-2.8,2.034,1.069-3.291-2.8-2.033h3.46Z" transform="translate(-111.14 -111.067)" fill="#fdce0c"/>
</svg>
