<svg xmlns="http://www.w3.org/2000/svg" width="18" height="18" viewBox="0 0 18 18">
  <g id="turkish" transform="translate(-3722 -3515)">
    <circle id="Ellipse_8" data-name="Ellipse 8" cx="9" cy="9" r="9" transform="translate(3722 3515)" fill="#d80027"/>
    <g id="Group_3733" data-name="Group 3733" transform="translate(-0.289 -0.125)">
      <path id="Path_115" data-name="Path 115" d="M88.592,181.742a3.7,3.7,0,1,1,2.064-6.77,4.625,4.625,0,1,0,0,6.141A3.682,3.682,0,0,1,88.592,181.742Z" transform="translate(3642.708 3345.708)" fill="#fff"/>
      <path id="Path_116" data-name="Path 116" d="M237.11,229.836l-.858-.008-.421-.922a.131.131,0,0,0-.249,0l-.308.922-.972.008a.131.131,0,0,0-.077.236l.782.578-.293.927a.131.131,0,0,0,.2.146l.791-.565.791.565a.131.131,0,0,0,.2-.146l-.293-.927.782-.578A.131.131,0,0,0,237.11,229.836Z" transform="translate(3499.606 3293.411)" fill="#f2f2f6"/>
    </g>
  </g>
</svg>
