<svg width="40" height="40" viewBox="0 0 40 40" fill="none" xmlns="http://www.w3.org/2000/svg">
<rect width="40" height="40" rx="5" fill="black"/>
<path d="M9.38874 30.59C10.2378 29.6152 11.0046 28.7333 11.7744 27.8533C13.5972 25.7684 15.4152 23.6787 17.2545 21.6073C17.5011 21.3298 17.4789 21.1712 17.2681 20.8975C14.5797 17.4017 11.903 13.8962 9.22435 10.3937C9.14892 10.2941 9.07736 10.1925 9 10.0862C9.17213 9.95947 9.33556 10.0127 9.48641 10.0127C11.5317 10.0078 13.5779 10.0204 15.6232 10.0001C16.0042 9.99622 16.2362 10.1181 16.4606 10.4188C17.9024 12.3538 19.3733 14.2685 20.8083 16.2084C21.0762 16.5701 21.1961 16.5091 21.4524 16.2123C23.1466 14.2502 24.8611 12.3064 26.5592 10.3473C26.7652 10.1094 26.9683 9.99429 27.2932 10.002C28.2738 10.0252 29.2543 10.0107 30.233 10.0107C30.2755 10.1993 30.1314 10.2593 30.055 10.3463C27.7255 13.0153 25.3978 15.6862 23.0518 18.3416C22.7936 18.6347 22.7685 18.8029 23.0151 19.1278C25.8156 22.8006 28.5958 26.4879 31.3818 30.1713C31.4659 30.2825 31.5481 30.3946 31.6371 30.5146C31.465 30.6412 31.3015 30.588 31.1507 30.588C29.1538 30.5929 27.1559 30.5803 25.159 30.6006C24.7925 30.6045 24.5768 30.4826 24.3631 30.2003C22.6534 27.9423 20.9302 25.6959 19.2108 23.4466C19.0348 23.4988 18.9546 23.6467 18.8511 23.7647C16.9518 25.9328 15.0516 28.0999 13.163 30.2767C12.9658 30.5049 12.7704 30.6035 12.4658 30.5977C11.4843 30.5784 10.5028 30.5909 9.38971 30.5909L9.38874 30.59Z" fill="#FEFEFE"/>
<path d="M27.5562 28.4799C27.446 28.4992 27.4296 28.505 27.4141 28.5041C26.8348 28.5041 26.1763 28.6733 25.6986 28.4509C25.2431 28.2391 24.9714 27.625 24.63 27.1783C20.8277 22.2116 17.0273 17.2421 13.2269 12.2726C13.1717 12.201 13.1215 12.1256 13.0209 11.9854C13.6959 11.9854 14.2993 11.9941 14.9027 11.9815C15.129 11.9767 15.2006 12.1401 15.3031 12.2755C18.824 16.9317 22.344 21.5898 25.8649 26.247C26.4151 26.9742 26.9664 27.7005 27.5562 28.4799Z" fill="black"/>
</svg>
