<svg xmlns="http://www.w3.org/2000/svg" width="96.84" height="104.164" viewBox="0 0 96.84 104.164">
  <g id="unit_converter" data-name="unit converter" transform="translate(-102.292 -1368.204)">
    <ellipse id="Ellipse_1" data-name="Ellipse 1" cx="48.42" cy="49.575" rx="48.42" ry="49.575" transform="translate(102.292 1368.204)" fill="#f2f2f2"/>
    <g id="Group_1277" data-name="Group 1277" transform="translate(-426.07 498.717)">
      <path id="Path_630" data-name="Path 630" d="M612.157,926.544l-29.57,2.1c-2.072,0-2.7-3.781-2.7-5.854V896.373c0-2.072,1.23-4.353,3.3-4.353l28.97.6a3.753,3.753,0,0,1,3.752,3.753v26.417A3.753,3.753,0,0,1,612.157,926.544Z" transform="translate(-0.615 -0.024)" fill="#ff9855"/>
      <path id="Path_631" data-name="Path 631" d="M575.853,964.983l-28.669-.3a3.382,3.382,0,0,1-3.6-3.453V934.812c0-2.072,1.229-4.353,3.3-4.353l28.97.6a3.753,3.753,0,0,1,3.752,3.753V961.23A3.753,3.753,0,0,1,575.853,964.983Z" transform="translate(-0.035 -0.638)" fill="#28d194"/>
      <g id="Group_1269" data-name="Group 1269" transform="translate(541.445 890.495)">
        <path id="Path_632" data-name="Path 632" d="M609.693,966.145H548.851a7.413,7.413,0,0,1-7.4-7.4V897.9a7.413,7.413,0,0,1,7.4-7.4h60.842a7.413,7.413,0,0,1,7.4,7.4v60.841A7.413,7.413,0,0,1,609.693,966.145ZM548.851,893.5a4.407,4.407,0,0,0-4.4,4.4v60.841a4.408,4.408,0,0,0,4.4,4.4h60.842a4.408,4.408,0,0,0,4.4-4.4V897.9a4.408,4.408,0,0,0-4.4-4.4Z" transform="translate(-541.446 -890.495)"/>
      </g>
      <g id="Group_1270" data-name="Group 1270" transform="translate(541.362 890.486)">
        <path id="Path_633" data-name="Path 633" d="M615.319,929.545H542.971v-29.4s-1.5-8.427,8.1-8.127,28.069.151,28.069.151v37.775l-35.874.2,12.308-.5" transform="translate(-541.386 -890.511)" fill="#fffbaa"/>
        <path id="Path_634" data-name="Path 634" d="M543.254,931.622l-.014-.6h-1.8V900.236a9.2,9.2,0,0,1,1.831-6.958c1.69-1.955,4.323-2.892,7.822-2.783,9.467.3,27.826.151,28.01.15l1.513-.012V928.02h34.673v3H580.621v.392Zm1.193-3.6h33.172V893.657c-4.619.029-18.692.087-26.614-.16-2.555-.075-4.388.507-5.458,1.745a6.31,6.31,0,0,0-1.123,4.619l.024.263Z" transform="translate(-541.362 -890.486)"/>
      </g>
      <g id="Group_1271" data-name="Group 1271" transform="translate(571.766 920.215)">
        <circle id="Ellipse_30" data-name="Ellipse 30" cx="25.217" cy="25.217" r="25.217" transform="translate(1.501 1.501)" fill="#2e63ff"/>
        <path id="Path_635" data-name="Path 635" d="M598.976,974.133a26.718,26.718,0,1,1,26.719-26.717A26.747,26.747,0,0,1,598.976,974.133Zm0-50.434a23.716,23.716,0,1,0,23.716,23.716A23.743,23.743,0,0,0,598.976,923.7Z" transform="translate(-572.259 -920.697)"/>
      </g>
      <g id="Group_1272" data-name="Group 1272" transform="translate(595.571 943.923)">
        <path id="Path_636" data-name="Path 636" d="M614.659,953.051l-7.106-7.107a.837.837,0,0,0-1.425.589v3.762H598.2a.847.847,0,0,0-.835.835v5.018a.849.849,0,0,0,.835.835h7.926v3.762a.832.832,0,0,0,1.425.588l7.106-7.107a.821.821,0,0,0,0-1.176Zm0,0" transform="translate(-596.466 -944.805)" fill="#fff"/>
        <path id="Path_637" data-name="Path 637" d="M606.951,962.467a1.749,1.749,0,0,1-1.737-1.737V957.87h-7.026a1.751,1.751,0,0,1-1.737-1.737v-5.017a1.751,1.751,0,0,1,1.737-1.738h7.026v-2.861a1.7,1.7,0,0,1,.514-1.226,1.742,1.742,0,0,1,2.448,0l7.1,7.1a1.72,1.72,0,0,1,0,2.452l-7.1,7.1A1.7,1.7,0,0,1,606.951,962.467Zm-8.7-6.4h8.762V960.6l6.945-6.977L607,946.668l.011,4.512h-8.762Z" transform="translate(-596.451 -944.79)" fill="#020202"/>
      </g>
      <g id="Group_1273" data-name="Group 1273" transform="translate(582.378 932.532)">
        <path id="Path_638" data-name="Path 638" d="M584.206,941.475a.821.821,0,0,0,0,1.176l7.107,7.107a.836.836,0,0,0,1.424-.588v-3.762h7.926a.848.848,0,0,0,.836-.836v-5.017a.847.847,0,0,0-.836-.836h-7.926v-3.762a.832.832,0,0,0-1.424-.588l-7.107,7.107Zm0,0" transform="translate(-583.058 -933.229)" fill="#fff"/>
        <path id="Path_639" data-name="Path 639" d="M591.887,950.892a1.7,1.7,0,0,1-1.225-.513l-7.107-7.107a1.721,1.721,0,0,1,0-2.45l7.106-7.106a1.745,1.745,0,0,1,2.447,0,1.7,1.7,0,0,1,.515,1.228V937.8h7.025a1.747,1.747,0,0,1,1.737,1.737v5.017a1.749,1.749,0,0,1-1.737,1.737h-7.025v2.862a1.75,1.75,0,0,1-1.737,1.737Zm-7.009-8.844L591.832,949l-.011-4.511h8.763V939.6h-8.763v-4.533Z" transform="translate(-583.043 -933.215)" fill="#020202"/>
      </g>
      <g id="Group_1274" data-name="Group 1274" transform="translate(549.246 898.139)">
        <path id="Path_640" data-name="Path 640" d="M573.652,904.128l-5.98-5.643a.823.823,0,0,0-1.158.035L549.6,916.467a.817.817,0,0,0,.029,1.158l5.98,5.638a.825.825,0,0,0,1.165-.035l16.914-17.94A.813.813,0,0,0,573.652,904.128ZM556.144,921.5l-4.784-4.51,1.687-1.795,2.99,2.816,1.129-1.195L554.175,914l1.694-1.795,1.795,1.693,1.129-1.2L557,911.014l1.693-1.795,2.99,2.816,1.123-1.2-2.99-2.815,1.694-1.795,1.795,1.687,1.129-1.195-1.795-1.688,1.694-1.795,2.989,2.816,1.129-1.2-3-2.821,1.693-1.789,4.785,4.509Z" transform="translate(-549.374 -898.263)"/>
        <path id="Path_641" data-name="Path 641" d="M571.961,904.791l-15.785,16.745-4.785-4.509,1.687-1.8,2.99,2.816,1.129-1.195-2.99-2.816,1.693-1.8,1.8,1.693,1.129-1.2-1.8-1.687,1.693-1.8,2.99,2.816,1.123-1.195-2.99-2.816,1.693-1.8,1.8,1.687,1.129-1.195-1.8-1.687,1.693-1.8,2.99,2.816,1.129-1.195-3-2.822,1.693-1.789Z" transform="translate(-549.406 -898.296)" fill="#fff"/>
      </g>
      <line id="Line_5" data-name="Line 5" x1="35.124" transform="translate(543.446 929.521)" fill="#fffbaa" stroke="#000" stroke-miterlimit="10" stroke-width="5"/>
      <g id="Group_1276" data-name="Group 1276" transform="translate(590.556 896.961)">
        <g id="Group_1275" data-name="Group 1275" transform="translate(0)">
          <path id="Path_642" data-name="Path 642" d="M600.526,909.274a4.784,4.784,0,0,0-1.553-.647q-.929-.227-2.028-.593a16.384,16.384,0,0,1-2.028-.821,3.983,3.983,0,0,1-1.554-1.37,3.826,3.826,0,0,1-.626-2.211,4.016,4.016,0,0,1,1.165-2.8,5.632,5.632,0,0,1,3.128-1.64v-1.51h3.215v1.51a6.823,6.823,0,0,1,4.251,2.632l-2.245,2.158a4.987,4.987,0,0,0-3.8-1.813q-2.266,0-2.266,1.424a1.057,1.057,0,0,0,.626.906,5.37,5.37,0,0,0,1.553.572,20.175,20.175,0,0,1,2.028.572,16.39,16.39,0,0,1,2.028.82,3.953,3.953,0,0,1,1.554,1.382,3.837,3.837,0,0,1,.626,2.2,4.217,4.217,0,0,1-1.219,3.02,5.7,5.7,0,0,1-3.139,1.64v1.683h-3.215v-1.726a7.471,7.471,0,0,1-3.161-1.273,6.411,6.411,0,0,1-1.974-2.244l2.438-2.028a5.651,5.651,0,0,0,1.921,1.9,4.907,4.907,0,0,0,2.546.69,3.151,3.151,0,0,0,1.769-.4,1.181,1.181,0,0,0,.583-1A1.218,1.218,0,0,0,600.526,909.274Z" transform="translate(-591.363 -897.076)" fill="#fff"/>
          <path id="Path_643" data-name="Path 643" d="M600.237,916.973h-3.215l-.6-.6v-1.234a7.874,7.874,0,0,1-2.914-1.28,7.033,7.033,0,0,1-2.154-2.453l.15-.737,2.437-2.028.893.144a5.074,5.074,0,0,0,1.717,1.7,4.282,4.282,0,0,0,2.24.606,2.555,2.555,0,0,0,1.43-.294.585.585,0,0,0,.322-.508c0-.133-.041-.312-.36-.526h0a4.208,4.208,0,0,0-1.36-.562c-.634-.155-1.332-.359-2.075-.607a17.344,17.344,0,0,1-2.1-.85,4.6,4.6,0,0,1-1.785-1.572,4.434,4.434,0,0,1-.73-2.55,4.611,4.611,0,0,1,1.327-3.214,6.056,6.056,0,0,1,2.967-1.708v-1.032l.6-.6h3.215l.6.6V898.7a7.363,7.363,0,0,1,4.13,2.748l-.063.794L602.66,904.4l-.861-.031a4.378,4.378,0,0,0-3.352-1.615c-1.666,0-1.666.6-1.666.824,0,.048,0,.2.33.389a4.785,4.785,0,0,0,1.379.5,21.093,21.093,0,0,1,2.088.588,17.323,17.323,0,0,1,2.1.85,4.577,4.577,0,0,1,1.787,1.584,4.449,4.449,0,0,1,.728,2.537,4.814,4.814,0,0,1-1.385,3.435,6.186,6.186,0,0,1-2.973,1.705v1.2Zm-2.615-1.2h2.014V914.69l.488-.59a5.066,5.066,0,0,0,2.818-1.465,3.609,3.609,0,0,0,1.052-2.6,3.231,3.231,0,0,0-.523-1.865,3.344,3.344,0,0,0-1.32-1.177,16.044,16.044,0,0,0-1.955-.791,19.791,19.791,0,0,0-1.967-.554A5.979,5.979,0,0,1,596.5,905a1.62,1.62,0,0,1-.922-1.424c0-.756.372-2.024,2.867-2.024a5.433,5.433,0,0,1,3.808,1.569l1.418-1.363a6.186,6.186,0,0,0-3.554-1.994l-.482-.589v-.909h-2.014v.909l-.483.589a5.068,5.068,0,0,0-2.805,1.46,3.4,3.4,0,0,0-1,2.4,3.216,3.216,0,0,0,.521,1.874,3.368,3.368,0,0,0,1.32,1.168,15.909,15.909,0,0,0,1.955.79c.713.238,1.379.433,1.98.58a5.41,5.41,0,0,1,1.747.733,1.792,1.792,0,0,1,.89,1.522,1.767,1.767,0,0,1-.843,1.5,3.682,3.682,0,0,1-2.109.5,5.518,5.518,0,0,1-2.852-.773,6.169,6.169,0,0,1-1.733-1.537l-1.547,1.287a6.039,6.039,0,0,0,1.555,1.621,6.922,6.922,0,0,0,2.911,1.166l.5.592Z" transform="translate(-591.354 -897.066)"/>
        </g>
      </g>
      <g id="Temperature_Conversion" data-name="Temperature Conversion" transform="translate(547.448 934.723)">
        <path id="Path_644" data-name="Path 644" d="M559.432,951.163l7.474-9.867a2.286,2.286,0,0,0,.351-2.477c-.756-1.254-3.341-1.742-3.9-1.007L555.091,948.3a4.768,4.768,0,0,0-5.3,2.226c-3.268,4.749.107,6.8,1.859,8.9a6.009,6.009,0,0,0,7.781-8.26Zm0,0" transform="translate(-547.561 -935.473)" fill="#fff"/>
        <path id="Path_645" data-name="Path 645" d="M553.658,953.785a3.219,3.219,0,0,1,3.3-1.191,3.218,3.218,0,1,0-4.761,4.122,3.2,3.2,0,0,0,1.207.568,3.217,3.217,0,0,1,.252-3.5Zm0,0" transform="translate(-547.6 -935.688)" fill="#fff"/>
        <path id="Path_646" data-name="Path 646" d="M556.449,955.572a3.219,3.219,0,0,0,.251-3.5c-1.2-.281-3.7-2.187-4.989.09-1.953,3.446.524,3.938,1.121,5.018a4.044,4.044,0,0,0,3.617-1.607Zm1.51,1.473" transform="translate(-547.601 -935.69)" fill="#28d194"/>
        <path id="Path_647" data-name="Path 647" d="M556.4,951.15a3.755,3.755,0,1,0,.726,5.26,3.759,3.759,0,0,0-.726-5.26Zm-3.886,5.131a2.682,2.682,0,1,1,3.757-.518,2.684,2.684,0,0,1-3.757.518Zm0,0" transform="translate(-547.592 -935.68)"/>
        <path id="Path_648" data-name="Path 648" d="M560.044,951.211l7.276-9.605a3.111,3.111,0,1,0-4.96-3.757l-7.276,9.605a6.544,6.544,0,1,0,4.96,3.757Zm-9.26,7.072a5.471,5.471,0,0,1,4.42-9.717.537.537,0,0,0,.536-.2l7.475-9.867a2.038,2.038,0,1,1,3.249,2.461l-7.475,9.867a.538.538,0,0,0-.048.572,5.472,5.472,0,0,1-8.158,6.886Zm0,0" transform="translate(-547.547 -935.46)"/>
        <path id="Path_649" data-name="Path 649" d="M564.953,939.979a.536.536,0,0,0,.855-.5.536.536,0,0,0-.6-.458.536.536,0,0,0-.251.958Zm0,0" transform="translate(-547.821 -935.498)"/>
        <path id="Path_650" data-name="Path 650" d="M557.359,949.876a.536.536,0,0,0,.751-.1l6.07-8.013a.536.536,0,1,0-.855-.647l-6.07,8.013a.538.538,0,0,0,.1.752Zm0,0" transform="translate(-547.7 -935.528)"/>
        <path id="Path_651" data-name="Path 651" d="M568.818,942.7l.77.583a.536.536,0,0,0,.647-.855l-.77-.583a.536.536,0,1,0-.647.855Zm0,0" transform="translate(-547.883 -935.541)"/>
        <path id="Path_652" data-name="Path 652" d="M566.713,945.48l.77.583a.536.536,0,1,0,.648-.855l-.77-.583a.536.536,0,1,0-.648.855Zm0,0" transform="translate(-547.849 -935.586)"/>
        <path id="Path_653" data-name="Path 653" d="M564.608,948.259l.77.583a.536.536,0,1,0,.647-.855l-.77-.583a.536.536,0,0,0-.647.855Zm0,0" transform="translate(-547.816 -935.63)"/>
        <path id="Path_654" data-name="Path 654" d="M562.5,951.038l.77.583a.537.537,0,0,0,.648-.855l-.771-.582a.536.536,0,0,0-.648.855Zm0,0" transform="translate(-547.782 -935.674)"/>
        <path id="Path_655" data-name="Path 655" d="M560.5,936.4l.769.584a.536.536,0,1,0,.648-.855l-.77-.583a.536.536,0,0,0-.647.855Zm0,0" transform="translate(-547.75 -935.441)"/>
        <path id="Path_656" data-name="Path 656" d="M558.4,939.183l.77.583a.537.537,0,0,0,.648-.855l-.77-.583a.537.537,0,1,0-.648.855Zm0,0" transform="translate(-547.717 -935.485)"/>
        <path id="Path_657" data-name="Path 657" d="M556.294,941.962l.77.583a.536.536,0,0,0,.647-.855l-.77-.583a.536.536,0,1,0-.648.855Zm0,0" transform="translate(-547.683 -935.53)"/>
        <path id="Path_658" data-name="Path 658" d="M554.19,944.741l.769.583a.536.536,0,0,0,.648-.855l-.769-.583a.536.536,0,1,0-.648.855Zm0,0" transform="translate(-547.649 -935.574)"/>
      </g>
    </g>
  </g>
</svg>
