<svg xmlns="http://www.w3.org/2000/svg" width="101.261" height="99.86" viewBox="0 0 101.261 99.86">
  <g id="Website_Management_Tools" data-name="Website Management Tools" transform="translate(-948 -1300)">
    <ellipse id="Ellipse_1" data-name="Ellipse 1" cx="47" cy="48.121" rx="47" ry="48.121" transform="translate(948 1300)" fill="#f2f2f2"/>
    <g id="Group_1165" data-name="Group 1165" transform="translate(963.261 1314.175)">
      <circle id="Ellipse_2" data-name="Ellipse 2" cx="20.131" cy="20.131" r="20.131" transform="translate(45.737 -0.16)" fill="#fbbd5e"/>
      <path id="Path_472" data-name="Path 472" d="M76.709,152.124v-39.89a5.355,5.355,0,0,0-5.333-5.333H13.233A5.355,5.355,0,0,0,7.9,112.233v39.89Z" transform="translate(-6.562 -88.839)" fill="#4fbf9f"/>
      <path id="Path_473" data-name="Path 473" d="M70.147,146.882H1.338A1.271,1.271,0,0,1,0,145.544V105.671A6.6,6.6,0,0,1,6.671,99H64.813a6.6,6.6,0,0,1,6.671,6.671v39.89A1.325,1.325,0,0,1,70.147,146.882ZM2.675,144.224H68.826V105.671a3.919,3.919,0,0,0-4-4H6.671a3.919,3.919,0,0,0-4,4v38.553Z" transform="translate(0 -82.279)" fill="#231f20"/>
      <g id="Group_1162" data-name="Group 1162" transform="translate(1.338 23.665)">
        <rect id="Rectangle_4" data-name="Rectangle 4" width="58.142" height="34.54" transform="translate(5.333)" fill="#fff"/>
        <path id="Path_474" data-name="Path 474" d="M7.9,374v5.875a5.355,5.355,0,0,0,5.333,5.333H71.376a5.355,5.355,0,0,0,5.333-5.333V374Z" transform="translate(-7.9 -334.11)" fill="#fff"/>
      </g>
      <g id="Group_1163" data-name="Group 1163" transform="translate(0 62.337)">
        <path id="Path_475" data-name="Path 475" d="M64.813,380.684H6.671A6.6,6.6,0,0,1,0,374.013v-5.875A1.271,1.271,0,0,1,1.338,366.8H70.147a1.271,1.271,0,0,1,1.338,1.338v5.875A6.773,6.773,0,0,1,64.813,380.684ZM2.675,369.34v4.538a3.919,3.919,0,0,0,4,4H64.813a3.919,3.919,0,0,0,4-4V369.34Z" transform="translate(0 -366.8)" fill="#231f20"/>
        <path id="Path_476" data-name="Path 476" d="M167.795,445.8H148.866a1.632,1.632,0,0,1-1.067-.542,1.283,1.283,0,0,1-.135-1.2l3.86-9.465a1.263,1.263,0,0,1,1.2-.8h11.209a1.17,1.17,0,0,1,1.2.8l3.86,9.329a1.441,1.441,0,0,1,.271.8A1.461,1.461,0,0,1,167.795,445.8Zm-17.067-2.658H165.8L163,436.34h-9.465Z" transform="translate(-122.588 -422.456)" fill="#231f20"/>
      </g>
      <line id="Line_1" data-name="Line 1" x1="23.196" transform="translate(24.396 84.348)" fill="none"/>
      <path id="Path_477" data-name="Path 477" d="M159.234,491.575h-23.2a1.338,1.338,0,1,1,0-2.675h23.213a1.338,1.338,0,1,1-.017,2.675Z" transform="translate(-111.645 -405.89)" fill="#231f20"/>
      <rect id="Rectangle_5" data-name="Rectangle 5" width="9.211" height="9.211" transform="translate(12.529 38.763)" fill="#fff"/>
      <path id="Path_478" data-name="Path 478" d="M76.784,233.686H67.438a1.271,1.271,0,0,1-1.338-1.338v-9.211a1.271,1.271,0,0,1,1.338-1.338h9.211a1.271,1.271,0,0,1,1.338,1.338v9.211A1.228,1.228,0,0,1,76.784,233.686Zm-8.009-2.658h6.536v-6.536H68.775Z" transform="translate(-54.908 -184.255)" fill="#231f20"/>
      <rect id="Rectangle_6" data-name="Rectangle 6" width="9.211" height="9.211" transform="translate(31.334 38.763)" fill="#fff"/>
      <path id="Path_479" data-name="Path 479" d="M186.948,233.686h-9.211a1.271,1.271,0,0,1-1.338-1.338v-9.211a1.271,1.271,0,0,1,1.338-1.338h9.211a1.271,1.271,0,0,1,1.338,1.338v9.211A1.452,1.452,0,0,1,186.948,233.686Zm-8.009-2.658h6.536v-6.536H178.94Z" transform="translate(-146.269 -184.255)" fill="#231f20"/>
      <rect id="Rectangle_7" data-name="Rectangle 7" width="9.211" height="9.211" transform="translate(50.032 38.763)" fill="#fff"/>
      <path id="Path_480" data-name="Path 480" d="M296.448,233.686h-9.211a1.271,1.271,0,0,1-1.338-1.338v-9.211a1.271,1.271,0,0,1,1.338-1.338h9.211a1.271,1.271,0,0,1,1.338,1.338v9.211A1.452,1.452,0,0,1,296.448,233.686Zm-8.009-2.658h6.536v-6.536H288.44Z" transform="translate(-237.066 -184.255)" fill="#231f20"/>
      <line id="Line_2" data-name="Line 2" x1="9.346" transform="translate(12.529 53.5)" fill="none"/>
      <path id="Path_481" data-name="Path 481" d="M76.784,310.475H67.438a1.338,1.338,0,1,1,0-2.675h9.211a1.271,1.271,0,0,1,1.338,1.338A1.243,1.243,0,0,1,76.784,310.475Z" transform="translate(-54.908 -255.636)" fill="#231f20"/>
      <line id="Line_3" data-name="Line 3" x1="9.346" transform="translate(31.334 53.5)" fill="none"/>
      <path id="Path_482" data-name="Path 482" d="M186.948,310.475h-9.211a1.338,1.338,0,1,1,0-2.675h9.211a1.271,1.271,0,0,1,1.338,1.338A1.361,1.361,0,0,1,186.948,310.475Z" transform="translate(-146.269 -255.636)" fill="#231f20"/>
      <line id="Line_4" data-name="Line 4" x1="9.346" transform="translate(50.032 53.5)" fill="none"/>
      <g id="Group_1164" data-name="Group 1164" transform="translate(26.882 52.236)">
        <path id="Path_483" data-name="Path 483" d="M296.448,310.475h-9.211a1.338,1.338,0,1,1,0-2.675h9.211a1.271,1.271,0,0,1,1.338,1.338A1.361,1.361,0,0,1,296.448,310.475Z" transform="translate(-264.042 -307.8)" fill="#231f20"/>
        <rect id="Rectangle_8" data-name="Rectangle 8" width="2.675" height="2.675" transform="translate(0 15.475)" fill="#231f20"/>
        <rect id="Rectangle_9" data-name="Rectangle 9" width="2.675" height="2.675" transform="translate(7.856 15.475)" fill="#231f20"/>
        <rect id="Rectangle_10" data-name="Rectangle 10" width="2.675" height="2.675" transform="translate(15.729 15.475)" fill="#231f20"/>
      </g>
      <path id="Path_484" data-name="Path 484" d="M104.378,31.7l2-4.4-3.065-1.727a10.1,10.1,0,0,0,.135-3.471l3.2-1.608-1.608-4.538-3.471.8a11.049,11.049,0,0,0-2.4-2.54l1.067-3.335-4.4-2L94.1,11.835A10.1,10.1,0,0,0,90.63,11.7L89.021,8.5l-4.538,1.608.8,3.471a11.048,11.048,0,0,0-2.54,2.4l-3.471-1.067-2,4.4,3.065,1.862a10.1,10.1,0,0,0-.135,3.471L77,26.261,78.608,30.8l3.471-.8a11.049,11.049,0,0,0,2.4,2.54l-1.05,3.3,4.4,2L89.7,34.778a10.1,10.1,0,0,0,3.471.135l1.608,3.2L99.316,36.5l-.8-3.471a11.048,11.048,0,0,0,2.54-2.4Z" transform="translate(-63.811 -7.322)" fill="#fff"/>
      <path id="Path_485" data-name="Path 485" d="M87.788,32.111a1.417,1.417,0,0,1-1.2-.66l-1.2-2.4a9.916,9.916,0,0,1-2-.135L81.913,31.18a1.464,1.464,0,0,1-1.727.542l-4.4-2a1.182,1.182,0,0,1-.66-1.608l.8-2.54A6.933,6.933,0,0,1,74.581,24.1l-2.675.66a1.547,1.547,0,0,1-1.608-.8L68.689,19.43a1.188,1.188,0,0,1,.66-1.608l2.4-1.2a9.916,9.916,0,0,1,.135-2L69.62,13.013a1.464,1.464,0,0,1-.542-1.727l2-4.4a1.182,1.182,0,0,1,1.608-.66l2.54.8A6.933,6.933,0,0,1,76.7,5.681l-.66-2.675a1.547,1.547,0,0,1,.8-1.608L81.371-.211a1.188,1.188,0,0,1,1.608.66l1.338,2.4a9.916,9.916,0,0,1,2,.135L87.788.771A1.464,1.464,0,0,1,89.515.229l4.4,2a1.182,1.182,0,0,1,.66,1.608l-.931,2.54a6.933,6.933,0,0,1,1.338,1.473l2.675-.66a1.547,1.547,0,0,1,1.608.8l1.608,4.538a1.188,1.188,0,0,1-.66,1.608l-2.438,1.185a9.917,9.917,0,0,1-.135,2l2.269,1.473a1.464,1.464,0,0,1,.542,1.727l-2,4.4a1.182,1.182,0,0,1-1.608.66l-2.54-.8a6.933,6.933,0,0,1-1.473,1.338l.66,2.675a1.547,1.547,0,0,1-.8,1.608L88.16,32.01A.524.524,0,0,1,87.788,32.111Zm-1.744-5.858a1.417,1.417,0,0,1,1.2.66l1.067,2.133,2.269-.8-.542-2.269a1.582,1.582,0,0,1,.542-1.473,11.686,11.686,0,0,0,2.269-2.133,1.283,1.283,0,0,1,1.473-.406l2.269.66L97.659,20.5l-2-1.2A1.338,1.338,0,0,1,95,17.957a11.64,11.64,0,0,0,.135-3.065,1.667,1.667,0,0,1,.66-1.338l2.133-1.067-.813-2.252-2.269.542a1.582,1.582,0,0,1-1.473-.542,11.685,11.685,0,0,0-2.133-2.269,1.283,1.283,0,0,1-.406-1.473l.66-2.269L89.362,3.159l-1.2,2a1.338,1.338,0,0,1-1.338.66,11.641,11.641,0,0,0-3.065-.135,1.667,1.667,0,0,1-1.338-.66L81.354,2.888l-2.37.813.542,2.269a1.582,1.582,0,0,1-.542,1.473,11.686,11.686,0,0,0-2.269,2.133,1.283,1.283,0,0,1-1.473.406l-2.269-.66-1.067,2.133,2,1.2a1.338,1.338,0,0,1,.66,1.338,11.64,11.64,0,0,0-.135,3.065,1.667,1.667,0,0,1-.66,1.338l-2.133,1.067.8,2.269,2.269-.542a1.582,1.582,0,0,1,1.473.542A11.685,11.685,0,0,0,78.306,24a1.283,1.283,0,0,1,.406,1.473l-.66,2.269,2.133,1.067,1.2-2a1.338,1.338,0,0,1,1.338-.66,11.641,11.641,0,0,0,3.065.135Z" transform="translate(-56.973 0)" fill="#231f20"/>
      <circle id="Ellipse_3" data-name="Ellipse 3" cx="8.398" cy="8.398" r="8.398" transform="translate(19.655 7.578)" fill="#f06151"/>
      <circle id="Ellipse_4" data-name="Ellipse 4" cx="3.335" cy="3.335" r="3.335" transform="translate(24.736 12.721)" fill="#fff"/>
      <path id="Path_486" data-name="Path 486" d="M141.581,77.563a5.267,5.267,0,0,1-2-.406,4.8,4.8,0,0,1-2.269-6.282,4.743,4.743,0,0,1,4.267-2.675,5.267,5.267,0,0,1,2,.406,4.681,4.681,0,0,1,2.269,6.129A4.756,4.756,0,0,1,141.581,77.563Zm0-6.671a2.008,2.008,0,0,0-1.862,1.2,1.431,1.431,0,0,0,0,1.473c.271.406.542.931,1.067,1.067a2,2,0,0,0,1.744-3.606C142.123,71.028,141.852,70.892,141.581,70.892Z" transform="translate(-113.514 -56.914)" fill="#231f20"/>
      <path id="Path_487" data-name="Path 487" d="M322.836,44.475v-5.2l-3.86-.406A11.178,11.178,0,0,0,317.5,35.4l2.4-3.065L316.3,28.729l-3.065,2.4a16.583,16.583,0,0,0-3.471-1.473l-.406-3.86h-5.2l-.406,3.86a11.178,11.178,0,0,0-3.471,1.473l-3.065-2.4-3.589,3.606,2.4,3.065a16.581,16.581,0,0,0-1.473,3.471l-3.86.406v5.2l3.86.406a11.177,11.177,0,0,0,1.473,3.471l-2.4,3.048,3.606,3.606,3.065-2.4a16.581,16.581,0,0,0,3.471,1.473l.406,3.86h5.2l.406-3.86a11.178,11.178,0,0,0,3.471-1.473l3.065,2.4,3.606-3.606L317.5,48.336a16.583,16.583,0,0,0,1.473-3.471Z" transform="translate(-240.832 -21.693)" fill="#fff"/>
      <path id="Path_488" data-name="Path 488" d="M302.713,52.628h-5.2a1.438,1.438,0,0,1-1.338-1.2l-.406-2.929a16.649,16.649,0,0,1-2.133-.931l-2.269,1.862a1.224,1.224,0,0,1-1.727-.135l-3.606-3.606a1.235,1.235,0,0,1-.135-1.727l1.862-2.269a10.157,10.157,0,0,1-.931-2.133l-2.929-.406a1.423,1.423,0,0,1-1.2-1.338v-5.2a1.438,1.438,0,0,1,1.2-1.338l2.929-.406a16.643,16.643,0,0,1,.931-2.133L285.9,26.469a1.224,1.224,0,0,1,.135-1.727l3.606-3.606A1.236,1.236,0,0,1,291.369,21l2.269,1.862a10.159,10.159,0,0,1,2.133-.931L296.177,19a1.423,1.423,0,0,1,1.338-1.2h5.2A1.438,1.438,0,0,1,304.05,19l.406,2.929a16.645,16.645,0,0,1,2.133.931L308.859,21a1.224,1.224,0,0,1,1.727.135l3.606,3.606a1.236,1.236,0,0,1,.135,1.727l-1.862,2.4a10.154,10.154,0,0,1,.931,2.133l2.929.406a1.423,1.423,0,0,1,1.2,1.338v5.2a1.438,1.438,0,0,1-1.2,1.338l-2.929.271a16.63,16.63,0,0,1-.931,2.133l1.862,2.269a1.224,1.224,0,0,1-.135,1.727l-3.606,3.606a1.236,1.236,0,0,1-1.727.135l-2.4-1.862a10.158,10.158,0,0,1-2.133.931l-.406,2.929A1.185,1.185,0,0,1,302.713,52.628Zm-4-2.658h2.794l.271-2.675a1.424,1.424,0,0,1,1.067-1.2,8.815,8.815,0,0,0,3.065-1.338,1.19,1.19,0,0,1,1.473.135l2.133,1.608,2-2-1.609-2.133a1.207,1.207,0,0,1-.135-1.473,12.38,12.38,0,0,0,1.338-3.065,1.439,1.439,0,0,1,1.2-1.067l2.675-.271V33.7l-2.675-.271a1.424,1.424,0,0,1-1.2-1.067,8.817,8.817,0,0,0-1.338-3.065,1.19,1.19,0,0,1,.135-1.473l1.609-2-2-2-2.133,1.608a1.207,1.207,0,0,1-1.473.135,12.377,12.377,0,0,0-3.065-1.338,1.439,1.439,0,0,1-1.067-1.2l-.271-2.675h-2.794l-.271,2.675a1.424,1.424,0,0,1-1.067,1.2,8.816,8.816,0,0,0-3.065,1.338,1.19,1.19,0,0,1-1.473-.135l-2.133-1.608-2,2,1.609,2.133a1.207,1.207,0,0,1,.135,1.473,12.379,12.379,0,0,0-1.338,3.065,1.439,1.439,0,0,1-1.2,1.067l-2.675.271v2.794l2.675.271a1.267,1.267,0,0,1,1.2,1.067,8.816,8.816,0,0,0,1.338,3.065,1.19,1.19,0,0,1-.135,1.473l-1.609,2.133,2,2,2.133-1.608a1.207,1.207,0,0,1,1.473-.135,12.38,12.38,0,0,0,3.065,1.338,1.439,1.439,0,0,1,1.067,1.2Z" transform="translate(-234.186 -15.048)" fill="#231f20"/>
      <circle id="Ellipse_5" data-name="Ellipse 5" cx="8.94" cy="8.94" r="8.94" transform="translate(56.929 11.303)" fill="#e0e4e8"/>
      <circle id="Ellipse_6" data-name="Ellipse 6" cx="3.606" cy="3.606" r="3.606" transform="translate(62.125 16.743)" fill="#fff"/>
      <path id="Path_489" data-name="Path 489" d="M361.027,101.154a4.927,4.927,0,1,1,4.927-4.927A4.837,4.837,0,0,1,361.027,101.154Zm0-7.077a2.269,2.269,0,1,0,2.269,2.269A2.169,2.169,0,0,0,361.027,94.077Z" transform="translate(-295.289 -76.002)" fill="#231f20"/>
    </g>
  </g>
</svg>
