<svg xmlns="http://www.w3.org/2000/svg" width="94" height="99.823" viewBox="0 0 94 99.823">
  <g id="Website_Checker_Tools" data-name="Website Checker Tools" transform="translate(-4484 -2382)">
    <ellipse id="Ellipse_1" data-name="Ellipse 1" cx="47" cy="48.121" rx="47" ry="48.121" transform="translate(4484 2382)" fill="#f2f2f2"/>
    <g id="Group_1187" data-name="Group 1187" transform="translate(4499.051 2401.823)">
      <g id="Group_1186" data-name="Group 1186" transform="translate(0 7.454)">
        <path id="Path_537" data-name="Path 537" d="M78.645,185.7v49.366a2.8,2.8,0,0,1-2.79,2.829H12.79A2.8,2.8,0,0,1,10,235.066V185.7Zm0,0" transform="translate(-8.585 -166.764)" fill="#fff"/>
        <path id="Path_538" data-name="Path 538" d="M207.82,62.7h-61C144.7,62.7,143,63.959,143,65.529V80.1h68.644V65.529c0-1.556-1.7-2.829-3.824-2.829Zm0,0" transform="translate(-141.585 -61.286)" fill="#fd3c65"/>
        <path id="Path_539" data-name="Path 539" d="M181.414,258.7a1.414,1.414,0,1,0,1.415,1.414,1.419,1.419,0,0,0-1.415-1.414Zm0,0" transform="translate(-154.886 -229.51)"/>
        <path id="Path_540" data-name="Path 540" d="M181.414,358.7a1.415,1.415,0,1,0,1.415,1.415,1.419,1.419,0,0,0-1.415-1.415Zm0,0" transform="translate(-154.886 -315.34)"/>
        <path id="Path_541" data-name="Path 541" d="M181.414,461.7a1.415,1.415,0,1,0,1.415,1.414,1.419,1.419,0,0,0-1.415-1.414Zm0,0" transform="translate(-154.886 -403.745)"/>
        <path id="Path_542" data-name="Path 542" d="M67.286,52.7H4.188A4.232,4.232,0,0,0,0,56.951v64.044a4.232,4.232,0,0,0,4.188,4.251h63.1a4.232,4.232,0,0,0,4.188-4.251V56.951A4.232,4.232,0,0,0,67.286,52.7Zm-63.1,2.834h63.1a1.411,1.411,0,0,1,1.4,1.417V70.128H2.792V56.951a1.411,1.411,0,0,1,1.4-1.417Zm63.1,66.878H4.188a1.411,1.411,0,0,1-1.4-1.417V72.962h65.89v48.033a1.4,1.4,0,0,1-1.4,1.417Zm0,0" transform="translate(0 -52.7)"/>
        <path id="Path_543" data-name="Path 543" d="M68.962,239.189l-4.654,4.654-1.825-1.825a1.41,1.41,0,0,0-1.994,1.994l2.829,2.829a1.389,1.389,0,0,0,1,.41,1.449,1.449,0,0,0,1-.41l5.658-5.658a1.409,1.409,0,0,0,0-1.994,1.443,1.443,0,0,0-2.023,0Zm0,0" transform="translate(-51.577 -212.404)"/>
        <path id="Path_544" data-name="Path 544" d="M68.962,339.189l-4.654,4.654-1.825-1.825a1.41,1.41,0,0,0-1.994,1.994l2.829,2.829a1.389,1.389,0,0,0,1,.41,1.449,1.449,0,0,0,1-.41l5.658-5.658a1.409,1.409,0,0,0,0-1.994,1.443,1.443,0,0,0-2.023,0Zm0,0" transform="translate(-51.577 -298.232)"/>
        <path id="Path_545" data-name="Path 545" d="M251.4,258.7H221.415a1.414,1.414,0,1,0,0,2.829H251.4a1.414,1.414,0,1,0,0-2.829Zm0,0" transform="translate(-189.83 -229.51)"/>
        <path id="Path_546" data-name="Path 546" d="M251.4,358.7H221.415a1.415,1.415,0,0,0,0,2.829H251.4a1.415,1.415,0,0,0,0-2.829Zm0,0" transform="translate(-189.83 -315.34)"/>
        <path id="Path_547" data-name="Path 547" d="M251.4,461.7H221.415a1.415,1.415,0,1,0,0,2.829H251.4a1.415,1.415,0,1,0,0-2.829Zm0,0" transform="translate(-189.83 -403.745)"/>
        <path id="Path_548" data-name="Path 548" d="M78.141,442.189a1.409,1.409,0,0,0-1.994,0l-1.839,1.825-1.825-1.825a1.41,1.41,0,0,0-1.994,1.994l1.825,1.825-1.825,1.825a1.409,1.409,0,0,0,0,1.994,1.389,1.389,0,0,0,1,.41,1.449,1.449,0,0,0,1-.41L74.322,448l1.825,1.825a1.389,1.389,0,0,0,1,.41,1.449,1.449,0,0,0,1-.41,1.409,1.409,0,0,0,0-1.994l-1.825-1.825,1.825-1.825a1.422,1.422,0,0,0-.014-1.994Zm0,0" transform="translate(-60.163 -386.617)"/>
        <path id="Path_549" data-name="Path 549" d="M61.415,115.529h2.829a1.415,1.415,0,1,0,0-2.829H61.415a1.415,1.415,0,0,0,0,2.829Zm0,0" transform="translate(-51.513 -104.213)"/>
        <path id="Path_550" data-name="Path 550" d="M121.415,115.529h2.829a1.415,1.415,0,0,0,0-2.829h-2.829a1.415,1.415,0,0,0,0,2.829Zm0,0" transform="translate(-103.267 -104.213)"/>
        <path id="Path_551" data-name="Path 551" d="M181.414,115.529h2.829a1.415,1.415,0,0,0,0-2.829h-2.829a1.415,1.415,0,0,0,0,2.829Zm0,0" transform="translate(-154.901 -104.213)"/>
      </g>
      <circle id="Ellipse_15" data-name="Ellipse 15" cx="10.467" cy="10.467" r="10.467" transform="translate(53.651 1.414)" fill="#36d28f"/>
      <path id="Path_552" data-name="Path 552" d="M387.882,0a11.882,11.882,0,1,0,11.882,11.882A11.9,11.9,0,0,0,387.882,0Zm0,20.935a9.053,9.053,0,1,1,9.053-9.053A9.061,9.061,0,0,1,387.882,20.935Z" transform="translate(-323.764)"/>
      <path id="Path_553" data-name="Path 553" d="M439.048,58.289,435.4,61.924l-1.315-1.315a1.41,1.41,0,1,0-1.994,1.994l2.32,2.32a1.389,1.389,0,0,0,1,.41,1.449,1.449,0,0,0,1-.41l4.64-4.64a1.409,1.409,0,0,0,0-1.994A1.426,1.426,0,0,0,439.048,58.289Z" transform="translate(-371.563 -49.689)"/>
    </g>
  </g>
</svg>
