<svg xmlns="http://www.w3.org/2000/svg" width="40" height="40" viewBox="0 0 40 40">
  <path id="youtube" d="M34.61,40H5.39A5.4,5.4,0,0,1,0,34.61V5.39A5.4,5.4,0,0,1,5.39,0H34.61A5.4,5.4,0,0,1,40,5.39V34.61A5.4,5.4,0,0,1,34.61,40ZM11.927,18.538A3.779,3.779,0,0,0,8,22.14V30.4A3.779,3.779,0,0,0,11.927,34H28.074A3.779,3.779,0,0,0,32,30.4V22.14a3.779,3.779,0,0,0-3.927-3.6Zm7.717-9.806a2.022,2.022,0,0,0-1.261.378,1.934,1.934,0,0,0-.684,1,6.3,6.3,0,0,0-.189,1.731v2.037a8.055,8.055,0,0,0,.1,1.517,2.367,2.367,0,0,0,.35.861,1.462,1.462,0,0,0,.686.533,2.825,2.825,0,0,0,1.076.176,2.3,2.3,0,0,0,1.009-.206,1.716,1.716,0,0,0,.716-.64,2.453,2.453,0,0,0,.367-.934,10.476,10.476,0,0,0,.085-1.57V11.666a6.355,6.355,0,0,0-.093-1.259,2.478,2.478,0,0,0-.345-.8,1.818,1.818,0,0,0-.714-.631A2.374,2.374,0,0,0,19.643,8.733ZM11.609,6l2.207,5.066,0,5.9h1.755l0-5.9L17.648,6.01H15.729l-1.1,3.753L13.509,6Zm11.345,3.03v5.188c0,.632.012,1.09.033,1.325a2.152,2.152,0,0,0,.159.641,1.1,1.1,0,0,0,.4.492,1.18,1.18,0,0,0,.683.184,1.076,1.076,0,0,0,.639-.193,1.51,1.51,0,0,0,.467-.581l-.031.636h1.861V9.031H25.7v5.985a.611.611,0,0,1-1.22,0V9.031Zm4.587,22.348h0c-1.091,0-2.193-.827-2.193-2.674V26.4a5.044,5.044,0,0,1,.212-1.634,1.818,1.818,0,0,1,.7-.917,2.425,2.425,0,0,1,1.366-.394,1.7,1.7,0,0,1,1.85,1.29,16.934,16.934,0,0,1,.085,1.971v1.048H26.7v1.786a.673.673,0,0,0,.685.658h.245a.672.672,0,0,0,.684-.658V28.87c0-.061,0-.117,0-.164l1.252-.008a2.3,2.3,0,0,1-.442,1.959A2.058,2.058,0,0,1,27.542,31.379Zm-.07-6.512a.734.734,0,0,0-.743.722l-.008.892H28.3l.017-.892a.735.735,0,0,0-.745-.722ZM15.819,31.361a1.2,1.2,0,0,1-.7-.2,1.246,1.246,0,0,1-.415-1.037c0-.055-.008-.107-.013-.159-.015-.153-.013-.418-.009-.785,0-.2,0-.433,0-.686l0-4.6h1.66l.006,4.677c0,.241-.005.446-.009.61a2.287,2.287,0,0,0,.014.523c.111.325.291.394.422.394a.688.688,0,0,0,.563-.433,1.766,1.766,0,0,0,.013-.471c-.005-.172-.012-.385-.012-.655V23.892H19v7.4l-1.34,0,0-.96A2.215,2.215,0,0,1,15.819,31.361Zm7.2-.015h0a2.441,2.441,0,0,1-1.528-.753l-.125.618-1.37.02.008-9.922,1.667,0-.008,2.874a2.293,2.293,0,0,1,1.347-.555c.793,0,1.327.691,1.329,1.719l0,3.868a2.565,2.565,0,0,1-.563,1.816A1.04,1.04,0,0,1,23.02,31.346Zm-.648-6.778a.669.669,0,0,0-.729.583v4.34a.749.749,0,0,0,1.46,0v-4.34A.67.67,0,0,0,22.372,24.568ZM13,31.295H11.335V22.572l-1.666,0V21.3L15,21.307V22.6H13v8.7Zm6.7-15.609a.769.769,0,0,1-.741-.792V10.8a.741.741,0,1,1,1.478,0v4.094A.767.767,0,0,1,19.706,15.686Z" fill="#cb2027"/>
</svg>
