<svg xmlns="http://www.w3.org/2000/svg" width="18" height="18" viewBox="0 0 18 18">
  <g id="russia" transform="translate(0 -0.001)">
    <circle id="Ellipse_164" data-name="Ellipse 164" cx="9" cy="9" r="9" transform="translate(0.001 0.002)" fill="#fff"/>
    <path id="Path_2148" data-name="Path 2148" d="M319.763,157.873h-5.545a24.883,24.883,0,0,1,0,5.966h5.552a9.008,9.008,0,0,0-.012-5.966Z" transform="translate(-302.278 -151.873)" fill="#3757a6"/>
    <path id="Path_2149" data-name="Path 2149" d="M260.237,6.934h5.545l0-.008A9.006,9.006,0,0,0,258.105.972C259.483,1.727,259.885,4.12,260.237,6.934Z" transform="translate(-248.297 -0.934)" fill="#efefef"/>
    <path id="Path_2150" data-name="Path 2150" d="M258.113,320.866a9.006,9.006,0,0,0,7.681-5.972l.009-.026H260.25C259.9,317.7,259.5,320.107,258.113,320.866Z" transform="translate(-248.305 -302.902)" fill="#e73b36"/>
    <path id="Path_2151" data-name="Path 2151" d="M0,160.873a8.987,8.987,0,0,0,.5,2.965H12.408a24.885,24.885,0,0,0,0-5.966H.514A8.982,8.982,0,0,0,0,160.873Z" transform="translate(0 -151.872)" fill="#3757a6"/>
    <path id="Path_2152" data-name="Path 2152" d="M13.536,5.992l0,.008h11.89C25.07,3.186,24.2.793,22.827.038,22.561.014,22.291,0,22.019,0A9,9,0,0,0,13.536,5.992Z" transform="translate(-13.019 0)" fill="#efefef"/>
    <path id="Path_2153" data-name="Path 2153" d="M25.125,314.867H13.219l.009.026a9,9,0,0,0,8.489,6.009c.273,0,.542-.013.808-.037C23.908,320.106,24.776,317.7,25.125,314.867Z" transform="translate(-12.717 -302.901)" fill="#e73b36"/>
  </g>
</svg>
