<svg xmlns="http://www.w3.org/2000/svg" width="18" height="18" viewBox="0 0 18 18">
  <g id="arabi_flag" data-name="arabi flag" transform="translate(2235 -7041.904)">
    <circle id="Ellipse_168" data-name="Ellipse 168" cx="9" cy="9" r="9" transform="translate(-2235 7041.904)" fill="#259245"/>
    <g id="Group_1168" data-name="Group 1168" transform="translate(-2231.605 7047.844)">
      <path id="Path_2164" data-name="Path 2164" d="M102.335,167.37c.031.2.152.263.258.255a.259.259,0,0,0,.233-.243V166.7a.062.062,0,0,1,.125,0v.69a.25.25,0,0,0,.343.232l.062-.025c.006.577-.029,1.084-.03,1.093a.125.125,0,0,0,.116.133h.009a.125.125,0,0,0,.125-.116c0-.041.041-.6.03-1.211l.038-.015a.125.125,0,0,1,.1,0,.357.357,0,0,0,.412-.067l.023-.022a.373.373,0,0,0,.09-.384l-.106-.319a.125.125,0,0,0,.093-.231l-.25-.125a.125.125,0,0,0-.174.151l.2.6a.124.124,0,0,1-.03.128l-.022.022a.107.107,0,0,1-.124.02.374.374,0,0,0-.26-.026,4.309,4.309,0,0,0-.153-1.076.125.125,0,0,0-.237.079,4.3,4.3,0,0,1,.143,1.091l-.15.06v-.69a.312.312,0,0,0-.625,0v.6l-.127-.63a.125.125,0,1,0-.245.05Z" transform="translate(-102.166 -165.813)" fill="#f5f5f5"/>
      <path id="Path_2165" data-name="Path 2165" d="M109.285,162.969a.125.125,0,0,0,.125-.125v-.125a.125.125,0,0,0-.25,0v.125A.125.125,0,0,0,109.285,162.969Z" transform="translate(-108.875 -162.461)" fill="#f5f5f5"/>
      <path id="Path_2166" data-name="Path 2166" d="M144.082,162.844h.125a.125.125,0,1,0,0-.25h-.125a.125.125,0,1,0,0,.25Z" transform="translate(-142.423 -162.461)" fill="#f5f5f5"/>
      <path id="Path_2167" data-name="Path 2167" d="M106.364,214.808l-.625.375a.125.125,0,1,0,.129.214l.625-.375a.125.125,0,1,0-.129-.214Z" transform="translate(-105.519 -212.783)" fill="#f5f5f5"/>
      <path id="Path_2168" data-name="Path 2168" d="M118.038,168.061l0,0a.285.285,0,0,0,.058.117.245.245,0,0,0,.213.083.345.345,0,0,0,.26-.137l.026.016a.236.236,0,0,0,.22-.007.474.474,0,0,0,.224-.44.128.128,0,0,0-.13-.118.125.125,0,0,0-.12.13s0,.15-.088.2a.3.3,0,0,1-.039-.105.125.125,0,0,0-.248.021c0,.018,0,.178-.128.192a.305.305,0,0,1,0-.164.125.125,0,0,0-.192-.132l-.07.047c-.033-.725-.109-1.569-.11-1.58a.125.125,0,1,0-.249.023c0,.012.089.988.117,1.734l-.019.019a.322.322,0,0,0-.273-.215.456.456,0,0,0-.44.278.3.3,0,0,0,.1.373.416.416,0,0,0,.373.017,1.045,1.045,0,0,1-.2.385.524.524,0,0,1-.4.2.328.328,0,0,1-.243-.1.713.713,0,0,1-.132-.447.125.125,0,0,0-.118-.131.122.122,0,0,0-.132.118.958.958,0,0,0,.2.628.573.573,0,0,0,.418.186h.025a.761.761,0,0,0,.573-.291,1.293,1.293,0,0,0,.286-.64,1.416,1.416,0,0,1-.6,1.122.624.624,0,0,1-.626.046.536.536,0,0,1-.275-.528.125.125,0,1,0-.248-.031.785.785,0,0,0,.412.783.849.849,0,0,0,.378.09.925.925,0,0,0,.49-.148,1.661,1.661,0,0,0,.718-1.335C118.043,168.242,118.041,168.154,118.038,168.061Zm-.753.129c-.022-.015,0-.062,0-.071a.212.212,0,0,1,.174-.123h.01c.016,0,.058.005.077.1,0,.01,0,.02,0,.031C117.411,168.208,117.317,168.211,117.285,168.19Z" transform="translate(-115.509 -165.815)" fill="#f5f5f5"/>
      <path id="Path_2169" data-name="Path 2169" d="M101.7,243.151a.125.125,0,0,0-.171.044.26.26,0,0,1-.021.03l0-.01a.84.84,0,0,1,0-.424.125.125,0,0,0-.241-.064,1.076,1.076,0,0,0,0,.576c.057.153.145.191.209.2h.017a.328.328,0,0,0,.249-.178A.125.125,0,0,0,101.7,243.151Z" transform="translate(-101.226 -239.627)" fill="#f5f5f5"/>
      <path id="Path_2170" data-name="Path 2170" d="M175.255,163.719a.124.124,0,0,0,.077-.027l.63-.495a.121.121,0,0,0,.021-.024.313.313,0,1,0-.359-.028l-.446.35a.125.125,0,0,0,.077.223Zm.567-.875a.062.062,0,1,1-.062.062A.063.063,0,0,1,175.822,162.845Z" transform="translate(-172.476 -162.462)" fill="#f5f5f5"/>
      <path id="Path_2171" data-name="Path 2171" d="M185.334,190.439a.125.125,0,0,0-.158.079.382.382,0,0,0,.049.368.252.252,0,0,0,.187.071.549.549,0,0,0,.173-.032.125.125,0,1,0-.079-.237.433.433,0,0,1-.1.022.24.24,0,0,1,.01-.114A.125.125,0,0,0,185.334,190.439Z" transform="translate(-182.135 -189.3)" fill="#f5f5f5"/>
      <path id="Path_2172" data-name="Path 2172" d="M227.706,162.942a.125.125,0,0,0,.155-.085l.073-.25a.125.125,0,1,0-.24-.07l-.073.25A.125.125,0,0,0,227.706,162.942Z" transform="translate(-223.077 -162.32)" fill="#f5f5f5"/>
      <path id="Path_2173" data-name="Path 2173" d="M205.935,159.506a.125.125,0,1,0,.126-.216c-.025-.015-.022-.056-.021-.064a.1.1,0,0,1,.057-.083.125.125,0,1,0-.074-.239.343.343,0,0,0-.231.294A.308.308,0,0,0,205.935,159.506Z" transform="translate(-202.035 -158.898)" fill="#f5f5f5"/>
      <path id="Path_2174" data-name="Path 2174" d="M178.879,232.19a.125.125,0,0,0-.023.248.235.235,0,0,1,.023.127.125.125,0,1,0,.25,0C179.129,232.194,178.889,232.19,178.879,232.19Z" transform="translate(-175.97 -229.558)" fill="#f5f5f5"/>
      <path id="Path_2175" data-name="Path 2175" d="M234.677,208.187a.289.289,0,0,0,.047,0,.427.427,0,0,0,.3-.148.125.125,0,1,0-.177-.177c-.075.075-.115.076-.125.074s-.045-.035-.05-.043a.125.125,0,0,0-.223.113A.338.338,0,0,0,234.677,208.187Z" transform="translate(-229.648 -206.073)" fill="#f5f5f5"/>
      <path id="Path_2176" data-name="Path 2176" d="M293.831,190.906l0-.006a.125.125,0,0,0-.237.08.28.28,0,0,0,.2.195l.027,0a.306.306,0,0,0,.242-.167.125.125,0,0,0-.208-.139A.373.373,0,0,1,293.831,190.906Z" transform="translate(-286.678 -189.67)" fill="#f5f5f5"/>
      <path id="Path_2177" data-name="Path 2177" d="M203.006,169.315c0-.533-.023-1.033-.056-1.471a6.328,6.328,0,0,1,.439.89.125.125,0,0,0,.117.081.126.126,0,0,0,.044-.008.125.125,0,0,0,.073-.161,8.276,8.276,0,0,0-.723-1.369c-.068-.673-.145-1.1-.146-1.108a.125.125,0,0,0-.246.045c0,.005.04.225.087.6-.1-.142-.185-.271-.26-.377l.006,0a.125.125,0,1,0,.079-.237l-.375-.125a.124.124,0,0,0-.141.045.126.126,0,0,0-.018.038.273.273,0,0,0-.261-.063.213.213,0,0,0-.119.222,1.129,1.129,0,0,0,.086.354c.074.208.12.362.042.435a.137.137,0,0,1-.128.045c-.077-.02-.153-.122-.2-.275a.114.114,0,0,0-.01-.017,2.124,2.124,0,0,0-.038-.691.125.125,0,1,0-.245.049,1.189,1.189,0,0,1-.065.89.224.224,0,0,1-.187.085.072.072,0,0,1-.06-.028,1.2,1.2,0,0,1-.066-.7.125.125,0,0,0-.124-.142c-.215,0-.3.245-.368.46-.032.095-.09.271-.131.289-.076,0-.125-.222-.125-.375a.125.125,0,0,0-.125-.125h0a.125.125,0,0,0-.125.125c0,.288.1.625.375.625.206,0,.289-.225.359-.433a.783.783,0,0,0,.142.444.321.321,0,0,0,.249.114.475.475,0,0,0,.38-.176.583.583,0,0,0,.046-.069.466.466,0,0,0,.262.2.361.361,0,0,0,.088.011.4.4,0,0,0,.272-.116.371.371,0,0,0,.042-.05.337.337,0,0,0,.092.014.505.505,0,0,0,.259-.08.125.125,0,0,0-.134-.211.265.265,0,0,1-.141.037,1.289,1.289,0,0,0-.095-.411,1.733,1.733,0,0,1-.065-.209l.029.026a.125.125,0,0,0,.177,0,.12.12,0,0,0,.018-.027c.13.178.4.553.67.986.052.531.1,1.209.1,1.952a.125.125,0,0,0,.25,0Z" transform="translate(-196.099 -165.809)" fill="#f5f5f5"/>
      <path id="Path_2178" data-name="Path 2178" d="M293.711,166.576a.125.125,0,1,0,.25,0,1.274,1.274,0,0,0-.138-.431.125.125,0,1,0-.224.112A1.109,1.109,0,0,1,293.711,166.576Z" transform="translate(-286.679 -165.818)" fill="#f5f5f5"/>
      <path id="Path_2179" data-name="Path 2179" d="M262.952,249.852a.125.125,0,0,0-.168.055.361.361,0,0,1-.052.074.7.7,0,0,1,.033-.231.125.125,0,0,0-.208-.125l-.25.25a.125.125,0,0,0,.177.177l.006-.006a.258.258,0,0,0,.067.131.229.229,0,0,0,.162.072l.034,0a.407.407,0,0,0,.253-.226A.125.125,0,0,0,262.952,249.852Z" transform="translate(-256.488 -246.332)" fill="#f5f5f5"/>
      <path id="Path_2180" data-name="Path 2180" d="M168.962,205.231h-.881c.008-.031.016-.061.024-.089.351-.073.56-.186.621-.338a.279.279,0,0,0-.047-.28.31.31,0,0,0-.316-.135c-.178.036-.336.227-.449.534a1.436,1.436,0,0,0-.721.312,1.935,1.935,0,0,0-.259-.831.125.125,0,1,0-.208.139,1.8,1.8,0,0,1,.229.93.989.989,0,0,1-.75,1c-.14,0-.2-.167-.229-.308a1.435,1.435,0,0,0,.6-.662.994.994,0,0,0-.083-.677l-.009-.022.008.007a.125.125,0,1,0,.177-.177c-.073-.073-.215-.188-.344-.134a.213.213,0,0,0-.119.222.531.531,0,0,0,.058.2.755.755,0,0,1,.07.519,1.057,1.057,0,0,1-.409.451.123.123,0,0,0-.095-.046h0a.125.125,0,0,0-.125.125c0,.022,0,.047,0,.071a6.57,6.57,0,0,1-.8.44.125.125,0,0,0,.052.239.123.123,0,0,0,.052-.011,7.19,7.19,0,0,0,.746-.4.486.486,0,0,0,.452.411,1.061,1.061,0,0,0,.836-.611.723.723,0,0,0,.083.119,1.408,1.408,0,0,0,.955.367.125.125,0,0,0,.009-.25.268.268,0,0,1-.156-.076.214.214,0,0,1-.041-.164c.013-.154.509-.269.947-.276a.125.125,0,0,0,.116-.083l.125-.351a.125.125,0,0,0-.118-.167Zm-.548-.6h.01c.012,0,.031.006.056.04,0,.006.02.028.016.038-.014.035-.1.094-.28.147C168.294,204.7,168.372,204.643,168.414,204.634Zm-.755,1.642a.765.765,0,0,1-.346-.21.531.531,0,0,1-.111-.44.368.368,0,0,1,.026-.053c.176-.016.646.053.679.188a.42.42,0,0,0-.264.326A.527.527,0,0,0,167.659,206.277Z" transform="translate(-162.547 -202.717)" fill="#f5f5f5"/>
      <path id="Path_2181" data-name="Path 2181" d="M291.1,166.531l-.125-.375a.125.125,0,0,0-.243.052c.086.862.249,2.544.249,2.736,0,.173-.308.514-.806.763a.125.125,0,0,0,.112.224c.454-.227.944-.633.944-.986,0-.185-.128-1.513-.2-2.259A.125.125,0,0,0,291.1,166.531Z" transform="translate(-283.325 -165.813)" fill="#f5f5f5"/>
      <path id="Path_2182" data-name="Path 2182" d="M335.757,193.834a.125.125,0,0,0,.209-.119.63.63,0,0,1-.018-.243.127.127,0,0,0,.13-.107.125.125,0,0,0-.106-.141.226.226,0,0,0-.206.069.286.286,0,0,0-.063.134l-.145-.145a.125.125,0,0,0-.177.177Z" transform="translate(-326.939 -191.988)" fill="#f5f5f5"/>
      <path id="Path_2183" data-name="Path 2183" d="M340.649,213.287l-.469.336a.125.125,0,1,0,.146.2l.469-.336a.125.125,0,1,0-.146-.2Z" transform="translate(-331.551 -211.312)" fill="#f5f5f5"/>
      <path id="Path_2184" data-name="Path 2184" d="M352.769,225.711a.125.125,0,0,0,.011.166.347.347,0,0,1,.025.18.125.125,0,0,0,.12.129h0a.125.125,0,0,0,.125-.12c.009-.255-.074-.348-.111-.376A.125.125,0,0,0,352.769,225.711Z" transform="translate(-343.711 -223.265)" fill="#f5f5f5"/>
      <path id="Path_2185" data-name="Path 2185" d="M323.662,169.185a.125.125,0,0,0,.125-.125c0-.184-.009-.39-.025-.6a4.562,4.562,0,0,1,.293.544.125.125,0,0,0,.115.076.123.123,0,0,0,.049-.01.125.125,0,0,0,.066-.164,6.874,6.874,0,0,0-.572-.986c-.049-.459-.113-.908-.163-1.23a.121.121,0,0,0,.078-.019.071.071,0,1,1,.069-.077.454.454,0,0,1,.046.306.125.125,0,0,0,.1.148l.025,0a.125.125,0,0,0,.122-.1.708.708,0,0,0-.079-.491.125.125,0,0,0-.173-.038.124.124,0,0,0-.056.113.121.121,0,0,0-.014-.036l-.211-.328a.125.125,0,0,0-.228.089c0,.01.1.558.182,1.219-.1-.135-.192-.268-.284-.394-.015-.189-.03-.364-.043-.508l.02-.008a.125.125,0,0,0,.056-.168l-.125-.25a.125.125,0,0,0-.236.068c.015.149.03.314.046.488l-.215-.28a.125.125,0,0,0-.026-.207l-.25-.125a.125.125,0,0,0-.153.19c.007.008.314.394.682.892a10.046,10.046,0,0,1,.046,1.864c-.011.033-.03.072-.048.073-.076.01-.256-.158-.346-.339a.174.174,0,0,0-.167-.113c-.134.008-.187.156-.282.424a1.759,1.759,0,0,1-.248.529,1.419,1.419,0,0,1-.155-.492.124.124,0,0,0,.241-.042c0-.186-.13-1.605-.2-2.383a.125.125,0,0,0,.072-.155l-.125-.375a.125.125,0,0,0-.243.051c.085.891.244,2.613.249,2.851v-.006a.125.125,0,1,0-.247.035c.036.255.13.694.344.766a.208.208,0,0,0,.067.011.246.246,0,0,0,.176-.081,1.8,1.8,0,0,0,.309-.624c.018-.052.04-.113.061-.165.115.167.315.376.517.359a.307.307,0,0,0,.267-.243,7.039,7.039,0,0,0,0-1.56c.105.148.211.3.311.448.039.374.067.749.067,1.057A.125.125,0,0,0,323.662,169.185Z" transform="translate(-313.514 -165.819)" fill="#f5f5f5"/>
      <path id="Path_2186" data-name="Path 2186" d="M382.2,168.944c-.089-.659-.212-1.423-.29-1.892a.123.123,0,0,0,.1-.022.125.125,0,0,0,.024-.175l-.226-.3a.125.125,0,0,0-.222.1c0,.013.225,1.3.363,2.322a1.171,1.171,0,0,1-.206.938.553.553,0,0,1-.458.171.125.125,0,1,0-.016.249l.063,0a.788.788,0,0,0,.594-.252A1.4,1.4,0,0,0,382.2,168.944Z" transform="translate(-371.108 -166.236)" fill="#f5f5f5"/>
      <path id="Path_2187" data-name="Path 2187" d="M371.047,256.172a.127.127,0,0,0,.006.176.052.052,0,0,1,.015.026.058.058,0,0,1-.019.028.125.125,0,1,0,.177.177.283.283,0,0,0,.092-.213.3.3,0,0,0-.1-.2A.124.124,0,0,0,371.047,256.172Z" transform="translate(-361.326 -252.64)" fill="#f5f5f5"/>
    </g>
    <path id="Path_2188" data-name="Path 2188" d="M150.913,326.845h-.785v-.112a.112.112,0,1,0-.224,0v.112h-5.947a1.566,1.566,0,0,0,1.01.337H149.9v.224a.112.112,0,0,0,.112.112h.9a.337.337,0,1,0,0-.673Zm0,.449h-.785v-.112h.9l-.02-.06a.109.109,0,0,1,.02.06A.112.112,0,0,1,150.913,327.294Z" transform="translate(-2373.652 6727.128)" fill="#f5f5f5"/>
  </g>
</svg>
