<svg xmlns="http://www.w3.org/2000/svg" width="18" height="18" viewBox="0 0 18 18">
  <g id="china" transform="translate(12128 -10958)">
    <circle id="Ellipse_354" data-name="Ellipse 354" cx="9" cy="9" r="9" transform="translate(-12128 10958)" fill="#c03a2b"/>
    <g id="Group_5000" data-name="Group 5000" transform="translate(-12125 10961.363)">
      <path id="Path_7660" data-name="Path 7660" d="M38.257,62.293l.911,1.846,2.037.3-1.474,1.436.348,2.029-1.822-.958-1.822.958.348-2.029-1.474-1.436,2.037-.3Zm0,0" transform="translate(-35.309 -60.319)" fill="#f3d55b"/>
      <path id="Path_7661" data-name="Path 7661" d="M150.949,28.773l.718.243.608-.454-.01.759.62.438-.725.225-.225.725-.438-.62-.759.01.454-.608Zm0,0" transform="translate(-143.982 -28.563)" fill="#f3d55b"/>
      <path id="Path_7662" data-name="Path 7662" d="M150.949,184.73l.718.243.608-.454-.01.758.62.438-.725.225-.225.725-.438-.62-.759.01.454-.608Zm0,0" transform="translate(-143.982 -175.391)" fill="#f3d55b"/>
      <path id="Path_7663" data-name="Path 7663" d="M194.418,78.8l.718.243.608-.454-.01.758.62.438-.725.225-.225.724-.438-.619-.758.01.454-.608Zm0,0" transform="translate(-184.907 -75.662)" fill="#f3d55b"/>
      <path id="Path_7664" data-name="Path 7664" d="M194.418,141.952l.718.243.608-.454-.01.758.62.438-.725.225-.225.724-.438-.619-.758.01.454-.608Zm0,0" transform="translate(-184.907 -135.118)" fill="#f3d55b"/>
    </g>
  </g>
</svg>
